G04 #@! TF.GenerationSoftware,KiCad,Pcbnew,(5.1.2)-2*
G04 #@! TF.CreationDate,2019-10-15T01:23:37+08:00*
G04 #@! TF.ProjectId,BrainPower,42726169-6e50-46f7-9765-722e6b696361,rev?*
G04 #@! TF.SameCoordinates,Original*
G04 #@! TF.FileFunction,Copper,L2,Bot*
G04 #@! TF.FilePolarity,Positive*
%FSLAX46Y46*%
G04 Gerber Fmt 4.6, Leading zero omitted, Abs format (unit mm)*
G04 Created by KiCad (PCBNEW (5.1.2)-2) date 2019-10-15 01:23:37*
%MOMM*%
%LPD*%
G04 APERTURE LIST*
%ADD10O,2.000000X3.500000*%
%ADD11O,3.300000X2.000000*%
%ADD12R,4.000000X2.000000*%
%ADD13R,0.700000X4.200000*%
%ADD14R,0.700000X3.200000*%
%ADD15C,2.880000*%
%ADD16C,0.254000*%
G04 APERTURE END LIST*
D10*
X323160000Y131460000D03*
X332160000Y131460000D03*
D11*
X327660000Y130460000D03*
D12*
X327660000Y124460000D03*
D13*
X163650000Y103500000D03*
X153650000Y103500000D03*
X162650000Y103500000D03*
X159650000Y103500000D03*
X146650000Y103500000D03*
X148650000Y103500000D03*
X155650000Y103500000D03*
X152650000Y103500000D03*
X158650000Y103500000D03*
X161650000Y103500000D03*
X150650000Y103500000D03*
D14*
X145650000Y104000000D03*
D13*
X151650000Y103500000D03*
X154650000Y103500000D03*
X147650000Y103500000D03*
X149650000Y103500000D03*
X160650000Y103500000D03*
X164650000Y103500000D03*
D15*
X107250000Y109350000D03*
X107500000Y194750000D03*
X336220000Y206130000D03*
X336220000Y116600000D03*
D16*
X148650000Y105854000D02*
X148650000Y103500000D01*
X148650000Y105854000D02*
X165986000Y123190000D01*
X166097001Y123078999D02*
X318658999Y123078999D01*
X165986000Y123190000D02*
X166097001Y123078999D01*
X318658999Y123078999D02*
X326040000Y130460000D01*
X327660000Y130460000D02*
X326040000Y130460000D01*
G36*
X237023000Y210277000D02*
G01*
X100685000Y210277000D01*
X100685000Y210465000D01*
X237023000Y210465000D01*
X237023000Y210277000D01*
X237023000Y210277000D01*
G37*
X237023000Y210277000D02*
X100685000Y210277000D01*
X100685000Y210465000D01*
X237023000Y210465000D01*
X237023000Y210277000D01*
G36*
X112573000Y189827000D02*
G01*
X100685000Y189827000D01*
X100685000Y194954370D01*
X105425000Y194954370D01*
X105425000Y194545630D01*
X105504741Y194144745D01*
X105661159Y193767119D01*
X105888242Y193427265D01*
X106177265Y193138242D01*
X106517119Y192911159D01*
X106894745Y192754741D01*
X107295630Y192675000D01*
X107704370Y192675000D01*
X108105255Y192754741D01*
X108482881Y192911159D01*
X108822735Y193138242D01*
X109111758Y193427265D01*
X109338841Y193767119D01*
X109495259Y194144745D01*
X109575000Y194545630D01*
X109575000Y194954370D01*
X109495259Y195355255D01*
X109338841Y195732881D01*
X109111758Y196072735D01*
X108822735Y196361758D01*
X108482881Y196588841D01*
X108105255Y196745259D01*
X107704370Y196825000D01*
X107295630Y196825000D01*
X106894745Y196745259D01*
X106517119Y196588841D01*
X106177265Y196361758D01*
X105888242Y196072735D01*
X105661159Y195732881D01*
X105504741Y195355255D01*
X105425000Y194954370D01*
X100685000Y194954370D01*
X100685000Y210023000D01*
X112573000Y210023000D01*
X112573000Y189827000D01*
X112573000Y189827000D01*
G37*
X112573000Y189827000D02*
X100685000Y189827000D01*
X100685000Y194954370D01*
X105425000Y194954370D01*
X105425000Y194545630D01*
X105504741Y194144745D01*
X105661159Y193767119D01*
X105888242Y193427265D01*
X106177265Y193138242D01*
X106517119Y192911159D01*
X106894745Y192754741D01*
X107295630Y192675000D01*
X107704370Y192675000D01*
X108105255Y192754741D01*
X108482881Y192911159D01*
X108822735Y193138242D01*
X109111758Y193427265D01*
X109338841Y193767119D01*
X109495259Y194144745D01*
X109575000Y194545630D01*
X109575000Y194954370D01*
X109495259Y195355255D01*
X109338841Y195732881D01*
X109111758Y196072735D01*
X108822735Y196361758D01*
X108482881Y196588841D01*
X108105255Y196745259D01*
X107704370Y196825000D01*
X107295630Y196825000D01*
X106894745Y196745259D01*
X106517119Y196588841D01*
X106177265Y196361758D01*
X105888242Y196072735D01*
X105661159Y195732881D01*
X105504741Y195355255D01*
X105425000Y194954370D01*
X100685000Y194954370D01*
X100685000Y210023000D01*
X112573000Y210023000D01*
X112573000Y189827000D01*
G36*
X104953000Y113877000D02*
G01*
X100685000Y113877000D01*
X100685000Y189573000D01*
X104953000Y189573000D01*
X104953000Y113877000D01*
X104953000Y113877000D01*
G37*
X104953000Y113877000D02*
X100685000Y113877000D01*
X100685000Y189573000D01*
X104953000Y189573000D01*
X104953000Y113877000D01*
M02*
