G04 #@! TF.GenerationSoftware,KiCad,Pcbnew,(5.1.2)-2*
G04 #@! TF.CreationDate,2019-10-16T00:46:16+08:00*
G04 #@! TF.ProjectId,BrainPower,42726169-6e50-46f7-9765-722e6b696361,rev?*
G04 #@! TF.SameCoordinates,Original*
G04 #@! TF.FileFunction,Legend,Top*
G04 #@! TF.FilePolarity,Positive*
%FSLAX46Y46*%
G04 Gerber Fmt 4.6, Leading zero omitted, Abs format (unit mm)*
G04 Created by KiCad (PCBNEW (5.1.2)-2) date 2019-10-16 00:46:16*
%MOMM*%
%LPD*%
G04 APERTURE LIST*
%ADD10C,0.250000*%
%ADD11C,0.300000*%
%ADD12C,0.120000*%
%ADD13C,0.010000*%
%ADD14C,0.150000*%
G04 APERTURE END LIST*
D10*
X80147142Y-137759642D02*
X80242380Y-137473928D01*
X80337619Y-137378690D01*
X80528095Y-137283452D01*
X80813809Y-137283452D01*
X81004285Y-137378690D01*
X81099523Y-137473928D01*
X81194761Y-137664404D01*
X81194761Y-138426309D01*
X79194761Y-138426309D01*
X79194761Y-137759642D01*
X79290000Y-137569166D01*
X79385238Y-137473928D01*
X79575714Y-137378690D01*
X79766190Y-137378690D01*
X79956666Y-137473928D01*
X80051904Y-137569166D01*
X80147142Y-137759642D01*
X80147142Y-138426309D01*
X81194761Y-136426309D02*
X79861428Y-136426309D01*
X80242380Y-136426309D02*
X80051904Y-136331071D01*
X79956666Y-136235833D01*
X79861428Y-136045357D01*
X79861428Y-135854880D01*
X81194761Y-134331071D02*
X80147142Y-134331071D01*
X79956666Y-134426309D01*
X79861428Y-134616785D01*
X79861428Y-134997738D01*
X79956666Y-135188214D01*
X81099523Y-134331071D02*
X81194761Y-134521547D01*
X81194761Y-134997738D01*
X81099523Y-135188214D01*
X80909047Y-135283452D01*
X80718571Y-135283452D01*
X80528095Y-135188214D01*
X80432857Y-134997738D01*
X80432857Y-134521547D01*
X80337619Y-134331071D01*
X81194761Y-133378690D02*
X79861428Y-133378690D01*
X79194761Y-133378690D02*
X79290000Y-133473928D01*
X79385238Y-133378690D01*
X79290000Y-133283452D01*
X79194761Y-133378690D01*
X79385238Y-133378690D01*
X79861428Y-132426309D02*
X81194761Y-132426309D01*
X80051904Y-132426309D02*
X79956666Y-132331071D01*
X79861428Y-132140595D01*
X79861428Y-131854880D01*
X79956666Y-131664404D01*
X80147142Y-131569166D01*
X81194761Y-131569166D01*
X81194761Y-130616785D02*
X79194761Y-130616785D01*
X79194761Y-129854880D01*
X79290000Y-129664404D01*
X79385238Y-129569166D01*
X79575714Y-129473928D01*
X79861428Y-129473928D01*
X80051904Y-129569166D01*
X80147142Y-129664404D01*
X80242380Y-129854880D01*
X80242380Y-130616785D01*
X81194761Y-128331071D02*
X81099523Y-128521547D01*
X81004285Y-128616785D01*
X80813809Y-128712023D01*
X80242380Y-128712023D01*
X80051904Y-128616785D01*
X79956666Y-128521547D01*
X79861428Y-128331071D01*
X79861428Y-128045357D01*
X79956666Y-127854880D01*
X80051904Y-127759642D01*
X80242380Y-127664404D01*
X80813809Y-127664404D01*
X81004285Y-127759642D01*
X81099523Y-127854880D01*
X81194761Y-128045357D01*
X81194761Y-128331071D01*
X79861428Y-126997738D02*
X81194761Y-126616785D01*
X80242380Y-126235833D01*
X81194761Y-125854880D01*
X79861428Y-125473928D01*
X81099523Y-123950119D02*
X81194761Y-124140595D01*
X81194761Y-124521547D01*
X81099523Y-124712023D01*
X80909047Y-124807261D01*
X80147142Y-124807261D01*
X79956666Y-124712023D01*
X79861428Y-124521547D01*
X79861428Y-124140595D01*
X79956666Y-123950119D01*
X80147142Y-123854880D01*
X80337619Y-123854880D01*
X80528095Y-124807261D01*
X81194761Y-122997738D02*
X79861428Y-122997738D01*
X80242380Y-122997738D02*
X80051904Y-122902500D01*
X79956666Y-122807261D01*
X79861428Y-122616785D01*
X79861428Y-122426309D01*
X79194761Y-120521547D02*
X81194761Y-119854880D01*
X79194761Y-119188214D01*
X81099523Y-117759642D02*
X81194761Y-117950119D01*
X81194761Y-118331071D01*
X81099523Y-118521547D01*
X80909047Y-118616785D01*
X80147142Y-118616785D01*
X79956666Y-118521547D01*
X79861428Y-118331071D01*
X79861428Y-117950119D01*
X79956666Y-117759642D01*
X80147142Y-117664404D01*
X80337619Y-117664404D01*
X80528095Y-118616785D01*
X81194761Y-116807261D02*
X79861428Y-116807261D01*
X80242380Y-116807261D02*
X80051904Y-116712023D01*
X79956666Y-116616785D01*
X79861428Y-116426309D01*
X79861428Y-116235833D01*
X81099523Y-115664404D02*
X81194761Y-115473928D01*
X81194761Y-115092976D01*
X81099523Y-114902500D01*
X80909047Y-114807261D01*
X80813809Y-114807261D01*
X80623333Y-114902500D01*
X80528095Y-115092976D01*
X80528095Y-115378690D01*
X80432857Y-115569166D01*
X80242380Y-115664404D01*
X80147142Y-115664404D01*
X79956666Y-115569166D01*
X79861428Y-115378690D01*
X79861428Y-115092976D01*
X79956666Y-114902500D01*
X81194761Y-113950119D02*
X79861428Y-113950119D01*
X79194761Y-113950119D02*
X79290000Y-114045357D01*
X79385238Y-113950119D01*
X79290000Y-113854880D01*
X79194761Y-113950119D01*
X79385238Y-113950119D01*
X81194761Y-112712023D02*
X81099523Y-112902500D01*
X81004285Y-112997738D01*
X80813809Y-113092976D01*
X80242380Y-113092976D01*
X80051904Y-112997738D01*
X79956666Y-112902500D01*
X79861428Y-112712023D01*
X79861428Y-112426309D01*
X79956666Y-112235833D01*
X80051904Y-112140595D01*
X80242380Y-112045357D01*
X80813809Y-112045357D01*
X81004285Y-112140595D01*
X81099523Y-112235833D01*
X81194761Y-112426309D01*
X81194761Y-112712023D01*
X79861428Y-111188214D02*
X81194761Y-111188214D01*
X80051904Y-111188214D02*
X79956666Y-111092976D01*
X79861428Y-110902500D01*
X79861428Y-110616785D01*
X79956666Y-110426309D01*
X80147142Y-110331071D01*
X81194761Y-110331071D01*
X79194761Y-107473928D02*
X79194761Y-107283452D01*
X79290000Y-107092976D01*
X79385238Y-106997738D01*
X79575714Y-106902500D01*
X79956666Y-106807261D01*
X80432857Y-106807261D01*
X80813809Y-106902500D01*
X81004285Y-106997738D01*
X81099523Y-107092976D01*
X81194761Y-107283452D01*
X81194761Y-107473928D01*
X81099523Y-107664404D01*
X81004285Y-107759642D01*
X80813809Y-107854880D01*
X80432857Y-107950119D01*
X79956666Y-107950119D01*
X79575714Y-107854880D01*
X79385238Y-107759642D01*
X79290000Y-107664404D01*
X79194761Y-107473928D01*
X81004285Y-105950119D02*
X81099523Y-105854880D01*
X81194761Y-105950119D01*
X81099523Y-106045357D01*
X81004285Y-105950119D01*
X81194761Y-105950119D01*
X81194761Y-103950119D02*
X81194761Y-105092976D01*
X81194761Y-104521547D02*
X79194761Y-104521547D01*
X79480476Y-104712023D01*
X79670952Y-104902500D01*
X79766190Y-105092976D01*
X84444761Y-138426309D02*
X82444761Y-138426309D01*
X84444761Y-137569166D02*
X83397142Y-137569166D01*
X83206666Y-137664404D01*
X83111428Y-137854880D01*
X83111428Y-138140595D01*
X83206666Y-138331071D01*
X83301904Y-138426309D01*
X83111428Y-136902500D02*
X83111428Y-136140595D01*
X82444761Y-136616785D02*
X84159047Y-136616785D01*
X84349523Y-136521547D01*
X84444761Y-136331071D01*
X84444761Y-136140595D01*
X83111428Y-135759642D02*
X83111428Y-134997738D01*
X82444761Y-135473928D02*
X84159047Y-135473928D01*
X84349523Y-135378690D01*
X84444761Y-135188214D01*
X84444761Y-134997738D01*
X83111428Y-134331071D02*
X85111428Y-134331071D01*
X83206666Y-134331071D02*
X83111428Y-134140595D01*
X83111428Y-133759642D01*
X83206666Y-133569166D01*
X83301904Y-133473928D01*
X83492380Y-133378690D01*
X84063809Y-133378690D01*
X84254285Y-133473928D01*
X84349523Y-133569166D01*
X84444761Y-133759642D01*
X84444761Y-134140595D01*
X84349523Y-134331071D01*
X84349523Y-132616785D02*
X84444761Y-132426309D01*
X84444761Y-132045357D01*
X84349523Y-131854880D01*
X84159047Y-131759642D01*
X84063809Y-131759642D01*
X83873333Y-131854880D01*
X83778095Y-132045357D01*
X83778095Y-132331071D01*
X83682857Y-132521547D01*
X83492380Y-132616785D01*
X83397142Y-132616785D01*
X83206666Y-132521547D01*
X83111428Y-132331071D01*
X83111428Y-132045357D01*
X83206666Y-131854880D01*
X84254285Y-130902500D02*
X84349523Y-130807261D01*
X84444761Y-130902500D01*
X84349523Y-130997738D01*
X84254285Y-130902500D01*
X84444761Y-130902500D01*
X83206666Y-130902500D02*
X83301904Y-130807261D01*
X83397142Y-130902500D01*
X83301904Y-130997738D01*
X83206666Y-130902500D01*
X83397142Y-130902500D01*
X82349523Y-128521547D02*
X84920952Y-130235833D01*
X82349523Y-126426309D02*
X84920952Y-128140595D01*
X83111428Y-124902500D02*
X84730476Y-124902500D01*
X84920952Y-124997738D01*
X85016190Y-125092976D01*
X85111428Y-125283452D01*
X85111428Y-125569166D01*
X85016190Y-125759642D01*
X84349523Y-124902500D02*
X84444761Y-125092976D01*
X84444761Y-125473928D01*
X84349523Y-125664404D01*
X84254285Y-125759642D01*
X84063809Y-125854880D01*
X83492380Y-125854880D01*
X83301904Y-125759642D01*
X83206666Y-125664404D01*
X83111428Y-125473928D01*
X83111428Y-125092976D01*
X83206666Y-124902500D01*
X84444761Y-123950119D02*
X83111428Y-123950119D01*
X82444761Y-123950119D02*
X82540000Y-124045357D01*
X82635238Y-123950119D01*
X82540000Y-123854880D01*
X82444761Y-123950119D01*
X82635238Y-123950119D01*
X83111428Y-123283452D02*
X83111428Y-122521547D01*
X82444761Y-122997738D02*
X84159047Y-122997738D01*
X84349523Y-122902500D01*
X84444761Y-122712023D01*
X84444761Y-122521547D01*
X84444761Y-121854880D02*
X82444761Y-121854880D01*
X84444761Y-120997738D02*
X83397142Y-120997738D01*
X83206666Y-121092976D01*
X83111428Y-121283452D01*
X83111428Y-121569166D01*
X83206666Y-121759642D01*
X83301904Y-121854880D01*
X83111428Y-119188214D02*
X84444761Y-119188214D01*
X83111428Y-120045357D02*
X84159047Y-120045357D01*
X84349523Y-119950119D01*
X84444761Y-119759642D01*
X84444761Y-119473928D01*
X84349523Y-119283452D01*
X84254285Y-119188214D01*
X84444761Y-118235833D02*
X82444761Y-118235833D01*
X83206666Y-118235833D02*
X83111428Y-118045357D01*
X83111428Y-117664404D01*
X83206666Y-117473928D01*
X83301904Y-117378690D01*
X83492380Y-117283452D01*
X84063809Y-117283452D01*
X84254285Y-117378690D01*
X84349523Y-117473928D01*
X84444761Y-117664404D01*
X84444761Y-118045357D01*
X84349523Y-118235833D01*
X84254285Y-116426309D02*
X84349523Y-116331071D01*
X84444761Y-116426309D01*
X84349523Y-116521547D01*
X84254285Y-116426309D01*
X84444761Y-116426309D01*
X84349523Y-114616785D02*
X84444761Y-114807261D01*
X84444761Y-115188214D01*
X84349523Y-115378690D01*
X84254285Y-115473928D01*
X84063809Y-115569166D01*
X83492380Y-115569166D01*
X83301904Y-115473928D01*
X83206666Y-115378690D01*
X83111428Y-115188214D01*
X83111428Y-114807261D01*
X83206666Y-114616785D01*
X84444761Y-113473928D02*
X84349523Y-113664404D01*
X84254285Y-113759642D01*
X84063809Y-113854880D01*
X83492380Y-113854880D01*
X83301904Y-113759642D01*
X83206666Y-113664404D01*
X83111428Y-113473928D01*
X83111428Y-113188214D01*
X83206666Y-112997738D01*
X83301904Y-112902500D01*
X83492380Y-112807261D01*
X84063809Y-112807261D01*
X84254285Y-112902500D01*
X84349523Y-112997738D01*
X84444761Y-113188214D01*
X84444761Y-113473928D01*
X84444761Y-111950119D02*
X83111428Y-111950119D01*
X83301904Y-111950119D02*
X83206666Y-111854880D01*
X83111428Y-111664404D01*
X83111428Y-111378690D01*
X83206666Y-111188214D01*
X83397142Y-111092976D01*
X84444761Y-111092976D01*
X83397142Y-111092976D02*
X83206666Y-110997738D01*
X83111428Y-110807261D01*
X83111428Y-110521547D01*
X83206666Y-110331071D01*
X83397142Y-110235833D01*
X84444761Y-110235833D01*
X82349523Y-107854880D02*
X84920952Y-109569166D01*
X82444761Y-106616785D02*
X83873333Y-106616785D01*
X84159047Y-106712023D01*
X84349523Y-106902500D01*
X84444761Y-107188214D01*
X84444761Y-107378690D01*
X84444761Y-104807261D02*
X83397142Y-104807261D01*
X83206666Y-104902500D01*
X83111428Y-105092976D01*
X83111428Y-105473928D01*
X83206666Y-105664404D01*
X84349523Y-104807261D02*
X84444761Y-104997738D01*
X84444761Y-105473928D01*
X84349523Y-105664404D01*
X84159047Y-105759642D01*
X83968571Y-105759642D01*
X83778095Y-105664404D01*
X83682857Y-105473928D01*
X83682857Y-104997738D01*
X83587619Y-104807261D01*
X84444761Y-103854880D02*
X83111428Y-103854880D01*
X83301904Y-103854880D02*
X83206666Y-103759642D01*
X83111428Y-103569166D01*
X83111428Y-103283452D01*
X83206666Y-103092976D01*
X83397142Y-102997738D01*
X84444761Y-102997738D01*
X83397142Y-102997738D02*
X83206666Y-102902500D01*
X83111428Y-102712023D01*
X83111428Y-102426309D01*
X83206666Y-102235833D01*
X83397142Y-102140595D01*
X84444761Y-102140595D01*
X84349523Y-100426309D02*
X84444761Y-100616785D01*
X84444761Y-100997738D01*
X84349523Y-101188214D01*
X84159047Y-101283452D01*
X83397142Y-101283452D01*
X83206666Y-101188214D01*
X83111428Y-100997738D01*
X83111428Y-100616785D01*
X83206666Y-100426309D01*
X83397142Y-100331071D01*
X83587619Y-100331071D01*
X83778095Y-101283452D01*
X84349523Y-99569166D02*
X84444761Y-99378690D01*
X84444761Y-98997738D01*
X84349523Y-98807261D01*
X84159047Y-98712023D01*
X84063809Y-98712023D01*
X83873333Y-98807261D01*
X83778095Y-98997738D01*
X83778095Y-99283452D01*
X83682857Y-99473928D01*
X83492380Y-99569166D01*
X83397142Y-99569166D01*
X83206666Y-99473928D01*
X83111428Y-99283452D01*
X83111428Y-98997738D01*
X83206666Y-98807261D01*
X84444761Y-97854880D02*
X83111428Y-97854880D01*
X82444761Y-97854880D02*
X82540000Y-97950119D01*
X82635238Y-97854880D01*
X82540000Y-97759642D01*
X82444761Y-97854880D01*
X82635238Y-97854880D01*
X83111428Y-97188214D02*
X83111428Y-96426309D01*
X82444761Y-96902500D02*
X84159047Y-96902500D01*
X84349523Y-96807261D01*
X84444761Y-96616785D01*
X84444761Y-96426309D01*
X84349523Y-95854880D02*
X84444761Y-95664404D01*
X84444761Y-95283452D01*
X84349523Y-95092976D01*
X84159047Y-94997738D01*
X84063809Y-94997738D01*
X83873333Y-95092976D01*
X83778095Y-95283452D01*
X83778095Y-95569166D01*
X83682857Y-95759642D01*
X83492380Y-95854880D01*
X83397142Y-95854880D01*
X83206666Y-95759642D01*
X83111428Y-95569166D01*
X83111428Y-95283452D01*
X83206666Y-95092976D01*
X82349523Y-92712023D02*
X84920952Y-94426309D01*
X83397142Y-91378690D02*
X83492380Y-91092976D01*
X83587619Y-90997738D01*
X83778095Y-90902500D01*
X84063809Y-90902500D01*
X84254285Y-90997738D01*
X84349523Y-91092976D01*
X84444761Y-91283452D01*
X84444761Y-92045357D01*
X82444761Y-92045357D01*
X82444761Y-91378690D01*
X82540000Y-91188214D01*
X82635238Y-91092976D01*
X82825714Y-90997738D01*
X83016190Y-90997738D01*
X83206666Y-91092976D01*
X83301904Y-91188214D01*
X83397142Y-91378690D01*
X83397142Y-92045357D01*
X84444761Y-90045357D02*
X83111428Y-90045357D01*
X83492380Y-90045357D02*
X83301904Y-89950119D01*
X83206666Y-89854880D01*
X83111428Y-89664404D01*
X83111428Y-89473928D01*
X84444761Y-87950119D02*
X83397142Y-87950119D01*
X83206666Y-88045357D01*
X83111428Y-88235833D01*
X83111428Y-88616785D01*
X83206666Y-88807261D01*
X84349523Y-87950119D02*
X84444761Y-88140595D01*
X84444761Y-88616785D01*
X84349523Y-88807261D01*
X84159047Y-88902500D01*
X83968571Y-88902500D01*
X83778095Y-88807261D01*
X83682857Y-88616785D01*
X83682857Y-88140595D01*
X83587619Y-87950119D01*
X84444761Y-86997738D02*
X83111428Y-86997738D01*
X82444761Y-86997738D02*
X82540000Y-87092976D01*
X82635238Y-86997738D01*
X82540000Y-86902500D01*
X82444761Y-86997738D01*
X82635238Y-86997738D01*
X83111428Y-86045357D02*
X84444761Y-86045357D01*
X83301904Y-86045357D02*
X83206666Y-85950119D01*
X83111428Y-85759642D01*
X83111428Y-85473928D01*
X83206666Y-85283452D01*
X83397142Y-85188214D01*
X84444761Y-85188214D01*
X84444761Y-84235833D02*
X82444761Y-84235833D01*
X82444761Y-83473928D01*
X82540000Y-83283452D01*
X82635238Y-83188214D01*
X82825714Y-83092976D01*
X83111428Y-83092976D01*
X83301904Y-83188214D01*
X83397142Y-83283452D01*
X83492380Y-83473928D01*
X83492380Y-84235833D01*
X84444761Y-81950119D02*
X84349523Y-82140595D01*
X84254285Y-82235833D01*
X84063809Y-82331071D01*
X83492380Y-82331071D01*
X83301904Y-82235833D01*
X83206666Y-82140595D01*
X83111428Y-81950119D01*
X83111428Y-81664404D01*
X83206666Y-81473928D01*
X83301904Y-81378690D01*
X83492380Y-81283452D01*
X84063809Y-81283452D01*
X84254285Y-81378690D01*
X84349523Y-81473928D01*
X84444761Y-81664404D01*
X84444761Y-81950119D01*
X83111428Y-80616785D02*
X84444761Y-80235833D01*
X83492380Y-79854880D01*
X84444761Y-79473928D01*
X83111428Y-79092976D01*
X84349523Y-77569166D02*
X84444761Y-77759642D01*
X84444761Y-78140595D01*
X84349523Y-78331071D01*
X84159047Y-78426309D01*
X83397142Y-78426309D01*
X83206666Y-78331071D01*
X83111428Y-78140595D01*
X83111428Y-77759642D01*
X83206666Y-77569166D01*
X83397142Y-77473928D01*
X83587619Y-77473928D01*
X83778095Y-78426309D01*
X84444761Y-76616785D02*
X83111428Y-76616785D01*
X83492380Y-76616785D02*
X83301904Y-76521547D01*
X83206666Y-76426309D01*
X83111428Y-76235833D01*
X83111428Y-76045357D01*
D11*
X211741190Y-116857857D02*
X213265000Y-116857857D01*
X217265000Y-116857857D02*
X218788809Y-116857857D01*
X218026904Y-117619761D02*
X218026904Y-116095952D01*
X210217380Y-120919761D02*
X210217380Y-118919761D01*
X210693571Y-118919761D01*
X210979285Y-119015000D01*
X211169761Y-119205476D01*
X211265000Y-119395952D01*
X211360238Y-119776904D01*
X211360238Y-120062619D01*
X211265000Y-120443571D01*
X211169761Y-120634047D01*
X210979285Y-120824523D01*
X210693571Y-120919761D01*
X210217380Y-120919761D01*
X213360238Y-120729285D02*
X213265000Y-120824523D01*
X212979285Y-120919761D01*
X212788809Y-120919761D01*
X212503095Y-120824523D01*
X212312619Y-120634047D01*
X212217380Y-120443571D01*
X212122142Y-120062619D01*
X212122142Y-119776904D01*
X212217380Y-119395952D01*
X212312619Y-119205476D01*
X212503095Y-119015000D01*
X212788809Y-118919761D01*
X212979285Y-118919761D01*
X213265000Y-119015000D01*
X213360238Y-119110238D01*
X216788809Y-120919761D02*
X215645952Y-120919761D01*
X216217380Y-120919761D02*
X216217380Y-118919761D01*
X216026904Y-119205476D01*
X215836428Y-119395952D01*
X215645952Y-119491190D01*
X217550714Y-119110238D02*
X217645952Y-119015000D01*
X217836428Y-118919761D01*
X218312619Y-118919761D01*
X218503095Y-119015000D01*
X218598333Y-119110238D01*
X218693571Y-119300714D01*
X218693571Y-119491190D01*
X218598333Y-119776904D01*
X217455476Y-120919761D01*
X218693571Y-120919761D01*
X219265000Y-118919761D02*
X219931666Y-120919761D01*
X220598333Y-118919761D01*
X210836428Y-124029285D02*
X210741190Y-124124523D01*
X210455476Y-124219761D01*
X210265000Y-124219761D01*
X209979285Y-124124523D01*
X209788809Y-123934047D01*
X209693571Y-123743571D01*
X209598333Y-123362619D01*
X209598333Y-123076904D01*
X209693571Y-122695952D01*
X209788809Y-122505476D01*
X209979285Y-122315000D01*
X210265000Y-122219761D01*
X210455476Y-122219761D01*
X210741190Y-122315000D01*
X210836428Y-122410238D01*
X212455476Y-124124523D02*
X212265000Y-124219761D01*
X211884047Y-124219761D01*
X211693571Y-124124523D01*
X211598333Y-123934047D01*
X211598333Y-123172142D01*
X211693571Y-122981666D01*
X211884047Y-122886428D01*
X212265000Y-122886428D01*
X212455476Y-122981666D01*
X212550714Y-123172142D01*
X212550714Y-123362619D01*
X211598333Y-123553095D01*
X213407857Y-122886428D02*
X213407857Y-124219761D01*
X213407857Y-123076904D02*
X213503095Y-122981666D01*
X213693571Y-122886428D01*
X213979285Y-122886428D01*
X214169761Y-122981666D01*
X214265000Y-123172142D01*
X214265000Y-124219761D01*
X214931666Y-122886428D02*
X215693571Y-122886428D01*
X215217380Y-122219761D02*
X215217380Y-123934047D01*
X215312619Y-124124523D01*
X215503095Y-124219761D01*
X215693571Y-124219761D01*
X217122142Y-124124523D02*
X216931666Y-124219761D01*
X216550714Y-124219761D01*
X216360238Y-124124523D01*
X216265000Y-123934047D01*
X216265000Y-123172142D01*
X216360238Y-122981666D01*
X216550714Y-122886428D01*
X216931666Y-122886428D01*
X217122142Y-122981666D01*
X217217380Y-123172142D01*
X217217380Y-123362619D01*
X216265000Y-123553095D01*
X218074523Y-124219761D02*
X218074523Y-122886428D01*
X218074523Y-123267380D02*
X218169761Y-123076904D01*
X218265000Y-122981666D01*
X218455476Y-122886428D01*
X218645952Y-122886428D01*
X219312619Y-123457857D02*
X220836428Y-123457857D01*
X220074523Y-124219761D02*
X220074523Y-122695952D01*
D12*
X209685000Y-106275000D02*
X211685000Y-106275000D01*
X209685000Y-107525000D02*
X209685000Y-106275000D01*
X219305000Y-113275000D02*
X218555000Y-113275000D01*
X219305000Y-108975000D02*
X219305000Y-113275000D01*
X218555000Y-108975000D02*
X219305000Y-108975000D01*
X218555000Y-108625000D02*
X218555000Y-108975000D01*
X219055000Y-108625000D02*
X218555000Y-108625000D01*
X219305000Y-107625000D02*
X219055000Y-108625000D01*
X216305000Y-107625000D02*
X219305000Y-107625000D01*
X216555000Y-108625000D02*
X216305000Y-107625000D01*
X217055000Y-108625000D02*
X216555000Y-108625000D01*
X217055000Y-108975000D02*
X217055000Y-108625000D01*
X216305000Y-108975000D02*
X217055000Y-108975000D01*
X216305000Y-113275000D02*
X216305000Y-108975000D01*
X217055000Y-113275000D02*
X216305000Y-113275000D01*
X214225000Y-113275000D02*
X213475000Y-113275000D01*
X214225000Y-108975000D02*
X214225000Y-113275000D01*
X213475000Y-108975000D02*
X214225000Y-108975000D01*
X213475000Y-108625000D02*
X213475000Y-108975000D01*
X213975000Y-108625000D02*
X213475000Y-108625000D01*
X214225000Y-107625000D02*
X213975000Y-108625000D01*
X211225000Y-107625000D02*
X214225000Y-107625000D01*
X211475000Y-108625000D02*
X211225000Y-107625000D01*
X211975000Y-108625000D02*
X211475000Y-108625000D01*
X211975000Y-108975000D02*
X211975000Y-108625000D01*
X211225000Y-108975000D02*
X211975000Y-108975000D01*
X211225000Y-113275000D02*
X211225000Y-108975000D01*
X211975000Y-113275000D02*
X211225000Y-113275000D01*
X220455000Y-106665000D02*
X210075000Y-106665000D01*
X220455000Y-114135000D02*
X220455000Y-106665000D01*
X210075000Y-114135000D02*
X220455000Y-114135000D01*
X210075000Y-106665000D02*
X210075000Y-114135000D01*
X218554647Y-113274845D02*
G75*
G03X217055000Y-113275000I-749647J-1700155D01*
G01*
X213474647Y-113274845D02*
G75*
G03X211975000Y-113275000I-749647J-1700155D01*
G01*
X219865000Y-140600000D02*
X217265000Y-140600000D01*
X219865000Y-125900000D02*
X219865000Y-140600000D01*
X210665000Y-140600000D02*
X210665000Y-138700000D01*
X213365000Y-140600000D02*
X210665000Y-140600000D01*
X210665000Y-125900000D02*
X219865000Y-125900000D01*
X210665000Y-134700000D02*
X210665000Y-125900000D01*
X220065000Y-139750000D02*
X220065000Y-140800000D01*
X219015000Y-140800000D02*
X220065000Y-140800000D01*
X202783800Y-59555400D02*
X202783800Y-63055400D01*
X96783800Y-59555400D02*
X202783800Y-59555400D01*
X96783800Y-59555400D02*
X96783800Y-63055400D01*
X96783800Y-63055400D02*
X96783800Y-143055400D01*
X202783800Y-63055400D02*
X96783800Y-63055400D01*
X202783800Y-143055400D02*
X202783800Y-63055400D01*
X96783800Y-143055400D02*
X202783800Y-143055400D01*
D13*
G36*
X154869818Y-48151927D02*
G01*
X155110109Y-48158139D01*
X155277584Y-48168914D01*
X155378124Y-48184600D01*
X155414133Y-48200733D01*
X155427894Y-48238042D01*
X155439233Y-48323623D01*
X155448319Y-48463040D01*
X155455318Y-48661855D01*
X155460396Y-48925631D01*
X155463720Y-49259930D01*
X155465457Y-49670316D01*
X155465793Y-49925817D01*
X155466653Y-51600100D01*
X156166792Y-49949672D01*
X156317775Y-49595736D01*
X156460785Y-49264259D01*
X156592022Y-48963777D01*
X156707686Y-48702825D01*
X156803975Y-48489941D01*
X156877088Y-48333660D01*
X156923226Y-48242519D01*
X156935236Y-48223768D01*
X156964645Y-48198568D01*
X157008443Y-48179954D01*
X157078040Y-48167165D01*
X157184845Y-48159440D01*
X157340264Y-48156017D01*
X157555708Y-48156135D01*
X157842583Y-48159033D01*
X157895267Y-48159696D01*
X158195706Y-48164243D01*
X158421838Y-48169759D01*
X158584026Y-48177139D01*
X158692630Y-48187279D01*
X158758011Y-48201074D01*
X158790529Y-48219419D01*
X158799827Y-48237878D01*
X158785124Y-48287867D01*
X158738208Y-48407630D01*
X158662200Y-48589999D01*
X158560219Y-48827808D01*
X158435385Y-49113889D01*
X158290819Y-49441074D01*
X158129640Y-49802195D01*
X157954968Y-50190086D01*
X157832398Y-50460378D01*
X157648837Y-50864696D01*
X157474986Y-51248868D01*
X157314177Y-51605446D01*
X157169744Y-51926981D01*
X157045020Y-52206023D01*
X156943337Y-52435124D01*
X156868029Y-52606833D01*
X156822429Y-52713703D01*
X156810411Y-52744517D01*
X156804787Y-52776288D01*
X156806372Y-52822166D01*
X156816950Y-52887711D01*
X156838307Y-52978482D01*
X156872227Y-53100039D01*
X156920496Y-53257942D01*
X156984899Y-53457749D01*
X157067222Y-53705021D01*
X157169248Y-54005317D01*
X157292764Y-54364197D01*
X157439554Y-54787220D01*
X157611404Y-55279946D01*
X157771360Y-55737286D01*
X157936252Y-56209952D01*
X158092290Y-56660378D01*
X158237278Y-57082032D01*
X158369022Y-57468377D01*
X158485324Y-57812880D01*
X158583991Y-58109005D01*
X158662827Y-58350217D01*
X158719636Y-58529983D01*
X158752223Y-58641768D01*
X158759346Y-58678036D01*
X158748680Y-58703590D01*
X158720675Y-58723019D01*
X158664615Y-58737362D01*
X158569788Y-58747656D01*
X158425480Y-58754938D01*
X158220976Y-58760248D01*
X157945564Y-58764622D01*
X157852934Y-58765837D01*
X157553693Y-58769101D01*
X157327745Y-58769701D01*
X157163737Y-58766884D01*
X157050319Y-58759896D01*
X156976136Y-58747984D01*
X156929838Y-58730393D01*
X156900072Y-58706371D01*
X156896479Y-58702337D01*
X156870041Y-58646973D01*
X156821187Y-58519672D01*
X156752946Y-58329253D01*
X156668344Y-58084533D01*
X156570408Y-57794328D01*
X156462167Y-57467457D01*
X156346647Y-57112737D01*
X156285925Y-56924013D01*
X156169463Y-56562059D01*
X156060512Y-56226336D01*
X155961838Y-55925160D01*
X155876210Y-55666845D01*
X155806394Y-55459708D01*
X155755158Y-55312064D01*
X155725268Y-55232228D01*
X155718933Y-55220234D01*
X155693890Y-55256195D01*
X155647396Y-55351411D01*
X155588911Y-55486314D01*
X155581026Y-55505488D01*
X155464286Y-55791100D01*
X155464609Y-57232550D01*
X155463839Y-57652999D01*
X155461189Y-57994654D01*
X155456461Y-58263371D01*
X155449456Y-58465005D01*
X155439977Y-58605413D01*
X155427826Y-58690451D01*
X155414133Y-58724800D01*
X155361466Y-58744958D01*
X155245532Y-58759747D01*
X155060554Y-58769517D01*
X154800753Y-58774619D01*
X154575933Y-58775600D01*
X154261386Y-58773503D01*
X154025630Y-58766977D01*
X153862888Y-58755674D01*
X153767381Y-58739241D01*
X153737733Y-58724800D01*
X153729788Y-58697721D01*
X153722642Y-58630890D01*
X153716259Y-58520847D01*
X153710608Y-58364136D01*
X153705654Y-58157299D01*
X153701364Y-57896878D01*
X153697705Y-57579415D01*
X153694643Y-57201452D01*
X153692144Y-56759533D01*
X153690176Y-56250198D01*
X153688704Y-55669990D01*
X153687695Y-55015452D01*
X153687116Y-54283126D01*
X153686933Y-53478929D01*
X153687139Y-52821759D01*
X153687739Y-52187568D01*
X153688709Y-51581560D01*
X153690022Y-51008940D01*
X153691653Y-50474912D01*
X153693578Y-49984681D01*
X153695770Y-49543452D01*
X153698204Y-49156428D01*
X153700854Y-48828814D01*
X153703696Y-48565815D01*
X153706704Y-48372635D01*
X153709852Y-48254479D01*
X153712629Y-48216896D01*
X153731414Y-48193370D01*
X153774512Y-48175979D01*
X153852985Y-48163839D01*
X153977900Y-48156065D01*
X154160320Y-48151775D01*
X154411310Y-48150083D01*
X154550829Y-48149933D01*
X154869818Y-48151927D01*
X154869818Y-48151927D01*
G37*
X154869818Y-48151927D02*
X155110109Y-48158139D01*
X155277584Y-48168914D01*
X155378124Y-48184600D01*
X155414133Y-48200733D01*
X155427894Y-48238042D01*
X155439233Y-48323623D01*
X155448319Y-48463040D01*
X155455318Y-48661855D01*
X155460396Y-48925631D01*
X155463720Y-49259930D01*
X155465457Y-49670316D01*
X155465793Y-49925817D01*
X155466653Y-51600100D01*
X156166792Y-49949672D01*
X156317775Y-49595736D01*
X156460785Y-49264259D01*
X156592022Y-48963777D01*
X156707686Y-48702825D01*
X156803975Y-48489941D01*
X156877088Y-48333660D01*
X156923226Y-48242519D01*
X156935236Y-48223768D01*
X156964645Y-48198568D01*
X157008443Y-48179954D01*
X157078040Y-48167165D01*
X157184845Y-48159440D01*
X157340264Y-48156017D01*
X157555708Y-48156135D01*
X157842583Y-48159033D01*
X157895267Y-48159696D01*
X158195706Y-48164243D01*
X158421838Y-48169759D01*
X158584026Y-48177139D01*
X158692630Y-48187279D01*
X158758011Y-48201074D01*
X158790529Y-48219419D01*
X158799827Y-48237878D01*
X158785124Y-48287867D01*
X158738208Y-48407630D01*
X158662200Y-48589999D01*
X158560219Y-48827808D01*
X158435385Y-49113889D01*
X158290819Y-49441074D01*
X158129640Y-49802195D01*
X157954968Y-50190086D01*
X157832398Y-50460378D01*
X157648837Y-50864696D01*
X157474986Y-51248868D01*
X157314177Y-51605446D01*
X157169744Y-51926981D01*
X157045020Y-52206023D01*
X156943337Y-52435124D01*
X156868029Y-52606833D01*
X156822429Y-52713703D01*
X156810411Y-52744517D01*
X156804787Y-52776288D01*
X156806372Y-52822166D01*
X156816950Y-52887711D01*
X156838307Y-52978482D01*
X156872227Y-53100039D01*
X156920496Y-53257942D01*
X156984899Y-53457749D01*
X157067222Y-53705021D01*
X157169248Y-54005317D01*
X157292764Y-54364197D01*
X157439554Y-54787220D01*
X157611404Y-55279946D01*
X157771360Y-55737286D01*
X157936252Y-56209952D01*
X158092290Y-56660378D01*
X158237278Y-57082032D01*
X158369022Y-57468377D01*
X158485324Y-57812880D01*
X158583991Y-58109005D01*
X158662827Y-58350217D01*
X158719636Y-58529983D01*
X158752223Y-58641768D01*
X158759346Y-58678036D01*
X158748680Y-58703590D01*
X158720675Y-58723019D01*
X158664615Y-58737362D01*
X158569788Y-58747656D01*
X158425480Y-58754938D01*
X158220976Y-58760248D01*
X157945564Y-58764622D01*
X157852934Y-58765837D01*
X157553693Y-58769101D01*
X157327745Y-58769701D01*
X157163737Y-58766884D01*
X157050319Y-58759896D01*
X156976136Y-58747984D01*
X156929838Y-58730393D01*
X156900072Y-58706371D01*
X156896479Y-58702337D01*
X156870041Y-58646973D01*
X156821187Y-58519672D01*
X156752946Y-58329253D01*
X156668344Y-58084533D01*
X156570408Y-57794328D01*
X156462167Y-57467457D01*
X156346647Y-57112737D01*
X156285925Y-56924013D01*
X156169463Y-56562059D01*
X156060512Y-56226336D01*
X155961838Y-55925160D01*
X155876210Y-55666845D01*
X155806394Y-55459708D01*
X155755158Y-55312064D01*
X155725268Y-55232228D01*
X155718933Y-55220234D01*
X155693890Y-55256195D01*
X155647396Y-55351411D01*
X155588911Y-55486314D01*
X155581026Y-55505488D01*
X155464286Y-55791100D01*
X155464609Y-57232550D01*
X155463839Y-57652999D01*
X155461189Y-57994654D01*
X155456461Y-58263371D01*
X155449456Y-58465005D01*
X155439977Y-58605413D01*
X155427826Y-58690451D01*
X155414133Y-58724800D01*
X155361466Y-58744958D01*
X155245532Y-58759747D01*
X155060554Y-58769517D01*
X154800753Y-58774619D01*
X154575933Y-58775600D01*
X154261386Y-58773503D01*
X154025630Y-58766977D01*
X153862888Y-58755674D01*
X153767381Y-58739241D01*
X153737733Y-58724800D01*
X153729788Y-58697721D01*
X153722642Y-58630890D01*
X153716259Y-58520847D01*
X153710608Y-58364136D01*
X153705654Y-58157299D01*
X153701364Y-57896878D01*
X153697705Y-57579415D01*
X153694643Y-57201452D01*
X153692144Y-56759533D01*
X153690176Y-56250198D01*
X153688704Y-55669990D01*
X153687695Y-55015452D01*
X153687116Y-54283126D01*
X153686933Y-53478929D01*
X153687139Y-52821759D01*
X153687739Y-52187568D01*
X153688709Y-51581560D01*
X153690022Y-51008940D01*
X153691653Y-50474912D01*
X153693578Y-49984681D01*
X153695770Y-49543452D01*
X153698204Y-49156428D01*
X153700854Y-48828814D01*
X153703696Y-48565815D01*
X153706704Y-48372635D01*
X153709852Y-48254479D01*
X153712629Y-48216896D01*
X153731414Y-48193370D01*
X153774512Y-48175979D01*
X153852985Y-48163839D01*
X153977900Y-48156065D01*
X154160320Y-48151775D01*
X154411310Y-48150083D01*
X154550829Y-48149933D01*
X154869818Y-48151927D01*
G36*
X146364243Y-48148735D02*
G01*
X146583465Y-48154570D01*
X146770993Y-48164549D01*
X146910217Y-48178671D01*
X146984529Y-48196936D01*
X146989800Y-48200733D01*
X146997733Y-48227794D01*
X147004870Y-48294595D01*
X147011245Y-48404588D01*
X147016891Y-48561227D01*
X147021842Y-48767964D01*
X147026131Y-49028252D01*
X147029790Y-49345543D01*
X147032855Y-49723290D01*
X147035357Y-50164946D01*
X147037330Y-50673965D01*
X147038807Y-51253797D01*
X147039822Y-51907897D01*
X147040409Y-52639716D01*
X147040600Y-53452708D01*
X147040600Y-53462767D01*
X147040413Y-54276734D01*
X147039832Y-55009488D01*
X147038822Y-55664482D01*
X147037350Y-56245168D01*
X147035383Y-56754999D01*
X147032887Y-57197427D01*
X147029830Y-57575906D01*
X147026177Y-57893888D01*
X147021896Y-58154826D01*
X147016954Y-58362173D01*
X147011316Y-58519381D01*
X147004949Y-58629903D01*
X146997821Y-58697191D01*
X146989898Y-58724700D01*
X146989800Y-58724800D01*
X146937133Y-58744958D01*
X146821199Y-58759747D01*
X146636220Y-58769517D01*
X146376419Y-58774619D01*
X146151600Y-58775600D01*
X145837053Y-58773503D01*
X145601297Y-58766977D01*
X145438555Y-58755674D01*
X145343048Y-58739241D01*
X145313400Y-58724800D01*
X145305512Y-58675321D01*
X145298230Y-58547444D01*
X145291554Y-58347436D01*
X145285485Y-58081563D01*
X145280022Y-57756091D01*
X145275165Y-57377288D01*
X145270915Y-56951420D01*
X145267271Y-56484754D01*
X145264233Y-55983556D01*
X145261802Y-55454092D01*
X145259976Y-54902629D01*
X145258758Y-54335435D01*
X145258145Y-53758775D01*
X145258139Y-53178915D01*
X145258738Y-52602124D01*
X145259945Y-52034666D01*
X145261757Y-51482809D01*
X145264176Y-50952819D01*
X145267201Y-50450963D01*
X145270832Y-49983508D01*
X145275070Y-49556720D01*
X145279914Y-49176865D01*
X145285364Y-48850210D01*
X145291421Y-48583022D01*
X145298084Y-48381567D01*
X145305353Y-48252112D01*
X145313228Y-48200924D01*
X145313400Y-48200733D01*
X145374011Y-48181709D01*
X145502578Y-48166827D01*
X145682494Y-48156089D01*
X145897149Y-48149495D01*
X146129935Y-48147043D01*
X146364243Y-48148735D01*
X146364243Y-48148735D01*
G37*
X146364243Y-48148735D02*
X146583465Y-48154570D01*
X146770993Y-48164549D01*
X146910217Y-48178671D01*
X146984529Y-48196936D01*
X146989800Y-48200733D01*
X146997733Y-48227794D01*
X147004870Y-48294595D01*
X147011245Y-48404588D01*
X147016891Y-48561227D01*
X147021842Y-48767964D01*
X147026131Y-49028252D01*
X147029790Y-49345543D01*
X147032855Y-49723290D01*
X147035357Y-50164946D01*
X147037330Y-50673965D01*
X147038807Y-51253797D01*
X147039822Y-51907897D01*
X147040409Y-52639716D01*
X147040600Y-53452708D01*
X147040600Y-53462767D01*
X147040413Y-54276734D01*
X147039832Y-55009488D01*
X147038822Y-55664482D01*
X147037350Y-56245168D01*
X147035383Y-56754999D01*
X147032887Y-57197427D01*
X147029830Y-57575906D01*
X147026177Y-57893888D01*
X147021896Y-58154826D01*
X147016954Y-58362173D01*
X147011316Y-58519381D01*
X147004949Y-58629903D01*
X146997821Y-58697191D01*
X146989898Y-58724700D01*
X146989800Y-58724800D01*
X146937133Y-58744958D01*
X146821199Y-58759747D01*
X146636220Y-58769517D01*
X146376419Y-58774619D01*
X146151600Y-58775600D01*
X145837053Y-58773503D01*
X145601297Y-58766977D01*
X145438555Y-58755674D01*
X145343048Y-58739241D01*
X145313400Y-58724800D01*
X145305512Y-58675321D01*
X145298230Y-58547444D01*
X145291554Y-58347436D01*
X145285485Y-58081563D01*
X145280022Y-57756091D01*
X145275165Y-57377288D01*
X145270915Y-56951420D01*
X145267271Y-56484754D01*
X145264233Y-55983556D01*
X145261802Y-55454092D01*
X145259976Y-54902629D01*
X145258758Y-54335435D01*
X145258145Y-53758775D01*
X145258139Y-53178915D01*
X145258738Y-52602124D01*
X145259945Y-52034666D01*
X145261757Y-51482809D01*
X145264176Y-50952819D01*
X145267201Y-50450963D01*
X145270832Y-49983508D01*
X145275070Y-49556720D01*
X145279914Y-49176865D01*
X145285364Y-48850210D01*
X145291421Y-48583022D01*
X145298084Y-48381567D01*
X145305353Y-48252112D01*
X145313228Y-48200924D01*
X145313400Y-48200733D01*
X145374011Y-48181709D01*
X145502578Y-48166827D01*
X145682494Y-48156089D01*
X145897149Y-48149495D01*
X146129935Y-48147043D01*
X146364243Y-48148735D01*
G36*
X140226336Y-48148464D02*
G01*
X140445280Y-48155338D01*
X140632814Y-48166512D01*
X140772472Y-48181928D01*
X140847790Y-48201529D01*
X140854252Y-48206588D01*
X140868108Y-48259994D01*
X140880060Y-48385928D01*
X140890180Y-48586583D01*
X140898544Y-48864154D01*
X140905226Y-49220833D01*
X140910299Y-49658816D01*
X140912352Y-49923276D01*
X140923433Y-51583309D01*
X141617473Y-49940705D01*
X141767423Y-49587606D01*
X141909257Y-49257038D01*
X142039200Y-48957557D01*
X142153472Y-48697717D01*
X142248298Y-48486074D01*
X142319899Y-48331183D01*
X142364498Y-48241599D01*
X142375451Y-48224017D01*
X142404285Y-48199275D01*
X142449746Y-48180682D01*
X142523042Y-48167381D01*
X142635375Y-48158514D01*
X142797953Y-48153223D01*
X143021979Y-48150649D01*
X143318658Y-48149936D01*
X143342994Y-48149934D01*
X144246600Y-48149934D01*
X144246600Y-48245940D01*
X144229455Y-48301165D01*
X144180097Y-48426198D01*
X144101637Y-48613904D01*
X143997186Y-48857146D01*
X143869858Y-49148786D01*
X143722763Y-49481690D01*
X143559015Y-49848720D01*
X143381724Y-50242740D01*
X143226710Y-50584740D01*
X143010407Y-51060954D01*
X142826987Y-51466330D01*
X142673935Y-51806944D01*
X142548738Y-52088871D01*
X142448882Y-52318187D01*
X142371856Y-52500969D01*
X142315144Y-52643290D01*
X142276234Y-52751227D01*
X142252613Y-52830855D01*
X142241766Y-52888251D01*
X142241182Y-52929489D01*
X142246327Y-52954651D01*
X142266752Y-53015347D01*
X142312825Y-53149074D01*
X142382152Y-53348977D01*
X142472342Y-53608197D01*
X142581004Y-53919877D01*
X142705746Y-54277161D01*
X142844176Y-54673190D01*
X142993901Y-55101108D01*
X143152532Y-55554058D01*
X143247652Y-55825469D01*
X143409292Y-56288425D01*
X143562029Y-56729490D01*
X143703609Y-57141930D01*
X143831781Y-57519008D01*
X143944292Y-57853990D01*
X144038887Y-58140138D01*
X144113316Y-58370718D01*
X144165324Y-58538994D01*
X144192659Y-58638229D01*
X144196284Y-58661803D01*
X144189536Y-58692797D01*
X144172061Y-58716140D01*
X144132962Y-58733106D01*
X144061340Y-58744968D01*
X143946301Y-58752999D01*
X143776947Y-58758471D01*
X143542380Y-58762659D01*
X143305539Y-58765873D01*
X143008746Y-58769162D01*
X142784990Y-58769714D01*
X142622663Y-58766744D01*
X142510161Y-58759469D01*
X142435874Y-58747103D01*
X142388197Y-58728862D01*
X142355522Y-58703962D01*
X142353039Y-58701488D01*
X142324384Y-58645917D01*
X142273405Y-58518406D01*
X142203188Y-58327779D01*
X142116818Y-58082861D01*
X142017383Y-57792475D01*
X141907966Y-57465445D01*
X141791655Y-57110596D01*
X141730696Y-56921818D01*
X141613903Y-56561228D01*
X141504195Y-56228147D01*
X141404376Y-55930682D01*
X141317254Y-55676943D01*
X141245633Y-55475037D01*
X141192320Y-55333071D01*
X141160121Y-55259153D01*
X141152325Y-55250537D01*
X141121838Y-55303950D01*
X141071563Y-55412824D01*
X141012335Y-55553685D01*
X141011812Y-55554982D01*
X140902267Y-55826864D01*
X140902267Y-57250432D01*
X140901386Y-57668348D01*
X140898609Y-58007480D01*
X140893733Y-58273690D01*
X140886557Y-58472846D01*
X140876879Y-58610809D01*
X140864496Y-58693447D01*
X140851466Y-58724800D01*
X140798800Y-58744958D01*
X140682865Y-58759747D01*
X140497887Y-58769517D01*
X140238086Y-58774619D01*
X140013266Y-58775600D01*
X139698720Y-58773503D01*
X139462964Y-58766977D01*
X139300221Y-58755674D01*
X139204715Y-58739241D01*
X139175067Y-58724800D01*
X139167178Y-58675321D01*
X139159897Y-58547444D01*
X139153221Y-58347436D01*
X139147152Y-58081563D01*
X139141689Y-57756091D01*
X139136832Y-57377288D01*
X139132582Y-56951420D01*
X139128938Y-56484754D01*
X139125900Y-55983556D01*
X139123469Y-55454092D01*
X139121644Y-54902629D01*
X139120425Y-54335435D01*
X139119813Y-53758775D01*
X139119806Y-53178915D01*
X139120406Y-52602124D01*
X139121612Y-52034666D01*
X139123425Y-51482809D01*
X139125843Y-50952819D01*
X139128868Y-50450963D01*
X139132499Y-49983508D01*
X139136737Y-49556720D01*
X139141581Y-49176865D01*
X139147031Y-48850210D01*
X139153087Y-48583022D01*
X139159750Y-48381567D01*
X139167019Y-48252112D01*
X139174895Y-48200924D01*
X139175067Y-48200733D01*
X139236716Y-48180602D01*
X139365743Y-48165116D01*
X139545684Y-48154216D01*
X139760073Y-48147846D01*
X139992445Y-48145948D01*
X140226336Y-48148464D01*
X140226336Y-48148464D01*
G37*
X140226336Y-48148464D02*
X140445280Y-48155338D01*
X140632814Y-48166512D01*
X140772472Y-48181928D01*
X140847790Y-48201529D01*
X140854252Y-48206588D01*
X140868108Y-48259994D01*
X140880060Y-48385928D01*
X140890180Y-48586583D01*
X140898544Y-48864154D01*
X140905226Y-49220833D01*
X140910299Y-49658816D01*
X140912352Y-49923276D01*
X140923433Y-51583309D01*
X141617473Y-49940705D01*
X141767423Y-49587606D01*
X141909257Y-49257038D01*
X142039200Y-48957557D01*
X142153472Y-48697717D01*
X142248298Y-48486074D01*
X142319899Y-48331183D01*
X142364498Y-48241599D01*
X142375451Y-48224017D01*
X142404285Y-48199275D01*
X142449746Y-48180682D01*
X142523042Y-48167381D01*
X142635375Y-48158514D01*
X142797953Y-48153223D01*
X143021979Y-48150649D01*
X143318658Y-48149936D01*
X143342994Y-48149934D01*
X144246600Y-48149934D01*
X144246600Y-48245940D01*
X144229455Y-48301165D01*
X144180097Y-48426198D01*
X144101637Y-48613904D01*
X143997186Y-48857146D01*
X143869858Y-49148786D01*
X143722763Y-49481690D01*
X143559015Y-49848720D01*
X143381724Y-50242740D01*
X143226710Y-50584740D01*
X143010407Y-51060954D01*
X142826987Y-51466330D01*
X142673935Y-51806944D01*
X142548738Y-52088871D01*
X142448882Y-52318187D01*
X142371856Y-52500969D01*
X142315144Y-52643290D01*
X142276234Y-52751227D01*
X142252613Y-52830855D01*
X142241766Y-52888251D01*
X142241182Y-52929489D01*
X142246327Y-52954651D01*
X142266752Y-53015347D01*
X142312825Y-53149074D01*
X142382152Y-53348977D01*
X142472342Y-53608197D01*
X142581004Y-53919877D01*
X142705746Y-54277161D01*
X142844176Y-54673190D01*
X142993901Y-55101108D01*
X143152532Y-55554058D01*
X143247652Y-55825469D01*
X143409292Y-56288425D01*
X143562029Y-56729490D01*
X143703609Y-57141930D01*
X143831781Y-57519008D01*
X143944292Y-57853990D01*
X144038887Y-58140138D01*
X144113316Y-58370718D01*
X144165324Y-58538994D01*
X144192659Y-58638229D01*
X144196284Y-58661803D01*
X144189536Y-58692797D01*
X144172061Y-58716140D01*
X144132962Y-58733106D01*
X144061340Y-58744968D01*
X143946301Y-58752999D01*
X143776947Y-58758471D01*
X143542380Y-58762659D01*
X143305539Y-58765873D01*
X143008746Y-58769162D01*
X142784990Y-58769714D01*
X142622663Y-58766744D01*
X142510161Y-58759469D01*
X142435874Y-58747103D01*
X142388197Y-58728862D01*
X142355522Y-58703962D01*
X142353039Y-58701488D01*
X142324384Y-58645917D01*
X142273405Y-58518406D01*
X142203188Y-58327779D01*
X142116818Y-58082861D01*
X142017383Y-57792475D01*
X141907966Y-57465445D01*
X141791655Y-57110596D01*
X141730696Y-56921818D01*
X141613903Y-56561228D01*
X141504195Y-56228147D01*
X141404376Y-55930682D01*
X141317254Y-55676943D01*
X141245633Y-55475037D01*
X141192320Y-55333071D01*
X141160121Y-55259153D01*
X141152325Y-55250537D01*
X141121838Y-55303950D01*
X141071563Y-55412824D01*
X141012335Y-55553685D01*
X141011812Y-55554982D01*
X140902267Y-55826864D01*
X140902267Y-57250432D01*
X140901386Y-57668348D01*
X140898609Y-58007480D01*
X140893733Y-58273690D01*
X140886557Y-58472846D01*
X140876879Y-58610809D01*
X140864496Y-58693447D01*
X140851466Y-58724800D01*
X140798800Y-58744958D01*
X140682865Y-58759747D01*
X140497887Y-58769517D01*
X140238086Y-58774619D01*
X140013266Y-58775600D01*
X139698720Y-58773503D01*
X139462964Y-58766977D01*
X139300221Y-58755674D01*
X139204715Y-58739241D01*
X139175067Y-58724800D01*
X139167178Y-58675321D01*
X139159897Y-58547444D01*
X139153221Y-58347436D01*
X139147152Y-58081563D01*
X139141689Y-57756091D01*
X139136832Y-57377288D01*
X139132582Y-56951420D01*
X139128938Y-56484754D01*
X139125900Y-55983556D01*
X139123469Y-55454092D01*
X139121644Y-54902629D01*
X139120425Y-54335435D01*
X139119813Y-53758775D01*
X139119806Y-53178915D01*
X139120406Y-52602124D01*
X139121612Y-52034666D01*
X139123425Y-51482809D01*
X139125843Y-50952819D01*
X139128868Y-50450963D01*
X139132499Y-49983508D01*
X139136737Y-49556720D01*
X139141581Y-49176865D01*
X139147031Y-48850210D01*
X139153087Y-48583022D01*
X139159750Y-48381567D01*
X139167019Y-48252112D01*
X139174895Y-48200924D01*
X139175067Y-48200733D01*
X139236716Y-48180602D01*
X139365743Y-48165116D01*
X139545684Y-48154216D01*
X139760073Y-48147846D01*
X139992445Y-48145948D01*
X140226336Y-48148464D01*
G36*
X150907506Y-48034121D02*
G01*
X151110462Y-48054188D01*
X151184413Y-48067802D01*
X151524881Y-48187267D01*
X151847866Y-48378476D01*
X152137541Y-48628522D01*
X152378076Y-48924499D01*
X152505179Y-49144767D01*
X152649767Y-49441100D01*
X152663232Y-50380152D01*
X152676698Y-51319205D01*
X152578565Y-51380833D01*
X152505941Y-51406960D01*
X152365035Y-51441390D01*
X152171449Y-51480909D01*
X151940780Y-51522299D01*
X151723458Y-51557118D01*
X151446450Y-51597999D01*
X151241901Y-51625174D01*
X151098854Y-51639441D01*
X151006353Y-51641595D01*
X150953441Y-51632434D01*
X150930356Y-51614771D01*
X150919162Y-51556353D01*
X150909312Y-51427266D01*
X150901386Y-51241502D01*
X150895963Y-51013055D01*
X150893625Y-50755920D01*
X150893581Y-50727393D01*
X150892817Y-50440387D01*
X150890248Y-50225437D01*
X150884690Y-50069935D01*
X150874959Y-49961272D01*
X150859874Y-49886840D01*
X150838250Y-49834030D01*
X150808905Y-49790235D01*
X150805194Y-49785476D01*
X150740588Y-49718942D01*
X150662734Y-49685479D01*
X150541193Y-49674458D01*
X150485770Y-49673933D01*
X150334764Y-49681785D01*
X150234765Y-49712100D01*
X150153011Y-49775023D01*
X150150176Y-49777843D01*
X150046267Y-49881752D01*
X150046267Y-57043782D01*
X150150176Y-57147691D01*
X150231885Y-57211895D01*
X150330731Y-57243148D01*
X150479475Y-57251593D01*
X150485770Y-57251600D01*
X150628614Y-57245692D01*
X150717635Y-57220883D01*
X150783273Y-57166542D01*
X150805194Y-57140058D01*
X150831351Y-57103153D01*
X150851733Y-57060010D01*
X150867065Y-57000290D01*
X150878074Y-56913657D01*
X150885485Y-56789773D01*
X150890023Y-56618301D01*
X150892414Y-56388903D01*
X150893383Y-56091243D01*
X150893581Y-55880641D01*
X150895158Y-55574100D01*
X150899276Y-55294010D01*
X150905552Y-55051998D01*
X150913600Y-54859692D01*
X150923037Y-54728720D01*
X150933479Y-54670710D01*
X150933548Y-54670598D01*
X150956836Y-54649305D01*
X151001877Y-54637326D01*
X151080356Y-54635160D01*
X151203963Y-54643301D01*
X151384383Y-54662245D01*
X151633303Y-54692490D01*
X151726425Y-54704266D01*
X152010429Y-54743357D01*
X152249851Y-54782261D01*
X152433276Y-54818833D01*
X152549290Y-54850930D01*
X152577733Y-54864152D01*
X152675483Y-54928200D01*
X152649767Y-57484434D01*
X152505179Y-57780767D01*
X152306969Y-58100545D01*
X152048886Y-58383144D01*
X151746760Y-58615657D01*
X151416419Y-58785178D01*
X151184413Y-58857731D01*
X151025139Y-58880869D01*
X150807184Y-58894382D01*
X150555037Y-58898638D01*
X150293187Y-58894005D01*
X150046121Y-58880850D01*
X149838329Y-58859542D01*
X149712029Y-58835607D01*
X149353385Y-58698105D01*
X149029124Y-58493198D01*
X148749917Y-58231954D01*
X148526437Y-57925439D01*
X148369355Y-57584720D01*
X148315202Y-57387100D01*
X148305752Y-57304667D01*
X148297413Y-57151972D01*
X148290165Y-56927353D01*
X148283989Y-56629152D01*
X148278864Y-56255708D01*
X148274770Y-55805363D01*
X148271689Y-55276455D01*
X148269599Y-54667326D01*
X148268481Y-53976315D01*
X148268267Y-53462767D01*
X148268739Y-52715549D01*
X148270171Y-52051333D01*
X148272580Y-51468458D01*
X148275989Y-50965266D01*
X148280415Y-50540097D01*
X148285880Y-50191290D01*
X148292402Y-49917186D01*
X148300002Y-49716125D01*
X148308700Y-49586448D01*
X148315202Y-49538434D01*
X148431919Y-49180885D01*
X148620868Y-48853509D01*
X148871972Y-48566636D01*
X149175154Y-48330595D01*
X149520337Y-48155718D01*
X149730247Y-48087827D01*
X149900977Y-48057736D01*
X150129984Y-48036964D01*
X150391351Y-48025866D01*
X150659164Y-48024799D01*
X150907506Y-48034121D01*
X150907506Y-48034121D01*
G37*
X150907506Y-48034121D02*
X151110462Y-48054188D01*
X151184413Y-48067802D01*
X151524881Y-48187267D01*
X151847866Y-48378476D01*
X152137541Y-48628522D01*
X152378076Y-48924499D01*
X152505179Y-49144767D01*
X152649767Y-49441100D01*
X152663232Y-50380152D01*
X152676698Y-51319205D01*
X152578565Y-51380833D01*
X152505941Y-51406960D01*
X152365035Y-51441390D01*
X152171449Y-51480909D01*
X151940780Y-51522299D01*
X151723458Y-51557118D01*
X151446450Y-51597999D01*
X151241901Y-51625174D01*
X151098854Y-51639441D01*
X151006353Y-51641595D01*
X150953441Y-51632434D01*
X150930356Y-51614771D01*
X150919162Y-51556353D01*
X150909312Y-51427266D01*
X150901386Y-51241502D01*
X150895963Y-51013055D01*
X150893625Y-50755920D01*
X150893581Y-50727393D01*
X150892817Y-50440387D01*
X150890248Y-50225437D01*
X150884690Y-50069935D01*
X150874959Y-49961272D01*
X150859874Y-49886840D01*
X150838250Y-49834030D01*
X150808905Y-49790235D01*
X150805194Y-49785476D01*
X150740588Y-49718942D01*
X150662734Y-49685479D01*
X150541193Y-49674458D01*
X150485770Y-49673933D01*
X150334764Y-49681785D01*
X150234765Y-49712100D01*
X150153011Y-49775023D01*
X150150176Y-49777843D01*
X150046267Y-49881752D01*
X150046267Y-57043782D01*
X150150176Y-57147691D01*
X150231885Y-57211895D01*
X150330731Y-57243148D01*
X150479475Y-57251593D01*
X150485770Y-57251600D01*
X150628614Y-57245692D01*
X150717635Y-57220883D01*
X150783273Y-57166542D01*
X150805194Y-57140058D01*
X150831351Y-57103153D01*
X150851733Y-57060010D01*
X150867065Y-57000290D01*
X150878074Y-56913657D01*
X150885485Y-56789773D01*
X150890023Y-56618301D01*
X150892414Y-56388903D01*
X150893383Y-56091243D01*
X150893581Y-55880641D01*
X150895158Y-55574100D01*
X150899276Y-55294010D01*
X150905552Y-55051998D01*
X150913600Y-54859692D01*
X150923037Y-54728720D01*
X150933479Y-54670710D01*
X150933548Y-54670598D01*
X150956836Y-54649305D01*
X151001877Y-54637326D01*
X151080356Y-54635160D01*
X151203963Y-54643301D01*
X151384383Y-54662245D01*
X151633303Y-54692490D01*
X151726425Y-54704266D01*
X152010429Y-54743357D01*
X152249851Y-54782261D01*
X152433276Y-54818833D01*
X152549290Y-54850930D01*
X152577733Y-54864152D01*
X152675483Y-54928200D01*
X152649767Y-57484434D01*
X152505179Y-57780767D01*
X152306969Y-58100545D01*
X152048886Y-58383144D01*
X151746760Y-58615657D01*
X151416419Y-58785178D01*
X151184413Y-58857731D01*
X151025139Y-58880869D01*
X150807184Y-58894382D01*
X150555037Y-58898638D01*
X150293187Y-58894005D01*
X150046121Y-58880850D01*
X149838329Y-58859542D01*
X149712029Y-58835607D01*
X149353385Y-58698105D01*
X149029124Y-58493198D01*
X148749917Y-58231954D01*
X148526437Y-57925439D01*
X148369355Y-57584720D01*
X148315202Y-57387100D01*
X148305752Y-57304667D01*
X148297413Y-57151972D01*
X148290165Y-56927353D01*
X148283989Y-56629152D01*
X148278864Y-56255708D01*
X148274770Y-55805363D01*
X148271689Y-55276455D01*
X148269599Y-54667326D01*
X148268481Y-53976315D01*
X148268267Y-53462767D01*
X148268739Y-52715549D01*
X148270171Y-52051333D01*
X148272580Y-51468458D01*
X148275989Y-50965266D01*
X148280415Y-50540097D01*
X148285880Y-50191290D01*
X148292402Y-49917186D01*
X148300002Y-49716125D01*
X148308700Y-49586448D01*
X148315202Y-49538434D01*
X148431919Y-49180885D01*
X148620868Y-48853509D01*
X148871972Y-48566636D01*
X149175154Y-48330595D01*
X149520337Y-48155718D01*
X149730247Y-48087827D01*
X149900977Y-48057736D01*
X150129984Y-48036964D01*
X150391351Y-48025866D01*
X150659164Y-48024799D01*
X150907506Y-48034121D01*
G36*
X250613334Y165015333D02*
G01*
X246930334Y165015333D01*
X246930334Y186309000D01*
X250613334Y186309000D01*
X250613334Y165015333D01*
X250613334Y165015333D01*
G37*
X250613334Y165015333D02*
X246930334Y165015333D01*
X246930334Y186309000D01*
X250613334Y186309000D01*
X250613334Y165015333D01*
G36*
X234247671Y187032624D02*
G01*
X234302621Y186922670D01*
X234391036Y186743947D01*
X234511123Y186500135D01*
X234661086Y186194911D01*
X234839132Y185831956D01*
X235043466Y185414949D01*
X235272295Y184947569D01*
X235523823Y184433495D01*
X235796257Y183876407D01*
X236087802Y183279983D01*
X236396664Y182647904D01*
X236721049Y181983847D01*
X237059163Y181291494D01*
X237409210Y180574522D01*
X237769398Y179836612D01*
X238137931Y179081441D01*
X238513016Y178312691D01*
X238892857Y177534039D01*
X239275662Y176749166D01*
X239659635Y175961750D01*
X240042982Y175175470D01*
X240423910Y174394007D01*
X240800623Y173621039D01*
X241171327Y172860245D01*
X241534229Y172115305D01*
X241887533Y171389898D01*
X242229446Y170687703D01*
X242558174Y170012400D01*
X242871921Y169367668D01*
X243168895Y168757185D01*
X243447300Y168184632D01*
X243705342Y167653688D01*
X243941227Y167168031D01*
X244153161Y166731342D01*
X244339349Y166347298D01*
X244497998Y166019581D01*
X244627312Y165751868D01*
X244725498Y165547839D01*
X244790761Y165411174D01*
X244800217Y165391162D01*
X244977267Y165015333D01*
X240913579Y165015333D01*
X239145435Y168613667D01*
X229255703Y168613667D01*
X227457131Y165015333D01*
X223355475Y165015333D01*
X224424117Y167184917D01*
X224544628Y167429648D01*
X224700279Y167745850D01*
X224888850Y168129011D01*
X225108125Y168574623D01*
X225355884Y169078175D01*
X225629909Y169635159D01*
X225927982Y170241064D01*
X226247885Y170891380D01*
X226587400Y171581599D01*
X226939121Y172296667D01*
X231054484Y172296667D01*
X234192105Y172296667D01*
X234782787Y172296749D01*
X235294398Y172297083D01*
X235732530Y172297802D01*
X236102779Y172299041D01*
X236410739Y172300931D01*
X236662003Y172303607D01*
X236862166Y172307202D01*
X237016823Y172311848D01*
X237131567Y172317680D01*
X237211994Y172324830D01*
X237263696Y172333432D01*
X237292269Y172343619D01*
X237303307Y172355525D01*
X237302404Y172369281D01*
X237301878Y172370750D01*
X237275434Y172430228D01*
X237216035Y172556976D01*
X237127007Y172744154D01*
X237011676Y172984924D01*
X236873368Y173272448D01*
X236715409Y173599888D01*
X236541126Y173960404D01*
X236353844Y174347159D01*
X236156889Y174753313D01*
X235953588Y175172029D01*
X235747266Y175596469D01*
X235541250Y176019793D01*
X235338866Y176435163D01*
X235143439Y176835741D01*
X234958297Y177214689D01*
X234786764Y177565167D01*
X234632167Y177880338D01*
X234497832Y178153363D01*
X234387085Y178377404D01*
X234303253Y178545622D01*
X234249660Y178651178D01*
X234229672Y178687241D01*
X234207903Y178650518D01*
X234151754Y178543697D01*
X234064177Y178372673D01*
X233948127Y178143339D01*
X233806556Y177861589D01*
X233642419Y177533316D01*
X233458668Y177164415D01*
X233258257Y176760779D01*
X233044140Y176328302D01*
X232819270Y175872877D01*
X232814523Y175863250D01*
X232584067Y175395890D01*
X232360544Y174942626D01*
X232147389Y174510424D01*
X231948040Y174106252D01*
X231765935Y173737078D01*
X231604509Y173409868D01*
X231467200Y173131589D01*
X231357444Y172909209D01*
X231278680Y172749696D01*
X231237843Y172667083D01*
X231054484Y172296667D01*
X226939121Y172296667D01*
X226944308Y172307211D01*
X227316390Y173063705D01*
X227701430Y173846572D01*
X228097208Y174651303D01*
X228501507Y175473388D01*
X228912107Y176308317D01*
X229326791Y177151581D01*
X229743340Y177998670D01*
X229848610Y178212750D01*
X230249412Y179027632D01*
X230640464Y179822288D01*
X231020120Y180593385D01*
X231386732Y181337594D01*
X231738653Y182051581D01*
X232074235Y182732017D01*
X232391833Y183375568D01*
X232689798Y183978905D01*
X232966483Y184538696D01*
X233220241Y185051608D01*
X233449426Y185514312D01*
X233652390Y185923474D01*
X233827485Y186275765D01*
X233973065Y186567852D01*
X234087482Y186796405D01*
X234169090Y186958091D01*
X234216241Y187049579D01*
X234227981Y187070128D01*
X234247671Y187032624D01*
X234247671Y187032624D01*
G37*
X234247671Y187032624D02*
X234302621Y186922670D01*
X234391036Y186743947D01*
X234511123Y186500135D01*
X234661086Y186194911D01*
X234839132Y185831956D01*
X235043466Y185414949D01*
X235272295Y184947569D01*
X235523823Y184433495D01*
X235796257Y183876407D01*
X236087802Y183279983D01*
X236396664Y182647904D01*
X236721049Y181983847D01*
X237059163Y181291494D01*
X237409210Y180574522D01*
X237769398Y179836612D01*
X238137931Y179081441D01*
X238513016Y178312691D01*
X238892857Y177534039D01*
X239275662Y176749166D01*
X239659635Y175961750D01*
X240042982Y175175470D01*
X240423910Y174394007D01*
X240800623Y173621039D01*
X241171327Y172860245D01*
X241534229Y172115305D01*
X241887533Y171389898D01*
X242229446Y170687703D01*
X242558174Y170012400D01*
X242871921Y169367668D01*
X243168895Y168757185D01*
X243447300Y168184632D01*
X243705342Y167653688D01*
X243941227Y167168031D01*
X244153161Y166731342D01*
X244339349Y166347298D01*
X244497998Y166019581D01*
X244627312Y165751868D01*
X244725498Y165547839D01*
X244790761Y165411174D01*
X244800217Y165391162D01*
X244977267Y165015333D01*
X240913579Y165015333D01*
X239145435Y168613667D01*
X229255703Y168613667D01*
X227457131Y165015333D01*
X223355475Y165015333D01*
X224424117Y167184917D01*
X224544628Y167429648D01*
X224700279Y167745850D01*
X224888850Y168129011D01*
X225108125Y168574623D01*
X225355884Y169078175D01*
X225629909Y169635159D01*
X225927982Y170241064D01*
X226247885Y170891380D01*
X226587400Y171581599D01*
X226939121Y172296667D01*
X231054484Y172296667D01*
X234192105Y172296667D01*
X234782787Y172296749D01*
X235294398Y172297083D01*
X235732530Y172297802D01*
X236102779Y172299041D01*
X236410739Y172300931D01*
X236662003Y172303607D01*
X236862166Y172307202D01*
X237016823Y172311848D01*
X237131567Y172317680D01*
X237211994Y172324830D01*
X237263696Y172333432D01*
X237292269Y172343619D01*
X237303307Y172355525D01*
X237302404Y172369281D01*
X237301878Y172370750D01*
X237275434Y172430228D01*
X237216035Y172556976D01*
X237127007Y172744154D01*
X237011676Y172984924D01*
X236873368Y173272448D01*
X236715409Y173599888D01*
X236541126Y173960404D01*
X236353844Y174347159D01*
X236156889Y174753313D01*
X235953588Y175172029D01*
X235747266Y175596469D01*
X235541250Y176019793D01*
X235338866Y176435163D01*
X235143439Y176835741D01*
X234958297Y177214689D01*
X234786764Y177565167D01*
X234632167Y177880338D01*
X234497832Y178153363D01*
X234387085Y178377404D01*
X234303253Y178545622D01*
X234249660Y178651178D01*
X234229672Y178687241D01*
X234207903Y178650518D01*
X234151754Y178543697D01*
X234064177Y178372673D01*
X233948127Y178143339D01*
X233806556Y177861589D01*
X233642419Y177533316D01*
X233458668Y177164415D01*
X233258257Y176760779D01*
X233044140Y176328302D01*
X232819270Y175872877D01*
X232814523Y175863250D01*
X232584067Y175395890D01*
X232360544Y174942626D01*
X232147389Y174510424D01*
X231948040Y174106252D01*
X231765935Y173737078D01*
X231604509Y173409868D01*
X231467200Y173131589D01*
X231357444Y172909209D01*
X231278680Y172749696D01*
X231237843Y172667083D01*
X231054484Y172296667D01*
X226939121Y172296667D01*
X226944308Y172307211D01*
X227316390Y173063705D01*
X227701430Y173846572D01*
X228097208Y174651303D01*
X228501507Y175473388D01*
X228912107Y176308317D01*
X229326791Y177151581D01*
X229743340Y177998670D01*
X229848610Y178212750D01*
X230249412Y179027632D01*
X230640464Y179822288D01*
X231020120Y180593385D01*
X231386732Y181337594D01*
X231738653Y182051581D01*
X232074235Y182732017D01*
X232391833Y183375568D01*
X232689798Y183978905D01*
X232966483Y184538696D01*
X233220241Y185051608D01*
X233449426Y185514312D01*
X233652390Y185923474D01*
X233827485Y186275765D01*
X233973065Y186567852D01*
X234087482Y186796405D01*
X234169090Y186958091D01*
X234216241Y187049579D01*
X234227981Y187070128D01*
X234247671Y187032624D01*
G36*
X211677250Y186297309D02*
G01*
X212303175Y186294402D01*
X212850482Y186291625D01*
X213325220Y186288815D01*
X213733437Y186285810D01*
X214081183Y186282449D01*
X214374504Y186278567D01*
X214619451Y186274004D01*
X214822071Y186268597D01*
X214988413Y186262183D01*
X215124526Y186254601D01*
X215236457Y186245688D01*
X215330256Y186235281D01*
X215411972Y186223219D01*
X215487651Y186209339D01*
X215563344Y186193479D01*
X215565671Y186192973D01*
X216278871Y185995987D01*
X216957925Y185725585D01*
X217597935Y185386454D01*
X218194002Y184983281D01*
X218741226Y184520751D01*
X219234710Y184003551D01*
X219669554Y183436369D01*
X220040858Y182823890D01*
X220343725Y182170801D01*
X220573256Y181481789D01*
X220600983Y181375924D01*
X220708746Y180878549D01*
X220775378Y180389731D01*
X220803802Y179879776D01*
X220798723Y179366547D01*
X220755027Y178750785D01*
X220665920Y178184514D01*
X220525291Y177642230D01*
X220327027Y177098429D01*
X220170414Y176744929D01*
X219856914Y176163417D01*
X219479310Y175608967D01*
X219047944Y175092656D01*
X218573160Y174625561D01*
X218065302Y174218759D01*
X217534714Y173883329D01*
X217461557Y173843933D01*
X217300130Y173753422D01*
X217177873Y173674275D01*
X217108743Y173616111D01*
X217098942Y173594033D01*
X217124251Y173553118D01*
X217193263Y173445877D01*
X217303107Y173276690D01*
X217450914Y173049937D01*
X217633815Y172769998D01*
X217848940Y172441255D01*
X218093419Y172068088D01*
X218364384Y171654876D01*
X218658965Y171206002D01*
X218974292Y170725845D01*
X219307495Y170218786D01*
X219655706Y169689205D01*
X219917666Y169291000D01*
X222717089Y165036500D01*
X220525628Y165025035D01*
X220038249Y165022603D01*
X219628550Y165020975D01*
X219289548Y165020359D01*
X219014259Y165020963D01*
X218795697Y165022995D01*
X218626880Y165026662D01*
X218500823Y165032173D01*
X218410542Y165039736D01*
X218349053Y165049557D01*
X218309372Y165061846D01*
X218284514Y165076809D01*
X218269506Y165092172D01*
X218238038Y165137461D01*
X218163209Y165248919D01*
X218048078Y165421908D01*
X217895706Y165651791D01*
X217709150Y165933929D01*
X217491470Y166263685D01*
X217245726Y166636421D01*
X216974976Y167047498D01*
X216682280Y167492280D01*
X216370697Y167966128D01*
X216043286Y168464404D01*
X215703107Y168982471D01*
X215644839Y169071243D01*
X213084834Y172971712D01*
X211878334Y172974000D01*
X211878334Y165015333D01*
X208195334Y165015333D01*
X208195334Y178292230D01*
X211885778Y178292230D01*
X211886073Y177895678D01*
X211886941Y177544430D01*
X211888359Y177245476D01*
X211890306Y177005804D01*
X211892759Y176832404D01*
X211895698Y176732263D01*
X211897796Y176709917D01*
X211944048Y176695355D01*
X212062652Y176683017D01*
X212241319Y176672956D01*
X212467762Y176665224D01*
X212729694Y176659876D01*
X213014827Y176656963D01*
X213310874Y176656538D01*
X213605546Y176658655D01*
X213886557Y176663366D01*
X214141619Y176670723D01*
X214358445Y176680781D01*
X214524746Y176693591D01*
X214566500Y176698439D01*
X215057741Y176803328D01*
X215512635Y176981692D01*
X215924931Y177228483D01*
X216288377Y177538652D01*
X216596722Y177907151D01*
X216843713Y178328929D01*
X216972764Y178641682D01*
X217059456Y178968890D01*
X217112009Y179339072D01*
X217128619Y179720702D01*
X217107486Y180082253D01*
X217068184Y180311173D01*
X216917052Y180775276D01*
X216693040Y181205387D01*
X216403826Y181593569D01*
X216057089Y181931884D01*
X215660506Y182212395D01*
X215221757Y182427163D01*
X214926334Y182525364D01*
X214838619Y182546755D01*
X214741294Y182563823D01*
X214623988Y182577055D01*
X214476325Y182586937D01*
X214287934Y182593956D01*
X214048440Y182598600D01*
X213747472Y182601356D01*
X213374655Y182602710D01*
X213275334Y182602877D01*
X211899500Y182604833D01*
X211888541Y179683833D01*
X211886990Y179193297D01*
X211886076Y178727100D01*
X211885778Y178292230D01*
X208195334Y178292230D01*
X208195334Y186313098D01*
X211677250Y186297309D01*
X211677250Y186297309D01*
G37*
X211677250Y186297309D02*
X212303175Y186294402D01*
X212850482Y186291625D01*
X213325220Y186288815D01*
X213733437Y186285810D01*
X214081183Y186282449D01*
X214374504Y186278567D01*
X214619451Y186274004D01*
X214822071Y186268597D01*
X214988413Y186262183D01*
X215124526Y186254601D01*
X215236457Y186245688D01*
X215330256Y186235281D01*
X215411972Y186223219D01*
X215487651Y186209339D01*
X215563344Y186193479D01*
X215565671Y186192973D01*
X216278871Y185995987D01*
X216957925Y185725585D01*
X217597935Y185386454D01*
X218194002Y184983281D01*
X218741226Y184520751D01*
X219234710Y184003551D01*
X219669554Y183436369D01*
X220040858Y182823890D01*
X220343725Y182170801D01*
X220573256Y181481789D01*
X220600983Y181375924D01*
X220708746Y180878549D01*
X220775378Y180389731D01*
X220803802Y179879776D01*
X220798723Y179366547D01*
X220755027Y178750785D01*
X220665920Y178184514D01*
X220525291Y177642230D01*
X220327027Y177098429D01*
X220170414Y176744929D01*
X219856914Y176163417D01*
X219479310Y175608967D01*
X219047944Y175092656D01*
X218573160Y174625561D01*
X218065302Y174218759D01*
X217534714Y173883329D01*
X217461557Y173843933D01*
X217300130Y173753422D01*
X217177873Y173674275D01*
X217108743Y173616111D01*
X217098942Y173594033D01*
X217124251Y173553118D01*
X217193263Y173445877D01*
X217303107Y173276690D01*
X217450914Y173049937D01*
X217633815Y172769998D01*
X217848940Y172441255D01*
X218093419Y172068088D01*
X218364384Y171654876D01*
X218658965Y171206002D01*
X218974292Y170725845D01*
X219307495Y170218786D01*
X219655706Y169689205D01*
X219917666Y169291000D01*
X222717089Y165036500D01*
X220525628Y165025035D01*
X220038249Y165022603D01*
X219628550Y165020975D01*
X219289548Y165020359D01*
X219014259Y165020963D01*
X218795697Y165022995D01*
X218626880Y165026662D01*
X218500823Y165032173D01*
X218410542Y165039736D01*
X218349053Y165049557D01*
X218309372Y165061846D01*
X218284514Y165076809D01*
X218269506Y165092172D01*
X218238038Y165137461D01*
X218163209Y165248919D01*
X218048078Y165421908D01*
X217895706Y165651791D01*
X217709150Y165933929D01*
X217491470Y166263685D01*
X217245726Y166636421D01*
X216974976Y167047498D01*
X216682280Y167492280D01*
X216370697Y167966128D01*
X216043286Y168464404D01*
X215703107Y168982471D01*
X215644839Y169071243D01*
X213084834Y172971712D01*
X211878334Y172974000D01*
X211878334Y165015333D01*
X208195334Y165015333D01*
X208195334Y178292230D01*
X211885778Y178292230D01*
X211886073Y177895678D01*
X211886941Y177544430D01*
X211888359Y177245476D01*
X211890306Y177005804D01*
X211892759Y176832404D01*
X211895698Y176732263D01*
X211897796Y176709917D01*
X211944048Y176695355D01*
X212062652Y176683017D01*
X212241319Y176672956D01*
X212467762Y176665224D01*
X212729694Y176659876D01*
X213014827Y176656963D01*
X213310874Y176656538D01*
X213605546Y176658655D01*
X213886557Y176663366D01*
X214141619Y176670723D01*
X214358445Y176680781D01*
X214524746Y176693591D01*
X214566500Y176698439D01*
X215057741Y176803328D01*
X215512635Y176981692D01*
X215924931Y177228483D01*
X216288377Y177538652D01*
X216596722Y177907151D01*
X216843713Y178328929D01*
X216972764Y178641682D01*
X217059456Y178968890D01*
X217112009Y179339072D01*
X217128619Y179720702D01*
X217107486Y180082253D01*
X217068184Y180311173D01*
X216917052Y180775276D01*
X216693040Y181205387D01*
X216403826Y181593569D01*
X216057089Y181931884D01*
X215660506Y182212395D01*
X215221757Y182427163D01*
X214926334Y182525364D01*
X214838619Y182546755D01*
X214741294Y182563823D01*
X214623988Y182577055D01*
X214476325Y182586937D01*
X214287934Y182593956D01*
X214048440Y182598600D01*
X213747472Y182601356D01*
X213374655Y182602710D01*
X213275334Y182602877D01*
X211899500Y182604833D01*
X211888541Y179683833D01*
X211886990Y179193297D01*
X211886076Y178727100D01*
X211885778Y178292230D01*
X208195334Y178292230D01*
X208195334Y186313098D01*
X211677250Y186297309D01*
G36*
X196416084Y186297930D02*
G01*
X197046279Y186295283D01*
X197597798Y186292793D01*
X198076633Y186290293D01*
X198488772Y186287617D01*
X198840208Y186284598D01*
X199136930Y186281068D01*
X199384929Y186276860D01*
X199590194Y186271808D01*
X199758718Y186265744D01*
X199896490Y186258502D01*
X200009500Y186249914D01*
X200103740Y186239814D01*
X200185199Y186228034D01*
X200259868Y186214408D01*
X200333737Y186198768D01*
X200384834Y186187291D01*
X201072461Y185988591D01*
X201729167Y185712782D01*
X202350037Y185363327D01*
X202930154Y184943692D01*
X203464602Y184457340D01*
X203948465Y183907735D01*
X204288105Y183436595D01*
X204630488Y182846814D01*
X204903895Y182226799D01*
X205107255Y181585348D01*
X205239498Y180931260D01*
X205299555Y180273332D01*
X205286356Y179620364D01*
X205198830Y178981152D01*
X205035908Y178364495D01*
X204937562Y178096333D01*
X204769651Y177716381D01*
X204574026Y177338628D01*
X204361617Y176980903D01*
X204143354Y176661037D01*
X203930167Y176396858D01*
X203833993Y176296184D01*
X203667820Y176133920D01*
X204013191Y175813377D01*
X204423136Y175382993D01*
X204774624Y174905197D01*
X205070548Y174374529D01*
X205313804Y173785527D01*
X205507288Y173132728D01*
X205563743Y172888362D01*
X205687036Y172134690D01*
X205730938Y171390491D01*
X205696007Y170661042D01*
X205582804Y169951621D01*
X205391885Y169267503D01*
X205123811Y168613968D01*
X205107563Y168580493D01*
X204841933Y168088381D01*
X204541935Y167634328D01*
X204193271Y167199228D01*
X203781643Y166763976D01*
X203659126Y166645167D01*
X203147462Y166204436D01*
X202608124Y165835169D01*
X202030648Y165531796D01*
X201404570Y165288746D01*
X200787000Y165116055D01*
X200726209Y165103062D01*
X200657368Y165091592D01*
X200574909Y165081522D01*
X200473260Y165072734D01*
X200346852Y165065105D01*
X200190113Y165058514D01*
X199997475Y165052841D01*
X199763366Y165047964D01*
X199482217Y165043763D01*
X199148457Y165040117D01*
X198756516Y165036904D01*
X198300824Y165034004D01*
X197775810Y165031295D01*
X197175905Y165028657D01*
X196670084Y165026639D01*
X192870667Y165011933D01*
X192870667Y168698333D01*
X196553667Y168698333D01*
X198151750Y168699069D01*
X198599898Y168700039D01*
X198971882Y168702690D01*
X199276195Y168707303D01*
X199521329Y168714160D01*
X199715776Y168723543D01*
X199868028Y168735735D01*
X199986578Y168751018D01*
X200046167Y168762020D01*
X200476958Y168893988D01*
X200866795Y169097908D01*
X201210320Y169368912D01*
X201502175Y169702130D01*
X201737004Y170092695D01*
X201873127Y170422213D01*
X201963684Y170782806D01*
X202008947Y171184203D01*
X202007736Y171594945D01*
X201958872Y171983572D01*
X201935545Y172087943D01*
X201825744Y172439274D01*
X201676884Y172785990D01*
X201501081Y173104419D01*
X201310450Y173370891D01*
X201236453Y173453801D01*
X201151477Y173542908D01*
X201076849Y173617993D01*
X201004802Y173680258D01*
X200927565Y173730903D01*
X200837373Y173771130D01*
X200726457Y173802140D01*
X200587049Y173825133D01*
X200411382Y173841313D01*
X200191686Y173851878D01*
X199920195Y173858032D01*
X199589140Y173860974D01*
X199190753Y173861906D01*
X198717267Y173862030D01*
X198596250Y173862070D01*
X196553667Y173863000D01*
X196553667Y168698333D01*
X192870667Y168698333D01*
X192870667Y177588333D01*
X196552995Y177588333D01*
X198363081Y177588747D01*
X198801640Y177588919D01*
X199163883Y177589487D01*
X199458164Y177590864D01*
X199692833Y177593457D01*
X199876243Y177597678D01*
X200016746Y177603935D01*
X200122693Y177612641D01*
X200202435Y177624203D01*
X200264326Y177639032D01*
X200316716Y177657539D01*
X200367958Y177680132D01*
X200384834Y177687992D01*
X200608139Y177829699D01*
X200832123Y178039638D01*
X201045724Y178302190D01*
X201237881Y178601738D01*
X201397532Y178922665D01*
X201513614Y179249354D01*
X201527413Y179301144D01*
X201579394Y179622090D01*
X201590340Y179987582D01*
X201562626Y180369472D01*
X201498625Y180739613D01*
X201400711Y181069858D01*
X201372316Y181140316D01*
X201203025Y181453974D01*
X200975532Y181756860D01*
X200709099Y182028044D01*
X200422990Y182246600D01*
X200276787Y182330509D01*
X200138403Y182399028D01*
X200013695Y182454974D01*
X199892263Y182499628D01*
X199763708Y182534268D01*
X199617631Y182560176D01*
X199443634Y182578630D01*
X199231318Y182590910D01*
X198970283Y182598295D01*
X198650131Y182602066D01*
X198260463Y182603503D01*
X198056500Y182603730D01*
X196574834Y182604833D01*
X196563914Y180096583D01*
X196552995Y177588333D01*
X192870667Y177588333D01*
X192870667Y186312618D01*
X196416084Y186297930D01*
X196416084Y186297930D01*
G37*
X196416084Y186297930D02*
X197046279Y186295283D01*
X197597798Y186292793D01*
X198076633Y186290293D01*
X198488772Y186287617D01*
X198840208Y186284598D01*
X199136930Y186281068D01*
X199384929Y186276860D01*
X199590194Y186271808D01*
X199758718Y186265744D01*
X199896490Y186258502D01*
X200009500Y186249914D01*
X200103740Y186239814D01*
X200185199Y186228034D01*
X200259868Y186214408D01*
X200333737Y186198768D01*
X200384834Y186187291D01*
X201072461Y185988591D01*
X201729167Y185712782D01*
X202350037Y185363327D01*
X202930154Y184943692D01*
X203464602Y184457340D01*
X203948465Y183907735D01*
X204288105Y183436595D01*
X204630488Y182846814D01*
X204903895Y182226799D01*
X205107255Y181585348D01*
X205239498Y180931260D01*
X205299555Y180273332D01*
X205286356Y179620364D01*
X205198830Y178981152D01*
X205035908Y178364495D01*
X204937562Y178096333D01*
X204769651Y177716381D01*
X204574026Y177338628D01*
X204361617Y176980903D01*
X204143354Y176661037D01*
X203930167Y176396858D01*
X203833993Y176296184D01*
X203667820Y176133920D01*
X204013191Y175813377D01*
X204423136Y175382993D01*
X204774624Y174905197D01*
X205070548Y174374529D01*
X205313804Y173785527D01*
X205507288Y173132728D01*
X205563743Y172888362D01*
X205687036Y172134690D01*
X205730938Y171390491D01*
X205696007Y170661042D01*
X205582804Y169951621D01*
X205391885Y169267503D01*
X205123811Y168613968D01*
X205107563Y168580493D01*
X204841933Y168088381D01*
X204541935Y167634328D01*
X204193271Y167199228D01*
X203781643Y166763976D01*
X203659126Y166645167D01*
X203147462Y166204436D01*
X202608124Y165835169D01*
X202030648Y165531796D01*
X201404570Y165288746D01*
X200787000Y165116055D01*
X200726209Y165103062D01*
X200657368Y165091592D01*
X200574909Y165081522D01*
X200473260Y165072734D01*
X200346852Y165065105D01*
X200190113Y165058514D01*
X199997475Y165052841D01*
X199763366Y165047964D01*
X199482217Y165043763D01*
X199148457Y165040117D01*
X198756516Y165036904D01*
X198300824Y165034004D01*
X197775810Y165031295D01*
X197175905Y165028657D01*
X196670084Y165026639D01*
X192870667Y165011933D01*
X192870667Y168698333D01*
X196553667Y168698333D01*
X198151750Y168699069D01*
X198599898Y168700039D01*
X198971882Y168702690D01*
X199276195Y168707303D01*
X199521329Y168714160D01*
X199715776Y168723543D01*
X199868028Y168735735D01*
X199986578Y168751018D01*
X200046167Y168762020D01*
X200476958Y168893988D01*
X200866795Y169097908D01*
X201210320Y169368912D01*
X201502175Y169702130D01*
X201737004Y170092695D01*
X201873127Y170422213D01*
X201963684Y170782806D01*
X202008947Y171184203D01*
X202007736Y171594945D01*
X201958872Y171983572D01*
X201935545Y172087943D01*
X201825744Y172439274D01*
X201676884Y172785990D01*
X201501081Y173104419D01*
X201310450Y173370891D01*
X201236453Y173453801D01*
X201151477Y173542908D01*
X201076849Y173617993D01*
X201004802Y173680258D01*
X200927565Y173730903D01*
X200837373Y173771130D01*
X200726457Y173802140D01*
X200587049Y173825133D01*
X200411382Y173841313D01*
X200191686Y173851878D01*
X199920195Y173858032D01*
X199589140Y173860974D01*
X199190753Y173861906D01*
X198717267Y173862030D01*
X198596250Y173862070D01*
X196553667Y173863000D01*
X196553667Y168698333D01*
X192870667Y168698333D01*
X192870667Y177588333D01*
X196552995Y177588333D01*
X198363081Y177588747D01*
X198801640Y177588919D01*
X199163883Y177589487D01*
X199458164Y177590864D01*
X199692833Y177593457D01*
X199876243Y177597678D01*
X200016746Y177603935D01*
X200122693Y177612641D01*
X200202435Y177624203D01*
X200264326Y177639032D01*
X200316716Y177657539D01*
X200367958Y177680132D01*
X200384834Y177687992D01*
X200608139Y177829699D01*
X200832123Y178039638D01*
X201045724Y178302190D01*
X201237881Y178601738D01*
X201397532Y178922665D01*
X201513614Y179249354D01*
X201527413Y179301144D01*
X201579394Y179622090D01*
X201590340Y179987582D01*
X201562626Y180369472D01*
X201498625Y180739613D01*
X201400711Y181069858D01*
X201372316Y181140316D01*
X201203025Y181453974D01*
X200975532Y181756860D01*
X200709099Y182028044D01*
X200422990Y182246600D01*
X200276787Y182330509D01*
X200138403Y182399028D01*
X200013695Y182454974D01*
X199892263Y182499628D01*
X199763708Y182534268D01*
X199617631Y182560176D01*
X199443634Y182578630D01*
X199231318Y182590910D01*
X198970283Y182598295D01*
X198650131Y182602066D01*
X198260463Y182603503D01*
X198056500Y182603730D01*
X196574834Y182604833D01*
X196563914Y180096583D01*
X196552995Y177588333D01*
X192870667Y177588333D01*
X192870667Y186312618D01*
X196416084Y186297930D01*
G36*
X253982915Y187033041D02*
G01*
X254072615Y186944735D01*
X254216707Y186801680D01*
X254412543Y186606529D01*
X254657479Y186361932D01*
X254948868Y186070543D01*
X255284067Y185735014D01*
X255660427Y185357997D01*
X256075305Y184942145D01*
X256526054Y184490109D01*
X257010029Y184004543D01*
X257524584Y183488099D01*
X258067073Y182943428D01*
X258634851Y182373183D01*
X259225272Y181780017D01*
X259835691Y181166582D01*
X260463461Y180535530D01*
X260882335Y180114369D01*
X267779500Y173178904D01*
X267790217Y179743952D01*
X267800933Y186309000D01*
X271483667Y186309000D01*
X271483667Y175260000D01*
X271483627Y174298797D01*
X271483509Y173359932D01*
X271483317Y172446913D01*
X271483054Y171563247D01*
X271482723Y170712440D01*
X271482328Y169898000D01*
X271481872Y169123435D01*
X271481359Y168392252D01*
X271480791Y167707957D01*
X271480172Y167074059D01*
X271479506Y166494064D01*
X271478796Y165971479D01*
X271478045Y165509813D01*
X271477256Y165112571D01*
X271476434Y164783261D01*
X271475581Y164525391D01*
X271474700Y164342468D01*
X271473796Y164237998D01*
X271473084Y164213226D01*
X271442698Y164243025D01*
X271355268Y164330246D01*
X271213420Y164472247D01*
X271019784Y164666388D01*
X270776986Y164910026D01*
X270487656Y165200521D01*
X270154420Y165535232D01*
X269779907Y165911517D01*
X269366746Y166326735D01*
X268917563Y166778244D01*
X268434988Y167263404D01*
X267921647Y167779572D01*
X267380169Y168324109D01*
X266813183Y168894372D01*
X266223315Y169487720D01*
X265613194Y170101512D01*
X264985449Y170733107D01*
X264541000Y171180323D01*
X257619500Y178145195D01*
X257608784Y171580264D01*
X257598067Y165015333D01*
X253915334Y165015333D01*
X253915334Y176046695D01*
X253915466Y177006963D01*
X253915855Y177944808D01*
X253916489Y178856726D01*
X253917358Y179739211D01*
X253918451Y180588759D01*
X253919756Y181401863D01*
X253921263Y182175020D01*
X253922959Y182904725D01*
X253924835Y183587472D01*
X253926878Y184219756D01*
X253929079Y184798072D01*
X253931425Y185318916D01*
X253933905Y185778782D01*
X253936510Y186174166D01*
X253939226Y186501562D01*
X253942044Y186757466D01*
X253944952Y186938372D01*
X253947939Y187040775D01*
X253950252Y187063945D01*
X253982915Y187033041D01*
X253982915Y187033041D01*
G37*
X253982915Y187033041D02*
X254072615Y186944735D01*
X254216707Y186801680D01*
X254412543Y186606529D01*
X254657479Y186361932D01*
X254948868Y186070543D01*
X255284067Y185735014D01*
X255660427Y185357997D01*
X256075305Y184942145D01*
X256526054Y184490109D01*
X257010029Y184004543D01*
X257524584Y183488099D01*
X258067073Y182943428D01*
X258634851Y182373183D01*
X259225272Y181780017D01*
X259835691Y181166582D01*
X260463461Y180535530D01*
X260882335Y180114369D01*
X267779500Y173178904D01*
X267790217Y179743952D01*
X267800933Y186309000D01*
X271483667Y186309000D01*
X271483667Y175260000D01*
X271483627Y174298797D01*
X271483509Y173359932D01*
X271483317Y172446913D01*
X271483054Y171563247D01*
X271482723Y170712440D01*
X271482328Y169898000D01*
X271481872Y169123435D01*
X271481359Y168392252D01*
X271480791Y167707957D01*
X271480172Y167074059D01*
X271479506Y166494064D01*
X271478796Y165971479D01*
X271478045Y165509813D01*
X271477256Y165112571D01*
X271476434Y164783261D01*
X271475581Y164525391D01*
X271474700Y164342468D01*
X271473796Y164237998D01*
X271473084Y164213226D01*
X271442698Y164243025D01*
X271355268Y164330246D01*
X271213420Y164472247D01*
X271019784Y164666388D01*
X270776986Y164910026D01*
X270487656Y165200521D01*
X270154420Y165535232D01*
X269779907Y165911517D01*
X269366746Y166326735D01*
X268917563Y166778244D01*
X268434988Y167263404D01*
X267921647Y167779572D01*
X267380169Y168324109D01*
X266813183Y168894372D01*
X266223315Y169487720D01*
X265613194Y170101512D01*
X264985449Y170733107D01*
X264541000Y171180323D01*
X257619500Y178145195D01*
X257608784Y171580264D01*
X257598067Y165015333D01*
X253915334Y165015333D01*
X253915334Y176046695D01*
X253915466Y177006963D01*
X253915855Y177944808D01*
X253916489Y178856726D01*
X253917358Y179739211D01*
X253918451Y180588759D01*
X253919756Y181401863D01*
X253921263Y182175020D01*
X253922959Y182904725D01*
X253924835Y183587472D01*
X253926878Y184219756D01*
X253929079Y184798072D01*
X253931425Y185318916D01*
X253933905Y185778782D01*
X253936510Y186174166D01*
X253939226Y186501562D01*
X253942044Y186757466D01*
X253944952Y186938372D01*
X253947939Y187040775D01*
X253950252Y187063945D01*
X253982915Y187033041D01*
G36*
X259862344Y162602196D02*
G01*
X260455241Y162601600D01*
X260975880Y162600268D01*
X261430463Y162597921D01*
X261825196Y162594283D01*
X262166282Y162589077D01*
X262459924Y162582024D01*
X262712327Y162572847D01*
X262929694Y162561269D01*
X263118229Y162547013D01*
X263284137Y162529801D01*
X263433620Y162509355D01*
X263572884Y162485398D01*
X263708131Y162457653D01*
X263845566Y162425842D01*
X263991392Y162389688D01*
X264001167Y162387216D01*
X264691188Y162169833D01*
X265359953Y161874974D01*
X266000228Y161508659D01*
X266604778Y161076910D01*
X267166367Y160585748D01*
X267677760Y160041194D01*
X268131723Y159449270D01*
X268521019Y158815997D01*
X268689121Y158485809D01*
X268947126Y157877544D01*
X269139813Y157270320D01*
X269270427Y156647891D01*
X269342215Y155994013D01*
X269358425Y155292443D01*
X269355469Y155151667D01*
X269315963Y154501259D01*
X269231810Y153904558D01*
X269098131Y153340524D01*
X268910044Y152788115D01*
X268690067Y152283191D01*
X268352812Y151659806D01*
X267951141Y151061401D01*
X267496923Y150502663D01*
X267002026Y149998278D01*
X266512047Y149588124D01*
X266353855Y149461660D01*
X266253866Y149365221D01*
X266218312Y149305044D01*
X266220348Y149296179D01*
X266248517Y149252560D01*
X266319596Y149143876D01*
X266429882Y148975743D01*
X266575678Y148753779D01*
X266753281Y148483601D01*
X266958992Y148170825D01*
X267189112Y147821070D01*
X267439938Y147439952D01*
X267707772Y147033089D01*
X267988913Y146606097D01*
X268279661Y146164593D01*
X268576315Y145714196D01*
X268875176Y145260521D01*
X269172542Y144809186D01*
X269464715Y144365809D01*
X269747994Y143936005D01*
X270018678Y143525394D01*
X270273067Y143139590D01*
X270507461Y142784213D01*
X270718161Y142464878D01*
X270901464Y142187203D01*
X271053672Y141956806D01*
X271171085Y141779302D01*
X271250001Y141660310D01*
X271279854Y141615583D01*
X271486247Y141308667D01*
X265270251Y141308667D01*
X263032376Y144704128D01*
X260794500Y148099588D01*
X260783665Y144704128D01*
X260772830Y141308667D01*
X255608667Y141308667D01*
X255608667Y153280579D01*
X260773334Y153280579D01*
X261672917Y153299133D01*
X261982445Y153306394D01*
X262221318Y153314656D01*
X262403546Y153325260D01*
X262543139Y153339549D01*
X262654108Y153358866D01*
X262750463Y153384554D01*
X262823083Y153409362D01*
X263198824Y153588421D01*
X263520606Y153825625D01*
X263784715Y154111662D01*
X263987433Y154437216D01*
X264125046Y154792975D01*
X264193837Y155169624D01*
X264190091Y155557850D01*
X264110091Y155948339D01*
X263972132Y156289472D01*
X263839176Y156500584D01*
X263656148Y156722874D01*
X263448299Y156928857D01*
X263240881Y157091047D01*
X263228069Y157099384D01*
X263066906Y157195238D01*
X262908834Y157269779D01*
X262739409Y157325972D01*
X262544189Y157366781D01*
X262308730Y157395170D01*
X262018588Y157414104D01*
X261659322Y157426548D01*
X261630584Y157427268D01*
X260773334Y157448329D01*
X260773334Y153280579D01*
X255608667Y153280579D01*
X255608667Y162602333D01*
X259190984Y162602333D01*
X259862344Y162602196D01*
X259862344Y162602196D01*
G37*
X259862344Y162602196D02*
X260455241Y162601600D01*
X260975880Y162600268D01*
X261430463Y162597921D01*
X261825196Y162594283D01*
X262166282Y162589077D01*
X262459924Y162582024D01*
X262712327Y162572847D01*
X262929694Y162561269D01*
X263118229Y162547013D01*
X263284137Y162529801D01*
X263433620Y162509355D01*
X263572884Y162485398D01*
X263708131Y162457653D01*
X263845566Y162425842D01*
X263991392Y162389688D01*
X264001167Y162387216D01*
X264691188Y162169833D01*
X265359953Y161874974D01*
X266000228Y161508659D01*
X266604778Y161076910D01*
X267166367Y160585748D01*
X267677760Y160041194D01*
X268131723Y159449270D01*
X268521019Y158815997D01*
X268689121Y158485809D01*
X268947126Y157877544D01*
X269139813Y157270320D01*
X269270427Y156647891D01*
X269342215Y155994013D01*
X269358425Y155292443D01*
X269355469Y155151667D01*
X269315963Y154501259D01*
X269231810Y153904558D01*
X269098131Y153340524D01*
X268910044Y152788115D01*
X268690067Y152283191D01*
X268352812Y151659806D01*
X267951141Y151061401D01*
X267496923Y150502663D01*
X267002026Y149998278D01*
X266512047Y149588124D01*
X266353855Y149461660D01*
X266253866Y149365221D01*
X266218312Y149305044D01*
X266220348Y149296179D01*
X266248517Y149252560D01*
X266319596Y149143876D01*
X266429882Y148975743D01*
X266575678Y148753779D01*
X266753281Y148483601D01*
X266958992Y148170825D01*
X267189112Y147821070D01*
X267439938Y147439952D01*
X267707772Y147033089D01*
X267988913Y146606097D01*
X268279661Y146164593D01*
X268576315Y145714196D01*
X268875176Y145260521D01*
X269172542Y144809186D01*
X269464715Y144365809D01*
X269747994Y143936005D01*
X270018678Y143525394D01*
X270273067Y143139590D01*
X270507461Y142784213D01*
X270718161Y142464878D01*
X270901464Y142187203D01*
X271053672Y141956806D01*
X271171085Y141779302D01*
X271250001Y141660310D01*
X271279854Y141615583D01*
X271486247Y141308667D01*
X265270251Y141308667D01*
X263032376Y144704128D01*
X260794500Y148099588D01*
X260783665Y144704128D01*
X260772830Y141308667D01*
X255608667Y141308667D01*
X255608667Y153280579D01*
X260773334Y153280579D01*
X261672917Y153299133D01*
X261982445Y153306394D01*
X262221318Y153314656D01*
X262403546Y153325260D01*
X262543139Y153339549D01*
X262654108Y153358866D01*
X262750463Y153384554D01*
X262823083Y153409362D01*
X263198824Y153588421D01*
X263520606Y153825625D01*
X263784715Y154111662D01*
X263987433Y154437216D01*
X264125046Y154792975D01*
X264193837Y155169624D01*
X264190091Y155557850D01*
X264110091Y155948339D01*
X263972132Y156289472D01*
X263839176Y156500584D01*
X263656148Y156722874D01*
X263448299Y156928857D01*
X263240881Y157091047D01*
X263228069Y157099384D01*
X263066906Y157195238D01*
X262908834Y157269779D01*
X262739409Y157325972D01*
X262544189Y157366781D01*
X262308730Y157395170D01*
X262018588Y157414104D01*
X261659322Y157426548D01*
X261630584Y157427268D01*
X260773334Y157448329D01*
X260773334Y153280579D01*
X255608667Y153280579D01*
X255608667Y162602333D01*
X259190984Y162602333D01*
X259862344Y162602196D01*
G36*
X252433667Y157437667D02*
G01*
X244771334Y157437667D01*
X244771334Y154559000D01*
X250994334Y154559000D01*
X250994334Y149394333D01*
X244771334Y149394333D01*
X244771334Y146473333D01*
X252433667Y146473333D01*
X252433667Y141308667D01*
X239564334Y141308667D01*
X239564334Y162602333D01*
X252433667Y162602333D01*
X252433667Y157437667D01*
X252433667Y157437667D01*
G37*
X252433667Y157437667D02*
X244771334Y157437667D01*
X244771334Y154559000D01*
X250994334Y154559000D01*
X250994334Y149394333D01*
X244771334Y149394333D01*
X244771334Y146473333D01*
X252433667Y146473333D01*
X252433667Y141308667D01*
X239564334Y141308667D01*
X239564334Y162602333D01*
X252433667Y162602333D01*
X252433667Y157437667D01*
G36*
X174275750Y162591255D02*
G01*
X174929463Y162588663D01*
X175504253Y162586232D01*
X176005865Y162583809D01*
X176440043Y162581247D01*
X176812530Y162578394D01*
X177129071Y162575101D01*
X177395409Y162571219D01*
X177617288Y162566596D01*
X177800452Y162561084D01*
X177950646Y162554533D01*
X178073612Y162546793D01*
X178175095Y162537713D01*
X178260839Y162527144D01*
X178336587Y162514937D01*
X178408084Y162500941D01*
X178481074Y162485007D01*
X178498500Y162481092D01*
X179267042Y162269785D01*
X179984379Y161992278D01*
X180655364Y161645821D01*
X181284848Y161227664D01*
X181877686Y160735058D01*
X182278185Y160339484D01*
X182793251Y159737195D01*
X183231279Y159100219D01*
X183591920Y158429290D01*
X183874822Y157725142D01*
X184079636Y156988510D01*
X184193601Y156325223D01*
X184217927Y156045620D01*
X184230078Y155710723D01*
X184230774Y155341813D01*
X184220737Y154960175D01*
X184200688Y154587089D01*
X184171347Y154243838D01*
X184133436Y153951706D01*
X184108686Y153818167D01*
X183916485Y153092580D01*
X183659335Y152412273D01*
X183333170Y151769918D01*
X182933925Y151158190D01*
X182457535Y150569763D01*
X182091916Y150183653D01*
X181524945Y149668428D01*
X180933283Y149231115D01*
X180308055Y148866451D01*
X179640386Y148569174D01*
X179020136Y148361854D01*
X178739747Y148288181D01*
X178453101Y148228818D01*
X178145939Y148182116D01*
X177804003Y148146427D01*
X177413037Y148120102D01*
X176958780Y148101492D01*
X176709917Y148094717D01*
X175641000Y148069437D01*
X175641000Y141308667D01*
X170476334Y141308667D01*
X170476334Y153289000D01*
X175641000Y153289000D01*
X176422083Y153289000D01*
X176688771Y153291563D01*
X176942588Y153298669D01*
X177164787Y153309447D01*
X177336620Y153323025D01*
X177427500Y153335782D01*
X177809645Y153457571D01*
X178162358Y153652834D01*
X178473922Y153912253D01*
X178732618Y154226510D01*
X178886567Y154496090D01*
X178962435Y154665210D01*
X179010677Y154805912D01*
X179039086Y154951149D01*
X179055456Y155133872D01*
X179060754Y155232577D01*
X179053707Y155626022D01*
X178987530Y155970647D01*
X178855872Y156283834D01*
X178652381Y156582966D01*
X178506831Y156748548D01*
X178196480Y157025725D01*
X177853457Y157230544D01*
X177648416Y157315008D01*
X177549801Y157346472D01*
X177443904Y157370662D01*
X177316479Y157388988D01*
X177153279Y157402859D01*
X176940055Y157413685D01*
X176662560Y157422875D01*
X176519417Y157426688D01*
X175641000Y157448988D01*
X175641000Y153289000D01*
X170476334Y153289000D01*
X170476334Y162606127D01*
X174275750Y162591255D01*
X174275750Y162591255D01*
G37*
X174275750Y162591255D02*
X174929463Y162588663D01*
X175504253Y162586232D01*
X176005865Y162583809D01*
X176440043Y162581247D01*
X176812530Y162578394D01*
X177129071Y162575101D01*
X177395409Y162571219D01*
X177617288Y162566596D01*
X177800452Y162561084D01*
X177950646Y162554533D01*
X178073612Y162546793D01*
X178175095Y162537713D01*
X178260839Y162527144D01*
X178336587Y162514937D01*
X178408084Y162500941D01*
X178481074Y162485007D01*
X178498500Y162481092D01*
X179267042Y162269785D01*
X179984379Y161992278D01*
X180655364Y161645821D01*
X181284848Y161227664D01*
X181877686Y160735058D01*
X182278185Y160339484D01*
X182793251Y159737195D01*
X183231279Y159100219D01*
X183591920Y158429290D01*
X183874822Y157725142D01*
X184079636Y156988510D01*
X184193601Y156325223D01*
X184217927Y156045620D01*
X184230078Y155710723D01*
X184230774Y155341813D01*
X184220737Y154960175D01*
X184200688Y154587089D01*
X184171347Y154243838D01*
X184133436Y153951706D01*
X184108686Y153818167D01*
X183916485Y153092580D01*
X183659335Y152412273D01*
X183333170Y151769918D01*
X182933925Y151158190D01*
X182457535Y150569763D01*
X182091916Y150183653D01*
X181524945Y149668428D01*
X180933283Y149231115D01*
X180308055Y148866451D01*
X179640386Y148569174D01*
X179020136Y148361854D01*
X178739747Y148288181D01*
X178453101Y148228818D01*
X178145939Y148182116D01*
X177804003Y148146427D01*
X177413037Y148120102D01*
X176958780Y148101492D01*
X176709917Y148094717D01*
X175641000Y148069437D01*
X175641000Y141308667D01*
X170476334Y141308667D01*
X170476334Y153289000D01*
X175641000Y153289000D01*
X176422083Y153289000D01*
X176688771Y153291563D01*
X176942588Y153298669D01*
X177164787Y153309447D01*
X177336620Y153323025D01*
X177427500Y153335782D01*
X177809645Y153457571D01*
X178162358Y153652834D01*
X178473922Y153912253D01*
X178732618Y154226510D01*
X178886567Y154496090D01*
X178962435Y154665210D01*
X179010677Y154805912D01*
X179039086Y154951149D01*
X179055456Y155133872D01*
X179060754Y155232577D01*
X179053707Y155626022D01*
X178987530Y155970647D01*
X178855872Y156283834D01*
X178652381Y156582966D01*
X178506831Y156748548D01*
X178196480Y157025725D01*
X177853457Y157230544D01*
X177648416Y157315008D01*
X177549801Y157346472D01*
X177443904Y157370662D01*
X177316479Y157388988D01*
X177153279Y157402859D01*
X176940055Y157413685D01*
X176662560Y157422875D01*
X176519417Y157426688D01*
X175641000Y157448988D01*
X175641000Y153289000D01*
X170476334Y153289000D01*
X170476334Y162606127D01*
X174275750Y162591255D01*
G36*
X223160309Y163327534D02*
G01*
X223219706Y163220012D01*
X223313751Y163046084D01*
X223440162Y162810065D01*
X223596655Y162516272D01*
X223780947Y162169020D01*
X223990756Y161772625D01*
X224223798Y161331402D01*
X224477791Y160849668D01*
X224750451Y160331739D01*
X225039496Y159781929D01*
X225342642Y159204556D01*
X225657607Y158603934D01*
X225826282Y158281985D01*
X226188231Y157591722D01*
X226530262Y156941056D01*
X226850764Y156332995D01*
X227148128Y155770547D01*
X227420744Y155256719D01*
X227667001Y154794520D01*
X227885290Y154386956D01*
X228074000Y154037036D01*
X228231521Y153747768D01*
X228356244Y153522158D01*
X228446557Y153363216D01*
X228500851Y153273948D01*
X228517395Y153254901D01*
X228535976Y153300888D01*
X228582783Y153421035D01*
X228655915Y153610375D01*
X228753471Y153863945D01*
X228873550Y154176777D01*
X229014249Y154543908D01*
X229173669Y154960370D01*
X229349908Y155421199D01*
X229541064Y155921430D01*
X229745237Y156456096D01*
X229960526Y157020233D01*
X230185028Y157608875D01*
X230317452Y157956250D01*
X232088286Y162602334D01*
X234855142Y162602333D01*
X235329843Y162601803D01*
X235778153Y162600271D01*
X236193134Y162597828D01*
X236567852Y162594565D01*
X236895369Y162590571D01*
X237168750Y162585938D01*
X237381059Y162580754D01*
X237525359Y162575112D01*
X237594715Y162569100D01*
X237599913Y162566601D01*
X237583172Y162524520D01*
X237537531Y162406507D01*
X237464209Y162215759D01*
X237364427Y161955471D01*
X237239404Y161628840D01*
X237090359Y161239063D01*
X236918513Y160789334D01*
X236725085Y160282852D01*
X236511294Y159722812D01*
X236278361Y159112410D01*
X236027504Y158454843D01*
X235759945Y157753306D01*
X235476901Y157010997D01*
X235179593Y156231111D01*
X234869241Y155416844D01*
X234547064Y154571394D01*
X234214282Y153697956D01*
X233872115Y152799726D01*
X233521781Y151879901D01*
X233403960Y151570518D01*
X233051152Y150644247D01*
X232706039Y149738536D01*
X232369842Y148856581D01*
X232043784Y148001576D01*
X231729087Y147176717D01*
X231426975Y146385198D01*
X231138669Y145630216D01*
X230865391Y144914965D01*
X230608366Y144242641D01*
X230368814Y143616439D01*
X230147958Y143039554D01*
X229947021Y142515180D01*
X229767226Y142046515D01*
X229609794Y141636752D01*
X229475948Y141289087D01*
X229366911Y141006715D01*
X229283905Y140792831D01*
X229228153Y140650631D01*
X229200876Y140583310D01*
X229198328Y140578066D01*
X229175647Y140611358D01*
X229116255Y140715874D01*
X229022263Y140887599D01*
X228895786Y141122517D01*
X228738937Y141416613D01*
X228553828Y141765871D01*
X228342572Y142166276D01*
X228107282Y142613811D01*
X227850072Y143104461D01*
X227573054Y143634210D01*
X227278342Y144199044D01*
X226968047Y144794945D01*
X226644285Y145417899D01*
X226309166Y146063890D01*
X226146573Y146377733D01*
X225806550Y147034203D01*
X225476974Y147670245D01*
X225159960Y148281790D01*
X224857622Y148864770D01*
X224572073Y149415117D01*
X224305429Y149928763D01*
X224059803Y150401639D01*
X223837309Y150829679D01*
X223640061Y151208812D01*
X223470175Y151534972D01*
X223329763Y151804091D01*
X223220940Y152012099D01*
X223145820Y152154929D01*
X223106518Y152228514D01*
X223101040Y152237998D01*
X223078958Y152204350D01*
X223019936Y152099589D01*
X222926092Y151927721D01*
X222799545Y151692754D01*
X222642410Y151398695D01*
X222456805Y151049551D01*
X222244848Y150649328D01*
X222008656Y150202034D01*
X221750346Y149711676D01*
X221472035Y149182260D01*
X221175842Y148617794D01*
X220863882Y148022285D01*
X220538274Y147399739D01*
X220201135Y146754164D01*
X220030861Y146427748D01*
X219688653Y145771809D01*
X219356930Y145136592D01*
X219037812Y144526128D01*
X218733420Y143944449D01*
X218445876Y143395588D01*
X218177298Y142883575D01*
X217929809Y142412444D01*
X217705529Y141986225D01*
X217506577Y141608952D01*
X217335076Y141284654D01*
X217193145Y141017365D01*
X217082905Y140811117D01*
X217006477Y140669940D01*
X216965981Y140597868D01*
X216959903Y140589000D01*
X216942789Y140628030D01*
X216896776Y140742991D01*
X216823090Y140930686D01*
X216722956Y141187920D01*
X216597601Y141511497D01*
X216448251Y141898222D01*
X216276132Y142344899D01*
X216082471Y142848333D01*
X215868492Y143405327D01*
X215635424Y144012687D01*
X215384490Y144667216D01*
X215116919Y145365719D01*
X214833935Y146105001D01*
X214536766Y146881866D01*
X214226636Y147693117D01*
X213904773Y148535561D01*
X213572402Y149406000D01*
X213230750Y150301240D01*
X212881042Y151218084D01*
X212789531Y151458083D01*
X212437370Y152381701D01*
X212092759Y153285444D01*
X211756939Y154166063D01*
X211431150Y155020308D01*
X211116631Y155844931D01*
X210814623Y156636683D01*
X210526365Y157392314D01*
X210253097Y158108577D01*
X209996059Y158782221D01*
X209756491Y159409997D01*
X209535633Y159988657D01*
X209334725Y160514952D01*
X209155006Y160985633D01*
X208997717Y161397450D01*
X208864097Y161747154D01*
X208755387Y162031497D01*
X208672825Y162247230D01*
X208617653Y162391103D01*
X208591110Y162459868D01*
X208589171Y162464750D01*
X208532864Y162602333D01*
X211295682Y162602072D01*
X214058500Y162601810D01*
X215854527Y157924239D01*
X216085578Y157323122D01*
X216308476Y156744445D01*
X216521324Y156193074D01*
X216722221Y155673876D01*
X216909270Y155191718D01*
X217080570Y154751467D01*
X217234223Y154357989D01*
X217368329Y154016150D01*
X217480990Y153730819D01*
X217570306Y153506861D01*
X217634378Y153349144D01*
X217671307Y153262533D01*
X217679812Y153246667D01*
X217702897Y153283314D01*
X217763467Y153390389D01*
X217859199Y153563593D01*
X217987774Y153798627D01*
X218146872Y154091192D01*
X218334172Y154436989D01*
X218547354Y154831719D01*
X218784099Y155271083D01*
X219042084Y155750783D01*
X219318992Y156266519D01*
X219612500Y156813992D01*
X219920289Y157388903D01*
X220240039Y157986954D01*
X220410181Y158305500D01*
X220735203Y158913865D01*
X221049434Y159501326D01*
X221350555Y160063584D01*
X221636249Y160596341D01*
X221904197Y161095299D01*
X222152083Y161556158D01*
X222377588Y161974620D01*
X222578394Y162346386D01*
X222752185Y162667158D01*
X222896641Y162932637D01*
X223009445Y163138524D01*
X223088280Y163280521D01*
X223130828Y163354329D01*
X223137843Y163364333D01*
X223160309Y163327534D01*
X223160309Y163327534D01*
G37*
X223160309Y163327534D02*
X223219706Y163220012D01*
X223313751Y163046084D01*
X223440162Y162810065D01*
X223596655Y162516272D01*
X223780947Y162169020D01*
X223990756Y161772625D01*
X224223798Y161331402D01*
X224477791Y160849668D01*
X224750451Y160331739D01*
X225039496Y159781929D01*
X225342642Y159204556D01*
X225657607Y158603934D01*
X225826282Y158281985D01*
X226188231Y157591722D01*
X226530262Y156941056D01*
X226850764Y156332995D01*
X227148128Y155770547D01*
X227420744Y155256719D01*
X227667001Y154794520D01*
X227885290Y154386956D01*
X228074000Y154037036D01*
X228231521Y153747768D01*
X228356244Y153522158D01*
X228446557Y153363216D01*
X228500851Y153273948D01*
X228517395Y153254901D01*
X228535976Y153300888D01*
X228582783Y153421035D01*
X228655915Y153610375D01*
X228753471Y153863945D01*
X228873550Y154176777D01*
X229014249Y154543908D01*
X229173669Y154960370D01*
X229349908Y155421199D01*
X229541064Y155921430D01*
X229745237Y156456096D01*
X229960526Y157020233D01*
X230185028Y157608875D01*
X230317452Y157956250D01*
X232088286Y162602334D01*
X234855142Y162602333D01*
X235329843Y162601803D01*
X235778153Y162600271D01*
X236193134Y162597828D01*
X236567852Y162594565D01*
X236895369Y162590571D01*
X237168750Y162585938D01*
X237381059Y162580754D01*
X237525359Y162575112D01*
X237594715Y162569100D01*
X237599913Y162566601D01*
X237583172Y162524520D01*
X237537531Y162406507D01*
X237464209Y162215759D01*
X237364427Y161955471D01*
X237239404Y161628840D01*
X237090359Y161239063D01*
X236918513Y160789334D01*
X236725085Y160282852D01*
X236511294Y159722812D01*
X236278361Y159112410D01*
X236027504Y158454843D01*
X235759945Y157753306D01*
X235476901Y157010997D01*
X235179593Y156231111D01*
X234869241Y155416844D01*
X234547064Y154571394D01*
X234214282Y153697956D01*
X233872115Y152799726D01*
X233521781Y151879901D01*
X233403960Y151570518D01*
X233051152Y150644247D01*
X232706039Y149738536D01*
X232369842Y148856581D01*
X232043784Y148001576D01*
X231729087Y147176717D01*
X231426975Y146385198D01*
X231138669Y145630216D01*
X230865391Y144914965D01*
X230608366Y144242641D01*
X230368814Y143616439D01*
X230147958Y143039554D01*
X229947021Y142515180D01*
X229767226Y142046515D01*
X229609794Y141636752D01*
X229475948Y141289087D01*
X229366911Y141006715D01*
X229283905Y140792831D01*
X229228153Y140650631D01*
X229200876Y140583310D01*
X229198328Y140578066D01*
X229175647Y140611358D01*
X229116255Y140715874D01*
X229022263Y140887599D01*
X228895786Y141122517D01*
X228738937Y141416613D01*
X228553828Y141765871D01*
X228342572Y142166276D01*
X228107282Y142613811D01*
X227850072Y143104461D01*
X227573054Y143634210D01*
X227278342Y144199044D01*
X226968047Y144794945D01*
X226644285Y145417899D01*
X226309166Y146063890D01*
X226146573Y146377733D01*
X225806550Y147034203D01*
X225476974Y147670245D01*
X225159960Y148281790D01*
X224857622Y148864770D01*
X224572073Y149415117D01*
X224305429Y149928763D01*
X224059803Y150401639D01*
X223837309Y150829679D01*
X223640061Y151208812D01*
X223470175Y151534972D01*
X223329763Y151804091D01*
X223220940Y152012099D01*
X223145820Y152154929D01*
X223106518Y152228514D01*
X223101040Y152237998D01*
X223078958Y152204350D01*
X223019936Y152099589D01*
X222926092Y151927721D01*
X222799545Y151692754D01*
X222642410Y151398695D01*
X222456805Y151049551D01*
X222244848Y150649328D01*
X222008656Y150202034D01*
X221750346Y149711676D01*
X221472035Y149182260D01*
X221175842Y148617794D01*
X220863882Y148022285D01*
X220538274Y147399739D01*
X220201135Y146754164D01*
X220030861Y146427748D01*
X219688653Y145771809D01*
X219356930Y145136592D01*
X219037812Y144526128D01*
X218733420Y143944449D01*
X218445876Y143395588D01*
X218177298Y142883575D01*
X217929809Y142412444D01*
X217705529Y141986225D01*
X217506577Y141608952D01*
X217335076Y141284654D01*
X217193145Y141017365D01*
X217082905Y140811117D01*
X217006477Y140669940D01*
X216965981Y140597868D01*
X216959903Y140589000D01*
X216942789Y140628030D01*
X216896776Y140742991D01*
X216823090Y140930686D01*
X216722956Y141187920D01*
X216597601Y141511497D01*
X216448251Y141898222D01*
X216276132Y142344899D01*
X216082471Y142848333D01*
X215868492Y143405327D01*
X215635424Y144012687D01*
X215384490Y144667216D01*
X215116919Y145365719D01*
X214833935Y146105001D01*
X214536766Y146881866D01*
X214226636Y147693117D01*
X213904773Y148535561D01*
X213572402Y149406000D01*
X213230750Y150301240D01*
X212881042Y151218084D01*
X212789531Y151458083D01*
X212437370Y152381701D01*
X212092759Y153285444D01*
X211756939Y154166063D01*
X211431150Y155020308D01*
X211116631Y155844931D01*
X210814623Y156636683D01*
X210526365Y157392314D01*
X210253097Y158108577D01*
X209996059Y158782221D01*
X209756491Y159409997D01*
X209535633Y159988657D01*
X209334725Y160514952D01*
X209155006Y160985633D01*
X208997717Y161397450D01*
X208864097Y161747154D01*
X208755387Y162031497D01*
X208672825Y162247230D01*
X208617653Y162391103D01*
X208591110Y162459868D01*
X208589171Y162464750D01*
X208532864Y162602333D01*
X211295682Y162602072D01*
X214058500Y162601810D01*
X215854527Y157924239D01*
X216085578Y157323122D01*
X216308476Y156744445D01*
X216521324Y156193074D01*
X216722221Y155673876D01*
X216909270Y155191718D01*
X217080570Y154751467D01*
X217234223Y154357989D01*
X217368329Y154016150D01*
X217480990Y153730819D01*
X217570306Y153506861D01*
X217634378Y153349144D01*
X217671307Y153262533D01*
X217679812Y153246667D01*
X217702897Y153283314D01*
X217763467Y153390389D01*
X217859199Y153563593D01*
X217987774Y153798627D01*
X218146872Y154091192D01*
X218334172Y154436989D01*
X218547354Y154831719D01*
X218784099Y155271083D01*
X219042084Y155750783D01*
X219318992Y156266519D01*
X219612500Y156813992D01*
X219920289Y157388903D01*
X220240039Y157986954D01*
X220410181Y158305500D01*
X220735203Y158913865D01*
X221049434Y159501326D01*
X221350555Y160063584D01*
X221636249Y160596341D01*
X221904197Y161095299D01*
X222152083Y161556158D01*
X222377588Y161974620D01*
X222578394Y162346386D01*
X222752185Y162667158D01*
X222896641Y162932637D01*
X223009445Y163138524D01*
X223088280Y163280521D01*
X223130828Y163354329D01*
X223137843Y163364333D01*
X223160309Y163327534D01*
G36*
X197566797Y163394155D02*
G01*
X198562169Y163329261D01*
X199517714Y163190232D01*
X200436353Y162976014D01*
X201321005Y162685557D01*
X202174590Y162317807D01*
X203000027Y161871713D01*
X203800236Y161346223D01*
X204300667Y160967607D01*
X204494748Y160803681D01*
X204729882Y160590373D01*
X204991560Y160342187D01*
X205265276Y160073627D01*
X205536522Y159799199D01*
X205790790Y159533407D01*
X206013574Y159290756D01*
X206190365Y159085751D01*
X206222292Y159046333D01*
X206598068Y158541844D01*
X206962641Y157988870D01*
X207303822Y157408898D01*
X207609425Y156823409D01*
X207867261Y156253887D01*
X207999431Y155913667D01*
X208165971Y155403058D01*
X208318557Y154840793D01*
X208448989Y154259687D01*
X208540527Y153748553D01*
X208579993Y153426965D01*
X208610062Y153042983D01*
X208630614Y152615737D01*
X208641529Y152164359D01*
X208642688Y151707982D01*
X208633970Y151265737D01*
X208615258Y150856755D01*
X208586430Y150500169D01*
X208562055Y150304500D01*
X208386407Y149355893D01*
X208147871Y148459339D01*
X207842845Y147607010D01*
X207467728Y146791079D01*
X207018919Y146003721D01*
X206492818Y145237106D01*
X205885824Y144483410D01*
X205881869Y144478839D01*
X205196984Y143749459D01*
X204466566Y143089802D01*
X203693304Y142501347D01*
X202879888Y141985573D01*
X202029008Y141543956D01*
X201143355Y141177976D01*
X200225619Y140889110D01*
X199278489Y140678836D01*
X198839667Y140609731D01*
X198606981Y140584570D01*
X198311115Y140563032D01*
X197971140Y140545563D01*
X197606129Y140532607D01*
X197235153Y140524612D01*
X196877287Y140522021D01*
X196551601Y140525282D01*
X196277168Y140534840D01*
X196118958Y140546164D01*
X195126953Y140682195D01*
X194170687Y140894970D01*
X193250003Y141184551D01*
X192364745Y141551000D01*
X191514756Y141994382D01*
X190699879Y142514758D01*
X190120369Y142948657D01*
X189904084Y143130951D01*
X189649700Y143360994D01*
X189372329Y143623725D01*
X189087084Y143904085D01*
X188809075Y144187012D01*
X188553414Y144457448D01*
X188335212Y144700332D01*
X188197789Y144864667D01*
X187632326Y145633520D01*
X187144077Y146425681D01*
X186730300Y147247477D01*
X186388255Y148105235D01*
X186115199Y149005283D01*
X185908391Y149953948D01*
X185855508Y150270414D01*
X185832012Y150445852D01*
X185813850Y150641453D01*
X185800493Y150869658D01*
X185791412Y151142908D01*
X185786079Y151473644D01*
X185783965Y151874308D01*
X185783952Y151888388D01*
X190892598Y151888388D01*
X190938828Y151178931D01*
X191062151Y150478926D01*
X191262604Y149797344D01*
X191455978Y149320263D01*
X191703453Y148853441D01*
X192019292Y148379591D01*
X192390136Y147913823D01*
X192802629Y147471246D01*
X193243411Y147066971D01*
X193699125Y146716106D01*
X193844439Y146618539D01*
X194460343Y146269852D01*
X195109515Y145998082D01*
X195788285Y145803962D01*
X196492982Y145688226D01*
X197219937Y145651606D01*
X197965478Y145694837D01*
X198268670Y145734742D01*
X198772782Y145834193D01*
X199254411Y145978805D01*
X199743313Y146178205D01*
X199961500Y146282351D01*
X200439618Y146543630D01*
X200876714Y146836560D01*
X201296273Y147178292D01*
X201657967Y147521266D01*
X202036321Y147925873D01*
X202353430Y148321950D01*
X202626418Y148733015D01*
X202872406Y149182587D01*
X202882982Y149203833D01*
X203117990Y149728269D01*
X203293250Y150241027D01*
X203413511Y150763171D01*
X203483524Y151315764D01*
X203508037Y151919869D01*
X203508174Y151976667D01*
X203482982Y152617243D01*
X203404821Y153208821D01*
X203269031Y153771938D01*
X203070951Y154327129D01*
X202878376Y154751350D01*
X202576724Y155281820D01*
X202205032Y155799436D01*
X201776065Y156291633D01*
X201302589Y156745846D01*
X200797370Y157149512D01*
X200273174Y157490064D01*
X199895634Y157687046D01*
X199249097Y157943787D01*
X198569662Y158128463D01*
X197872237Y158238476D01*
X197171726Y158271225D01*
X196686761Y158246717D01*
X196160596Y158184005D01*
X195690943Y158095554D01*
X195251809Y157974621D01*
X194817198Y157814463D01*
X194524033Y157685772D01*
X194000509Y157402987D01*
X193485336Y157048178D01*
X192991059Y156633885D01*
X192530223Y156172647D01*
X192115376Y155677002D01*
X191759062Y155159490D01*
X191477868Y154641301D01*
X191216095Y153983753D01*
X191031268Y153299770D01*
X190923423Y152598325D01*
X190892598Y151888388D01*
X185783952Y151888388D01*
X185783885Y151955500D01*
X185784505Y152334702D01*
X185787241Y152644024D01*
X185792846Y152898242D01*
X185802076Y153112132D01*
X185815686Y153300470D01*
X185834429Y153478033D01*
X185859061Y153659595D01*
X185876860Y153775833D01*
X186064517Y154725602D01*
X186321790Y155631944D01*
X186650590Y156498483D01*
X187052823Y157328842D01*
X187530401Y158126644D01*
X188085231Y158895514D01*
X188719222Y159639073D01*
X189256346Y160190623D01*
X189999890Y160860902D01*
X190771606Y161451714D01*
X191572632Y161963496D01*
X192404104Y162396687D01*
X193267160Y162751724D01*
X194162936Y163029048D01*
X195092570Y163229094D01*
X196057198Y163352303D01*
X197057958Y163399112D01*
X197566797Y163394155D01*
X197566797Y163394155D01*
G37*
X197566797Y163394155D02*
X198562169Y163329261D01*
X199517714Y163190232D01*
X200436353Y162976014D01*
X201321005Y162685557D01*
X202174590Y162317807D01*
X203000027Y161871713D01*
X203800236Y161346223D01*
X204300667Y160967607D01*
X204494748Y160803681D01*
X204729882Y160590373D01*
X204991560Y160342187D01*
X205265276Y160073627D01*
X205536522Y159799199D01*
X205790790Y159533407D01*
X206013574Y159290756D01*
X206190365Y159085751D01*
X206222292Y159046333D01*
X206598068Y158541844D01*
X206962641Y157988870D01*
X207303822Y157408898D01*
X207609425Y156823409D01*
X207867261Y156253887D01*
X207999431Y155913667D01*
X208165971Y155403058D01*
X208318557Y154840793D01*
X208448989Y154259687D01*
X208540527Y153748553D01*
X208579993Y153426965D01*
X208610062Y153042983D01*
X208630614Y152615737D01*
X208641529Y152164359D01*
X208642688Y151707982D01*
X208633970Y151265737D01*
X208615258Y150856755D01*
X208586430Y150500169D01*
X208562055Y150304500D01*
X208386407Y149355893D01*
X208147871Y148459339D01*
X207842845Y147607010D01*
X207467728Y146791079D01*
X207018919Y146003721D01*
X206492818Y145237106D01*
X205885824Y144483410D01*
X205881869Y144478839D01*
X205196984Y143749459D01*
X204466566Y143089802D01*
X203693304Y142501347D01*
X202879888Y141985573D01*
X202029008Y141543956D01*
X201143355Y141177976D01*
X200225619Y140889110D01*
X199278489Y140678836D01*
X198839667Y140609731D01*
X198606981Y140584570D01*
X198311115Y140563032D01*
X197971140Y140545563D01*
X197606129Y140532607D01*
X197235153Y140524612D01*
X196877287Y140522021D01*
X196551601Y140525282D01*
X196277168Y140534840D01*
X196118958Y140546164D01*
X195126953Y140682195D01*
X194170687Y140894970D01*
X193250003Y141184551D01*
X192364745Y141551000D01*
X191514756Y141994382D01*
X190699879Y142514758D01*
X190120369Y142948657D01*
X189904084Y143130951D01*
X189649700Y143360994D01*
X189372329Y143623725D01*
X189087084Y143904085D01*
X188809075Y144187012D01*
X188553414Y144457448D01*
X188335212Y144700332D01*
X188197789Y144864667D01*
X187632326Y145633520D01*
X187144077Y146425681D01*
X186730300Y147247477D01*
X186388255Y148105235D01*
X186115199Y149005283D01*
X185908391Y149953948D01*
X185855508Y150270414D01*
X185832012Y150445852D01*
X185813850Y150641453D01*
X185800493Y150869658D01*
X185791412Y151142908D01*
X185786079Y151473644D01*
X185783965Y151874308D01*
X185783952Y151888388D01*
X190892598Y151888388D01*
X190938828Y151178931D01*
X191062151Y150478926D01*
X191262604Y149797344D01*
X191455978Y149320263D01*
X191703453Y148853441D01*
X192019292Y148379591D01*
X192390136Y147913823D01*
X192802629Y147471246D01*
X193243411Y147066971D01*
X193699125Y146716106D01*
X193844439Y146618539D01*
X194460343Y146269852D01*
X195109515Y145998082D01*
X195788285Y145803962D01*
X196492982Y145688226D01*
X197219937Y145651606D01*
X197965478Y145694837D01*
X198268670Y145734742D01*
X198772782Y145834193D01*
X199254411Y145978805D01*
X199743313Y146178205D01*
X199961500Y146282351D01*
X200439618Y146543630D01*
X200876714Y146836560D01*
X201296273Y147178292D01*
X201657967Y147521266D01*
X202036321Y147925873D01*
X202353430Y148321950D01*
X202626418Y148733015D01*
X202872406Y149182587D01*
X202882982Y149203833D01*
X203117990Y149728269D01*
X203293250Y150241027D01*
X203413511Y150763171D01*
X203483524Y151315764D01*
X203508037Y151919869D01*
X203508174Y151976667D01*
X203482982Y152617243D01*
X203404821Y153208821D01*
X203269031Y153771938D01*
X203070951Y154327129D01*
X202878376Y154751350D01*
X202576724Y155281820D01*
X202205032Y155799436D01*
X201776065Y156291633D01*
X201302589Y156745846D01*
X200797370Y157149512D01*
X200273174Y157490064D01*
X199895634Y157687046D01*
X199249097Y157943787D01*
X198569662Y158128463D01*
X197872237Y158238476D01*
X197171726Y158271225D01*
X196686761Y158246717D01*
X196160596Y158184005D01*
X195690943Y158095554D01*
X195251809Y157974621D01*
X194817198Y157814463D01*
X194524033Y157685772D01*
X194000509Y157402987D01*
X193485336Y157048178D01*
X192991059Y156633885D01*
X192530223Y156172647D01*
X192115376Y155677002D01*
X191759062Y155159490D01*
X191477868Y154641301D01*
X191216095Y153983753D01*
X191031268Y153299770D01*
X190923423Y152598325D01*
X190892598Y151888388D01*
X185783952Y151888388D01*
X185783885Y151955500D01*
X185784505Y152334702D01*
X185787241Y152644024D01*
X185792846Y152898242D01*
X185802076Y153112132D01*
X185815686Y153300470D01*
X185834429Y153478033D01*
X185859061Y153659595D01*
X185876860Y153775833D01*
X186064517Y154725602D01*
X186321790Y155631944D01*
X186650590Y156498483D01*
X187052823Y157328842D01*
X187530401Y158126644D01*
X188085231Y158895514D01*
X188719222Y159639073D01*
X189256346Y160190623D01*
X189999890Y160860902D01*
X190771606Y161451714D01*
X191572632Y161963496D01*
X192404104Y162396687D01*
X193267160Y162751724D01*
X194162936Y163029048D01*
X195092570Y163229094D01*
X196057198Y163352303D01*
X197057958Y163399112D01*
X197566797Y163394155D01*
D14*
X214931666Y-105027380D02*
X214931666Y-105741666D01*
X214884047Y-105884523D01*
X214788809Y-105979761D01*
X214645952Y-106027380D01*
X214550714Y-106027380D01*
X215360238Y-105122619D02*
X215407857Y-105075000D01*
X215503095Y-105027380D01*
X215741190Y-105027380D01*
X215836428Y-105075000D01*
X215884047Y-105122619D01*
X215931666Y-105217857D01*
X215931666Y-105313095D01*
X215884047Y-105455952D01*
X215312619Y-106027380D01*
X215931666Y-106027380D01*
X208967380Y-131583333D02*
X209681666Y-131583333D01*
X209824523Y-131630952D01*
X209919761Y-131726190D01*
X209967380Y-131869047D01*
X209967380Y-131964285D01*
X209967380Y-130583333D02*
X209967380Y-131154761D01*
X209967380Y-130869047D02*
X208967380Y-130869047D01*
X209110238Y-130964285D01*
X209205476Y-131059523D01*
X209253095Y-131154761D01*
X149617133Y-114007780D02*
X149283800Y-113531590D01*
X149045704Y-114007780D02*
X149045704Y-113007780D01*
X149426657Y-113007780D01*
X149521895Y-113055400D01*
X149569514Y-113103019D01*
X149617133Y-113198257D01*
X149617133Y-113341114D01*
X149569514Y-113436352D01*
X149521895Y-113483971D01*
X149426657Y-113531590D01*
X149045704Y-113531590D01*
X150569514Y-114007780D02*
X149998085Y-114007780D01*
X150283800Y-114007780D02*
X150283800Y-113007780D01*
X150188561Y-113150638D01*
X150093323Y-113245876D01*
X149998085Y-113293495D01*
X79489466Y-57840180D02*
X79489466Y-56840180D01*
X79822800Y-57554466D01*
X80156133Y-56840180D01*
X80156133Y-57840180D01*
X80632323Y-57840180D02*
X80632323Y-56840180D01*
X80632323Y-57316371D02*
X81203752Y-57316371D01*
X81203752Y-57840180D02*
X81203752Y-56840180D01*
X81632323Y-56935419D02*
X81679942Y-56887800D01*
X81775180Y-56840180D01*
X82013276Y-56840180D01*
X82108514Y-56887800D01*
X82156133Y-56935419D01*
X82203752Y-57030657D01*
X82203752Y-57125895D01*
X82156133Y-57268752D01*
X81584704Y-57840180D01*
X82203752Y-57840180D01*
X79235466Y-143209580D02*
X79235466Y-142209580D01*
X79568800Y-142923866D01*
X79902133Y-142209580D01*
X79902133Y-143209580D01*
X80378323Y-143209580D02*
X80378323Y-142209580D01*
X80378323Y-142685771D02*
X80949752Y-142685771D01*
X80949752Y-143209580D02*
X80949752Y-142209580D01*
X81949752Y-143209580D02*
X81378323Y-143209580D01*
X81664038Y-143209580D02*
X81664038Y-142209580D01*
X81568800Y-142352438D01*
X81473561Y-142447676D01*
X81378323Y-142495295D01*
M02*
