G04 #@! TF.GenerationSoftware,KiCad,Pcbnew,(5.1.2)-2*
G04 #@! TF.CreationDate,2019-10-16T00:28:00+08:00*
G04 #@! TF.ProjectId,BrainPower,42726169-6e50-46f7-9765-722e6b696361,rev?*
G04 #@! TF.SameCoordinates,Original*
G04 #@! TF.FileFunction,Legend,Bot*
G04 #@! TF.FilePolarity,Positive*
%FSLAX46Y46*%
G04 Gerber Fmt 4.6, Leading zero omitted, Abs format (unit mm)*
G04 Created by KiCad (PCBNEW (5.1.2)-2) date 2019-10-16 00:28:00*
%MOMM*%
%LPD*%
G04 APERTURE LIST*
%ADD10C,0.010000*%
G04 APERTURE END LIST*
D10*
G36*
X125941666Y-96604667D02*
G01*
X129624666Y-96604667D01*
X129624666Y-75311000D01*
X125941666Y-75311000D01*
X125941666Y-96604667D01*
X125941666Y-96604667D01*
G37*
X125941666Y-96604667D02*
X129624666Y-96604667D01*
X129624666Y-75311000D01*
X125941666Y-75311000D01*
X125941666Y-96604667D01*
G36*
X142307329Y-74587376D02*
G01*
X142252379Y-74697330D01*
X142163964Y-74876053D01*
X142043877Y-75119865D01*
X141893914Y-75425089D01*
X141715868Y-75788044D01*
X141511534Y-76205051D01*
X141282705Y-76672431D01*
X141031177Y-77186505D01*
X140758743Y-77743593D01*
X140467198Y-78340017D01*
X140158336Y-78972096D01*
X139833951Y-79636153D01*
X139495837Y-80328506D01*
X139145790Y-81045478D01*
X138785602Y-81783388D01*
X138417069Y-82538559D01*
X138041984Y-83307309D01*
X137662143Y-84085961D01*
X137279338Y-84870834D01*
X136895365Y-85658250D01*
X136512018Y-86444530D01*
X136131090Y-87225993D01*
X135754377Y-87998961D01*
X135383673Y-88759755D01*
X135020771Y-89504695D01*
X134667467Y-90230102D01*
X134325554Y-90932297D01*
X133996826Y-91607600D01*
X133683079Y-92252332D01*
X133386105Y-92862815D01*
X133107700Y-93435368D01*
X132849658Y-93966312D01*
X132613773Y-94451969D01*
X132401839Y-94888658D01*
X132215651Y-95272702D01*
X132057002Y-95600419D01*
X131927688Y-95868132D01*
X131829502Y-96072161D01*
X131764239Y-96208826D01*
X131754783Y-96228838D01*
X131577733Y-96604667D01*
X135641421Y-96604667D01*
X137409565Y-93006333D01*
X147299297Y-93006333D01*
X149097869Y-96604667D01*
X153199525Y-96604667D01*
X152130883Y-94435083D01*
X152010372Y-94190352D01*
X151854721Y-93874150D01*
X151666150Y-93490989D01*
X151446875Y-93045377D01*
X151199116Y-92541825D01*
X150925091Y-91984841D01*
X150627018Y-91378936D01*
X150307115Y-90728620D01*
X149967600Y-90038401D01*
X149615879Y-89323333D01*
X145500516Y-89323333D01*
X142362895Y-89323333D01*
X141772213Y-89323251D01*
X141260602Y-89322917D01*
X140822470Y-89322198D01*
X140452221Y-89320959D01*
X140144261Y-89319069D01*
X139892997Y-89316393D01*
X139692834Y-89312798D01*
X139538177Y-89308152D01*
X139423433Y-89302320D01*
X139343006Y-89295170D01*
X139291304Y-89286568D01*
X139262731Y-89276381D01*
X139251693Y-89264475D01*
X139252596Y-89250719D01*
X139253122Y-89249250D01*
X139279566Y-89189772D01*
X139338965Y-89063024D01*
X139427993Y-88875846D01*
X139543324Y-88635076D01*
X139681632Y-88347552D01*
X139839591Y-88020112D01*
X140013874Y-87659596D01*
X140201156Y-87272841D01*
X140398111Y-86866687D01*
X140601412Y-86447971D01*
X140807734Y-86023531D01*
X141013750Y-85600207D01*
X141216134Y-85184837D01*
X141411561Y-84784259D01*
X141596703Y-84405311D01*
X141768236Y-84054833D01*
X141922833Y-83739662D01*
X142057168Y-83466637D01*
X142167915Y-83242596D01*
X142251747Y-83074378D01*
X142305340Y-82968822D01*
X142325328Y-82932759D01*
X142347097Y-82969482D01*
X142403246Y-83076303D01*
X142490823Y-83247327D01*
X142606873Y-83476661D01*
X142748444Y-83758411D01*
X142912581Y-84086684D01*
X143096332Y-84455585D01*
X143296743Y-84859221D01*
X143510860Y-85291698D01*
X143735730Y-85747123D01*
X143740477Y-85756750D01*
X143970933Y-86224110D01*
X144194456Y-86677374D01*
X144407611Y-87109576D01*
X144606960Y-87513748D01*
X144789065Y-87882922D01*
X144950491Y-88210132D01*
X145087800Y-88488411D01*
X145197556Y-88710791D01*
X145276320Y-88870304D01*
X145317157Y-88952917D01*
X145500516Y-89323333D01*
X149615879Y-89323333D01*
X149610692Y-89312789D01*
X149238610Y-88556295D01*
X148853570Y-87773428D01*
X148457792Y-86968697D01*
X148053493Y-86146612D01*
X147642893Y-85311683D01*
X147228209Y-84468419D01*
X146811660Y-83621330D01*
X146706390Y-83407250D01*
X146305588Y-82592368D01*
X145914536Y-81797712D01*
X145534880Y-81026615D01*
X145168268Y-80282406D01*
X144816347Y-79568419D01*
X144480765Y-78887983D01*
X144163167Y-78244432D01*
X143865202Y-77641095D01*
X143588517Y-77081304D01*
X143334759Y-76568392D01*
X143105574Y-76105688D01*
X142902610Y-75696526D01*
X142727515Y-75344235D01*
X142581935Y-75052148D01*
X142467518Y-74823595D01*
X142385910Y-74661909D01*
X142338759Y-74570421D01*
X142327019Y-74549872D01*
X142307329Y-74587376D01*
X142307329Y-74587376D01*
G37*
X142307329Y-74587376D02*
X142252379Y-74697330D01*
X142163964Y-74876053D01*
X142043877Y-75119865D01*
X141893914Y-75425089D01*
X141715868Y-75788044D01*
X141511534Y-76205051D01*
X141282705Y-76672431D01*
X141031177Y-77186505D01*
X140758743Y-77743593D01*
X140467198Y-78340017D01*
X140158336Y-78972096D01*
X139833951Y-79636153D01*
X139495837Y-80328506D01*
X139145790Y-81045478D01*
X138785602Y-81783388D01*
X138417069Y-82538559D01*
X138041984Y-83307309D01*
X137662143Y-84085961D01*
X137279338Y-84870834D01*
X136895365Y-85658250D01*
X136512018Y-86444530D01*
X136131090Y-87225993D01*
X135754377Y-87998961D01*
X135383673Y-88759755D01*
X135020771Y-89504695D01*
X134667467Y-90230102D01*
X134325554Y-90932297D01*
X133996826Y-91607600D01*
X133683079Y-92252332D01*
X133386105Y-92862815D01*
X133107700Y-93435368D01*
X132849658Y-93966312D01*
X132613773Y-94451969D01*
X132401839Y-94888658D01*
X132215651Y-95272702D01*
X132057002Y-95600419D01*
X131927688Y-95868132D01*
X131829502Y-96072161D01*
X131764239Y-96208826D01*
X131754783Y-96228838D01*
X131577733Y-96604667D01*
X135641421Y-96604667D01*
X137409565Y-93006333D01*
X147299297Y-93006333D01*
X149097869Y-96604667D01*
X153199525Y-96604667D01*
X152130883Y-94435083D01*
X152010372Y-94190352D01*
X151854721Y-93874150D01*
X151666150Y-93490989D01*
X151446875Y-93045377D01*
X151199116Y-92541825D01*
X150925091Y-91984841D01*
X150627018Y-91378936D01*
X150307115Y-90728620D01*
X149967600Y-90038401D01*
X149615879Y-89323333D01*
X145500516Y-89323333D01*
X142362895Y-89323333D01*
X141772213Y-89323251D01*
X141260602Y-89322917D01*
X140822470Y-89322198D01*
X140452221Y-89320959D01*
X140144261Y-89319069D01*
X139892997Y-89316393D01*
X139692834Y-89312798D01*
X139538177Y-89308152D01*
X139423433Y-89302320D01*
X139343006Y-89295170D01*
X139291304Y-89286568D01*
X139262731Y-89276381D01*
X139251693Y-89264475D01*
X139252596Y-89250719D01*
X139253122Y-89249250D01*
X139279566Y-89189772D01*
X139338965Y-89063024D01*
X139427993Y-88875846D01*
X139543324Y-88635076D01*
X139681632Y-88347552D01*
X139839591Y-88020112D01*
X140013874Y-87659596D01*
X140201156Y-87272841D01*
X140398111Y-86866687D01*
X140601412Y-86447971D01*
X140807734Y-86023531D01*
X141013750Y-85600207D01*
X141216134Y-85184837D01*
X141411561Y-84784259D01*
X141596703Y-84405311D01*
X141768236Y-84054833D01*
X141922833Y-83739662D01*
X142057168Y-83466637D01*
X142167915Y-83242596D01*
X142251747Y-83074378D01*
X142305340Y-82968822D01*
X142325328Y-82932759D01*
X142347097Y-82969482D01*
X142403246Y-83076303D01*
X142490823Y-83247327D01*
X142606873Y-83476661D01*
X142748444Y-83758411D01*
X142912581Y-84086684D01*
X143096332Y-84455585D01*
X143296743Y-84859221D01*
X143510860Y-85291698D01*
X143735730Y-85747123D01*
X143740477Y-85756750D01*
X143970933Y-86224110D01*
X144194456Y-86677374D01*
X144407611Y-87109576D01*
X144606960Y-87513748D01*
X144789065Y-87882922D01*
X144950491Y-88210132D01*
X145087800Y-88488411D01*
X145197556Y-88710791D01*
X145276320Y-88870304D01*
X145317157Y-88952917D01*
X145500516Y-89323333D01*
X149615879Y-89323333D01*
X149610692Y-89312789D01*
X149238610Y-88556295D01*
X148853570Y-87773428D01*
X148457792Y-86968697D01*
X148053493Y-86146612D01*
X147642893Y-85311683D01*
X147228209Y-84468419D01*
X146811660Y-83621330D01*
X146706390Y-83407250D01*
X146305588Y-82592368D01*
X145914536Y-81797712D01*
X145534880Y-81026615D01*
X145168268Y-80282406D01*
X144816347Y-79568419D01*
X144480765Y-78887983D01*
X144163167Y-78244432D01*
X143865202Y-77641095D01*
X143588517Y-77081304D01*
X143334759Y-76568392D01*
X143105574Y-76105688D01*
X142902610Y-75696526D01*
X142727515Y-75344235D01*
X142581935Y-75052148D01*
X142467518Y-74823595D01*
X142385910Y-74661909D01*
X142338759Y-74570421D01*
X142327019Y-74549872D01*
X142307329Y-74587376D01*
G36*
X164877750Y-75322691D02*
G01*
X164251825Y-75325598D01*
X163704518Y-75328375D01*
X163229780Y-75331185D01*
X162821563Y-75334190D01*
X162473817Y-75337551D01*
X162180496Y-75341433D01*
X161935549Y-75345996D01*
X161732929Y-75351403D01*
X161566587Y-75357817D01*
X161430474Y-75365399D01*
X161318543Y-75374312D01*
X161224744Y-75384719D01*
X161143028Y-75396781D01*
X161067349Y-75410661D01*
X160991656Y-75426521D01*
X160989329Y-75427027D01*
X160276129Y-75624013D01*
X159597075Y-75894415D01*
X158957065Y-76233546D01*
X158360998Y-76636719D01*
X157813774Y-77099249D01*
X157320290Y-77616449D01*
X156885446Y-78183631D01*
X156514142Y-78796110D01*
X156211275Y-79449199D01*
X155981744Y-80138211D01*
X155954017Y-80244076D01*
X155846254Y-80741451D01*
X155779622Y-81230269D01*
X155751198Y-81740224D01*
X155756277Y-82253453D01*
X155799973Y-82869215D01*
X155889080Y-83435486D01*
X156029709Y-83977770D01*
X156227973Y-84521571D01*
X156384586Y-84875071D01*
X156698086Y-85456583D01*
X157075690Y-86011033D01*
X157507056Y-86527344D01*
X157981840Y-86994439D01*
X158489698Y-87401241D01*
X159020286Y-87736671D01*
X159093443Y-87776067D01*
X159254870Y-87866578D01*
X159377127Y-87945725D01*
X159446257Y-88003889D01*
X159456058Y-88025967D01*
X159430749Y-88066882D01*
X159361737Y-88174123D01*
X159251893Y-88343310D01*
X159104086Y-88570063D01*
X158921185Y-88850002D01*
X158706060Y-89178745D01*
X158461581Y-89551912D01*
X158190616Y-89965124D01*
X157896035Y-90413998D01*
X157580708Y-90894155D01*
X157247505Y-91401214D01*
X156899294Y-91930795D01*
X156637334Y-92329000D01*
X153837911Y-96583500D01*
X156029372Y-96594965D01*
X156516751Y-96597397D01*
X156926450Y-96599025D01*
X157265452Y-96599641D01*
X157540741Y-96599037D01*
X157759303Y-96597005D01*
X157928120Y-96593338D01*
X158054177Y-96587827D01*
X158144458Y-96580264D01*
X158205947Y-96570443D01*
X158245628Y-96558154D01*
X158270486Y-96543191D01*
X158285494Y-96527828D01*
X158316962Y-96482539D01*
X158391791Y-96371081D01*
X158506922Y-96198092D01*
X158659294Y-95968209D01*
X158845850Y-95686071D01*
X159063530Y-95356315D01*
X159309274Y-94983579D01*
X159580024Y-94572502D01*
X159872720Y-94127720D01*
X160184303Y-93653872D01*
X160511714Y-93155596D01*
X160851893Y-92637529D01*
X160910161Y-92548757D01*
X163470166Y-88648288D01*
X164676666Y-88646000D01*
X164676666Y-96604667D01*
X168359666Y-96604667D01*
X168359666Y-83327770D01*
X164669222Y-83327770D01*
X164668927Y-83724322D01*
X164668059Y-84075570D01*
X164666641Y-84374524D01*
X164664694Y-84614196D01*
X164662241Y-84787596D01*
X164659302Y-84887737D01*
X164657204Y-84910083D01*
X164610952Y-84924645D01*
X164492348Y-84936983D01*
X164313681Y-84947044D01*
X164087238Y-84954776D01*
X163825306Y-84960124D01*
X163540173Y-84963037D01*
X163244126Y-84963462D01*
X162949454Y-84961345D01*
X162668443Y-84956634D01*
X162413381Y-84949277D01*
X162196555Y-84939219D01*
X162030254Y-84926409D01*
X161988500Y-84921561D01*
X161497259Y-84816672D01*
X161042365Y-84638308D01*
X160630069Y-84391517D01*
X160266623Y-84081348D01*
X159958278Y-83712849D01*
X159711287Y-83291071D01*
X159582236Y-82978318D01*
X159495544Y-82651110D01*
X159442991Y-82280928D01*
X159426381Y-81899298D01*
X159447514Y-81537747D01*
X159486816Y-81308827D01*
X159637948Y-80844724D01*
X159861960Y-80414613D01*
X160151174Y-80026431D01*
X160497911Y-79688116D01*
X160894494Y-79407605D01*
X161333243Y-79192837D01*
X161628666Y-79094636D01*
X161716381Y-79073245D01*
X161813706Y-79056177D01*
X161931012Y-79042945D01*
X162078675Y-79033063D01*
X162267066Y-79026044D01*
X162506560Y-79021400D01*
X162807528Y-79018644D01*
X163180345Y-79017290D01*
X163279666Y-79017123D01*
X164655500Y-79015167D01*
X164666459Y-81936167D01*
X164668010Y-82426703D01*
X164668924Y-82892900D01*
X164669222Y-83327770D01*
X168359666Y-83327770D01*
X168359666Y-75306902D01*
X164877750Y-75322691D01*
X164877750Y-75322691D01*
G37*
X164877750Y-75322691D02*
X164251825Y-75325598D01*
X163704518Y-75328375D01*
X163229780Y-75331185D01*
X162821563Y-75334190D01*
X162473817Y-75337551D01*
X162180496Y-75341433D01*
X161935549Y-75345996D01*
X161732929Y-75351403D01*
X161566587Y-75357817D01*
X161430474Y-75365399D01*
X161318543Y-75374312D01*
X161224744Y-75384719D01*
X161143028Y-75396781D01*
X161067349Y-75410661D01*
X160991656Y-75426521D01*
X160989329Y-75427027D01*
X160276129Y-75624013D01*
X159597075Y-75894415D01*
X158957065Y-76233546D01*
X158360998Y-76636719D01*
X157813774Y-77099249D01*
X157320290Y-77616449D01*
X156885446Y-78183631D01*
X156514142Y-78796110D01*
X156211275Y-79449199D01*
X155981744Y-80138211D01*
X155954017Y-80244076D01*
X155846254Y-80741451D01*
X155779622Y-81230269D01*
X155751198Y-81740224D01*
X155756277Y-82253453D01*
X155799973Y-82869215D01*
X155889080Y-83435486D01*
X156029709Y-83977770D01*
X156227973Y-84521571D01*
X156384586Y-84875071D01*
X156698086Y-85456583D01*
X157075690Y-86011033D01*
X157507056Y-86527344D01*
X157981840Y-86994439D01*
X158489698Y-87401241D01*
X159020286Y-87736671D01*
X159093443Y-87776067D01*
X159254870Y-87866578D01*
X159377127Y-87945725D01*
X159446257Y-88003889D01*
X159456058Y-88025967D01*
X159430749Y-88066882D01*
X159361737Y-88174123D01*
X159251893Y-88343310D01*
X159104086Y-88570063D01*
X158921185Y-88850002D01*
X158706060Y-89178745D01*
X158461581Y-89551912D01*
X158190616Y-89965124D01*
X157896035Y-90413998D01*
X157580708Y-90894155D01*
X157247505Y-91401214D01*
X156899294Y-91930795D01*
X156637334Y-92329000D01*
X153837911Y-96583500D01*
X156029372Y-96594965D01*
X156516751Y-96597397D01*
X156926450Y-96599025D01*
X157265452Y-96599641D01*
X157540741Y-96599037D01*
X157759303Y-96597005D01*
X157928120Y-96593338D01*
X158054177Y-96587827D01*
X158144458Y-96580264D01*
X158205947Y-96570443D01*
X158245628Y-96558154D01*
X158270486Y-96543191D01*
X158285494Y-96527828D01*
X158316962Y-96482539D01*
X158391791Y-96371081D01*
X158506922Y-96198092D01*
X158659294Y-95968209D01*
X158845850Y-95686071D01*
X159063530Y-95356315D01*
X159309274Y-94983579D01*
X159580024Y-94572502D01*
X159872720Y-94127720D01*
X160184303Y-93653872D01*
X160511714Y-93155596D01*
X160851893Y-92637529D01*
X160910161Y-92548757D01*
X163470166Y-88648288D01*
X164676666Y-88646000D01*
X164676666Y-96604667D01*
X168359666Y-96604667D01*
X168359666Y-83327770D01*
X164669222Y-83327770D01*
X164668927Y-83724322D01*
X164668059Y-84075570D01*
X164666641Y-84374524D01*
X164664694Y-84614196D01*
X164662241Y-84787596D01*
X164659302Y-84887737D01*
X164657204Y-84910083D01*
X164610952Y-84924645D01*
X164492348Y-84936983D01*
X164313681Y-84947044D01*
X164087238Y-84954776D01*
X163825306Y-84960124D01*
X163540173Y-84963037D01*
X163244126Y-84963462D01*
X162949454Y-84961345D01*
X162668443Y-84956634D01*
X162413381Y-84949277D01*
X162196555Y-84939219D01*
X162030254Y-84926409D01*
X161988500Y-84921561D01*
X161497259Y-84816672D01*
X161042365Y-84638308D01*
X160630069Y-84391517D01*
X160266623Y-84081348D01*
X159958278Y-83712849D01*
X159711287Y-83291071D01*
X159582236Y-82978318D01*
X159495544Y-82651110D01*
X159442991Y-82280928D01*
X159426381Y-81899298D01*
X159447514Y-81537747D01*
X159486816Y-81308827D01*
X159637948Y-80844724D01*
X159861960Y-80414613D01*
X160151174Y-80026431D01*
X160497911Y-79688116D01*
X160894494Y-79407605D01*
X161333243Y-79192837D01*
X161628666Y-79094636D01*
X161716381Y-79073245D01*
X161813706Y-79056177D01*
X161931012Y-79042945D01*
X162078675Y-79033063D01*
X162267066Y-79026044D01*
X162506560Y-79021400D01*
X162807528Y-79018644D01*
X163180345Y-79017290D01*
X163279666Y-79017123D01*
X164655500Y-79015167D01*
X164666459Y-81936167D01*
X164668010Y-82426703D01*
X164668924Y-82892900D01*
X164669222Y-83327770D01*
X168359666Y-83327770D01*
X168359666Y-75306902D01*
X164877750Y-75322691D01*
G36*
X180138916Y-75322070D02*
G01*
X179508721Y-75324717D01*
X178957202Y-75327207D01*
X178478367Y-75329707D01*
X178066228Y-75332383D01*
X177714792Y-75335402D01*
X177418070Y-75338932D01*
X177170071Y-75343140D01*
X176964806Y-75348192D01*
X176796282Y-75354256D01*
X176658510Y-75361498D01*
X176545500Y-75370086D01*
X176451260Y-75380186D01*
X176369801Y-75391966D01*
X176295132Y-75405592D01*
X176221263Y-75421232D01*
X176170166Y-75432709D01*
X175482539Y-75631409D01*
X174825833Y-75907218D01*
X174204963Y-76256673D01*
X173624846Y-76676308D01*
X173090398Y-77162660D01*
X172606535Y-77712265D01*
X172266895Y-78183405D01*
X171924512Y-78773186D01*
X171651105Y-79393201D01*
X171447745Y-80034652D01*
X171315502Y-80688740D01*
X171255445Y-81346668D01*
X171268644Y-81999636D01*
X171356170Y-82638848D01*
X171519092Y-83255505D01*
X171617438Y-83523667D01*
X171785349Y-83903619D01*
X171980974Y-84281372D01*
X172193383Y-84639097D01*
X172411646Y-84958963D01*
X172624833Y-85223142D01*
X172721007Y-85323816D01*
X172887180Y-85486080D01*
X172541809Y-85806623D01*
X172131864Y-86237007D01*
X171780376Y-86714803D01*
X171484452Y-87245471D01*
X171241196Y-87834473D01*
X171047712Y-88487272D01*
X170991257Y-88731638D01*
X170867964Y-89485310D01*
X170824062Y-90229509D01*
X170858993Y-90958958D01*
X170972196Y-91668379D01*
X171163115Y-92352497D01*
X171431189Y-93006032D01*
X171447437Y-93039507D01*
X171713067Y-93531619D01*
X172013065Y-93985672D01*
X172361729Y-94420772D01*
X172773357Y-94856024D01*
X172895874Y-94974833D01*
X173407538Y-95415564D01*
X173946876Y-95784831D01*
X174524352Y-96088204D01*
X175150430Y-96331254D01*
X175768000Y-96503945D01*
X175828791Y-96516938D01*
X175897632Y-96528408D01*
X175980091Y-96538478D01*
X176081740Y-96547266D01*
X176208148Y-96554895D01*
X176364887Y-96561486D01*
X176557525Y-96567159D01*
X176791634Y-96572036D01*
X177072783Y-96576237D01*
X177406543Y-96579883D01*
X177798484Y-96583096D01*
X178254176Y-96585996D01*
X178779190Y-96588705D01*
X179379095Y-96591343D01*
X179884916Y-96593361D01*
X183684333Y-96608067D01*
X183684333Y-92921667D01*
X180001333Y-92921667D01*
X178403250Y-92920931D01*
X177955102Y-92919961D01*
X177583118Y-92917310D01*
X177278805Y-92912697D01*
X177033671Y-92905840D01*
X176839224Y-92896457D01*
X176686972Y-92884265D01*
X176568422Y-92868982D01*
X176508833Y-92857980D01*
X176078042Y-92726012D01*
X175688205Y-92522092D01*
X175344680Y-92251088D01*
X175052825Y-91917870D01*
X174817996Y-91527305D01*
X174681873Y-91197787D01*
X174591316Y-90837194D01*
X174546053Y-90435797D01*
X174547264Y-90025055D01*
X174596128Y-89636428D01*
X174619455Y-89532057D01*
X174729256Y-89180726D01*
X174878116Y-88834010D01*
X175053919Y-88515581D01*
X175244550Y-88249109D01*
X175318547Y-88166199D01*
X175403523Y-88077092D01*
X175478151Y-88002007D01*
X175550198Y-87939742D01*
X175627435Y-87889097D01*
X175717627Y-87848870D01*
X175828543Y-87817860D01*
X175967951Y-87794867D01*
X176143618Y-87778687D01*
X176363314Y-87768122D01*
X176634805Y-87761968D01*
X176965860Y-87759026D01*
X177364247Y-87758094D01*
X177837733Y-87757970D01*
X177958750Y-87757930D01*
X180001333Y-87757000D01*
X180001333Y-92921667D01*
X183684333Y-92921667D01*
X183684333Y-84031667D01*
X180002005Y-84031667D01*
X178191919Y-84031253D01*
X177753360Y-84031081D01*
X177391117Y-84030513D01*
X177096836Y-84029136D01*
X176862167Y-84026543D01*
X176678757Y-84022322D01*
X176538254Y-84016065D01*
X176432307Y-84007359D01*
X176352565Y-83995797D01*
X176290674Y-83980968D01*
X176238284Y-83962461D01*
X176187042Y-83939868D01*
X176170166Y-83932008D01*
X175946861Y-83790301D01*
X175722877Y-83580362D01*
X175509276Y-83317810D01*
X175317119Y-83018262D01*
X175157468Y-82697335D01*
X175041386Y-82370646D01*
X175027587Y-82318856D01*
X174975606Y-81997910D01*
X174964660Y-81632418D01*
X174992374Y-81250528D01*
X175056375Y-80880387D01*
X175154289Y-80550142D01*
X175182684Y-80479684D01*
X175351975Y-80166026D01*
X175579468Y-79863140D01*
X175845901Y-79591956D01*
X176132010Y-79373400D01*
X176278213Y-79289491D01*
X176416597Y-79220972D01*
X176541305Y-79165026D01*
X176662737Y-79120372D01*
X176791292Y-79085732D01*
X176937369Y-79059824D01*
X177111366Y-79041370D01*
X177323682Y-79029090D01*
X177584717Y-79021705D01*
X177904869Y-79017934D01*
X178294537Y-79016497D01*
X178498500Y-79016270D01*
X179980166Y-79015167D01*
X179991086Y-81523417D01*
X180002005Y-84031667D01*
X183684333Y-84031667D01*
X183684333Y-75307382D01*
X180138916Y-75322070D01*
X180138916Y-75322070D01*
G37*
X180138916Y-75322070D02*
X179508721Y-75324717D01*
X178957202Y-75327207D01*
X178478367Y-75329707D01*
X178066228Y-75332383D01*
X177714792Y-75335402D01*
X177418070Y-75338932D01*
X177170071Y-75343140D01*
X176964806Y-75348192D01*
X176796282Y-75354256D01*
X176658510Y-75361498D01*
X176545500Y-75370086D01*
X176451260Y-75380186D01*
X176369801Y-75391966D01*
X176295132Y-75405592D01*
X176221263Y-75421232D01*
X176170166Y-75432709D01*
X175482539Y-75631409D01*
X174825833Y-75907218D01*
X174204963Y-76256673D01*
X173624846Y-76676308D01*
X173090398Y-77162660D01*
X172606535Y-77712265D01*
X172266895Y-78183405D01*
X171924512Y-78773186D01*
X171651105Y-79393201D01*
X171447745Y-80034652D01*
X171315502Y-80688740D01*
X171255445Y-81346668D01*
X171268644Y-81999636D01*
X171356170Y-82638848D01*
X171519092Y-83255505D01*
X171617438Y-83523667D01*
X171785349Y-83903619D01*
X171980974Y-84281372D01*
X172193383Y-84639097D01*
X172411646Y-84958963D01*
X172624833Y-85223142D01*
X172721007Y-85323816D01*
X172887180Y-85486080D01*
X172541809Y-85806623D01*
X172131864Y-86237007D01*
X171780376Y-86714803D01*
X171484452Y-87245471D01*
X171241196Y-87834473D01*
X171047712Y-88487272D01*
X170991257Y-88731638D01*
X170867964Y-89485310D01*
X170824062Y-90229509D01*
X170858993Y-90958958D01*
X170972196Y-91668379D01*
X171163115Y-92352497D01*
X171431189Y-93006032D01*
X171447437Y-93039507D01*
X171713067Y-93531619D01*
X172013065Y-93985672D01*
X172361729Y-94420772D01*
X172773357Y-94856024D01*
X172895874Y-94974833D01*
X173407538Y-95415564D01*
X173946876Y-95784831D01*
X174524352Y-96088204D01*
X175150430Y-96331254D01*
X175768000Y-96503945D01*
X175828791Y-96516938D01*
X175897632Y-96528408D01*
X175980091Y-96538478D01*
X176081740Y-96547266D01*
X176208148Y-96554895D01*
X176364887Y-96561486D01*
X176557525Y-96567159D01*
X176791634Y-96572036D01*
X177072783Y-96576237D01*
X177406543Y-96579883D01*
X177798484Y-96583096D01*
X178254176Y-96585996D01*
X178779190Y-96588705D01*
X179379095Y-96591343D01*
X179884916Y-96593361D01*
X183684333Y-96608067D01*
X183684333Y-92921667D01*
X180001333Y-92921667D01*
X178403250Y-92920931D01*
X177955102Y-92919961D01*
X177583118Y-92917310D01*
X177278805Y-92912697D01*
X177033671Y-92905840D01*
X176839224Y-92896457D01*
X176686972Y-92884265D01*
X176568422Y-92868982D01*
X176508833Y-92857980D01*
X176078042Y-92726012D01*
X175688205Y-92522092D01*
X175344680Y-92251088D01*
X175052825Y-91917870D01*
X174817996Y-91527305D01*
X174681873Y-91197787D01*
X174591316Y-90837194D01*
X174546053Y-90435797D01*
X174547264Y-90025055D01*
X174596128Y-89636428D01*
X174619455Y-89532057D01*
X174729256Y-89180726D01*
X174878116Y-88834010D01*
X175053919Y-88515581D01*
X175244550Y-88249109D01*
X175318547Y-88166199D01*
X175403523Y-88077092D01*
X175478151Y-88002007D01*
X175550198Y-87939742D01*
X175627435Y-87889097D01*
X175717627Y-87848870D01*
X175828543Y-87817860D01*
X175967951Y-87794867D01*
X176143618Y-87778687D01*
X176363314Y-87768122D01*
X176634805Y-87761968D01*
X176965860Y-87759026D01*
X177364247Y-87758094D01*
X177837733Y-87757970D01*
X177958750Y-87757930D01*
X180001333Y-87757000D01*
X180001333Y-92921667D01*
X183684333Y-92921667D01*
X183684333Y-84031667D01*
X180002005Y-84031667D01*
X178191919Y-84031253D01*
X177753360Y-84031081D01*
X177391117Y-84030513D01*
X177096836Y-84029136D01*
X176862167Y-84026543D01*
X176678757Y-84022322D01*
X176538254Y-84016065D01*
X176432307Y-84007359D01*
X176352565Y-83995797D01*
X176290674Y-83980968D01*
X176238284Y-83962461D01*
X176187042Y-83939868D01*
X176170166Y-83932008D01*
X175946861Y-83790301D01*
X175722877Y-83580362D01*
X175509276Y-83317810D01*
X175317119Y-83018262D01*
X175157468Y-82697335D01*
X175041386Y-82370646D01*
X175027587Y-82318856D01*
X174975606Y-81997910D01*
X174964660Y-81632418D01*
X174992374Y-81250528D01*
X175056375Y-80880387D01*
X175154289Y-80550142D01*
X175182684Y-80479684D01*
X175351975Y-80166026D01*
X175579468Y-79863140D01*
X175845901Y-79591956D01*
X176132010Y-79373400D01*
X176278213Y-79289491D01*
X176416597Y-79220972D01*
X176541305Y-79165026D01*
X176662737Y-79120372D01*
X176791292Y-79085732D01*
X176937369Y-79059824D01*
X177111366Y-79041370D01*
X177323682Y-79029090D01*
X177584717Y-79021705D01*
X177904869Y-79017934D01*
X178294537Y-79016497D01*
X178498500Y-79016270D01*
X179980166Y-79015167D01*
X179991086Y-81523417D01*
X180002005Y-84031667D01*
X183684333Y-84031667D01*
X183684333Y-75307382D01*
X180138916Y-75322070D01*
G36*
X122572085Y-74586959D02*
G01*
X122482385Y-74675265D01*
X122338293Y-74818320D01*
X122142457Y-75013471D01*
X121897521Y-75258068D01*
X121606132Y-75549457D01*
X121270933Y-75884986D01*
X120894573Y-76262003D01*
X120479695Y-76677855D01*
X120028946Y-77129891D01*
X119544971Y-77615457D01*
X119030416Y-78131901D01*
X118487927Y-78676572D01*
X117920149Y-79246817D01*
X117329728Y-79839983D01*
X116719309Y-80453418D01*
X116091539Y-81084470D01*
X115672665Y-81505631D01*
X108775500Y-88441096D01*
X108764783Y-81876048D01*
X108754067Y-75311000D01*
X105071333Y-75311000D01*
X105071333Y-86360000D01*
X105071373Y-87321203D01*
X105071491Y-88260068D01*
X105071683Y-89173087D01*
X105071946Y-90056753D01*
X105072277Y-90907560D01*
X105072672Y-91722000D01*
X105073128Y-92496565D01*
X105073641Y-93227748D01*
X105074209Y-93912043D01*
X105074828Y-94545941D01*
X105075494Y-95125936D01*
X105076204Y-95648521D01*
X105076955Y-96110187D01*
X105077744Y-96507429D01*
X105078566Y-96836739D01*
X105079419Y-97094609D01*
X105080300Y-97277532D01*
X105081204Y-97382002D01*
X105081916Y-97406774D01*
X105112302Y-97376975D01*
X105199732Y-97289754D01*
X105341580Y-97147753D01*
X105535216Y-96953612D01*
X105778014Y-96709974D01*
X106067344Y-96419479D01*
X106400580Y-96084768D01*
X106775093Y-95708483D01*
X107188254Y-95293265D01*
X107637437Y-94841756D01*
X108120012Y-94356596D01*
X108633353Y-93840428D01*
X109174831Y-93295891D01*
X109741817Y-92725628D01*
X110331685Y-92132280D01*
X110941806Y-91518488D01*
X111569551Y-90886893D01*
X112014000Y-90439677D01*
X118935500Y-83474805D01*
X118946216Y-90039736D01*
X118956933Y-96604667D01*
X122639666Y-96604667D01*
X122639666Y-85573305D01*
X122639534Y-84613037D01*
X122639145Y-83675192D01*
X122638511Y-82763274D01*
X122637642Y-81880789D01*
X122636549Y-81031241D01*
X122635244Y-80218137D01*
X122633737Y-79444980D01*
X122632041Y-78715275D01*
X122630165Y-78032528D01*
X122628122Y-77400244D01*
X122625921Y-76821928D01*
X122623575Y-76301084D01*
X122621095Y-75841218D01*
X122618490Y-75445834D01*
X122615774Y-75118438D01*
X122612956Y-74862534D01*
X122610048Y-74681628D01*
X122607061Y-74579225D01*
X122604748Y-74556055D01*
X122572085Y-74586959D01*
X122572085Y-74586959D01*
G37*
X122572085Y-74586959D02*
X122482385Y-74675265D01*
X122338293Y-74818320D01*
X122142457Y-75013471D01*
X121897521Y-75258068D01*
X121606132Y-75549457D01*
X121270933Y-75884986D01*
X120894573Y-76262003D01*
X120479695Y-76677855D01*
X120028946Y-77129891D01*
X119544971Y-77615457D01*
X119030416Y-78131901D01*
X118487927Y-78676572D01*
X117920149Y-79246817D01*
X117329728Y-79839983D01*
X116719309Y-80453418D01*
X116091539Y-81084470D01*
X115672665Y-81505631D01*
X108775500Y-88441096D01*
X108764783Y-81876048D01*
X108754067Y-75311000D01*
X105071333Y-75311000D01*
X105071333Y-86360000D01*
X105071373Y-87321203D01*
X105071491Y-88260068D01*
X105071683Y-89173087D01*
X105071946Y-90056753D01*
X105072277Y-90907560D01*
X105072672Y-91722000D01*
X105073128Y-92496565D01*
X105073641Y-93227748D01*
X105074209Y-93912043D01*
X105074828Y-94545941D01*
X105075494Y-95125936D01*
X105076204Y-95648521D01*
X105076955Y-96110187D01*
X105077744Y-96507429D01*
X105078566Y-96836739D01*
X105079419Y-97094609D01*
X105080300Y-97277532D01*
X105081204Y-97382002D01*
X105081916Y-97406774D01*
X105112302Y-97376975D01*
X105199732Y-97289754D01*
X105341580Y-97147753D01*
X105535216Y-96953612D01*
X105778014Y-96709974D01*
X106067344Y-96419479D01*
X106400580Y-96084768D01*
X106775093Y-95708483D01*
X107188254Y-95293265D01*
X107637437Y-94841756D01*
X108120012Y-94356596D01*
X108633353Y-93840428D01*
X109174831Y-93295891D01*
X109741817Y-92725628D01*
X110331685Y-92132280D01*
X110941806Y-91518488D01*
X111569551Y-90886893D01*
X112014000Y-90439677D01*
X118935500Y-83474805D01*
X118946216Y-90039736D01*
X118956933Y-96604667D01*
X122639666Y-96604667D01*
X122639666Y-85573305D01*
X122639534Y-84613037D01*
X122639145Y-83675192D01*
X122638511Y-82763274D01*
X122637642Y-81880789D01*
X122636549Y-81031241D01*
X122635244Y-80218137D01*
X122633737Y-79444980D01*
X122632041Y-78715275D01*
X122630165Y-78032528D01*
X122628122Y-77400244D01*
X122625921Y-76821928D01*
X122623575Y-76301084D01*
X122621095Y-75841218D01*
X122618490Y-75445834D01*
X122615774Y-75118438D01*
X122612956Y-74862534D01*
X122610048Y-74681628D01*
X122607061Y-74579225D01*
X122604748Y-74556055D01*
X122572085Y-74586959D01*
G36*
X116692656Y-99017804D02*
G01*
X116099759Y-99018400D01*
X115579120Y-99019732D01*
X115124537Y-99022079D01*
X114729804Y-99025717D01*
X114388718Y-99030923D01*
X114095076Y-99037976D01*
X113842673Y-99047153D01*
X113625306Y-99058731D01*
X113436771Y-99072987D01*
X113270863Y-99090199D01*
X113121380Y-99110645D01*
X112982116Y-99134602D01*
X112846869Y-99162347D01*
X112709434Y-99194158D01*
X112563608Y-99230312D01*
X112553833Y-99232784D01*
X111863812Y-99450167D01*
X111195047Y-99745026D01*
X110554772Y-100111341D01*
X109950222Y-100543090D01*
X109388633Y-101034252D01*
X108877240Y-101578806D01*
X108423277Y-102170730D01*
X108033981Y-102804003D01*
X107865879Y-103134191D01*
X107607874Y-103742456D01*
X107415187Y-104349680D01*
X107284573Y-104972109D01*
X107212785Y-105625987D01*
X107196575Y-106327557D01*
X107199531Y-106468333D01*
X107239037Y-107118741D01*
X107323190Y-107715442D01*
X107456869Y-108279476D01*
X107644956Y-108831885D01*
X107864933Y-109336809D01*
X108202188Y-109960194D01*
X108603859Y-110558599D01*
X109058077Y-111117337D01*
X109552974Y-111621722D01*
X110042953Y-112031876D01*
X110201145Y-112158340D01*
X110301134Y-112254779D01*
X110336688Y-112314956D01*
X110334652Y-112323821D01*
X110306483Y-112367440D01*
X110235404Y-112476124D01*
X110125118Y-112644257D01*
X109979322Y-112866221D01*
X109801719Y-113136399D01*
X109596008Y-113449175D01*
X109365888Y-113798930D01*
X109115062Y-114180048D01*
X108847228Y-114586911D01*
X108566087Y-115013903D01*
X108275339Y-115455407D01*
X107978685Y-115905804D01*
X107679824Y-116359479D01*
X107382458Y-116810814D01*
X107090285Y-117254191D01*
X106807006Y-117683995D01*
X106536322Y-118094606D01*
X106281933Y-118480410D01*
X106047539Y-118835787D01*
X105836839Y-119155122D01*
X105653536Y-119432797D01*
X105501328Y-119663194D01*
X105383915Y-119840698D01*
X105304999Y-119959690D01*
X105275146Y-120004417D01*
X105068753Y-120311333D01*
X111284749Y-120311333D01*
X113522624Y-116915872D01*
X115760500Y-113520412D01*
X115771335Y-116915872D01*
X115782170Y-120311333D01*
X120946333Y-120311333D01*
X120946333Y-108339421D01*
X115781666Y-108339421D01*
X114882083Y-108320867D01*
X114572555Y-108313606D01*
X114333682Y-108305344D01*
X114151454Y-108294740D01*
X114011861Y-108280451D01*
X113900892Y-108261134D01*
X113804537Y-108235446D01*
X113731917Y-108210638D01*
X113356176Y-108031579D01*
X113034394Y-107794375D01*
X112770285Y-107508338D01*
X112567567Y-107182784D01*
X112429954Y-106827025D01*
X112361163Y-106450376D01*
X112364909Y-106062150D01*
X112444909Y-105671661D01*
X112582868Y-105330528D01*
X112715824Y-105119416D01*
X112898852Y-104897126D01*
X113106701Y-104691143D01*
X113314119Y-104528953D01*
X113326931Y-104520616D01*
X113488094Y-104424762D01*
X113646166Y-104350221D01*
X113815591Y-104294028D01*
X114010811Y-104253219D01*
X114246270Y-104224830D01*
X114536412Y-104205896D01*
X114895678Y-104193452D01*
X114924416Y-104192732D01*
X115781666Y-104171671D01*
X115781666Y-108339421D01*
X120946333Y-108339421D01*
X120946333Y-99017667D01*
X117364016Y-99017667D01*
X116692656Y-99017804D01*
X116692656Y-99017804D01*
G37*
X116692656Y-99017804D02*
X116099759Y-99018400D01*
X115579120Y-99019732D01*
X115124537Y-99022079D01*
X114729804Y-99025717D01*
X114388718Y-99030923D01*
X114095076Y-99037976D01*
X113842673Y-99047153D01*
X113625306Y-99058731D01*
X113436771Y-99072987D01*
X113270863Y-99090199D01*
X113121380Y-99110645D01*
X112982116Y-99134602D01*
X112846869Y-99162347D01*
X112709434Y-99194158D01*
X112563608Y-99230312D01*
X112553833Y-99232784D01*
X111863812Y-99450167D01*
X111195047Y-99745026D01*
X110554772Y-100111341D01*
X109950222Y-100543090D01*
X109388633Y-101034252D01*
X108877240Y-101578806D01*
X108423277Y-102170730D01*
X108033981Y-102804003D01*
X107865879Y-103134191D01*
X107607874Y-103742456D01*
X107415187Y-104349680D01*
X107284573Y-104972109D01*
X107212785Y-105625987D01*
X107196575Y-106327557D01*
X107199531Y-106468333D01*
X107239037Y-107118741D01*
X107323190Y-107715442D01*
X107456869Y-108279476D01*
X107644956Y-108831885D01*
X107864933Y-109336809D01*
X108202188Y-109960194D01*
X108603859Y-110558599D01*
X109058077Y-111117337D01*
X109552974Y-111621722D01*
X110042953Y-112031876D01*
X110201145Y-112158340D01*
X110301134Y-112254779D01*
X110336688Y-112314956D01*
X110334652Y-112323821D01*
X110306483Y-112367440D01*
X110235404Y-112476124D01*
X110125118Y-112644257D01*
X109979322Y-112866221D01*
X109801719Y-113136399D01*
X109596008Y-113449175D01*
X109365888Y-113798930D01*
X109115062Y-114180048D01*
X108847228Y-114586911D01*
X108566087Y-115013903D01*
X108275339Y-115455407D01*
X107978685Y-115905804D01*
X107679824Y-116359479D01*
X107382458Y-116810814D01*
X107090285Y-117254191D01*
X106807006Y-117683995D01*
X106536322Y-118094606D01*
X106281933Y-118480410D01*
X106047539Y-118835787D01*
X105836839Y-119155122D01*
X105653536Y-119432797D01*
X105501328Y-119663194D01*
X105383915Y-119840698D01*
X105304999Y-119959690D01*
X105275146Y-120004417D01*
X105068753Y-120311333D01*
X111284749Y-120311333D01*
X113522624Y-116915872D01*
X115760500Y-113520412D01*
X115771335Y-116915872D01*
X115782170Y-120311333D01*
X120946333Y-120311333D01*
X120946333Y-108339421D01*
X115781666Y-108339421D01*
X114882083Y-108320867D01*
X114572555Y-108313606D01*
X114333682Y-108305344D01*
X114151454Y-108294740D01*
X114011861Y-108280451D01*
X113900892Y-108261134D01*
X113804537Y-108235446D01*
X113731917Y-108210638D01*
X113356176Y-108031579D01*
X113034394Y-107794375D01*
X112770285Y-107508338D01*
X112567567Y-107182784D01*
X112429954Y-106827025D01*
X112361163Y-106450376D01*
X112364909Y-106062150D01*
X112444909Y-105671661D01*
X112582868Y-105330528D01*
X112715824Y-105119416D01*
X112898852Y-104897126D01*
X113106701Y-104691143D01*
X113314119Y-104528953D01*
X113326931Y-104520616D01*
X113488094Y-104424762D01*
X113646166Y-104350221D01*
X113815591Y-104294028D01*
X114010811Y-104253219D01*
X114246270Y-104224830D01*
X114536412Y-104205896D01*
X114895678Y-104193452D01*
X114924416Y-104192732D01*
X115781666Y-104171671D01*
X115781666Y-108339421D01*
X120946333Y-108339421D01*
X120946333Y-99017667D01*
X117364016Y-99017667D01*
X116692656Y-99017804D01*
G36*
X124121333Y-104182333D02*
G01*
X131783666Y-104182333D01*
X131783666Y-107061000D01*
X125560666Y-107061000D01*
X125560666Y-112225667D01*
X131783666Y-112225667D01*
X131783666Y-115146667D01*
X124121333Y-115146667D01*
X124121333Y-120311333D01*
X136990666Y-120311333D01*
X136990666Y-99017667D01*
X124121333Y-99017667D01*
X124121333Y-104182333D01*
X124121333Y-104182333D01*
G37*
X124121333Y-104182333D02*
X131783666Y-104182333D01*
X131783666Y-107061000D01*
X125560666Y-107061000D01*
X125560666Y-112225667D01*
X131783666Y-112225667D01*
X131783666Y-115146667D01*
X124121333Y-115146667D01*
X124121333Y-120311333D01*
X136990666Y-120311333D01*
X136990666Y-99017667D01*
X124121333Y-99017667D01*
X124121333Y-104182333D01*
G36*
X202279250Y-99028745D02*
G01*
X201625537Y-99031337D01*
X201050747Y-99033768D01*
X200549135Y-99036191D01*
X200114957Y-99038753D01*
X199742470Y-99041606D01*
X199425929Y-99044899D01*
X199159591Y-99048781D01*
X198937712Y-99053404D01*
X198754548Y-99058916D01*
X198604354Y-99065467D01*
X198481388Y-99073207D01*
X198379905Y-99082287D01*
X198294161Y-99092856D01*
X198218413Y-99105063D01*
X198146916Y-99119059D01*
X198073926Y-99134993D01*
X198056500Y-99138908D01*
X197287958Y-99350215D01*
X196570621Y-99627722D01*
X195899636Y-99974179D01*
X195270152Y-100392336D01*
X194677314Y-100884942D01*
X194276815Y-101280516D01*
X193761749Y-101882805D01*
X193323721Y-102519781D01*
X192963080Y-103190710D01*
X192680178Y-103894858D01*
X192475364Y-104631490D01*
X192361399Y-105294777D01*
X192337073Y-105574380D01*
X192324922Y-105909277D01*
X192324226Y-106278187D01*
X192334263Y-106659825D01*
X192354312Y-107032911D01*
X192383653Y-107376162D01*
X192421564Y-107668294D01*
X192446314Y-107801833D01*
X192638515Y-108527420D01*
X192895665Y-109207727D01*
X193221830Y-109850082D01*
X193621075Y-110461810D01*
X194097465Y-111050237D01*
X194463084Y-111436347D01*
X195030055Y-111951572D01*
X195621717Y-112388885D01*
X196246945Y-112753549D01*
X196914614Y-113050826D01*
X197534864Y-113258146D01*
X197815253Y-113331819D01*
X198101899Y-113391182D01*
X198409061Y-113437884D01*
X198750997Y-113473573D01*
X199141963Y-113499898D01*
X199596220Y-113518508D01*
X199845083Y-113525283D01*
X200914000Y-113550563D01*
X200914000Y-120311333D01*
X206078666Y-120311333D01*
X206078666Y-108331000D01*
X200914000Y-108331000D01*
X200132917Y-108331000D01*
X199866229Y-108328437D01*
X199612412Y-108321331D01*
X199390213Y-108310553D01*
X199218380Y-108296975D01*
X199127500Y-108284218D01*
X198745355Y-108162429D01*
X198392642Y-107967166D01*
X198081078Y-107707747D01*
X197822382Y-107393490D01*
X197668433Y-107123910D01*
X197592565Y-106954790D01*
X197544323Y-106814088D01*
X197515914Y-106668851D01*
X197499544Y-106486128D01*
X197494246Y-106387423D01*
X197501293Y-105993978D01*
X197567470Y-105649353D01*
X197699128Y-105336166D01*
X197902619Y-105037034D01*
X198048169Y-104871452D01*
X198358520Y-104594275D01*
X198701543Y-104389456D01*
X198906584Y-104304992D01*
X199005199Y-104273528D01*
X199111096Y-104249338D01*
X199238521Y-104231012D01*
X199401721Y-104217141D01*
X199614945Y-104206315D01*
X199892440Y-104197125D01*
X200035583Y-104193312D01*
X200914000Y-104171012D01*
X200914000Y-108331000D01*
X206078666Y-108331000D01*
X206078666Y-99013873D01*
X202279250Y-99028745D01*
X202279250Y-99028745D01*
G37*
X202279250Y-99028745D02*
X201625537Y-99031337D01*
X201050747Y-99033768D01*
X200549135Y-99036191D01*
X200114957Y-99038753D01*
X199742470Y-99041606D01*
X199425929Y-99044899D01*
X199159591Y-99048781D01*
X198937712Y-99053404D01*
X198754548Y-99058916D01*
X198604354Y-99065467D01*
X198481388Y-99073207D01*
X198379905Y-99082287D01*
X198294161Y-99092856D01*
X198218413Y-99105063D01*
X198146916Y-99119059D01*
X198073926Y-99134993D01*
X198056500Y-99138908D01*
X197287958Y-99350215D01*
X196570621Y-99627722D01*
X195899636Y-99974179D01*
X195270152Y-100392336D01*
X194677314Y-100884942D01*
X194276815Y-101280516D01*
X193761749Y-101882805D01*
X193323721Y-102519781D01*
X192963080Y-103190710D01*
X192680178Y-103894858D01*
X192475364Y-104631490D01*
X192361399Y-105294777D01*
X192337073Y-105574380D01*
X192324922Y-105909277D01*
X192324226Y-106278187D01*
X192334263Y-106659825D01*
X192354312Y-107032911D01*
X192383653Y-107376162D01*
X192421564Y-107668294D01*
X192446314Y-107801833D01*
X192638515Y-108527420D01*
X192895665Y-109207727D01*
X193221830Y-109850082D01*
X193621075Y-110461810D01*
X194097465Y-111050237D01*
X194463084Y-111436347D01*
X195030055Y-111951572D01*
X195621717Y-112388885D01*
X196246945Y-112753549D01*
X196914614Y-113050826D01*
X197534864Y-113258146D01*
X197815253Y-113331819D01*
X198101899Y-113391182D01*
X198409061Y-113437884D01*
X198750997Y-113473573D01*
X199141963Y-113499898D01*
X199596220Y-113518508D01*
X199845083Y-113525283D01*
X200914000Y-113550563D01*
X200914000Y-120311333D01*
X206078666Y-120311333D01*
X206078666Y-108331000D01*
X200914000Y-108331000D01*
X200132917Y-108331000D01*
X199866229Y-108328437D01*
X199612412Y-108321331D01*
X199390213Y-108310553D01*
X199218380Y-108296975D01*
X199127500Y-108284218D01*
X198745355Y-108162429D01*
X198392642Y-107967166D01*
X198081078Y-107707747D01*
X197822382Y-107393490D01*
X197668433Y-107123910D01*
X197592565Y-106954790D01*
X197544323Y-106814088D01*
X197515914Y-106668851D01*
X197499544Y-106486128D01*
X197494246Y-106387423D01*
X197501293Y-105993978D01*
X197567470Y-105649353D01*
X197699128Y-105336166D01*
X197902619Y-105037034D01*
X198048169Y-104871452D01*
X198358520Y-104594275D01*
X198701543Y-104389456D01*
X198906584Y-104304992D01*
X199005199Y-104273528D01*
X199111096Y-104249338D01*
X199238521Y-104231012D01*
X199401721Y-104217141D01*
X199614945Y-104206315D01*
X199892440Y-104197125D01*
X200035583Y-104193312D01*
X200914000Y-104171012D01*
X200914000Y-108331000D01*
X206078666Y-108331000D01*
X206078666Y-99013873D01*
X202279250Y-99028745D01*
G36*
X153394691Y-98292466D02*
G01*
X153335294Y-98399988D01*
X153241249Y-98573916D01*
X153114838Y-98809935D01*
X152958345Y-99103728D01*
X152774053Y-99450980D01*
X152564244Y-99847375D01*
X152331202Y-100288598D01*
X152077209Y-100770332D01*
X151804549Y-101288261D01*
X151515504Y-101838071D01*
X151212358Y-102415444D01*
X150897393Y-103016066D01*
X150728718Y-103338015D01*
X150366769Y-104028278D01*
X150024738Y-104678944D01*
X149704236Y-105287005D01*
X149406872Y-105849453D01*
X149134256Y-106363281D01*
X148887999Y-106825480D01*
X148669710Y-107233044D01*
X148481000Y-107582964D01*
X148323479Y-107872232D01*
X148198756Y-108097842D01*
X148108443Y-108256784D01*
X148054149Y-108346052D01*
X148037605Y-108365099D01*
X148019024Y-108319112D01*
X147972217Y-108198965D01*
X147899085Y-108009625D01*
X147801529Y-107756055D01*
X147681450Y-107443223D01*
X147540751Y-107076092D01*
X147381331Y-106659630D01*
X147205092Y-106198801D01*
X147013936Y-105698570D01*
X146809763Y-105163904D01*
X146594474Y-104599767D01*
X146369972Y-104011125D01*
X146237548Y-103663750D01*
X144466714Y-99017666D01*
X141699858Y-99017667D01*
X141225157Y-99018197D01*
X140776847Y-99019729D01*
X140361866Y-99022172D01*
X139987148Y-99025435D01*
X139659631Y-99029429D01*
X139386250Y-99034062D01*
X139173941Y-99039246D01*
X139029641Y-99044888D01*
X138960285Y-99050900D01*
X138955087Y-99053399D01*
X138971828Y-99095480D01*
X139017469Y-99213493D01*
X139090791Y-99404241D01*
X139190573Y-99664529D01*
X139315596Y-99991160D01*
X139464641Y-100380937D01*
X139636487Y-100830666D01*
X139829915Y-101337148D01*
X140043706Y-101897188D01*
X140276639Y-102507590D01*
X140527496Y-103165157D01*
X140795055Y-103866694D01*
X141078099Y-104609003D01*
X141375407Y-105388889D01*
X141685759Y-106203156D01*
X142007936Y-107048606D01*
X142340718Y-107922044D01*
X142682885Y-108820274D01*
X143033219Y-109740099D01*
X143151040Y-110049482D01*
X143503848Y-110975753D01*
X143848961Y-111881464D01*
X144185158Y-112763419D01*
X144511216Y-113618424D01*
X144825913Y-114443283D01*
X145128025Y-115234802D01*
X145416331Y-115989784D01*
X145689609Y-116705035D01*
X145946634Y-117377359D01*
X146186186Y-118003561D01*
X146407042Y-118580446D01*
X146607979Y-119104820D01*
X146787774Y-119573485D01*
X146945206Y-119983248D01*
X147079052Y-120330913D01*
X147188089Y-120613285D01*
X147271095Y-120827169D01*
X147326847Y-120969369D01*
X147354124Y-121036690D01*
X147356672Y-121041934D01*
X147379353Y-121008642D01*
X147438745Y-120904126D01*
X147532737Y-120732401D01*
X147659214Y-120497483D01*
X147816063Y-120203387D01*
X148001172Y-119854129D01*
X148212428Y-119453724D01*
X148447718Y-119006189D01*
X148704928Y-118515539D01*
X148981946Y-117985790D01*
X149276658Y-117420956D01*
X149586953Y-116825055D01*
X149910715Y-116202101D01*
X150245834Y-115556110D01*
X150408427Y-115242267D01*
X150748450Y-114585797D01*
X151078026Y-113949755D01*
X151395040Y-113338210D01*
X151697378Y-112755230D01*
X151982927Y-112204883D01*
X152249571Y-111691237D01*
X152495197Y-111218361D01*
X152717691Y-110790321D01*
X152914939Y-110411188D01*
X153084825Y-110085028D01*
X153225237Y-109815909D01*
X153334060Y-109607901D01*
X153409180Y-109465071D01*
X153448482Y-109391486D01*
X153453960Y-109382002D01*
X153476042Y-109415650D01*
X153535064Y-109520411D01*
X153628908Y-109692279D01*
X153755455Y-109927246D01*
X153912590Y-110221305D01*
X154098195Y-110570449D01*
X154310152Y-110970672D01*
X154546344Y-111417966D01*
X154804654Y-111908324D01*
X155082965Y-112437740D01*
X155379158Y-113002206D01*
X155691118Y-113597715D01*
X156016726Y-114220261D01*
X156353865Y-114865836D01*
X156524139Y-115192252D01*
X156866347Y-115848191D01*
X157198070Y-116483408D01*
X157517188Y-117093872D01*
X157821580Y-117675551D01*
X158109124Y-118224412D01*
X158377702Y-118736425D01*
X158625191Y-119207556D01*
X158849471Y-119633775D01*
X159048423Y-120011048D01*
X159219924Y-120335346D01*
X159361855Y-120602635D01*
X159472095Y-120808883D01*
X159548523Y-120950060D01*
X159589019Y-121022132D01*
X159595097Y-121031000D01*
X159612211Y-120991970D01*
X159658224Y-120877009D01*
X159731910Y-120689314D01*
X159832044Y-120432080D01*
X159957399Y-120108503D01*
X160106749Y-119721778D01*
X160278868Y-119275101D01*
X160472529Y-118771667D01*
X160686508Y-118214673D01*
X160919576Y-117607313D01*
X161170510Y-116952784D01*
X161438081Y-116254281D01*
X161721065Y-115514999D01*
X162018234Y-114738134D01*
X162328364Y-113926883D01*
X162650227Y-113084439D01*
X162982598Y-112214000D01*
X163324250Y-111318760D01*
X163673958Y-110401916D01*
X163765469Y-110161917D01*
X164117630Y-109238299D01*
X164462241Y-108334556D01*
X164798061Y-107453937D01*
X165123850Y-106599692D01*
X165438369Y-105775069D01*
X165740377Y-104983317D01*
X166028635Y-104227686D01*
X166301903Y-103511423D01*
X166558941Y-102837779D01*
X166798509Y-102210003D01*
X167019367Y-101631343D01*
X167220275Y-101105048D01*
X167399994Y-100634367D01*
X167557283Y-100222550D01*
X167690903Y-99872846D01*
X167799613Y-99588503D01*
X167882175Y-99372770D01*
X167937347Y-99228897D01*
X167963890Y-99160132D01*
X167965829Y-99155250D01*
X168022136Y-99017667D01*
X165259318Y-99017928D01*
X162496500Y-99018190D01*
X160700473Y-103695761D01*
X160469422Y-104296878D01*
X160246524Y-104875555D01*
X160033676Y-105426926D01*
X159832779Y-105946124D01*
X159645730Y-106428282D01*
X159474430Y-106868533D01*
X159320777Y-107262011D01*
X159186671Y-107603850D01*
X159074010Y-107889181D01*
X158984694Y-108113139D01*
X158920622Y-108270856D01*
X158883693Y-108357467D01*
X158875188Y-108373333D01*
X158852103Y-108336686D01*
X158791533Y-108229611D01*
X158695801Y-108056407D01*
X158567226Y-107821373D01*
X158408128Y-107528808D01*
X158220828Y-107183011D01*
X158007646Y-106788281D01*
X157770901Y-106348917D01*
X157512916Y-105869217D01*
X157236008Y-105353481D01*
X156942500Y-104806008D01*
X156634711Y-104231097D01*
X156314961Y-103633046D01*
X156144819Y-103314500D01*
X155819797Y-102706135D01*
X155505566Y-102118674D01*
X155204445Y-101556416D01*
X154918751Y-101023659D01*
X154650803Y-100524701D01*
X154402917Y-100063842D01*
X154177412Y-99645380D01*
X153976606Y-99273614D01*
X153802815Y-98952842D01*
X153658359Y-98687363D01*
X153545555Y-98481476D01*
X153466720Y-98339479D01*
X153424172Y-98265671D01*
X153417157Y-98255667D01*
X153394691Y-98292466D01*
X153394691Y-98292466D01*
G37*
X153394691Y-98292466D02*
X153335294Y-98399988D01*
X153241249Y-98573916D01*
X153114838Y-98809935D01*
X152958345Y-99103728D01*
X152774053Y-99450980D01*
X152564244Y-99847375D01*
X152331202Y-100288598D01*
X152077209Y-100770332D01*
X151804549Y-101288261D01*
X151515504Y-101838071D01*
X151212358Y-102415444D01*
X150897393Y-103016066D01*
X150728718Y-103338015D01*
X150366769Y-104028278D01*
X150024738Y-104678944D01*
X149704236Y-105287005D01*
X149406872Y-105849453D01*
X149134256Y-106363281D01*
X148887999Y-106825480D01*
X148669710Y-107233044D01*
X148481000Y-107582964D01*
X148323479Y-107872232D01*
X148198756Y-108097842D01*
X148108443Y-108256784D01*
X148054149Y-108346052D01*
X148037605Y-108365099D01*
X148019024Y-108319112D01*
X147972217Y-108198965D01*
X147899085Y-108009625D01*
X147801529Y-107756055D01*
X147681450Y-107443223D01*
X147540751Y-107076092D01*
X147381331Y-106659630D01*
X147205092Y-106198801D01*
X147013936Y-105698570D01*
X146809763Y-105163904D01*
X146594474Y-104599767D01*
X146369972Y-104011125D01*
X146237548Y-103663750D01*
X144466714Y-99017666D01*
X141699858Y-99017667D01*
X141225157Y-99018197D01*
X140776847Y-99019729D01*
X140361866Y-99022172D01*
X139987148Y-99025435D01*
X139659631Y-99029429D01*
X139386250Y-99034062D01*
X139173941Y-99039246D01*
X139029641Y-99044888D01*
X138960285Y-99050900D01*
X138955087Y-99053399D01*
X138971828Y-99095480D01*
X139017469Y-99213493D01*
X139090791Y-99404241D01*
X139190573Y-99664529D01*
X139315596Y-99991160D01*
X139464641Y-100380937D01*
X139636487Y-100830666D01*
X139829915Y-101337148D01*
X140043706Y-101897188D01*
X140276639Y-102507590D01*
X140527496Y-103165157D01*
X140795055Y-103866694D01*
X141078099Y-104609003D01*
X141375407Y-105388889D01*
X141685759Y-106203156D01*
X142007936Y-107048606D01*
X142340718Y-107922044D01*
X142682885Y-108820274D01*
X143033219Y-109740099D01*
X143151040Y-110049482D01*
X143503848Y-110975753D01*
X143848961Y-111881464D01*
X144185158Y-112763419D01*
X144511216Y-113618424D01*
X144825913Y-114443283D01*
X145128025Y-115234802D01*
X145416331Y-115989784D01*
X145689609Y-116705035D01*
X145946634Y-117377359D01*
X146186186Y-118003561D01*
X146407042Y-118580446D01*
X146607979Y-119104820D01*
X146787774Y-119573485D01*
X146945206Y-119983248D01*
X147079052Y-120330913D01*
X147188089Y-120613285D01*
X147271095Y-120827169D01*
X147326847Y-120969369D01*
X147354124Y-121036690D01*
X147356672Y-121041934D01*
X147379353Y-121008642D01*
X147438745Y-120904126D01*
X147532737Y-120732401D01*
X147659214Y-120497483D01*
X147816063Y-120203387D01*
X148001172Y-119854129D01*
X148212428Y-119453724D01*
X148447718Y-119006189D01*
X148704928Y-118515539D01*
X148981946Y-117985790D01*
X149276658Y-117420956D01*
X149586953Y-116825055D01*
X149910715Y-116202101D01*
X150245834Y-115556110D01*
X150408427Y-115242267D01*
X150748450Y-114585797D01*
X151078026Y-113949755D01*
X151395040Y-113338210D01*
X151697378Y-112755230D01*
X151982927Y-112204883D01*
X152249571Y-111691237D01*
X152495197Y-111218361D01*
X152717691Y-110790321D01*
X152914939Y-110411188D01*
X153084825Y-110085028D01*
X153225237Y-109815909D01*
X153334060Y-109607901D01*
X153409180Y-109465071D01*
X153448482Y-109391486D01*
X153453960Y-109382002D01*
X153476042Y-109415650D01*
X153535064Y-109520411D01*
X153628908Y-109692279D01*
X153755455Y-109927246D01*
X153912590Y-110221305D01*
X154098195Y-110570449D01*
X154310152Y-110970672D01*
X154546344Y-111417966D01*
X154804654Y-111908324D01*
X155082965Y-112437740D01*
X155379158Y-113002206D01*
X155691118Y-113597715D01*
X156016726Y-114220261D01*
X156353865Y-114865836D01*
X156524139Y-115192252D01*
X156866347Y-115848191D01*
X157198070Y-116483408D01*
X157517188Y-117093872D01*
X157821580Y-117675551D01*
X158109124Y-118224412D01*
X158377702Y-118736425D01*
X158625191Y-119207556D01*
X158849471Y-119633775D01*
X159048423Y-120011048D01*
X159219924Y-120335346D01*
X159361855Y-120602635D01*
X159472095Y-120808883D01*
X159548523Y-120950060D01*
X159589019Y-121022132D01*
X159595097Y-121031000D01*
X159612211Y-120991970D01*
X159658224Y-120877009D01*
X159731910Y-120689314D01*
X159832044Y-120432080D01*
X159957399Y-120108503D01*
X160106749Y-119721778D01*
X160278868Y-119275101D01*
X160472529Y-118771667D01*
X160686508Y-118214673D01*
X160919576Y-117607313D01*
X161170510Y-116952784D01*
X161438081Y-116254281D01*
X161721065Y-115514999D01*
X162018234Y-114738134D01*
X162328364Y-113926883D01*
X162650227Y-113084439D01*
X162982598Y-112214000D01*
X163324250Y-111318760D01*
X163673958Y-110401916D01*
X163765469Y-110161917D01*
X164117630Y-109238299D01*
X164462241Y-108334556D01*
X164798061Y-107453937D01*
X165123850Y-106599692D01*
X165438369Y-105775069D01*
X165740377Y-104983317D01*
X166028635Y-104227686D01*
X166301903Y-103511423D01*
X166558941Y-102837779D01*
X166798509Y-102210003D01*
X167019367Y-101631343D01*
X167220275Y-101105048D01*
X167399994Y-100634367D01*
X167557283Y-100222550D01*
X167690903Y-99872846D01*
X167799613Y-99588503D01*
X167882175Y-99372770D01*
X167937347Y-99228897D01*
X167963890Y-99160132D01*
X167965829Y-99155250D01*
X168022136Y-99017667D01*
X165259318Y-99017928D01*
X162496500Y-99018190D01*
X160700473Y-103695761D01*
X160469422Y-104296878D01*
X160246524Y-104875555D01*
X160033676Y-105426926D01*
X159832779Y-105946124D01*
X159645730Y-106428282D01*
X159474430Y-106868533D01*
X159320777Y-107262011D01*
X159186671Y-107603850D01*
X159074010Y-107889181D01*
X158984694Y-108113139D01*
X158920622Y-108270856D01*
X158883693Y-108357467D01*
X158875188Y-108373333D01*
X158852103Y-108336686D01*
X158791533Y-108229611D01*
X158695801Y-108056407D01*
X158567226Y-107821373D01*
X158408128Y-107528808D01*
X158220828Y-107183011D01*
X158007646Y-106788281D01*
X157770901Y-106348917D01*
X157512916Y-105869217D01*
X157236008Y-105353481D01*
X156942500Y-104806008D01*
X156634711Y-104231097D01*
X156314961Y-103633046D01*
X156144819Y-103314500D01*
X155819797Y-102706135D01*
X155505566Y-102118674D01*
X155204445Y-101556416D01*
X154918751Y-101023659D01*
X154650803Y-100524701D01*
X154402917Y-100063842D01*
X154177412Y-99645380D01*
X153976606Y-99273614D01*
X153802815Y-98952842D01*
X153658359Y-98687363D01*
X153545555Y-98481476D01*
X153466720Y-98339479D01*
X153424172Y-98265671D01*
X153417157Y-98255667D01*
X153394691Y-98292466D01*
G36*
X178988203Y-98225845D02*
G01*
X177992831Y-98290739D01*
X177037286Y-98429768D01*
X176118647Y-98643986D01*
X175233995Y-98934443D01*
X174380410Y-99302193D01*
X173554973Y-99748287D01*
X172754764Y-100273777D01*
X172254333Y-100652393D01*
X172060252Y-100816319D01*
X171825118Y-101029627D01*
X171563440Y-101277813D01*
X171289724Y-101546373D01*
X171018478Y-101820801D01*
X170764210Y-102086593D01*
X170541426Y-102329244D01*
X170364635Y-102534249D01*
X170332708Y-102573667D01*
X169956932Y-103078156D01*
X169592359Y-103631130D01*
X169251178Y-104211102D01*
X168945575Y-104796591D01*
X168687739Y-105366113D01*
X168555569Y-105706333D01*
X168389029Y-106216942D01*
X168236443Y-106779207D01*
X168106011Y-107360313D01*
X168014473Y-107871447D01*
X167975007Y-108193035D01*
X167944938Y-108577017D01*
X167924386Y-109004263D01*
X167913471Y-109455641D01*
X167912312Y-109912018D01*
X167921030Y-110354263D01*
X167939742Y-110763245D01*
X167968570Y-111119831D01*
X167992945Y-111315500D01*
X168168593Y-112264107D01*
X168407129Y-113160661D01*
X168712155Y-114012990D01*
X169087272Y-114828921D01*
X169536081Y-115616279D01*
X170062182Y-116382894D01*
X170669176Y-117136590D01*
X170673131Y-117141161D01*
X171358016Y-117870541D01*
X172088434Y-118530198D01*
X172861696Y-119118653D01*
X173675112Y-119634427D01*
X174525992Y-120076044D01*
X175411645Y-120442024D01*
X176329381Y-120730890D01*
X177276511Y-120941164D01*
X177715333Y-121010269D01*
X177948019Y-121035430D01*
X178243885Y-121056968D01*
X178583860Y-121074437D01*
X178948871Y-121087393D01*
X179319847Y-121095388D01*
X179677713Y-121097979D01*
X180003399Y-121094718D01*
X180277832Y-121085160D01*
X180436042Y-121073836D01*
X181428047Y-120937805D01*
X182384313Y-120725030D01*
X183304997Y-120435449D01*
X184190255Y-120069000D01*
X185040244Y-119625618D01*
X185855121Y-119105242D01*
X186434631Y-118671343D01*
X186650916Y-118489049D01*
X186905300Y-118259006D01*
X187182671Y-117996275D01*
X187467916Y-117715915D01*
X187745925Y-117432988D01*
X188001586Y-117162552D01*
X188219788Y-116919668D01*
X188357211Y-116755333D01*
X188922674Y-115986480D01*
X189410923Y-115194319D01*
X189824700Y-114372523D01*
X190166745Y-113514765D01*
X190439801Y-112614717D01*
X190646609Y-111666052D01*
X190699492Y-111349586D01*
X190722988Y-111174148D01*
X190741150Y-110978547D01*
X190754507Y-110750342D01*
X190763588Y-110477092D01*
X190768921Y-110146356D01*
X190771035Y-109745692D01*
X190771048Y-109731612D01*
X185662402Y-109731612D01*
X185616172Y-110441069D01*
X185492849Y-111141074D01*
X185292396Y-111822656D01*
X185099022Y-112299737D01*
X184851547Y-112766559D01*
X184535708Y-113240409D01*
X184164864Y-113706177D01*
X183752371Y-114148754D01*
X183311589Y-114553029D01*
X182855875Y-114903894D01*
X182710561Y-115001461D01*
X182094657Y-115350148D01*
X181445485Y-115621918D01*
X180766715Y-115816038D01*
X180062018Y-115931774D01*
X179335063Y-115968394D01*
X178589522Y-115925163D01*
X178286330Y-115885258D01*
X177782218Y-115785807D01*
X177300589Y-115641195D01*
X176811687Y-115441795D01*
X176593500Y-115337649D01*
X176115382Y-115076370D01*
X175678286Y-114783440D01*
X175258727Y-114441708D01*
X174897033Y-114098734D01*
X174518679Y-113694127D01*
X174201570Y-113298050D01*
X173928582Y-112886985D01*
X173682594Y-112437413D01*
X173672018Y-112416167D01*
X173437010Y-111891731D01*
X173261750Y-111378973D01*
X173141489Y-110856829D01*
X173071476Y-110304236D01*
X173046963Y-109700131D01*
X173046826Y-109643333D01*
X173072018Y-109002757D01*
X173150179Y-108411179D01*
X173285969Y-107848062D01*
X173484049Y-107292871D01*
X173676624Y-106868650D01*
X173978276Y-106338180D01*
X174349968Y-105820564D01*
X174778935Y-105328367D01*
X175252411Y-104874154D01*
X175757630Y-104470488D01*
X176281826Y-104129936D01*
X176659366Y-103932954D01*
X177305903Y-103676213D01*
X177985338Y-103491537D01*
X178682763Y-103381524D01*
X179383274Y-103348775D01*
X179868239Y-103373283D01*
X180394404Y-103435995D01*
X180864057Y-103524446D01*
X181303191Y-103645379D01*
X181737802Y-103805537D01*
X182030967Y-103934228D01*
X182554491Y-104217013D01*
X183069664Y-104571822D01*
X183563941Y-104986115D01*
X184024777Y-105447353D01*
X184439624Y-105942998D01*
X184795938Y-106460510D01*
X185077132Y-106978699D01*
X185338905Y-107636247D01*
X185523732Y-108320230D01*
X185631577Y-109021675D01*
X185662402Y-109731612D01*
X190771048Y-109731612D01*
X190771115Y-109664500D01*
X190770495Y-109285298D01*
X190767759Y-108975976D01*
X190762154Y-108721758D01*
X190752924Y-108507868D01*
X190739314Y-108319530D01*
X190720571Y-108141967D01*
X190695939Y-107960405D01*
X190678140Y-107844167D01*
X190490483Y-106894398D01*
X190233210Y-105988056D01*
X189904410Y-105121517D01*
X189502177Y-104291158D01*
X189024599Y-103493356D01*
X188469769Y-102724486D01*
X187835778Y-101980927D01*
X187298654Y-101429377D01*
X186555110Y-100759098D01*
X185783394Y-100168286D01*
X184982368Y-99656504D01*
X184150896Y-99223313D01*
X183287840Y-98868276D01*
X182392064Y-98590952D01*
X181462430Y-98390906D01*
X180497802Y-98267697D01*
X179497042Y-98220888D01*
X178988203Y-98225845D01*
X178988203Y-98225845D01*
G37*
X178988203Y-98225845D02*
X177992831Y-98290739D01*
X177037286Y-98429768D01*
X176118647Y-98643986D01*
X175233995Y-98934443D01*
X174380410Y-99302193D01*
X173554973Y-99748287D01*
X172754764Y-100273777D01*
X172254333Y-100652393D01*
X172060252Y-100816319D01*
X171825118Y-101029627D01*
X171563440Y-101277813D01*
X171289724Y-101546373D01*
X171018478Y-101820801D01*
X170764210Y-102086593D01*
X170541426Y-102329244D01*
X170364635Y-102534249D01*
X170332708Y-102573667D01*
X169956932Y-103078156D01*
X169592359Y-103631130D01*
X169251178Y-104211102D01*
X168945575Y-104796591D01*
X168687739Y-105366113D01*
X168555569Y-105706333D01*
X168389029Y-106216942D01*
X168236443Y-106779207D01*
X168106011Y-107360313D01*
X168014473Y-107871447D01*
X167975007Y-108193035D01*
X167944938Y-108577017D01*
X167924386Y-109004263D01*
X167913471Y-109455641D01*
X167912312Y-109912018D01*
X167921030Y-110354263D01*
X167939742Y-110763245D01*
X167968570Y-111119831D01*
X167992945Y-111315500D01*
X168168593Y-112264107D01*
X168407129Y-113160661D01*
X168712155Y-114012990D01*
X169087272Y-114828921D01*
X169536081Y-115616279D01*
X170062182Y-116382894D01*
X170669176Y-117136590D01*
X170673131Y-117141161D01*
X171358016Y-117870541D01*
X172088434Y-118530198D01*
X172861696Y-119118653D01*
X173675112Y-119634427D01*
X174525992Y-120076044D01*
X175411645Y-120442024D01*
X176329381Y-120730890D01*
X177276511Y-120941164D01*
X177715333Y-121010269D01*
X177948019Y-121035430D01*
X178243885Y-121056968D01*
X178583860Y-121074437D01*
X178948871Y-121087393D01*
X179319847Y-121095388D01*
X179677713Y-121097979D01*
X180003399Y-121094718D01*
X180277832Y-121085160D01*
X180436042Y-121073836D01*
X181428047Y-120937805D01*
X182384313Y-120725030D01*
X183304997Y-120435449D01*
X184190255Y-120069000D01*
X185040244Y-119625618D01*
X185855121Y-119105242D01*
X186434631Y-118671343D01*
X186650916Y-118489049D01*
X186905300Y-118259006D01*
X187182671Y-117996275D01*
X187467916Y-117715915D01*
X187745925Y-117432988D01*
X188001586Y-117162552D01*
X188219788Y-116919668D01*
X188357211Y-116755333D01*
X188922674Y-115986480D01*
X189410923Y-115194319D01*
X189824700Y-114372523D01*
X190166745Y-113514765D01*
X190439801Y-112614717D01*
X190646609Y-111666052D01*
X190699492Y-111349586D01*
X190722988Y-111174148D01*
X190741150Y-110978547D01*
X190754507Y-110750342D01*
X190763588Y-110477092D01*
X190768921Y-110146356D01*
X190771035Y-109745692D01*
X190771048Y-109731612D01*
X185662402Y-109731612D01*
X185616172Y-110441069D01*
X185492849Y-111141074D01*
X185292396Y-111822656D01*
X185099022Y-112299737D01*
X184851547Y-112766559D01*
X184535708Y-113240409D01*
X184164864Y-113706177D01*
X183752371Y-114148754D01*
X183311589Y-114553029D01*
X182855875Y-114903894D01*
X182710561Y-115001461D01*
X182094657Y-115350148D01*
X181445485Y-115621918D01*
X180766715Y-115816038D01*
X180062018Y-115931774D01*
X179335063Y-115968394D01*
X178589522Y-115925163D01*
X178286330Y-115885258D01*
X177782218Y-115785807D01*
X177300589Y-115641195D01*
X176811687Y-115441795D01*
X176593500Y-115337649D01*
X176115382Y-115076370D01*
X175678286Y-114783440D01*
X175258727Y-114441708D01*
X174897033Y-114098734D01*
X174518679Y-113694127D01*
X174201570Y-113298050D01*
X173928582Y-112886985D01*
X173682594Y-112437413D01*
X173672018Y-112416167D01*
X173437010Y-111891731D01*
X173261750Y-111378973D01*
X173141489Y-110856829D01*
X173071476Y-110304236D01*
X173046963Y-109700131D01*
X173046826Y-109643333D01*
X173072018Y-109002757D01*
X173150179Y-108411179D01*
X173285969Y-107848062D01*
X173484049Y-107292871D01*
X173676624Y-106868650D01*
X173978276Y-106338180D01*
X174349968Y-105820564D01*
X174778935Y-105328367D01*
X175252411Y-104874154D01*
X175757630Y-104470488D01*
X176281826Y-104129936D01*
X176659366Y-103932954D01*
X177305903Y-103676213D01*
X177985338Y-103491537D01*
X178682763Y-103381524D01*
X179383274Y-103348775D01*
X179868239Y-103373283D01*
X180394404Y-103435995D01*
X180864057Y-103524446D01*
X181303191Y-103645379D01*
X181737802Y-103805537D01*
X182030967Y-103934228D01*
X182554491Y-104217013D01*
X183069664Y-104571822D01*
X183563941Y-104986115D01*
X184024777Y-105447353D01*
X184439624Y-105942998D01*
X184795938Y-106460510D01*
X185077132Y-106978699D01*
X185338905Y-107636247D01*
X185523732Y-108320230D01*
X185631577Y-109021675D01*
X185662402Y-109731612D01*
X190771048Y-109731612D01*
X190771115Y-109664500D01*
X190770495Y-109285298D01*
X190767759Y-108975976D01*
X190762154Y-108721758D01*
X190752924Y-108507868D01*
X190739314Y-108319530D01*
X190720571Y-108141967D01*
X190695939Y-107960405D01*
X190678140Y-107844167D01*
X190490483Y-106894398D01*
X190233210Y-105988056D01*
X189904410Y-105121517D01*
X189502177Y-104291158D01*
X189024599Y-103493356D01*
X188469769Y-102724486D01*
X187835778Y-101980927D01*
X187298654Y-101429377D01*
X186555110Y-100759098D01*
X185783394Y-100168286D01*
X184982368Y-99656504D01*
X184150896Y-99223313D01*
X183287840Y-98868276D01*
X182392064Y-98590952D01*
X181462430Y-98390906D01*
X180497802Y-98267697D01*
X179497042Y-98220888D01*
X178988203Y-98225845D01*
G36*
X158099524Y-48532763D02*
G01*
X157757013Y-48570615D01*
X157465058Y-48648537D01*
X157209528Y-48771102D01*
X156976294Y-48942880D01*
X156844304Y-49068258D01*
X156623195Y-49348246D01*
X156465033Y-49672582D01*
X156367770Y-50047180D01*
X156329358Y-50477953D01*
X156328534Y-50557552D01*
X156334011Y-50746374D01*
X156352873Y-50871456D01*
X156388767Y-50953162D01*
X156402617Y-50971338D01*
X156467864Y-51018016D01*
X156594042Y-51072011D01*
X156788059Y-51135792D01*
X157056818Y-51211824D01*
X157131619Y-51231749D01*
X157360717Y-51290088D01*
X157566037Y-51338424D01*
X157731452Y-51373262D01*
X157840837Y-51391110D01*
X157872452Y-51392271D01*
X157907677Y-51382032D01*
X157932148Y-51353973D01*
X157948233Y-51294300D01*
X157958301Y-51189217D01*
X157964721Y-51024929D01*
X157969055Y-50829633D01*
X157976731Y-50612724D01*
X157989923Y-50421114D01*
X158006883Y-50274009D01*
X158025859Y-50190614D01*
X158027631Y-50186842D01*
X158124785Y-50083952D01*
X158272502Y-50024460D01*
X158443405Y-50018688D01*
X158464445Y-50022146D01*
X158554526Y-50044128D01*
X158622716Y-50079042D01*
X158672037Y-50137771D01*
X158705512Y-50231194D01*
X158726164Y-50370195D01*
X158737014Y-50565652D01*
X158741086Y-50828448D01*
X158741533Y-51019630D01*
X158740481Y-51306150D01*
X158736605Y-51521344D01*
X158728828Y-51678537D01*
X158716072Y-51791052D01*
X158697261Y-51872211D01*
X158671316Y-51935339D01*
X158666776Y-51944014D01*
X158602570Y-52021544D01*
X158468254Y-52145682D01*
X158264194Y-52316121D01*
X157990761Y-52532555D01*
X157648323Y-52794677D01*
X157598410Y-52832354D01*
X157340568Y-53029001D01*
X157101292Y-53215843D01*
X156890089Y-53385113D01*
X156716470Y-53529044D01*
X156589944Y-53639869D01*
X156520021Y-53709819D01*
X156513391Y-53718629D01*
X156456407Y-53836002D01*
X156403842Y-53997103D01*
X156375257Y-54124264D01*
X156360920Y-54253744D01*
X156349250Y-54452604D01*
X156340250Y-54706397D01*
X156333924Y-55000681D01*
X156330275Y-55321012D01*
X156329306Y-55652945D01*
X156331022Y-55982037D01*
X156335425Y-56293844D01*
X156342519Y-56573922D01*
X156352308Y-56807827D01*
X156364794Y-56981116D01*
X156374548Y-57055442D01*
X156481251Y-57411579D01*
X156659575Y-57735457D01*
X156899424Y-58016192D01*
X157190708Y-58242901D01*
X157523331Y-58404700D01*
X157667099Y-58449174D01*
X157823405Y-58476433D01*
X158036749Y-58495775D01*
X158281694Y-58506769D01*
X158532802Y-58508987D01*
X158764637Y-58502001D01*
X158951761Y-58485381D01*
X159025953Y-58472085D01*
X159346250Y-58355091D01*
X159649635Y-58166654D01*
X159920168Y-57919993D01*
X160141907Y-57628328D01*
X160225936Y-57477024D01*
X160371367Y-57181748D01*
X160385695Y-56298909D01*
X160388868Y-56028187D01*
X160389464Y-55781441D01*
X160387632Y-55572977D01*
X160383522Y-55417100D01*
X160377282Y-55328114D01*
X160375477Y-55318271D01*
X160363926Y-55277435D01*
X160345172Y-55244275D01*
X160308322Y-55214396D01*
X160242485Y-55183401D01*
X160136768Y-55146894D01*
X159980279Y-55100479D01*
X159762126Y-55039758D01*
X159524700Y-54974876D01*
X159273494Y-54907077D01*
X159091309Y-54860549D01*
X158965745Y-54833349D01*
X158884400Y-54823536D01*
X158834875Y-54829167D01*
X158804766Y-54848301D01*
X158794450Y-54860530D01*
X158775419Y-54913056D01*
X158761018Y-55018296D01*
X158750863Y-55183510D01*
X158744573Y-55415959D01*
X158741767Y-55722901D01*
X158741533Y-55865972D01*
X158740588Y-56199180D01*
X158736130Y-56457792D01*
X158725731Y-56651870D01*
X158706960Y-56791476D01*
X158677388Y-56886675D01*
X158634584Y-56947528D01*
X158576119Y-56984098D01*
X158499562Y-57006449D01*
X158464445Y-57013454D01*
X158290239Y-57014572D01*
X158136629Y-56958926D01*
X158030658Y-56856784D01*
X158024862Y-56846563D01*
X158007659Y-56770234D01*
X157994909Y-56623634D01*
X157986397Y-56421030D01*
X157981910Y-56176687D01*
X157981232Y-55904873D01*
X157984149Y-55619855D01*
X157990448Y-55335898D01*
X157999914Y-55067270D01*
X158012332Y-54828238D01*
X158027488Y-54633068D01*
X158045168Y-54496026D01*
X158061051Y-54437705D01*
X158110029Y-54381177D01*
X158218105Y-54281228D01*
X158376577Y-54145148D01*
X158576743Y-53980227D01*
X158809901Y-53793755D01*
X159067350Y-53593023D01*
X159091435Y-53574491D01*
X159352827Y-53370978D01*
X159595286Y-53177241D01*
X159809160Y-53001364D01*
X159984798Y-52851429D01*
X160112548Y-52735520D01*
X160182757Y-52661720D01*
X160185047Y-52658645D01*
X160245341Y-52569686D01*
X160293077Y-52480657D01*
X160329548Y-52380834D01*
X160356050Y-52259494D01*
X160373878Y-52105912D01*
X160384328Y-51909365D01*
X160388693Y-51659128D01*
X160388270Y-51344477D01*
X160384937Y-51003453D01*
X160371367Y-49853842D01*
X160225936Y-49558571D01*
X160014377Y-49221613D01*
X159741435Y-48939629D01*
X159415158Y-48720640D01*
X159354202Y-48689886D01*
X159227254Y-48630957D01*
X159120117Y-48590305D01*
X159011105Y-48563848D01*
X158878530Y-48547506D01*
X158700704Y-48537197D01*
X158506721Y-48530409D01*
X158099524Y-48532763D01*
X158099524Y-48532763D01*
G37*
X158099524Y-48532763D02*
X157757013Y-48570615D01*
X157465058Y-48648537D01*
X157209528Y-48771102D01*
X156976294Y-48942880D01*
X156844304Y-49068258D01*
X156623195Y-49348246D01*
X156465033Y-49672582D01*
X156367770Y-50047180D01*
X156329358Y-50477953D01*
X156328534Y-50557552D01*
X156334011Y-50746374D01*
X156352873Y-50871456D01*
X156388767Y-50953162D01*
X156402617Y-50971338D01*
X156467864Y-51018016D01*
X156594042Y-51072011D01*
X156788059Y-51135792D01*
X157056818Y-51211824D01*
X157131619Y-51231749D01*
X157360717Y-51290088D01*
X157566037Y-51338424D01*
X157731452Y-51373262D01*
X157840837Y-51391110D01*
X157872452Y-51392271D01*
X157907677Y-51382032D01*
X157932148Y-51353973D01*
X157948233Y-51294300D01*
X157958301Y-51189217D01*
X157964721Y-51024929D01*
X157969055Y-50829633D01*
X157976731Y-50612724D01*
X157989923Y-50421114D01*
X158006883Y-50274009D01*
X158025859Y-50190614D01*
X158027631Y-50186842D01*
X158124785Y-50083952D01*
X158272502Y-50024460D01*
X158443405Y-50018688D01*
X158464445Y-50022146D01*
X158554526Y-50044128D01*
X158622716Y-50079042D01*
X158672037Y-50137771D01*
X158705512Y-50231194D01*
X158726164Y-50370195D01*
X158737014Y-50565652D01*
X158741086Y-50828448D01*
X158741533Y-51019630D01*
X158740481Y-51306150D01*
X158736605Y-51521344D01*
X158728828Y-51678537D01*
X158716072Y-51791052D01*
X158697261Y-51872211D01*
X158671316Y-51935339D01*
X158666776Y-51944014D01*
X158602570Y-52021544D01*
X158468254Y-52145682D01*
X158264194Y-52316121D01*
X157990761Y-52532555D01*
X157648323Y-52794677D01*
X157598410Y-52832354D01*
X157340568Y-53029001D01*
X157101292Y-53215843D01*
X156890089Y-53385113D01*
X156716470Y-53529044D01*
X156589944Y-53639869D01*
X156520021Y-53709819D01*
X156513391Y-53718629D01*
X156456407Y-53836002D01*
X156403842Y-53997103D01*
X156375257Y-54124264D01*
X156360920Y-54253744D01*
X156349250Y-54452604D01*
X156340250Y-54706397D01*
X156333924Y-55000681D01*
X156330275Y-55321012D01*
X156329306Y-55652945D01*
X156331022Y-55982037D01*
X156335425Y-56293844D01*
X156342519Y-56573922D01*
X156352308Y-56807827D01*
X156364794Y-56981116D01*
X156374548Y-57055442D01*
X156481251Y-57411579D01*
X156659575Y-57735457D01*
X156899424Y-58016192D01*
X157190708Y-58242901D01*
X157523331Y-58404700D01*
X157667099Y-58449174D01*
X157823405Y-58476433D01*
X158036749Y-58495775D01*
X158281694Y-58506769D01*
X158532802Y-58508987D01*
X158764637Y-58502001D01*
X158951761Y-58485381D01*
X159025953Y-58472085D01*
X159346250Y-58355091D01*
X159649635Y-58166654D01*
X159920168Y-57919993D01*
X160141907Y-57628328D01*
X160225936Y-57477024D01*
X160371367Y-57181748D01*
X160385695Y-56298909D01*
X160388868Y-56028187D01*
X160389464Y-55781441D01*
X160387632Y-55572977D01*
X160383522Y-55417100D01*
X160377282Y-55328114D01*
X160375477Y-55318271D01*
X160363926Y-55277435D01*
X160345172Y-55244275D01*
X160308322Y-55214396D01*
X160242485Y-55183401D01*
X160136768Y-55146894D01*
X159980279Y-55100479D01*
X159762126Y-55039758D01*
X159524700Y-54974876D01*
X159273494Y-54907077D01*
X159091309Y-54860549D01*
X158965745Y-54833349D01*
X158884400Y-54823536D01*
X158834875Y-54829167D01*
X158804766Y-54848301D01*
X158794450Y-54860530D01*
X158775419Y-54913056D01*
X158761018Y-55018296D01*
X158750863Y-55183510D01*
X158744573Y-55415959D01*
X158741767Y-55722901D01*
X158741533Y-55865972D01*
X158740588Y-56199180D01*
X158736130Y-56457792D01*
X158725731Y-56651870D01*
X158706960Y-56791476D01*
X158677388Y-56886675D01*
X158634584Y-56947528D01*
X158576119Y-56984098D01*
X158499562Y-57006449D01*
X158464445Y-57013454D01*
X158290239Y-57014572D01*
X158136629Y-56958926D01*
X158030658Y-56856784D01*
X158024862Y-56846563D01*
X158007659Y-56770234D01*
X157994909Y-56623634D01*
X157986397Y-56421030D01*
X157981910Y-56176687D01*
X157981232Y-55904873D01*
X157984149Y-55619855D01*
X157990448Y-55335898D01*
X157999914Y-55067270D01*
X158012332Y-54828238D01*
X158027488Y-54633068D01*
X158045168Y-54496026D01*
X158061051Y-54437705D01*
X158110029Y-54381177D01*
X158218105Y-54281228D01*
X158376577Y-54145148D01*
X158576743Y-53980227D01*
X158809901Y-53793755D01*
X159067350Y-53593023D01*
X159091435Y-53574491D01*
X159352827Y-53370978D01*
X159595286Y-53177241D01*
X159809160Y-53001364D01*
X159984798Y-52851429D01*
X160112548Y-52735520D01*
X160182757Y-52661720D01*
X160185047Y-52658645D01*
X160245341Y-52569686D01*
X160293077Y-52480657D01*
X160329548Y-52380834D01*
X160356050Y-52259494D01*
X160373878Y-52105912D01*
X160384328Y-51909365D01*
X160388693Y-51659128D01*
X160388270Y-51344477D01*
X160384937Y-51003453D01*
X160371367Y-49853842D01*
X160225936Y-49558571D01*
X160014377Y-49221613D01*
X159741435Y-48939629D01*
X159415158Y-48720640D01*
X159354202Y-48689886D01*
X159227254Y-48630957D01*
X159120117Y-48590305D01*
X159011105Y-48563848D01*
X158878530Y-48547506D01*
X158700704Y-48537197D01*
X158506721Y-48530409D01*
X158099524Y-48532763D01*
G36*
X151384372Y-48608412D02*
G01*
X151189540Y-48612979D01*
X151054307Y-48621931D01*
X150966154Y-48636364D01*
X150912561Y-48657375D01*
X150891724Y-48673657D01*
X150881376Y-48690239D01*
X150872147Y-48721175D01*
X150863973Y-48771035D01*
X150856792Y-48844389D01*
X150850541Y-48945806D01*
X150845157Y-49079856D01*
X150840578Y-49251108D01*
X150836740Y-49464133D01*
X150833582Y-49723499D01*
X150831039Y-50033777D01*
X150829050Y-50399536D01*
X150827552Y-50825345D01*
X150826482Y-51315775D01*
X150825777Y-51875394D01*
X150825375Y-52508773D01*
X150825212Y-53220481D01*
X150825200Y-53517800D01*
X150825287Y-54261036D01*
X150825589Y-54924175D01*
X150826170Y-55511787D01*
X150827091Y-56028442D01*
X150828416Y-56478708D01*
X150830208Y-56867156D01*
X150832528Y-57198355D01*
X150835441Y-57476875D01*
X150839009Y-57707286D01*
X150843294Y-57894156D01*
X150848359Y-58042056D01*
X150854267Y-58155556D01*
X150861081Y-58239224D01*
X150868863Y-58297631D01*
X150877677Y-58335346D01*
X150887584Y-58356939D01*
X150891724Y-58361943D01*
X150938846Y-58391741D01*
X151019245Y-58411529D01*
X151147597Y-58423024D01*
X151338578Y-58427940D01*
X151460863Y-58428467D01*
X151677909Y-58427193D01*
X151827871Y-58421549D01*
X151928316Y-58408795D01*
X151996811Y-58386193D01*
X152050922Y-58351006D01*
X152071993Y-58333217D01*
X152099679Y-58300252D01*
X152132661Y-58242570D01*
X152173037Y-58154213D01*
X152222907Y-58029224D01*
X152284368Y-57861645D01*
X152359519Y-57645520D01*
X152450459Y-57374890D01*
X152559286Y-57043800D01*
X152688098Y-56646291D01*
X152838994Y-56176407D01*
X152910437Y-55952981D01*
X153640367Y-53667996D01*
X153661533Y-56007459D01*
X153666410Y-56519232D01*
X153671182Y-56952736D01*
X153676078Y-57314367D01*
X153681326Y-57610520D01*
X153687153Y-57847594D01*
X153693787Y-58031983D01*
X153701455Y-58170085D01*
X153710385Y-58268295D01*
X153720804Y-58333010D01*
X153732941Y-58370627D01*
X153746200Y-58387046D01*
X153808804Y-58400871D01*
X153939919Y-58412721D01*
X154123395Y-58421696D01*
X154343083Y-58426893D01*
X154476450Y-58427818D01*
X154730543Y-58427253D01*
X154913925Y-58423947D01*
X155040543Y-58416341D01*
X155124345Y-58402874D01*
X155179278Y-58381988D01*
X155219290Y-58352122D01*
X155227867Y-58343800D01*
X155240984Y-58329397D01*
X155252671Y-58310771D01*
X155263011Y-58283221D01*
X155272086Y-58242045D01*
X155279979Y-58182540D01*
X155286772Y-58100005D01*
X155292548Y-57989739D01*
X155297389Y-57847038D01*
X155301378Y-57667201D01*
X155304597Y-57445527D01*
X155307129Y-57177313D01*
X155309055Y-56857857D01*
X155310460Y-56482458D01*
X155311424Y-56046413D01*
X155312031Y-55545021D01*
X155312364Y-54973580D01*
X155312503Y-54327387D01*
X155312533Y-53601741D01*
X155312533Y-48776466D01*
X155224568Y-48688501D01*
X155182539Y-48652489D01*
X155131167Y-48628519D01*
X155054589Y-48614750D01*
X154936942Y-48609341D01*
X154762362Y-48610452D01*
X154586066Y-48614418D01*
X154356872Y-48621488D01*
X154197433Y-48630687D01*
X154092838Y-48644354D01*
X154028174Y-48664826D01*
X153988532Y-48694441D01*
X153975817Y-48710083D01*
X153947763Y-48770365D01*
X153897953Y-48900342D01*
X153830245Y-49089009D01*
X153748494Y-49325363D01*
X153656555Y-49598397D01*
X153558286Y-49897108D01*
X153538227Y-49958917D01*
X153417413Y-50331696D01*
X153283255Y-50745061D01*
X153144309Y-51172690D01*
X153009131Y-51588258D01*
X152886276Y-51965444D01*
X152821792Y-52163133D01*
X152483234Y-53200300D01*
X152479717Y-50997803D01*
X152478675Y-50502374D01*
X152477123Y-50084751D01*
X152474856Y-49738076D01*
X152471664Y-49455487D01*
X152467341Y-49230127D01*
X152461680Y-49055135D01*
X152454473Y-48923651D01*
X152445512Y-48828817D01*
X152434591Y-48763771D01*
X152421503Y-48721656D01*
X152410300Y-48701219D01*
X152382204Y-48666336D01*
X152345632Y-48641343D01*
X152287308Y-48624595D01*
X152193960Y-48614447D01*
X152052314Y-48609252D01*
X151849096Y-48607366D01*
X151651324Y-48607133D01*
X151384372Y-48608412D01*
X151384372Y-48608412D01*
G37*
X151384372Y-48608412D02*
X151189540Y-48612979D01*
X151054307Y-48621931D01*
X150966154Y-48636364D01*
X150912561Y-48657375D01*
X150891724Y-48673657D01*
X150881376Y-48690239D01*
X150872147Y-48721175D01*
X150863973Y-48771035D01*
X150856792Y-48844389D01*
X150850541Y-48945806D01*
X150845157Y-49079856D01*
X150840578Y-49251108D01*
X150836740Y-49464133D01*
X150833582Y-49723499D01*
X150831039Y-50033777D01*
X150829050Y-50399536D01*
X150827552Y-50825345D01*
X150826482Y-51315775D01*
X150825777Y-51875394D01*
X150825375Y-52508773D01*
X150825212Y-53220481D01*
X150825200Y-53517800D01*
X150825287Y-54261036D01*
X150825589Y-54924175D01*
X150826170Y-55511787D01*
X150827091Y-56028442D01*
X150828416Y-56478708D01*
X150830208Y-56867156D01*
X150832528Y-57198355D01*
X150835441Y-57476875D01*
X150839009Y-57707286D01*
X150843294Y-57894156D01*
X150848359Y-58042056D01*
X150854267Y-58155556D01*
X150861081Y-58239224D01*
X150868863Y-58297631D01*
X150877677Y-58335346D01*
X150887584Y-58356939D01*
X150891724Y-58361943D01*
X150938846Y-58391741D01*
X151019245Y-58411529D01*
X151147597Y-58423024D01*
X151338578Y-58427940D01*
X151460863Y-58428467D01*
X151677909Y-58427193D01*
X151827871Y-58421549D01*
X151928316Y-58408795D01*
X151996811Y-58386193D01*
X152050922Y-58351006D01*
X152071993Y-58333217D01*
X152099679Y-58300252D01*
X152132661Y-58242570D01*
X152173037Y-58154213D01*
X152222907Y-58029224D01*
X152284368Y-57861645D01*
X152359519Y-57645520D01*
X152450459Y-57374890D01*
X152559286Y-57043800D01*
X152688098Y-56646291D01*
X152838994Y-56176407D01*
X152910437Y-55952981D01*
X153640367Y-53667996D01*
X153661533Y-56007459D01*
X153666410Y-56519232D01*
X153671182Y-56952736D01*
X153676078Y-57314367D01*
X153681326Y-57610520D01*
X153687153Y-57847594D01*
X153693787Y-58031983D01*
X153701455Y-58170085D01*
X153710385Y-58268295D01*
X153720804Y-58333010D01*
X153732941Y-58370627D01*
X153746200Y-58387046D01*
X153808804Y-58400871D01*
X153939919Y-58412721D01*
X154123395Y-58421696D01*
X154343083Y-58426893D01*
X154476450Y-58427818D01*
X154730543Y-58427253D01*
X154913925Y-58423947D01*
X155040543Y-58416341D01*
X155124345Y-58402874D01*
X155179278Y-58381988D01*
X155219290Y-58352122D01*
X155227867Y-58343800D01*
X155240984Y-58329397D01*
X155252671Y-58310771D01*
X155263011Y-58283221D01*
X155272086Y-58242045D01*
X155279979Y-58182540D01*
X155286772Y-58100005D01*
X155292548Y-57989739D01*
X155297389Y-57847038D01*
X155301378Y-57667201D01*
X155304597Y-57445527D01*
X155307129Y-57177313D01*
X155309055Y-56857857D01*
X155310460Y-56482458D01*
X155311424Y-56046413D01*
X155312031Y-55545021D01*
X155312364Y-54973580D01*
X155312503Y-54327387D01*
X155312533Y-53601741D01*
X155312533Y-48776466D01*
X155224568Y-48688501D01*
X155182539Y-48652489D01*
X155131167Y-48628519D01*
X155054589Y-48614750D01*
X154936942Y-48609341D01*
X154762362Y-48610452D01*
X154586066Y-48614418D01*
X154356872Y-48621488D01*
X154197433Y-48630687D01*
X154092838Y-48644354D01*
X154028174Y-48664826D01*
X153988532Y-48694441D01*
X153975817Y-48710083D01*
X153947763Y-48770365D01*
X153897953Y-48900342D01*
X153830245Y-49089009D01*
X153748494Y-49325363D01*
X153656555Y-49598397D01*
X153558286Y-49897108D01*
X153538227Y-49958917D01*
X153417413Y-50331696D01*
X153283255Y-50745061D01*
X153144309Y-51172690D01*
X153009131Y-51588258D01*
X152886276Y-51965444D01*
X152821792Y-52163133D01*
X152483234Y-53200300D01*
X152479717Y-50997803D01*
X152478675Y-50502374D01*
X152477123Y-50084751D01*
X152474856Y-49738076D01*
X152471664Y-49455487D01*
X152467341Y-49230127D01*
X152461680Y-49055135D01*
X152454473Y-48923651D01*
X152445512Y-48828817D01*
X152434591Y-48763771D01*
X152421503Y-48721656D01*
X152410300Y-48701219D01*
X152382204Y-48666336D01*
X152345632Y-48641343D01*
X152287308Y-48624595D01*
X152193960Y-48614447D01*
X152052314Y-48609252D01*
X151849096Y-48607366D01*
X151651324Y-48607133D01*
X151384372Y-48608412D01*
G36*
X147348897Y-48606436D02*
G01*
X147109093Y-48613967D01*
X146905225Y-48625352D01*
X146752357Y-48640579D01*
X146665552Y-48659635D01*
X146656575Y-48664515D01*
X146643448Y-48680494D01*
X146629777Y-48712387D01*
X146614982Y-48764744D01*
X146598482Y-48842117D01*
X146579701Y-48949059D01*
X146558057Y-49090121D01*
X146532972Y-49269855D01*
X146503867Y-49492813D01*
X146470163Y-49763545D01*
X146431280Y-50086605D01*
X146386640Y-50466544D01*
X146335662Y-50907914D01*
X146277769Y-51415265D01*
X146212380Y-51993151D01*
X146138917Y-52646123D01*
X146057319Y-53374099D01*
X145987841Y-53996205D01*
X145921054Y-54597028D01*
X145857569Y-55170939D01*
X145797993Y-55712311D01*
X145742936Y-56215516D01*
X145693006Y-56674926D01*
X145648813Y-57084913D01*
X145610965Y-57439849D01*
X145580071Y-57734107D01*
X145556740Y-57962058D01*
X145541581Y-58118074D01*
X145535203Y-58196528D01*
X145535036Y-58201687D01*
X145548023Y-58335043D01*
X145592218Y-58398983D01*
X145600496Y-58402771D01*
X145664366Y-58411610D01*
X145796630Y-58419136D01*
X145981016Y-58424778D01*
X146201255Y-58427966D01*
X146333238Y-58428467D01*
X146612364Y-58426279D01*
X146817217Y-58419186D01*
X146958091Y-58406389D01*
X147045280Y-58387092D01*
X147077903Y-58370784D01*
X147109201Y-58336957D01*
X147134284Y-58278414D01*
X147155480Y-58182388D01*
X147175122Y-58036108D01*
X147195538Y-57826805D01*
X147211169Y-57640534D01*
X147230084Y-57399378D01*
X147246381Y-57177906D01*
X147258793Y-56994433D01*
X147266051Y-56867276D01*
X147267375Y-56828902D01*
X147269200Y-56689838D01*
X147703117Y-56701902D01*
X148137033Y-56713967D01*
X148201369Y-57511740D01*
X148225127Y-57795195D01*
X148245520Y-58005943D01*
X148264551Y-58155773D01*
X148284225Y-58256474D01*
X148306544Y-58319835D01*
X148333512Y-58357645D01*
X148347044Y-58368990D01*
X148401911Y-58392967D01*
X148498103Y-58410040D01*
X148646709Y-58421072D01*
X148858820Y-58426921D01*
X149113608Y-58428467D01*
X149376341Y-58427302D01*
X149567043Y-58423035D01*
X149698329Y-58414506D01*
X149782813Y-58400555D01*
X149833107Y-58380021D01*
X149855450Y-58360247D01*
X149863180Y-58339257D01*
X149867350Y-58295981D01*
X149867534Y-58226095D01*
X149863308Y-58125274D01*
X149854247Y-57989195D01*
X149839924Y-57813532D01*
X149819916Y-57593963D01*
X149793798Y-57326161D01*
X149761143Y-57005804D01*
X149721528Y-56628567D01*
X149674527Y-56190125D01*
X149619715Y-55686155D01*
X149556668Y-55112331D01*
X149556588Y-55111603D01*
X148031200Y-55111603D01*
X147992318Y-55118708D01*
X147889467Y-55123964D01*
X147743342Y-55126402D01*
X147713700Y-55126467D01*
X147535369Y-55121443D01*
X147432544Y-55105413D01*
X147396607Y-55076940D01*
X147396359Y-55073550D01*
X147399317Y-55021216D01*
X147407703Y-54893493D01*
X147420889Y-54699442D01*
X147438247Y-54448123D01*
X147459149Y-54148598D01*
X147482968Y-53809927D01*
X147509077Y-53441170D01*
X147523200Y-53242633D01*
X147550242Y-52861925D01*
X147575318Y-52506640D01*
X147597800Y-52185837D01*
X147617060Y-51908579D01*
X147632472Y-51683924D01*
X147643406Y-51520936D01*
X147649236Y-51428673D01*
X147650041Y-51411717D01*
X147684304Y-51364843D01*
X147713700Y-51358800D01*
X147766457Y-51393684D01*
X147777200Y-51437163D01*
X147780120Y-51495029D01*
X147788464Y-51628150D01*
X147801607Y-51827331D01*
X147818924Y-52083379D01*
X147839790Y-52387097D01*
X147863581Y-52729291D01*
X147889671Y-53100767D01*
X147904200Y-53306133D01*
X147931152Y-53686472D01*
X147956153Y-54039934D01*
X147978585Y-54357739D01*
X147997831Y-54631111D01*
X148013274Y-54851271D01*
X148024296Y-55009441D01*
X148030280Y-55096844D01*
X148031200Y-55111603D01*
X149556588Y-55111603D01*
X149484959Y-54464331D01*
X149404164Y-53737829D01*
X149378229Y-53505168D01*
X149295008Y-52759965D01*
X149220404Y-52094489D01*
X149153858Y-51504298D01*
X149094812Y-50984953D01*
X149042705Y-50532011D01*
X148996979Y-50141032D01*
X148957073Y-49807575D01*
X148922430Y-49527199D01*
X148892489Y-49295463D01*
X148866692Y-49107925D01*
X148844479Y-48960145D01*
X148825290Y-48847682D01*
X148808566Y-48766095D01*
X148793749Y-48710943D01*
X148780278Y-48677784D01*
X148768371Y-48662720D01*
X148698802Y-48642911D01*
X148559722Y-48627047D01*
X148366195Y-48615113D01*
X148133286Y-48607098D01*
X147876057Y-48602989D01*
X147609573Y-48602772D01*
X147348897Y-48606436D01*
X147348897Y-48606436D01*
G37*
X147348897Y-48606436D02*
X147109093Y-48613967D01*
X146905225Y-48625352D01*
X146752357Y-48640579D01*
X146665552Y-48659635D01*
X146656575Y-48664515D01*
X146643448Y-48680494D01*
X146629777Y-48712387D01*
X146614982Y-48764744D01*
X146598482Y-48842117D01*
X146579701Y-48949059D01*
X146558057Y-49090121D01*
X146532972Y-49269855D01*
X146503867Y-49492813D01*
X146470163Y-49763545D01*
X146431280Y-50086605D01*
X146386640Y-50466544D01*
X146335662Y-50907914D01*
X146277769Y-51415265D01*
X146212380Y-51993151D01*
X146138917Y-52646123D01*
X146057319Y-53374099D01*
X145987841Y-53996205D01*
X145921054Y-54597028D01*
X145857569Y-55170939D01*
X145797993Y-55712311D01*
X145742936Y-56215516D01*
X145693006Y-56674926D01*
X145648813Y-57084913D01*
X145610965Y-57439849D01*
X145580071Y-57734107D01*
X145556740Y-57962058D01*
X145541581Y-58118074D01*
X145535203Y-58196528D01*
X145535036Y-58201687D01*
X145548023Y-58335043D01*
X145592218Y-58398983D01*
X145600496Y-58402771D01*
X145664366Y-58411610D01*
X145796630Y-58419136D01*
X145981016Y-58424778D01*
X146201255Y-58427966D01*
X146333238Y-58428467D01*
X146612364Y-58426279D01*
X146817217Y-58419186D01*
X146958091Y-58406389D01*
X147045280Y-58387092D01*
X147077903Y-58370784D01*
X147109201Y-58336957D01*
X147134284Y-58278414D01*
X147155480Y-58182388D01*
X147175122Y-58036108D01*
X147195538Y-57826805D01*
X147211169Y-57640534D01*
X147230084Y-57399378D01*
X147246381Y-57177906D01*
X147258793Y-56994433D01*
X147266051Y-56867276D01*
X147267375Y-56828902D01*
X147269200Y-56689838D01*
X147703117Y-56701902D01*
X148137033Y-56713967D01*
X148201369Y-57511740D01*
X148225127Y-57795195D01*
X148245520Y-58005943D01*
X148264551Y-58155773D01*
X148284225Y-58256474D01*
X148306544Y-58319835D01*
X148333512Y-58357645D01*
X148347044Y-58368990D01*
X148401911Y-58392967D01*
X148498103Y-58410040D01*
X148646709Y-58421072D01*
X148858820Y-58426921D01*
X149113608Y-58428467D01*
X149376341Y-58427302D01*
X149567043Y-58423035D01*
X149698329Y-58414506D01*
X149782813Y-58400555D01*
X149833107Y-58380021D01*
X149855450Y-58360247D01*
X149863180Y-58339257D01*
X149867350Y-58295981D01*
X149867534Y-58226095D01*
X149863308Y-58125274D01*
X149854247Y-57989195D01*
X149839924Y-57813532D01*
X149819916Y-57593963D01*
X149793798Y-57326161D01*
X149761143Y-57005804D01*
X149721528Y-56628567D01*
X149674527Y-56190125D01*
X149619715Y-55686155D01*
X149556668Y-55112331D01*
X149556588Y-55111603D01*
X148031200Y-55111603D01*
X147992318Y-55118708D01*
X147889467Y-55123964D01*
X147743342Y-55126402D01*
X147713700Y-55126467D01*
X147535369Y-55121443D01*
X147432544Y-55105413D01*
X147396607Y-55076940D01*
X147396359Y-55073550D01*
X147399317Y-55021216D01*
X147407703Y-54893493D01*
X147420889Y-54699442D01*
X147438247Y-54448123D01*
X147459149Y-54148598D01*
X147482968Y-53809927D01*
X147509077Y-53441170D01*
X147523200Y-53242633D01*
X147550242Y-52861925D01*
X147575318Y-52506640D01*
X147597800Y-52185837D01*
X147617060Y-51908579D01*
X147632472Y-51683924D01*
X147643406Y-51520936D01*
X147649236Y-51428673D01*
X147650041Y-51411717D01*
X147684304Y-51364843D01*
X147713700Y-51358800D01*
X147766457Y-51393684D01*
X147777200Y-51437163D01*
X147780120Y-51495029D01*
X147788464Y-51628150D01*
X147801607Y-51827331D01*
X147818924Y-52083379D01*
X147839790Y-52387097D01*
X147863581Y-52729291D01*
X147889671Y-53100767D01*
X147904200Y-53306133D01*
X147931152Y-53686472D01*
X147956153Y-54039934D01*
X147978585Y-54357739D01*
X147997831Y-54631111D01*
X148013274Y-54851271D01*
X148024296Y-55009441D01*
X148030280Y-55096844D01*
X148031200Y-55111603D01*
X149556588Y-55111603D01*
X149484959Y-54464331D01*
X149404164Y-53737829D01*
X149378229Y-53505168D01*
X149295008Y-52759965D01*
X149220404Y-52094489D01*
X149153858Y-51504298D01*
X149094812Y-50984953D01*
X149042705Y-50532011D01*
X148996979Y-50141032D01*
X148957073Y-49807575D01*
X148922430Y-49527199D01*
X148892489Y-49295463D01*
X148866692Y-49107925D01*
X148844479Y-48960145D01*
X148825290Y-48847682D01*
X148808566Y-48766095D01*
X148793749Y-48710943D01*
X148780278Y-48677784D01*
X148768371Y-48662720D01*
X148698802Y-48642911D01*
X148559722Y-48627047D01*
X148366195Y-48615113D01*
X148133286Y-48607098D01*
X147876057Y-48602989D01*
X147609573Y-48602772D01*
X147348897Y-48606436D01*
G36*
X143031732Y-48608729D02*
G01*
X142751694Y-48612466D01*
X142495483Y-48618661D01*
X142276655Y-48627317D01*
X142108768Y-48638440D01*
X142015062Y-48650059D01*
X141679109Y-48754041D01*
X141360440Y-48929714D01*
X141075878Y-49164100D01*
X140842249Y-49444225D01*
X140725862Y-49644300D01*
X140601700Y-49898300D01*
X140587930Y-51401133D01*
X140584476Y-51841142D01*
X140583623Y-52205863D01*
X140586420Y-52504663D01*
X140593916Y-52746906D01*
X140607160Y-52941957D01*
X140627200Y-53099182D01*
X140655085Y-53227946D01*
X140691865Y-53337615D01*
X140738587Y-53437553D01*
X140796302Y-53537126D01*
X140833742Y-53596108D01*
X140941225Y-53739299D01*
X141078499Y-53890280D01*
X141225797Y-54030330D01*
X141363350Y-54140723D01*
X141471390Y-54202737D01*
X141475886Y-54204306D01*
X141478142Y-54243643D01*
X141456274Y-54353249D01*
X141409836Y-54534689D01*
X141338386Y-54789531D01*
X141241479Y-55119338D01*
X141118671Y-55525677D01*
X140969520Y-56010113D01*
X140905530Y-56216004D01*
X140782624Y-56612225D01*
X140667790Y-56985604D01*
X140563460Y-57328012D01*
X140472063Y-57631324D01*
X140396030Y-57887413D01*
X140337789Y-58088152D01*
X140299771Y-58225415D01*
X140284407Y-58291075D01*
X140284200Y-58293892D01*
X140314260Y-58374745D01*
X140351163Y-58402771D01*
X140414979Y-58411588D01*
X140547240Y-58419101D01*
X140731727Y-58424743D01*
X140952222Y-58427948D01*
X141087306Y-58428467D01*
X141346878Y-58427291D01*
X141535592Y-58422869D01*
X141667233Y-58413856D01*
X141755588Y-58398910D01*
X141814444Y-58376687D01*
X141847586Y-58354383D01*
X141877365Y-58315188D01*
X141915874Y-58236055D01*
X141965122Y-58111030D01*
X142027116Y-57934162D01*
X142103864Y-57699495D01*
X142197374Y-57401077D01*
X142309653Y-57032954D01*
X142441201Y-56594235D01*
X142549577Y-56231978D01*
X142651109Y-55895219D01*
X142743148Y-55592559D01*
X142823041Y-55332598D01*
X142888139Y-55123936D01*
X142935789Y-54975173D01*
X142963341Y-54894910D01*
X142968626Y-54883263D01*
X142973977Y-54918645D01*
X142978934Y-55030024D01*
X142983372Y-55208730D01*
X142987163Y-55446094D01*
X142990183Y-55733448D01*
X142992306Y-56062121D01*
X142993406Y-56423444D01*
X142993533Y-56599588D01*
X142993671Y-57029371D01*
X142994322Y-57382295D01*
X142995845Y-57666168D01*
X142998599Y-57888799D01*
X143002940Y-58057994D01*
X143009228Y-58181561D01*
X143017820Y-58267309D01*
X143029075Y-58323045D01*
X143043351Y-58356577D01*
X143061006Y-58375713D01*
X143075417Y-58384644D01*
X143149593Y-58401389D01*
X143289079Y-58413856D01*
X143475219Y-58422068D01*
X143689355Y-58426051D01*
X143912831Y-58425828D01*
X144126988Y-58421425D01*
X144313171Y-58412865D01*
X144452722Y-58400173D01*
X144526984Y-58383373D01*
X144528117Y-58382742D01*
X144539526Y-58372619D01*
X144549703Y-58353220D01*
X144558719Y-58319946D01*
X144566643Y-58268201D01*
X144573546Y-58193387D01*
X144579498Y-58090906D01*
X144584568Y-57956161D01*
X144588827Y-57784555D01*
X144592344Y-57571489D01*
X144595190Y-57312368D01*
X144597435Y-57002592D01*
X144599148Y-56637565D01*
X144600400Y-56212689D01*
X144601260Y-55723367D01*
X144601799Y-55165001D01*
X144602087Y-54532994D01*
X144602193Y-53822748D01*
X144602200Y-53517186D01*
X144602172Y-52775916D01*
X144602036Y-52114694D01*
X144601713Y-51528898D01*
X144601127Y-51013910D01*
X144600200Y-50565109D01*
X144598854Y-50177875D01*
X144598594Y-50131133D01*
X142993533Y-50131133D01*
X142993533Y-52925133D01*
X142695276Y-52925133D01*
X142530503Y-52921331D01*
X142424156Y-52905435D01*
X142350165Y-52870708D01*
X142293109Y-52821224D01*
X142189200Y-52717315D01*
X142189200Y-51535766D01*
X142189462Y-51187797D01*
X142190707Y-50914333D01*
X142193625Y-50705214D01*
X142198906Y-50550277D01*
X142207238Y-50439362D01*
X142219311Y-50362308D01*
X142235814Y-50308955D01*
X142257438Y-50269140D01*
X142276939Y-50242676D01*
X142329596Y-50184902D01*
X142389841Y-50151431D01*
X142481232Y-50135729D01*
X142627331Y-50131261D01*
X142679106Y-50131133D01*
X142993533Y-50131133D01*
X144598594Y-50131133D01*
X144597010Y-49847589D01*
X144594592Y-49569631D01*
X144591522Y-49339381D01*
X144587722Y-49152218D01*
X144583113Y-49003525D01*
X144577620Y-48888679D01*
X144571163Y-48803062D01*
X144563664Y-48742054D01*
X144555048Y-48701034D01*
X144545234Y-48675384D01*
X144534147Y-48660483D01*
X144521707Y-48651711D01*
X144520317Y-48650956D01*
X144453100Y-48637630D01*
X144314808Y-48626727D01*
X144118999Y-48618252D01*
X143879229Y-48612210D01*
X143609057Y-48608606D01*
X143322039Y-48607444D01*
X143031732Y-48608729D01*
X143031732Y-48608729D01*
G37*
X143031732Y-48608729D02*
X142751694Y-48612466D01*
X142495483Y-48618661D01*
X142276655Y-48627317D01*
X142108768Y-48638440D01*
X142015062Y-48650059D01*
X141679109Y-48754041D01*
X141360440Y-48929714D01*
X141075878Y-49164100D01*
X140842249Y-49444225D01*
X140725862Y-49644300D01*
X140601700Y-49898300D01*
X140587930Y-51401133D01*
X140584476Y-51841142D01*
X140583623Y-52205863D01*
X140586420Y-52504663D01*
X140593916Y-52746906D01*
X140607160Y-52941957D01*
X140627200Y-53099182D01*
X140655085Y-53227946D01*
X140691865Y-53337615D01*
X140738587Y-53437553D01*
X140796302Y-53537126D01*
X140833742Y-53596108D01*
X140941225Y-53739299D01*
X141078499Y-53890280D01*
X141225797Y-54030330D01*
X141363350Y-54140723D01*
X141471390Y-54202737D01*
X141475886Y-54204306D01*
X141478142Y-54243643D01*
X141456274Y-54353249D01*
X141409836Y-54534689D01*
X141338386Y-54789531D01*
X141241479Y-55119338D01*
X141118671Y-55525677D01*
X140969520Y-56010113D01*
X140905530Y-56216004D01*
X140782624Y-56612225D01*
X140667790Y-56985604D01*
X140563460Y-57328012D01*
X140472063Y-57631324D01*
X140396030Y-57887413D01*
X140337789Y-58088152D01*
X140299771Y-58225415D01*
X140284407Y-58291075D01*
X140284200Y-58293892D01*
X140314260Y-58374745D01*
X140351163Y-58402771D01*
X140414979Y-58411588D01*
X140547240Y-58419101D01*
X140731727Y-58424743D01*
X140952222Y-58427948D01*
X141087306Y-58428467D01*
X141346878Y-58427291D01*
X141535592Y-58422869D01*
X141667233Y-58413856D01*
X141755588Y-58398910D01*
X141814444Y-58376687D01*
X141847586Y-58354383D01*
X141877365Y-58315188D01*
X141915874Y-58236055D01*
X141965122Y-58111030D01*
X142027116Y-57934162D01*
X142103864Y-57699495D01*
X142197374Y-57401077D01*
X142309653Y-57032954D01*
X142441201Y-56594235D01*
X142549577Y-56231978D01*
X142651109Y-55895219D01*
X142743148Y-55592559D01*
X142823041Y-55332598D01*
X142888139Y-55123936D01*
X142935789Y-54975173D01*
X142963341Y-54894910D01*
X142968626Y-54883263D01*
X142973977Y-54918645D01*
X142978934Y-55030024D01*
X142983372Y-55208730D01*
X142987163Y-55446094D01*
X142990183Y-55733448D01*
X142992306Y-56062121D01*
X142993406Y-56423444D01*
X142993533Y-56599588D01*
X142993671Y-57029371D01*
X142994322Y-57382295D01*
X142995845Y-57666168D01*
X142998599Y-57888799D01*
X143002940Y-58057994D01*
X143009228Y-58181561D01*
X143017820Y-58267309D01*
X143029075Y-58323045D01*
X143043351Y-58356577D01*
X143061006Y-58375713D01*
X143075417Y-58384644D01*
X143149593Y-58401389D01*
X143289079Y-58413856D01*
X143475219Y-58422068D01*
X143689355Y-58426051D01*
X143912831Y-58425828D01*
X144126988Y-58421425D01*
X144313171Y-58412865D01*
X144452722Y-58400173D01*
X144526984Y-58383373D01*
X144528117Y-58382742D01*
X144539526Y-58372619D01*
X144549703Y-58353220D01*
X144558719Y-58319946D01*
X144566643Y-58268201D01*
X144573546Y-58193387D01*
X144579498Y-58090906D01*
X144584568Y-57956161D01*
X144588827Y-57784555D01*
X144592344Y-57571489D01*
X144595190Y-57312368D01*
X144597435Y-57002592D01*
X144599148Y-56637565D01*
X144600400Y-56212689D01*
X144601260Y-55723367D01*
X144601799Y-55165001D01*
X144602087Y-54532994D01*
X144602193Y-53822748D01*
X144602200Y-53517186D01*
X144602172Y-52775916D01*
X144602036Y-52114694D01*
X144601713Y-51528898D01*
X144601127Y-51013910D01*
X144600200Y-50565109D01*
X144598854Y-50177875D01*
X144598594Y-50131133D01*
X142993533Y-50131133D01*
X142993533Y-52925133D01*
X142695276Y-52925133D01*
X142530503Y-52921331D01*
X142424156Y-52905435D01*
X142350165Y-52870708D01*
X142293109Y-52821224D01*
X142189200Y-52717315D01*
X142189200Y-51535766D01*
X142189462Y-51187797D01*
X142190707Y-50914333D01*
X142193625Y-50705214D01*
X142198906Y-50550277D01*
X142207238Y-50439362D01*
X142219311Y-50362308D01*
X142235814Y-50308955D01*
X142257438Y-50269140D01*
X142276939Y-50242676D01*
X142329596Y-50184902D01*
X142389841Y-50151431D01*
X142481232Y-50135729D01*
X142627331Y-50131261D01*
X142679106Y-50131133D01*
X142993533Y-50131133D01*
X144598594Y-50131133D01*
X144597010Y-49847589D01*
X144594592Y-49569631D01*
X144591522Y-49339381D01*
X144587722Y-49152218D01*
X144583113Y-49003525D01*
X144577620Y-48888679D01*
X144571163Y-48803062D01*
X144563664Y-48742054D01*
X144555048Y-48701034D01*
X144545234Y-48675384D01*
X144534147Y-48660483D01*
X144521707Y-48651711D01*
X144520317Y-48650956D01*
X144453100Y-48637630D01*
X144314808Y-48626727D01*
X144118999Y-48618252D01*
X143879229Y-48612210D01*
X143609057Y-48608606D01*
X143322039Y-48607444D01*
X143031732Y-48608729D01*
G36*
X137224792Y-48607492D02*
G01*
X136887786Y-48608785D01*
X136619254Y-48611340D01*
X136411101Y-48615483D01*
X136255231Y-48621542D01*
X136143550Y-48629843D01*
X136067961Y-48640712D01*
X136020371Y-48654477D01*
X135992682Y-48671464D01*
X135990391Y-48673657D01*
X135965149Y-48712019D01*
X135946993Y-48777078D01*
X135934860Y-48881216D01*
X135927687Y-49036811D01*
X135924411Y-49256243D01*
X135923867Y-49448357D01*
X135926370Y-49748785D01*
X135934113Y-49969941D01*
X135947447Y-50117077D01*
X135966725Y-50195448D01*
X135974667Y-50207333D01*
X136025460Y-50226825D01*
X136137596Y-50241308D01*
X136317039Y-50251123D01*
X136569754Y-50256612D01*
X136863667Y-50258133D01*
X137701867Y-50258133D01*
X137701867Y-52290133D01*
X136969500Y-52290133D01*
X136664751Y-52292497D01*
X136439090Y-52299826D01*
X136287065Y-52312473D01*
X136203224Y-52330792D01*
X136186334Y-52340933D01*
X136164869Y-52397480D01*
X136149523Y-52521309D01*
X136139943Y-52717623D01*
X136135779Y-52991623D01*
X136135533Y-53094466D01*
X136138070Y-53393922D01*
X136145912Y-53614059D01*
X136159411Y-53760078D01*
X136178917Y-53837182D01*
X136186334Y-53848000D01*
X136241394Y-53868975D01*
X136362194Y-53884119D01*
X136554188Y-53893787D01*
X136822826Y-53898332D01*
X136969500Y-53898800D01*
X137701867Y-53898800D01*
X137701867Y-56777467D01*
X136863667Y-56777467D01*
X136540155Y-56779364D01*
X136295265Y-56785282D01*
X136123033Y-56795562D01*
X136017493Y-56810546D01*
X135974667Y-56828267D01*
X135953296Y-56884528D01*
X135937987Y-57007776D01*
X135928389Y-57203264D01*
X135924150Y-57476244D01*
X135923867Y-57587243D01*
X135925099Y-57857186D01*
X135929505Y-58054869D01*
X135938148Y-58192671D01*
X135952090Y-58282973D01*
X135972395Y-58338153D01*
X135990391Y-58361943D01*
X136016295Y-58379325D01*
X136061164Y-58393446D01*
X136133092Y-58404635D01*
X136240174Y-58413216D01*
X136390506Y-58419518D01*
X136592184Y-58423867D01*
X136853301Y-58426589D01*
X137181954Y-58428012D01*
X137586238Y-58428462D01*
X137638367Y-58428467D01*
X138051942Y-58428108D01*
X138388948Y-58426815D01*
X138657480Y-58424260D01*
X138865633Y-58420116D01*
X139021503Y-58414058D01*
X139133184Y-58405757D01*
X139208772Y-58394888D01*
X139256363Y-58381123D01*
X139284051Y-58364135D01*
X139286343Y-58361943D01*
X139296691Y-58345361D01*
X139305920Y-58314425D01*
X139314094Y-58264565D01*
X139321275Y-58191211D01*
X139327526Y-58089794D01*
X139332910Y-57955744D01*
X139337489Y-57784491D01*
X139341327Y-57571467D01*
X139344485Y-57312100D01*
X139347028Y-57001823D01*
X139349017Y-56636064D01*
X139350515Y-56210255D01*
X139351585Y-55719825D01*
X139352290Y-55160206D01*
X139352692Y-54526827D01*
X139352855Y-53815119D01*
X139352867Y-53517800D01*
X139352780Y-52774564D01*
X139352478Y-52111424D01*
X139351897Y-51523812D01*
X139350976Y-51007158D01*
X139349651Y-50556891D01*
X139347859Y-50168444D01*
X139345539Y-49837244D01*
X139342626Y-49558724D01*
X139339058Y-49328314D01*
X139334773Y-49141444D01*
X139329708Y-48993543D01*
X139323800Y-48880044D01*
X139316986Y-48796376D01*
X139309204Y-48737969D01*
X139300390Y-48700254D01*
X139290483Y-48678661D01*
X139286343Y-48673657D01*
X139260438Y-48656275D01*
X139215570Y-48642153D01*
X139143642Y-48630965D01*
X139036559Y-48622383D01*
X138886227Y-48616081D01*
X138684550Y-48611733D01*
X138423432Y-48609010D01*
X138094779Y-48607587D01*
X137690495Y-48607137D01*
X137638367Y-48607133D01*
X137224792Y-48607492D01*
X137224792Y-48607492D01*
G37*
X137224792Y-48607492D02*
X136887786Y-48608785D01*
X136619254Y-48611340D01*
X136411101Y-48615483D01*
X136255231Y-48621542D01*
X136143550Y-48629843D01*
X136067961Y-48640712D01*
X136020371Y-48654477D01*
X135992682Y-48671464D01*
X135990391Y-48673657D01*
X135965149Y-48712019D01*
X135946993Y-48777078D01*
X135934860Y-48881216D01*
X135927687Y-49036811D01*
X135924411Y-49256243D01*
X135923867Y-49448357D01*
X135926370Y-49748785D01*
X135934113Y-49969941D01*
X135947447Y-50117077D01*
X135966725Y-50195448D01*
X135974667Y-50207333D01*
X136025460Y-50226825D01*
X136137596Y-50241308D01*
X136317039Y-50251123D01*
X136569754Y-50256612D01*
X136863667Y-50258133D01*
X137701867Y-50258133D01*
X137701867Y-52290133D01*
X136969500Y-52290133D01*
X136664751Y-52292497D01*
X136439090Y-52299826D01*
X136287065Y-52312473D01*
X136203224Y-52330792D01*
X136186334Y-52340933D01*
X136164869Y-52397480D01*
X136149523Y-52521309D01*
X136139943Y-52717623D01*
X136135779Y-52991623D01*
X136135533Y-53094466D01*
X136138070Y-53393922D01*
X136145912Y-53614059D01*
X136159411Y-53760078D01*
X136178917Y-53837182D01*
X136186334Y-53848000D01*
X136241394Y-53868975D01*
X136362194Y-53884119D01*
X136554188Y-53893787D01*
X136822826Y-53898332D01*
X136969500Y-53898800D01*
X137701867Y-53898800D01*
X137701867Y-56777467D01*
X136863667Y-56777467D01*
X136540155Y-56779364D01*
X136295265Y-56785282D01*
X136123033Y-56795562D01*
X136017493Y-56810546D01*
X135974667Y-56828267D01*
X135953296Y-56884528D01*
X135937987Y-57007776D01*
X135928389Y-57203264D01*
X135924150Y-57476244D01*
X135923867Y-57587243D01*
X135925099Y-57857186D01*
X135929505Y-58054869D01*
X135938148Y-58192671D01*
X135952090Y-58282973D01*
X135972395Y-58338153D01*
X135990391Y-58361943D01*
X136016295Y-58379325D01*
X136061164Y-58393446D01*
X136133092Y-58404635D01*
X136240174Y-58413216D01*
X136390506Y-58419518D01*
X136592184Y-58423867D01*
X136853301Y-58426589D01*
X137181954Y-58428012D01*
X137586238Y-58428462D01*
X137638367Y-58428467D01*
X138051942Y-58428108D01*
X138388948Y-58426815D01*
X138657480Y-58424260D01*
X138865633Y-58420116D01*
X139021503Y-58414058D01*
X139133184Y-58405757D01*
X139208772Y-58394888D01*
X139256363Y-58381123D01*
X139284051Y-58364135D01*
X139286343Y-58361943D01*
X139296691Y-58345361D01*
X139305920Y-58314425D01*
X139314094Y-58264565D01*
X139321275Y-58191211D01*
X139327526Y-58089794D01*
X139332910Y-57955744D01*
X139337489Y-57784491D01*
X139341327Y-57571467D01*
X139344485Y-57312100D01*
X139347028Y-57001823D01*
X139349017Y-56636064D01*
X139350515Y-56210255D01*
X139351585Y-55719825D01*
X139352290Y-55160206D01*
X139352692Y-54526827D01*
X139352855Y-53815119D01*
X139352867Y-53517800D01*
X139352780Y-52774564D01*
X139352478Y-52111424D01*
X139351897Y-51523812D01*
X139350976Y-51007158D01*
X139349651Y-50556891D01*
X139347859Y-50168444D01*
X139345539Y-49837244D01*
X139342626Y-49558724D01*
X139339058Y-49328314D01*
X139334773Y-49141444D01*
X139329708Y-48993543D01*
X139323800Y-48880044D01*
X139316986Y-48796376D01*
X139309204Y-48737969D01*
X139300390Y-48700254D01*
X139290483Y-48678661D01*
X139286343Y-48673657D01*
X139260438Y-48656275D01*
X139215570Y-48642153D01*
X139143642Y-48630965D01*
X139036559Y-48622383D01*
X138886227Y-48616081D01*
X138684550Y-48611733D01*
X138423432Y-48609010D01*
X138094779Y-48607587D01*
X137690495Y-48607137D01*
X137638367Y-48607133D01*
X137224792Y-48607492D01*
M02*
