G04 #@! TF.GenerationSoftware,KiCad,Pcbnew,(5.1.2)-2*
G04 #@! TF.CreationDate,2019-10-15T01:23:37+08:00*
G04 #@! TF.ProjectId,BrainPower,42726169-6e50-46f7-9765-722e6b696361,rev?*
G04 #@! TF.SameCoordinates,Original*
G04 #@! TF.FileFunction,Legend,Bot*
G04 #@! TF.FilePolarity,Positive*
%FSLAX46Y46*%
G04 Gerber Fmt 4.6, Leading zero omitted, Abs format (unit mm)*
G04 Created by KiCad (PCBNEW (5.1.2)-2) date 2019-10-15 01:23:37*
%MOMM*%
%LPD*%
G04 APERTURE LIST*
%ADD10C,0.010000*%
G04 APERTURE END LIST*
D10*
G36*
X123505675Y206622107D02*
G01*
X123192768Y206613662D01*
X122934139Y206596839D01*
X122862140Y206589127D01*
X122009740Y206443192D01*
X121170900Y206217128D01*
X120353129Y205915003D01*
X119563932Y205540880D01*
X118810817Y205098825D01*
X118101292Y204592903D01*
X117442862Y204027181D01*
X116843036Y203405722D01*
X116721007Y203263500D01*
X116214899Y202597389D01*
X115764251Y201873922D01*
X115373230Y201103105D01*
X115046003Y200294944D01*
X114786736Y199459443D01*
X114599596Y198606609D01*
X114507759Y197949070D01*
X114487927Y197675189D01*
X114477870Y197343809D01*
X114477017Y196976622D01*
X114484798Y196595318D01*
X114500643Y196221587D01*
X114523981Y195877120D01*
X114554241Y195583608D01*
X114573416Y195453000D01*
X114726374Y194703775D01*
X114926138Y194002837D01*
X115181320Y193322912D01*
X115395294Y192849500D01*
X115663863Y192325590D01*
X115941685Y191856123D01*
X116244312Y191419049D01*
X116587298Y190992315D01*
X116986198Y190553870D01*
X117090672Y190445792D01*
X117618955Y189904749D01*
X117494061Y189783921D01*
X117448863Y189743465D01*
X117342999Y189650631D01*
X117179884Y189508378D01*
X116962933Y189319664D01*
X116695561Y189087448D01*
X116381183Y188814689D01*
X116023213Y188504346D01*
X115625066Y188159376D01*
X115190157Y187782739D01*
X114721900Y187377394D01*
X114223712Y186946298D01*
X113699005Y186492412D01*
X113151195Y186018693D01*
X112583698Y185528100D01*
X111999926Y185023592D01*
X111992834Y185017464D01*
X111410077Y184513883D01*
X110844225Y184024859D01*
X110298641Y183553299D01*
X109776683Y183102109D01*
X109281715Y182674196D01*
X108817096Y182272467D01*
X108386186Y181899830D01*
X107992348Y181559190D01*
X107638942Y181253455D01*
X107329328Y180985532D01*
X107066868Y180758327D01*
X106854922Y180574748D01*
X106696851Y180437701D01*
X106596016Y180350093D01*
X106555778Y180314832D01*
X106555520Y180314592D01*
X106518154Y180255616D01*
X106523739Y180228150D01*
X106568426Y180211943D01*
X106687864Y180174751D01*
X106875307Y180118537D01*
X107124008Y180045264D01*
X107427222Y179956891D01*
X107778202Y179855383D01*
X108170200Y179742700D01*
X108596472Y179620805D01*
X109050270Y179491659D01*
X109294053Y179422525D01*
X109767929Y179288296D01*
X110224334Y179159010D01*
X110655669Y179036821D01*
X111054336Y178923882D01*
X111412734Y178822344D01*
X111723265Y178734362D01*
X111978330Y178662088D01*
X112170331Y178607675D01*
X112291668Y178573276D01*
X112319781Y178565300D01*
X112604394Y178484501D01*
X117773603Y182961620D01*
X122942812Y187438738D01*
X123698598Y187222399D01*
X123938799Y187152718D01*
X124150246Y187089620D01*
X124319701Y187037198D01*
X124433924Y186999548D01*
X124479559Y186980886D01*
X124471278Y186937872D01*
X124441137Y186818156D01*
X124390451Y186626468D01*
X124320529Y186367542D01*
X124232686Y186046108D01*
X124128233Y185666898D01*
X124008483Y185234645D01*
X123874748Y184754079D01*
X123728340Y184229933D01*
X123570572Y183666938D01*
X123402756Y183069826D01*
X123226204Y182443329D01*
X123042230Y181792178D01*
X122955255Y181484913D01*
X122768249Y180824154D01*
X122587913Y180186005D01*
X122415569Y179575188D01*
X122252537Y178996422D01*
X122100138Y178454428D01*
X121959692Y177953928D01*
X121832520Y177499642D01*
X121719943Y177096292D01*
X121623282Y176748597D01*
X121543857Y176461279D01*
X121482989Y176239058D01*
X121441999Y176086656D01*
X121422206Y176008793D01*
X121420590Y175999300D01*
X121462852Y175985456D01*
X121579578Y175950646D01*
X121763744Y175896887D01*
X122008326Y175826197D01*
X122306301Y175740594D01*
X122650645Y175642094D01*
X123034334Y175532715D01*
X123450344Y175414475D01*
X123891651Y175289390D01*
X123931952Y175277984D01*
X124376474Y175152107D01*
X124797364Y175032765D01*
X125187459Y174921999D01*
X125539593Y174821852D01*
X125846604Y174734365D01*
X126101327Y174661579D01*
X126296597Y174605537D01*
X126425251Y174568279D01*
X126480125Y174551849D01*
X126481060Y174551515D01*
X126539727Y174565372D01*
X126554729Y174588858D01*
X126569771Y174639039D01*
X126606728Y174766857D01*
X126664606Y174968796D01*
X126742410Y175241337D01*
X126839145Y175580964D01*
X126953817Y175984158D01*
X127085431Y176447404D01*
X127232993Y176967182D01*
X127395507Y177539976D01*
X127571981Y178162269D01*
X127761418Y178830542D01*
X127962824Y179541279D01*
X128175205Y180290962D01*
X128397567Y181076074D01*
X128628913Y181893097D01*
X128868251Y182738514D01*
X129114585Y183608808D01*
X129366921Y184500461D01*
X129624264Y185409955D01*
X129885620Y186333774D01*
X130149994Y187268400D01*
X130416391Y188210315D01*
X130683817Y189156002D01*
X130951278Y190101944D01*
X131217778Y191044623D01*
X131482323Y191980522D01*
X131743919Y192906124D01*
X132001571Y193817910D01*
X132254284Y194712364D01*
X132501064Y195585969D01*
X132740916Y196435206D01*
X132972846Y197256559D01*
X133195859Y198046509D01*
X133408960Y198801541D01*
X133611155Y199518135D01*
X133801449Y200192776D01*
X133811307Y200227741D01*
X128261472Y200227741D01*
X128187715Y199967621D01*
X128165550Y199889373D01*
X128122081Y199735832D01*
X128059052Y199513170D01*
X127978212Y199227561D01*
X127881308Y198885178D01*
X127770087Y198492196D01*
X127646297Y198054789D01*
X127511684Y197579128D01*
X127367996Y197071389D01*
X127216981Y196537745D01*
X127060384Y195984370D01*
X127038797Y195908084D01*
X126883279Y195359320D01*
X126734051Y194834316D01*
X126592742Y194338721D01*
X126460985Y193878185D01*
X126340409Y193458356D01*
X126232647Y193084885D01*
X126139329Y192763420D01*
X126062087Y192499612D01*
X126002550Y192299110D01*
X125962351Y192167563D01*
X125943121Y192110621D01*
X125941868Y192108667D01*
X125897792Y192119863D01*
X125780871Y192151844D01*
X125599688Y192202204D01*
X125362828Y192268537D01*
X125078873Y192348435D01*
X124756406Y192439491D01*
X124404011Y192539298D01*
X124221326Y192591148D01*
X123667792Y192750422D01*
X123196276Y192890534D01*
X122806361Y193011615D01*
X122497628Y193113799D01*
X122269656Y193197218D01*
X122153818Y193246424D01*
X121637809Y193533715D01*
X121175014Y193885324D01*
X120768872Y194297081D01*
X120422823Y194764813D01*
X120140306Y195284348D01*
X119924760Y195851515D01*
X119880906Y196003334D01*
X119840599Y196165383D01*
X119813124Y196316682D01*
X119796340Y196479817D01*
X119788103Y196677371D01*
X119786271Y196931929D01*
X119786516Y196998167D01*
X119789927Y197268202D01*
X119798863Y197478175D01*
X119816006Y197652640D01*
X119844042Y197816155D01*
X119885653Y197993274D01*
X119902185Y198056500D01*
X120030216Y198453851D01*
X120200827Y198858197D01*
X120399627Y199238939D01*
X120611270Y199564194D01*
X120969478Y199982611D01*
X121381785Y200350779D01*
X121837865Y200664275D01*
X122327393Y200918673D01*
X122840046Y201109550D01*
X123365498Y201232481D01*
X123893424Y201283041D01*
X124413499Y201256806D01*
X124523500Y201240674D01*
X124648717Y201215172D01*
X124844026Y201169071D01*
X125098192Y201105305D01*
X125399977Y201026810D01*
X125738144Y200936520D01*
X126101457Y200837370D01*
X126478677Y200732293D01*
X126582986Y200702852D01*
X128261472Y200227741D01*
X133811307Y200227741D01*
X133978849Y200821944D01*
X134142358Y201402124D01*
X134290983Y201929797D01*
X134423729Y202401447D01*
X134539601Y202813555D01*
X134637605Y203162605D01*
X134716746Y203445079D01*
X134776030Y203657459D01*
X134814462Y203796228D01*
X134831047Y203857869D01*
X134831667Y203860774D01*
X134832409Y203872297D01*
X134830970Y203882853D01*
X134821851Y203894112D01*
X134799554Y203907745D01*
X134758579Y203925423D01*
X134693429Y203948817D01*
X134598604Y203979597D01*
X134468606Y204019433D01*
X134297936Y204069997D01*
X134081095Y204132959D01*
X133812586Y204209990D01*
X133486909Y204302760D01*
X133098566Y204412940D01*
X132642058Y204542201D01*
X132111886Y204692214D01*
X131868334Y204761127D01*
X131377567Y204900007D01*
X130866029Y205044778D01*
X130347734Y205191473D01*
X129836695Y205336126D01*
X129346924Y205474771D01*
X128892434Y205603440D01*
X128487238Y205718166D01*
X128145350Y205814984D01*
X128058334Y205839629D01*
X127565841Y205978669D01*
X127145377Y206096246D01*
X126787734Y206194747D01*
X126483701Y206276557D01*
X126224068Y206344060D01*
X125999628Y206399641D01*
X125801169Y206445685D01*
X125619483Y206484578D01*
X125445359Y206518704D01*
X125412500Y206524822D01*
X125190342Y206556150D01*
X124903487Y206582099D01*
X124571764Y206602169D01*
X124215002Y206615860D01*
X123853029Y206622673D01*
X123505675Y206622107D01*
X123505675Y206622107D01*
G37*
X123505675Y206622107D02*
X123192768Y206613662D01*
X122934139Y206596839D01*
X122862140Y206589127D01*
X122009740Y206443192D01*
X121170900Y206217128D01*
X120353129Y205915003D01*
X119563932Y205540880D01*
X118810817Y205098825D01*
X118101292Y204592903D01*
X117442862Y204027181D01*
X116843036Y203405722D01*
X116721007Y203263500D01*
X116214899Y202597389D01*
X115764251Y201873922D01*
X115373230Y201103105D01*
X115046003Y200294944D01*
X114786736Y199459443D01*
X114599596Y198606609D01*
X114507759Y197949070D01*
X114487927Y197675189D01*
X114477870Y197343809D01*
X114477017Y196976622D01*
X114484798Y196595318D01*
X114500643Y196221587D01*
X114523981Y195877120D01*
X114554241Y195583608D01*
X114573416Y195453000D01*
X114726374Y194703775D01*
X114926138Y194002837D01*
X115181320Y193322912D01*
X115395294Y192849500D01*
X115663863Y192325590D01*
X115941685Y191856123D01*
X116244312Y191419049D01*
X116587298Y190992315D01*
X116986198Y190553870D01*
X117090672Y190445792D01*
X117618955Y189904749D01*
X117494061Y189783921D01*
X117448863Y189743465D01*
X117342999Y189650631D01*
X117179884Y189508378D01*
X116962933Y189319664D01*
X116695561Y189087448D01*
X116381183Y188814689D01*
X116023213Y188504346D01*
X115625066Y188159376D01*
X115190157Y187782739D01*
X114721900Y187377394D01*
X114223712Y186946298D01*
X113699005Y186492412D01*
X113151195Y186018693D01*
X112583698Y185528100D01*
X111999926Y185023592D01*
X111992834Y185017464D01*
X111410077Y184513883D01*
X110844225Y184024859D01*
X110298641Y183553299D01*
X109776683Y183102109D01*
X109281715Y182674196D01*
X108817096Y182272467D01*
X108386186Y181899830D01*
X107992348Y181559190D01*
X107638942Y181253455D01*
X107329328Y180985532D01*
X107066868Y180758327D01*
X106854922Y180574748D01*
X106696851Y180437701D01*
X106596016Y180350093D01*
X106555778Y180314832D01*
X106555520Y180314592D01*
X106518154Y180255616D01*
X106523739Y180228150D01*
X106568426Y180211943D01*
X106687864Y180174751D01*
X106875307Y180118537D01*
X107124008Y180045264D01*
X107427222Y179956891D01*
X107778202Y179855383D01*
X108170200Y179742700D01*
X108596472Y179620805D01*
X109050270Y179491659D01*
X109294053Y179422525D01*
X109767929Y179288296D01*
X110224334Y179159010D01*
X110655669Y179036821D01*
X111054336Y178923882D01*
X111412734Y178822344D01*
X111723265Y178734362D01*
X111978330Y178662088D01*
X112170331Y178607675D01*
X112291668Y178573276D01*
X112319781Y178565300D01*
X112604394Y178484501D01*
X117773603Y182961620D01*
X122942812Y187438738D01*
X123698598Y187222399D01*
X123938799Y187152718D01*
X124150246Y187089620D01*
X124319701Y187037198D01*
X124433924Y186999548D01*
X124479559Y186980886D01*
X124471278Y186937872D01*
X124441137Y186818156D01*
X124390451Y186626468D01*
X124320529Y186367542D01*
X124232686Y186046108D01*
X124128233Y185666898D01*
X124008483Y185234645D01*
X123874748Y184754079D01*
X123728340Y184229933D01*
X123570572Y183666938D01*
X123402756Y183069826D01*
X123226204Y182443329D01*
X123042230Y181792178D01*
X122955255Y181484913D01*
X122768249Y180824154D01*
X122587913Y180186005D01*
X122415569Y179575188D01*
X122252537Y178996422D01*
X122100138Y178454428D01*
X121959692Y177953928D01*
X121832520Y177499642D01*
X121719943Y177096292D01*
X121623282Y176748597D01*
X121543857Y176461279D01*
X121482989Y176239058D01*
X121441999Y176086656D01*
X121422206Y176008793D01*
X121420590Y175999300D01*
X121462852Y175985456D01*
X121579578Y175950646D01*
X121763744Y175896887D01*
X122008326Y175826197D01*
X122306301Y175740594D01*
X122650645Y175642094D01*
X123034334Y175532715D01*
X123450344Y175414475D01*
X123891651Y175289390D01*
X123931952Y175277984D01*
X124376474Y175152107D01*
X124797364Y175032765D01*
X125187459Y174921999D01*
X125539593Y174821852D01*
X125846604Y174734365D01*
X126101327Y174661579D01*
X126296597Y174605537D01*
X126425251Y174568279D01*
X126480125Y174551849D01*
X126481060Y174551515D01*
X126539727Y174565372D01*
X126554729Y174588858D01*
X126569771Y174639039D01*
X126606728Y174766857D01*
X126664606Y174968796D01*
X126742410Y175241337D01*
X126839145Y175580964D01*
X126953817Y175984158D01*
X127085431Y176447404D01*
X127232993Y176967182D01*
X127395507Y177539976D01*
X127571981Y178162269D01*
X127761418Y178830542D01*
X127962824Y179541279D01*
X128175205Y180290962D01*
X128397567Y181076074D01*
X128628913Y181893097D01*
X128868251Y182738514D01*
X129114585Y183608808D01*
X129366921Y184500461D01*
X129624264Y185409955D01*
X129885620Y186333774D01*
X130149994Y187268400D01*
X130416391Y188210315D01*
X130683817Y189156002D01*
X130951278Y190101944D01*
X131217778Y191044623D01*
X131482323Y191980522D01*
X131743919Y192906124D01*
X132001571Y193817910D01*
X132254284Y194712364D01*
X132501064Y195585969D01*
X132740916Y196435206D01*
X132972846Y197256559D01*
X133195859Y198046509D01*
X133408960Y198801541D01*
X133611155Y199518135D01*
X133801449Y200192776D01*
X133811307Y200227741D01*
X128261472Y200227741D01*
X128187715Y199967621D01*
X128165550Y199889373D01*
X128122081Y199735832D01*
X128059052Y199513170D01*
X127978212Y199227561D01*
X127881308Y198885178D01*
X127770087Y198492196D01*
X127646297Y198054789D01*
X127511684Y197579128D01*
X127367996Y197071389D01*
X127216981Y196537745D01*
X127060384Y195984370D01*
X127038797Y195908084D01*
X126883279Y195359320D01*
X126734051Y194834316D01*
X126592742Y194338721D01*
X126460985Y193878185D01*
X126340409Y193458356D01*
X126232647Y193084885D01*
X126139329Y192763420D01*
X126062087Y192499612D01*
X126002550Y192299110D01*
X125962351Y192167563D01*
X125943121Y192110621D01*
X125941868Y192108667D01*
X125897792Y192119863D01*
X125780871Y192151844D01*
X125599688Y192202204D01*
X125362828Y192268537D01*
X125078873Y192348435D01*
X124756406Y192439491D01*
X124404011Y192539298D01*
X124221326Y192591148D01*
X123667792Y192750422D01*
X123196276Y192890534D01*
X122806361Y193011615D01*
X122497628Y193113799D01*
X122269656Y193197218D01*
X122153818Y193246424D01*
X121637809Y193533715D01*
X121175014Y193885324D01*
X120768872Y194297081D01*
X120422823Y194764813D01*
X120140306Y195284348D01*
X119924760Y195851515D01*
X119880906Y196003334D01*
X119840599Y196165383D01*
X119813124Y196316682D01*
X119796340Y196479817D01*
X119788103Y196677371D01*
X119786271Y196931929D01*
X119786516Y196998167D01*
X119789927Y197268202D01*
X119798863Y197478175D01*
X119816006Y197652640D01*
X119844042Y197816155D01*
X119885653Y197993274D01*
X119902185Y198056500D01*
X120030216Y198453851D01*
X120200827Y198858197D01*
X120399627Y199238939D01*
X120611270Y199564194D01*
X120969478Y199982611D01*
X121381785Y200350779D01*
X121837865Y200664275D01*
X122327393Y200918673D01*
X122840046Y201109550D01*
X123365498Y201232481D01*
X123893424Y201283041D01*
X124413499Y201256806D01*
X124523500Y201240674D01*
X124648717Y201215172D01*
X124844026Y201169071D01*
X125098192Y201105305D01*
X125399977Y201026810D01*
X125738144Y200936520D01*
X126101457Y200837370D01*
X126478677Y200732293D01*
X126582986Y200702852D01*
X128261472Y200227741D01*
X133811307Y200227741D01*
X133978849Y200821944D01*
X134142358Y201402124D01*
X134290983Y201929797D01*
X134423729Y202401447D01*
X134539601Y202813555D01*
X134637605Y203162605D01*
X134716746Y203445079D01*
X134776030Y203657459D01*
X134814462Y203796228D01*
X134831047Y203857869D01*
X134831667Y203860774D01*
X134832409Y203872297D01*
X134830970Y203882853D01*
X134821851Y203894112D01*
X134799554Y203907745D01*
X134758579Y203925423D01*
X134693429Y203948817D01*
X134598604Y203979597D01*
X134468606Y204019433D01*
X134297936Y204069997D01*
X134081095Y204132959D01*
X133812586Y204209990D01*
X133486909Y204302760D01*
X133098566Y204412940D01*
X132642058Y204542201D01*
X132111886Y204692214D01*
X131868334Y204761127D01*
X131377567Y204900007D01*
X130866029Y205044778D01*
X130347734Y205191473D01*
X129836695Y205336126D01*
X129346924Y205474771D01*
X128892434Y205603440D01*
X128487238Y205718166D01*
X128145350Y205814984D01*
X128058334Y205839629D01*
X127565841Y205978669D01*
X127145377Y206096246D01*
X126787734Y206194747D01*
X126483701Y206276557D01*
X126224068Y206344060D01*
X125999628Y206399641D01*
X125801169Y206445685D01*
X125619483Y206484578D01*
X125445359Y206518704D01*
X125412500Y206524822D01*
X125190342Y206556150D01*
X124903487Y206582099D01*
X124571764Y206602169D01*
X124215002Y206615860D01*
X123853029Y206622673D01*
X123505675Y206622107D01*
G36*
X149023143Y200264024D02*
G01*
X147878034Y200179535D01*
X146939000Y200047507D01*
X145926490Y199834753D01*
X144905870Y199542499D01*
X143884989Y199174397D01*
X142871697Y198734096D01*
X141873842Y198225248D01*
X140899273Y197651502D01*
X139955839Y197016508D01*
X139213167Y196454429D01*
X138998169Y196273180D01*
X138741649Y196041018D01*
X138456299Y195770808D01*
X138154815Y195475414D01*
X137849891Y195167700D01*
X137554221Y194860529D01*
X137280501Y194566767D01*
X137041423Y194299277D01*
X136849684Y194070923D01*
X136804600Y194013667D01*
X136121465Y193060192D01*
X135509639Y192061359D01*
X134969422Y191017926D01*
X134501115Y189930647D01*
X134105019Y188800278D01*
X133781435Y187627576D01*
X133530664Y186413296D01*
X133383604Y185420000D01*
X133360941Y185173269D01*
X133343954Y184858561D01*
X133332540Y184492373D01*
X133326593Y184091197D01*
X133326010Y183671527D01*
X133330685Y183249858D01*
X133340514Y182842683D01*
X133355393Y182466495D01*
X133375217Y182137789D01*
X133399882Y181873059D01*
X133406403Y181821667D01*
X133602352Y180666941D01*
X133873471Y179545401D01*
X134221848Y178450837D01*
X134649573Y177377041D01*
X135158735Y176317801D01*
X135421309Y175832949D01*
X136047928Y174795224D01*
X136726726Y173823667D01*
X137457380Y172918591D01*
X138239561Y172080310D01*
X139072946Y171309138D01*
X139957207Y170605389D01*
X140892018Y169969377D01*
X141877055Y169401416D01*
X142345834Y169163633D01*
X143454064Y168670916D01*
X144593071Y168256131D01*
X145764488Y167918804D01*
X146969948Y167658458D01*
X148103167Y167487403D01*
X148286211Y167469980D01*
X148531834Y167453488D01*
X148823708Y167438392D01*
X149145505Y167425155D01*
X149480899Y167414243D01*
X149813559Y167406120D01*
X150127159Y167401252D01*
X150405371Y167400102D01*
X150631867Y167403135D01*
X150790318Y167410816D01*
X150791334Y167410903D01*
X151759198Y167513958D01*
X152664485Y167652691D01*
X153523277Y167831466D01*
X154351661Y168054648D01*
X155165720Y168326601D01*
X155981539Y168651689D01*
X156815204Y169034276D01*
X156866167Y169059168D01*
X157950962Y169633943D01*
X158971182Y170263365D01*
X159926529Y170947070D01*
X160816705Y171684694D01*
X161641415Y172475871D01*
X162400359Y173320237D01*
X163093240Y174217428D01*
X163719761Y175167079D01*
X164279625Y176168826D01*
X164772533Y177222304D01*
X165198189Y178327148D01*
X165556294Y179482994D01*
X165644176Y179814771D01*
X165831777Y180609944D01*
X165974968Y181360946D01*
X166077061Y182093543D01*
X166141368Y182833498D01*
X166171201Y183606577D01*
X166174008Y183913510D01*
X160864494Y183913510D01*
X160825522Y182982698D01*
X160706775Y182052347D01*
X160608036Y181546500D01*
X160355482Y180577952D01*
X160033961Y179658496D01*
X159643653Y178788364D01*
X159184736Y177967788D01*
X158657389Y177196997D01*
X158061791Y176476225D01*
X157398120Y175805702D01*
X156666556Y175185660D01*
X155867277Y174616330D01*
X155000462Y174097944D01*
X154749500Y173963948D01*
X153992879Y173605658D01*
X153205162Y173300249D01*
X152404575Y173053436D01*
X151609340Y172870931D01*
X150939500Y172769304D01*
X150715065Y172750817D01*
X150430053Y172737576D01*
X150106392Y172729640D01*
X149766006Y172727068D01*
X149430821Y172729917D01*
X149122763Y172738247D01*
X148863755Y172752115D01*
X148738167Y172763436D01*
X147755975Y172912602D01*
X146800212Y173135724D01*
X145876671Y173430587D01*
X144991142Y173794975D01*
X144149417Y174226675D01*
X143357287Y174723471D01*
X143064264Y174933484D01*
X142780061Y175160073D01*
X142462986Y175438744D01*
X142129645Y175752871D01*
X141796638Y176085827D01*
X141480570Y176420987D01*
X141198043Y176741724D01*
X140965660Y177031412D01*
X140954917Y177045774D01*
X140378466Y177886098D01*
X139879146Y178754880D01*
X139458287Y179649001D01*
X139117224Y180565342D01*
X138857287Y181500782D01*
X138697875Y182329667D01*
X138662353Y182636285D01*
X138637955Y183004904D01*
X138624669Y183413594D01*
X138622480Y183840427D01*
X138631374Y184263472D01*
X138651337Y184660800D01*
X138682355Y185010482D01*
X138699681Y185144834D01*
X138881293Y186134605D01*
X139133110Y187091852D01*
X139452908Y188010598D01*
X139838465Y188884862D01*
X140287559Y189708663D01*
X140549051Y190120489D01*
X141092176Y190857531D01*
X141701434Y191546081D01*
X142371268Y192182697D01*
X143096124Y192763932D01*
X143870444Y193286342D01*
X144688673Y193746483D01*
X145545255Y194140909D01*
X146434634Y194466176D01*
X147351253Y194718840D01*
X148238414Y194887914D01*
X148537081Y194921638D01*
X148897534Y194944832D01*
X149297555Y194957508D01*
X149714921Y194959678D01*
X150127412Y194951352D01*
X150512807Y194932540D01*
X150848885Y194903255D01*
X150978767Y194886566D01*
X152009725Y194699274D01*
X152989405Y194445103D01*
X153919110Y194123535D01*
X154800144Y193734053D01*
X155633809Y193276138D01*
X156421409Y192749273D01*
X156497608Y192692832D01*
X156754607Y192486338D01*
X157046164Y192227985D01*
X157356328Y191933867D01*
X157669148Y191620072D01*
X157968672Y191302694D01*
X158238947Y190997822D01*
X158464022Y190721550D01*
X158503559Y190669334D01*
X159063432Y189854793D01*
X159555274Y189006468D01*
X159974570Y188133472D01*
X160316805Y187244912D01*
X160504307Y186632425D01*
X160703731Y185746001D01*
X160823845Y184837153D01*
X160864494Y183913510D01*
X166174008Y183913510D01*
X166174236Y183938334D01*
X166171426Y184415374D01*
X166160153Y184832673D01*
X166138455Y185214903D01*
X166104368Y185586741D01*
X166055931Y185972860D01*
X165991181Y186397935D01*
X165966972Y186544567D01*
X165754497Y187574665D01*
X165462976Y188611030D01*
X165096606Y189644480D01*
X164659586Y190665835D01*
X164156113Y191665912D01*
X163590387Y192635530D01*
X162966605Y193565507D01*
X162437309Y194263900D01*
X161687034Y195135416D01*
X160882511Y195942060D01*
X160024537Y196683289D01*
X159113908Y197358563D01*
X158151419Y197967341D01*
X157137868Y198509081D01*
X156074049Y198983244D01*
X154960760Y199389288D01*
X154834167Y199430136D01*
X153656737Y199764724D01*
X152488068Y200015317D01*
X151327011Y200182005D01*
X150172419Y200264877D01*
X149023143Y200264024D01*
X149023143Y200264024D01*
G37*
X149023143Y200264024D02*
X147878034Y200179535D01*
X146939000Y200047507D01*
X145926490Y199834753D01*
X144905870Y199542499D01*
X143884989Y199174397D01*
X142871697Y198734096D01*
X141873842Y198225248D01*
X140899273Y197651502D01*
X139955839Y197016508D01*
X139213167Y196454429D01*
X138998169Y196273180D01*
X138741649Y196041018D01*
X138456299Y195770808D01*
X138154815Y195475414D01*
X137849891Y195167700D01*
X137554221Y194860529D01*
X137280501Y194566767D01*
X137041423Y194299277D01*
X136849684Y194070923D01*
X136804600Y194013667D01*
X136121465Y193060192D01*
X135509639Y192061359D01*
X134969422Y191017926D01*
X134501115Y189930647D01*
X134105019Y188800278D01*
X133781435Y187627576D01*
X133530664Y186413296D01*
X133383604Y185420000D01*
X133360941Y185173269D01*
X133343954Y184858561D01*
X133332540Y184492373D01*
X133326593Y184091197D01*
X133326010Y183671527D01*
X133330685Y183249858D01*
X133340514Y182842683D01*
X133355393Y182466495D01*
X133375217Y182137789D01*
X133399882Y181873059D01*
X133406403Y181821667D01*
X133602352Y180666941D01*
X133873471Y179545401D01*
X134221848Y178450837D01*
X134649573Y177377041D01*
X135158735Y176317801D01*
X135421309Y175832949D01*
X136047928Y174795224D01*
X136726726Y173823667D01*
X137457380Y172918591D01*
X138239561Y172080310D01*
X139072946Y171309138D01*
X139957207Y170605389D01*
X140892018Y169969377D01*
X141877055Y169401416D01*
X142345834Y169163633D01*
X143454064Y168670916D01*
X144593071Y168256131D01*
X145764488Y167918804D01*
X146969948Y167658458D01*
X148103167Y167487403D01*
X148286211Y167469980D01*
X148531834Y167453488D01*
X148823708Y167438392D01*
X149145505Y167425155D01*
X149480899Y167414243D01*
X149813559Y167406120D01*
X150127159Y167401252D01*
X150405371Y167400102D01*
X150631867Y167403135D01*
X150790318Y167410816D01*
X150791334Y167410903D01*
X151759198Y167513958D01*
X152664485Y167652691D01*
X153523277Y167831466D01*
X154351661Y168054648D01*
X155165720Y168326601D01*
X155981539Y168651689D01*
X156815204Y169034276D01*
X156866167Y169059168D01*
X157950962Y169633943D01*
X158971182Y170263365D01*
X159926529Y170947070D01*
X160816705Y171684694D01*
X161641415Y172475871D01*
X162400359Y173320237D01*
X163093240Y174217428D01*
X163719761Y175167079D01*
X164279625Y176168826D01*
X164772533Y177222304D01*
X165198189Y178327148D01*
X165556294Y179482994D01*
X165644176Y179814771D01*
X165831777Y180609944D01*
X165974968Y181360946D01*
X166077061Y182093543D01*
X166141368Y182833498D01*
X166171201Y183606577D01*
X166174008Y183913510D01*
X160864494Y183913510D01*
X160825522Y182982698D01*
X160706775Y182052347D01*
X160608036Y181546500D01*
X160355482Y180577952D01*
X160033961Y179658496D01*
X159643653Y178788364D01*
X159184736Y177967788D01*
X158657389Y177196997D01*
X158061791Y176476225D01*
X157398120Y175805702D01*
X156666556Y175185660D01*
X155867277Y174616330D01*
X155000462Y174097944D01*
X154749500Y173963948D01*
X153992879Y173605658D01*
X153205162Y173300249D01*
X152404575Y173053436D01*
X151609340Y172870931D01*
X150939500Y172769304D01*
X150715065Y172750817D01*
X150430053Y172737576D01*
X150106392Y172729640D01*
X149766006Y172727068D01*
X149430821Y172729917D01*
X149122763Y172738247D01*
X148863755Y172752115D01*
X148738167Y172763436D01*
X147755975Y172912602D01*
X146800212Y173135724D01*
X145876671Y173430587D01*
X144991142Y173794975D01*
X144149417Y174226675D01*
X143357287Y174723471D01*
X143064264Y174933484D01*
X142780061Y175160073D01*
X142462986Y175438744D01*
X142129645Y175752871D01*
X141796638Y176085827D01*
X141480570Y176420987D01*
X141198043Y176741724D01*
X140965660Y177031412D01*
X140954917Y177045774D01*
X140378466Y177886098D01*
X139879146Y178754880D01*
X139458287Y179649001D01*
X139117224Y180565342D01*
X138857287Y181500782D01*
X138697875Y182329667D01*
X138662353Y182636285D01*
X138637955Y183004904D01*
X138624669Y183413594D01*
X138622480Y183840427D01*
X138631374Y184263472D01*
X138651337Y184660800D01*
X138682355Y185010482D01*
X138699681Y185144834D01*
X138881293Y186134605D01*
X139133110Y187091852D01*
X139452908Y188010598D01*
X139838465Y188884862D01*
X140287559Y189708663D01*
X140549051Y190120489D01*
X141092176Y190857531D01*
X141701434Y191546081D01*
X142371268Y192182697D01*
X143096124Y192763932D01*
X143870444Y193286342D01*
X144688673Y193746483D01*
X145545255Y194140909D01*
X146434634Y194466176D01*
X147351253Y194718840D01*
X148238414Y194887914D01*
X148537081Y194921638D01*
X148897534Y194944832D01*
X149297555Y194957508D01*
X149714921Y194959678D01*
X150127412Y194951352D01*
X150512807Y194932540D01*
X150848885Y194903255D01*
X150978767Y194886566D01*
X152009725Y194699274D01*
X152989405Y194445103D01*
X153919110Y194123535D01*
X154800144Y193734053D01*
X155633809Y193276138D01*
X156421409Y192749273D01*
X156497608Y192692832D01*
X156754607Y192486338D01*
X157046164Y192227985D01*
X157356328Y191933867D01*
X157669148Y191620072D01*
X157968672Y191302694D01*
X158238947Y190997822D01*
X158464022Y190721550D01*
X158503559Y190669334D01*
X159063432Y189854793D01*
X159555274Y189006468D01*
X159974570Y188133472D01*
X160316805Y187244912D01*
X160504307Y186632425D01*
X160703731Y185746001D01*
X160823845Y184837153D01*
X160864494Y183913510D01*
X166174008Y183913510D01*
X166174236Y183938334D01*
X166171426Y184415374D01*
X166160153Y184832673D01*
X166138455Y185214903D01*
X166104368Y185586741D01*
X166055931Y185972860D01*
X165991181Y186397935D01*
X165966972Y186544567D01*
X165754497Y187574665D01*
X165462976Y188611030D01*
X165096606Y189644480D01*
X164659586Y190665835D01*
X164156113Y191665912D01*
X163590387Y192635530D01*
X162966605Y193565507D01*
X162437309Y194263900D01*
X161687034Y195135416D01*
X160882511Y195942060D01*
X160024537Y196683289D01*
X159113908Y197358563D01*
X158151419Y197967341D01*
X157137868Y198509081D01*
X156074049Y198983244D01*
X154960760Y199389288D01*
X154834167Y199430136D01*
X153656737Y199764724D01*
X152488068Y200015317D01*
X151327011Y200182005D01*
X150172419Y200264877D01*
X149023143Y200264024D01*
G36*
X170648153Y193720539D02*
G01*
X170609618Y193607904D01*
X170553389Y193430538D01*
X170481875Y193196884D01*
X170397489Y192915385D01*
X170302640Y192594485D01*
X170199740Y192242628D01*
X170091199Y191868256D01*
X169979428Y191479813D01*
X169866838Y191085743D01*
X169755840Y190694487D01*
X169648844Y190314491D01*
X169548261Y189954197D01*
X169456503Y189622049D01*
X169375979Y189326490D01*
X169309101Y189075963D01*
X169258280Y188878911D01*
X169225926Y188743779D01*
X169214450Y188679009D01*
X169214800Y188675437D01*
X169257340Y188655769D01*
X169374869Y188615255D01*
X169560837Y188555851D01*
X169808695Y188479519D01*
X170111894Y188388216D01*
X170463886Y188283903D01*
X170858121Y188168538D01*
X171288051Y188044080D01*
X171747127Y187912489D01*
X172108280Y187809823D01*
X172666771Y187651417D01*
X173149106Y187514072D01*
X173560680Y187396108D01*
X173906890Y187295840D01*
X174193134Y187211586D01*
X174424808Y187141663D01*
X174607310Y187084389D01*
X174746036Y187038080D01*
X174846383Y187001054D01*
X174913749Y186971628D01*
X174953529Y186948120D01*
X174971122Y186928846D01*
X174973070Y186916578D01*
X174960703Y186869897D01*
X174926153Y186744959D01*
X174870322Y186544967D01*
X174794116Y186273121D01*
X174698437Y185932623D01*
X174584191Y185526674D01*
X174452281Y185058477D01*
X174303611Y184531233D01*
X174139085Y183948142D01*
X173959607Y183312407D01*
X173766082Y182627229D01*
X173559413Y181895810D01*
X173340504Y181121350D01*
X173110260Y180307052D01*
X172869584Y179456117D01*
X172619381Y178571747D01*
X172360554Y177657142D01*
X172094007Y176715505D01*
X171820645Y175750037D01*
X171556151Y174816119D01*
X171277452Y173831708D01*
X171004979Y172868396D01*
X170739623Y171929368D01*
X170482276Y171017805D01*
X170233829Y170136891D01*
X169995174Y169289809D01*
X169767202Y168479742D01*
X169550805Y167709874D01*
X169346874Y166983388D01*
X169156301Y166303467D01*
X168979977Y165673295D01*
X168818794Y165096053D01*
X168673643Y164574926D01*
X168545415Y164113097D01*
X168435003Y163713749D01*
X168343298Y163380065D01*
X168271191Y163115229D01*
X168219573Y162922423D01*
X168189337Y162804830D01*
X168181249Y162765662D01*
X168225461Y162750048D01*
X168342642Y162713992D01*
X168524242Y162659928D01*
X168761712Y162590290D01*
X169046503Y162507513D01*
X169370067Y162414032D01*
X169723853Y162312281D01*
X170099313Y162204694D01*
X170487897Y162093706D01*
X170881057Y161981751D01*
X171270244Y161871264D01*
X171646907Y161764679D01*
X172002499Y161664430D01*
X172328470Y161572952D01*
X172616271Y161492680D01*
X172857353Y161426048D01*
X173043167Y161375490D01*
X173165164Y161343441D01*
X173214711Y161332334D01*
X173229278Y161372548D01*
X173265940Y161491078D01*
X173323790Y161684761D01*
X173401924Y161950429D01*
X173499435Y162284918D01*
X173615416Y162685062D01*
X173748962Y163147697D01*
X173899167Y163669655D01*
X174065125Y164247772D01*
X174245930Y164878883D01*
X174440675Y165559822D01*
X174648455Y166287423D01*
X174868363Y167058521D01*
X175099494Y167869951D01*
X175340942Y168718547D01*
X175591800Y169601144D01*
X175851163Y170514576D01*
X176118124Y171455678D01*
X176391777Y172421284D01*
X176671217Y173408229D01*
X176677119Y173429084D01*
X176956557Y174416468D01*
X177230009Y175382638D01*
X177496579Y176324426D01*
X177755368Y177238664D01*
X178005481Y178122186D01*
X178246019Y178971822D01*
X178476085Y179784406D01*
X178694783Y180556769D01*
X178901214Y181285743D01*
X179094482Y181968161D01*
X179273690Y182600856D01*
X179437940Y183180659D01*
X179586336Y183704402D01*
X179717979Y184168918D01*
X179831973Y184571038D01*
X179927420Y184907596D01*
X180003424Y185175424D01*
X180059087Y185371353D01*
X180093512Y185492215D01*
X180105802Y185534844D01*
X180105816Y185534878D01*
X180146355Y185525133D01*
X180261859Y185494060D01*
X180445848Y185443472D01*
X180691845Y185375180D01*
X180993371Y185290996D01*
X181343947Y185192733D01*
X181737095Y185082201D01*
X182166335Y184961213D01*
X182625190Y184831581D01*
X183008989Y184722941D01*
X183487421Y184587896D01*
X183941947Y184460568D01*
X184366029Y184342726D01*
X184753129Y184236143D01*
X185096709Y184142588D01*
X185390231Y184063833D01*
X185627157Y184001648D01*
X185800949Y183957805D01*
X185905070Y183934074D01*
X185933782Y183930730D01*
X185949713Y183975388D01*
X185985961Y184093065D01*
X186040108Y184275223D01*
X186109734Y184513323D01*
X186192423Y184798828D01*
X186285755Y185123199D01*
X186387312Y185477897D01*
X186494677Y185854385D01*
X186605430Y186244125D01*
X186717154Y186638578D01*
X186827430Y187029205D01*
X186933841Y187407470D01*
X187033967Y187764833D01*
X187125390Y188092757D01*
X187205693Y188382703D01*
X187272456Y188626133D01*
X187323262Y188814508D01*
X187355693Y188939291D01*
X187367330Y188991944D01*
X187367334Y188992186D01*
X187326771Y189010186D01*
X187205960Y189050507D01*
X187006221Y189112767D01*
X186728873Y189196583D01*
X186375235Y189301576D01*
X185946626Y189427362D01*
X185444365Y189573560D01*
X184869771Y189739789D01*
X184224162Y189925666D01*
X183508859Y190130811D01*
X182725180Y190354840D01*
X181874443Y190597374D01*
X180957969Y190858029D01*
X179977076Y191136425D01*
X179038250Y191402409D01*
X178220154Y191633949D01*
X177423603Y191859274D01*
X176652435Y192077302D01*
X175910489Y192286954D01*
X175201606Y192487147D01*
X174529624Y192676801D01*
X173898381Y192854835D01*
X173311719Y193020167D01*
X172773474Y193171715D01*
X172287487Y193308400D01*
X171857597Y193429140D01*
X171487642Y193532853D01*
X171181462Y193618459D01*
X170942897Y193684876D01*
X170775784Y193731024D01*
X170683964Y193755820D01*
X170666582Y193760000D01*
X170648153Y193720539D01*
X170648153Y193720539D01*
G37*
X170648153Y193720539D02*
X170609618Y193607904D01*
X170553389Y193430538D01*
X170481875Y193196884D01*
X170397489Y192915385D01*
X170302640Y192594485D01*
X170199740Y192242628D01*
X170091199Y191868256D01*
X169979428Y191479813D01*
X169866838Y191085743D01*
X169755840Y190694487D01*
X169648844Y190314491D01*
X169548261Y189954197D01*
X169456503Y189622049D01*
X169375979Y189326490D01*
X169309101Y189075963D01*
X169258280Y188878911D01*
X169225926Y188743779D01*
X169214450Y188679009D01*
X169214800Y188675437D01*
X169257340Y188655769D01*
X169374869Y188615255D01*
X169560837Y188555851D01*
X169808695Y188479519D01*
X170111894Y188388216D01*
X170463886Y188283903D01*
X170858121Y188168538D01*
X171288051Y188044080D01*
X171747127Y187912489D01*
X172108280Y187809823D01*
X172666771Y187651417D01*
X173149106Y187514072D01*
X173560680Y187396108D01*
X173906890Y187295840D01*
X174193134Y187211586D01*
X174424808Y187141663D01*
X174607310Y187084389D01*
X174746036Y187038080D01*
X174846383Y187001054D01*
X174913749Y186971628D01*
X174953529Y186948120D01*
X174971122Y186928846D01*
X174973070Y186916578D01*
X174960703Y186869897D01*
X174926153Y186744959D01*
X174870322Y186544967D01*
X174794116Y186273121D01*
X174698437Y185932623D01*
X174584191Y185526674D01*
X174452281Y185058477D01*
X174303611Y184531233D01*
X174139085Y183948142D01*
X173959607Y183312407D01*
X173766082Y182627229D01*
X173559413Y181895810D01*
X173340504Y181121350D01*
X173110260Y180307052D01*
X172869584Y179456117D01*
X172619381Y178571747D01*
X172360554Y177657142D01*
X172094007Y176715505D01*
X171820645Y175750037D01*
X171556151Y174816119D01*
X171277452Y173831708D01*
X171004979Y172868396D01*
X170739623Y171929368D01*
X170482276Y171017805D01*
X170233829Y170136891D01*
X169995174Y169289809D01*
X169767202Y168479742D01*
X169550805Y167709874D01*
X169346874Y166983388D01*
X169156301Y166303467D01*
X168979977Y165673295D01*
X168818794Y165096053D01*
X168673643Y164574926D01*
X168545415Y164113097D01*
X168435003Y163713749D01*
X168343298Y163380065D01*
X168271191Y163115229D01*
X168219573Y162922423D01*
X168189337Y162804830D01*
X168181249Y162765662D01*
X168225461Y162750048D01*
X168342642Y162713992D01*
X168524242Y162659928D01*
X168761712Y162590290D01*
X169046503Y162507513D01*
X169370067Y162414032D01*
X169723853Y162312281D01*
X170099313Y162204694D01*
X170487897Y162093706D01*
X170881057Y161981751D01*
X171270244Y161871264D01*
X171646907Y161764679D01*
X172002499Y161664430D01*
X172328470Y161572952D01*
X172616271Y161492680D01*
X172857353Y161426048D01*
X173043167Y161375490D01*
X173165164Y161343441D01*
X173214711Y161332334D01*
X173229278Y161372548D01*
X173265940Y161491078D01*
X173323790Y161684761D01*
X173401924Y161950429D01*
X173499435Y162284918D01*
X173615416Y162685062D01*
X173748962Y163147697D01*
X173899167Y163669655D01*
X174065125Y164247772D01*
X174245930Y164878883D01*
X174440675Y165559822D01*
X174648455Y166287423D01*
X174868363Y167058521D01*
X175099494Y167869951D01*
X175340942Y168718547D01*
X175591800Y169601144D01*
X175851163Y170514576D01*
X176118124Y171455678D01*
X176391777Y172421284D01*
X176671217Y173408229D01*
X176677119Y173429084D01*
X176956557Y174416468D01*
X177230009Y175382638D01*
X177496579Y176324426D01*
X177755368Y177238664D01*
X178005481Y178122186D01*
X178246019Y178971822D01*
X178476085Y179784406D01*
X178694783Y180556769D01*
X178901214Y181285743D01*
X179094482Y181968161D01*
X179273690Y182600856D01*
X179437940Y183180659D01*
X179586336Y183704402D01*
X179717979Y184168918D01*
X179831973Y184571038D01*
X179927420Y184907596D01*
X180003424Y185175424D01*
X180059087Y185371353D01*
X180093512Y185492215D01*
X180105802Y185534844D01*
X180105816Y185534878D01*
X180146355Y185525133D01*
X180261859Y185494060D01*
X180445848Y185443472D01*
X180691845Y185375180D01*
X180993371Y185290996D01*
X181343947Y185192733D01*
X181737095Y185082201D01*
X182166335Y184961213D01*
X182625190Y184831581D01*
X183008989Y184722941D01*
X183487421Y184587896D01*
X183941947Y184460568D01*
X184366029Y184342726D01*
X184753129Y184236143D01*
X185096709Y184142588D01*
X185390231Y184063833D01*
X185627157Y184001648D01*
X185800949Y183957805D01*
X185905070Y183934074D01*
X185933782Y183930730D01*
X185949713Y183975388D01*
X185985961Y184093065D01*
X186040108Y184275223D01*
X186109734Y184513323D01*
X186192423Y184798828D01*
X186285755Y185123199D01*
X186387312Y185477897D01*
X186494677Y185854385D01*
X186605430Y186244125D01*
X186717154Y186638578D01*
X186827430Y187029205D01*
X186933841Y187407470D01*
X187033967Y187764833D01*
X187125390Y188092757D01*
X187205693Y188382703D01*
X187272456Y188626133D01*
X187323262Y188814508D01*
X187355693Y188939291D01*
X187367330Y188991944D01*
X187367334Y188992186D01*
X187326771Y189010186D01*
X187205960Y189050507D01*
X187006221Y189112767D01*
X186728873Y189196583D01*
X186375235Y189301576D01*
X185946626Y189427362D01*
X185444365Y189573560D01*
X184869771Y189739789D01*
X184224162Y189925666D01*
X183508859Y190130811D01*
X182725180Y190354840D01*
X181874443Y190597374D01*
X180957969Y190858029D01*
X179977076Y191136425D01*
X179038250Y191402409D01*
X178220154Y191633949D01*
X177423603Y191859274D01*
X176652435Y192077302D01*
X175910489Y192286954D01*
X175201606Y192487147D01*
X174529624Y192676801D01*
X173898381Y192854835D01*
X173311719Y193020167D01*
X172773474Y193171715D01*
X172287487Y193308400D01*
X171857597Y193429140D01*
X171487642Y193532853D01*
X171181462Y193618459D01*
X170942897Y193684876D01*
X170775784Y193731024D01*
X170683964Y193755820D01*
X170666582Y193760000D01*
X170648153Y193720539D01*
G36*
X200841193Y186362502D02*
G01*
X200757622Y186270696D01*
X200622203Y186120778D01*
X200437198Y185915279D01*
X200204866Y185656732D01*
X199927469Y185347666D01*
X199607268Y184990613D01*
X199246525Y184588104D01*
X198847500Y184142669D01*
X198412454Y183656840D01*
X197943648Y183133147D01*
X197443344Y182574121D01*
X196913802Y181982294D01*
X196357284Y181360197D01*
X195776051Y180710359D01*
X195172363Y180035313D01*
X194548482Y179337590D01*
X193906669Y178619719D01*
X193249185Y177884232D01*
X192578291Y177133661D01*
X191896248Y176370536D01*
X191205317Y175597387D01*
X190507759Y174816747D01*
X189805835Y174031145D01*
X189101807Y173243113D01*
X188397935Y172455183D01*
X187696480Y171669883D01*
X186999704Y170889747D01*
X186309868Y170117304D01*
X185629232Y169355086D01*
X184960057Y168605624D01*
X184304606Y167871448D01*
X183665138Y167155090D01*
X183043916Y166459080D01*
X182443199Y165785949D01*
X181865249Y165138229D01*
X181312327Y164518450D01*
X180786695Y163929144D01*
X180290612Y163372841D01*
X179826341Y162852072D01*
X179396142Y162369368D01*
X179002277Y161927260D01*
X178647006Y161528279D01*
X178332591Y161174956D01*
X178061292Y160869823D01*
X177835371Y160615409D01*
X177657089Y160414246D01*
X177528706Y160268865D01*
X177452484Y160181796D01*
X177430357Y160155440D01*
X177468365Y160139307D01*
X177581382Y160102286D01*
X177762882Y160046293D01*
X178006338Y159973246D01*
X178305221Y159885064D01*
X178653004Y159783662D01*
X179043160Y159670959D01*
X179469162Y159548871D01*
X179924481Y159419317D01*
X180244837Y159328690D01*
X183069126Y158531545D01*
X183194549Y158672523D01*
X183244567Y158728523D01*
X183345858Y158841741D01*
X183493193Y159006336D01*
X183681344Y159216472D01*
X183905082Y159466310D01*
X184159178Y159750010D01*
X184438405Y160061735D01*
X184737533Y160395646D01*
X185051333Y160745905D01*
X185096644Y160796477D01*
X185457782Y161199371D01*
X185766933Y161543629D01*
X186028493Y161833780D01*
X186246857Y162074350D01*
X186426421Y162269867D01*
X186571580Y162424858D01*
X186686730Y162543851D01*
X186776265Y162631371D01*
X186844583Y162691948D01*
X186896077Y162730108D01*
X186935144Y162750378D01*
X186966179Y162757286D01*
X186993578Y162755359D01*
X186997736Y162754570D01*
X187051378Y162740531D01*
X187180542Y162705050D01*
X187380046Y162649596D01*
X187644706Y162575634D01*
X187969339Y162484631D01*
X188348761Y162378053D01*
X188777789Y162257366D01*
X189251239Y162124037D01*
X189763928Y161979533D01*
X190310672Y161825319D01*
X190886288Y161662862D01*
X191485592Y161493629D01*
X192103402Y161319086D01*
X192734533Y161140699D01*
X193373803Y160959934D01*
X194016027Y160778259D01*
X194656022Y160597139D01*
X195288605Y160418042D01*
X195908592Y160242432D01*
X196510800Y160071778D01*
X197090046Y159907544D01*
X197641146Y159751199D01*
X198158916Y159604207D01*
X198638173Y159468035D01*
X199073734Y159344150D01*
X199460415Y159234019D01*
X199793033Y159139107D01*
X200066404Y159060881D01*
X200275345Y159000807D01*
X200414672Y158960352D01*
X200479202Y158940983D01*
X200483187Y158939517D01*
X200493084Y158896911D01*
X200517165Y158777896D01*
X200554125Y158589301D01*
X200602661Y158337956D01*
X200661468Y158030691D01*
X200729241Y157674333D01*
X200804675Y157275713D01*
X200886466Y156841659D01*
X200973309Y156379001D01*
X201021007Y156124160D01*
X201110023Y155649018D01*
X201194702Y155198799D01*
X201273736Y154780338D01*
X201345820Y154400474D01*
X201409645Y154066042D01*
X201463905Y153783880D01*
X201507293Y153560823D01*
X201538502Y153403709D01*
X201556223Y153319374D01*
X201559701Y153306523D01*
X201601863Y153292827D01*
X201718779Y153258105D01*
X201903708Y153204287D01*
X202149910Y153133302D01*
X202450643Y153047082D01*
X202799167Y152947558D01*
X203188742Y152836659D01*
X203612625Y152716317D01*
X204064078Y152588461D01*
X204281547Y152526979D01*
X204746906Y152395400D01*
X205190439Y152269828D01*
X205605066Y152152279D01*
X205983706Y152044768D01*
X206319278Y151949309D01*
X206604701Y151867919D01*
X206832896Y151802611D01*
X206996780Y151755401D01*
X207089274Y151728304D01*
X207105250Y151723366D01*
X207193692Y151705221D01*
X207222745Y151732851D01*
X207222865Y151735453D01*
X207215492Y151783225D01*
X207193459Y151910681D01*
X207157375Y152114484D01*
X207107852Y152391302D01*
X207045502Y152737802D01*
X206970935Y153150648D01*
X206884762Y153626508D01*
X206787594Y154162048D01*
X206680043Y154753933D01*
X206562719Y155398831D01*
X206436233Y156093407D01*
X206301196Y156834328D01*
X206158220Y157618260D01*
X206007915Y158441868D01*
X205850893Y159301820D01*
X205687764Y160194782D01*
X205519139Y161117419D01*
X205345630Y162066399D01*
X205167847Y163038387D01*
X204986401Y164030049D01*
X204832127Y164872931D01*
X199424595Y164872931D01*
X199424306Y164815882D01*
X199367386Y164817543D01*
X199364448Y164818423D01*
X199313284Y164833116D01*
X199186201Y164869248D01*
X198988759Y164925246D01*
X198726517Y164999536D01*
X198405038Y165090545D01*
X198029879Y165196701D01*
X197606603Y165316430D01*
X197140768Y165448160D01*
X196637936Y165590316D01*
X196103666Y165741326D01*
X195543518Y165899616D01*
X195156667Y166008917D01*
X194582317Y166171285D01*
X194030162Y166327581D01*
X193505760Y166476220D01*
X193014667Y166615618D01*
X192562441Y166744191D01*
X192154639Y166860354D01*
X191796819Y166962523D01*
X191494538Y167049115D01*
X191253353Y167118545D01*
X191078821Y167169229D01*
X190976500Y167199583D01*
X190951114Y167207756D01*
X190946291Y167220801D01*
X190958839Y167251433D01*
X190991447Y167302768D01*
X191046804Y167377925D01*
X191127597Y167480020D01*
X191236514Y167612171D01*
X191376245Y167777496D01*
X191549476Y167979111D01*
X191758897Y168220134D01*
X192007195Y168503682D01*
X192297059Y168832872D01*
X192631177Y169210822D01*
X193012237Y169640650D01*
X193442927Y170125472D01*
X193925937Y170668405D01*
X194227257Y171006832D01*
X194656941Y171489325D01*
X195070725Y171953991D01*
X195465151Y172396942D01*
X195836757Y172814293D01*
X196182084Y173202156D01*
X196497671Y173556644D01*
X196780059Y173873870D01*
X197025788Y174149947D01*
X197231396Y174380989D01*
X197393425Y174563108D01*
X197508414Y174692419D01*
X197572903Y174765032D01*
X197586144Y174780041D01*
X197594265Y174740159D01*
X197616767Y174622129D01*
X197652702Y174431071D01*
X197701118Y174172103D01*
X197761066Y173850345D01*
X197831595Y173470916D01*
X197911755Y173038935D01*
X198000596Y172559521D01*
X198097168Y172037794D01*
X198200520Y171478872D01*
X198309702Y170887874D01*
X198423765Y170269921D01*
X198497647Y169869374D01*
X198614646Y169235157D01*
X198727590Y168623407D01*
X198835509Y168039365D01*
X198937429Y167488268D01*
X199032379Y166975357D01*
X199119388Y166505869D01*
X199197482Y166085044D01*
X199265691Y165718121D01*
X199323042Y165410339D01*
X199368564Y165166937D01*
X199401283Y164993154D01*
X199420229Y164894228D01*
X199424595Y164872931D01*
X204832127Y164872931D01*
X204801904Y165038052D01*
X204614967Y166059063D01*
X204426199Y167089746D01*
X204236214Y168126769D01*
X204045621Y169166797D01*
X203855031Y170206498D01*
X203665057Y171242537D01*
X203476307Y172271580D01*
X203289395Y173290294D01*
X203104929Y174295345D01*
X202923523Y175283399D01*
X202745786Y176251122D01*
X202572330Y177195181D01*
X202403765Y178112242D01*
X202240704Y178998971D01*
X202083756Y179852034D01*
X201933532Y180668098D01*
X201790645Y181443828D01*
X201655704Y182175892D01*
X201529321Y182860955D01*
X201412107Y183495684D01*
X201304672Y184076744D01*
X201207629Y184600802D01*
X201121587Y185064525D01*
X201047158Y185464578D01*
X200984953Y185797627D01*
X200935583Y186060340D01*
X200899659Y186249382D01*
X200877792Y186361419D01*
X200870654Y186393667D01*
X200841193Y186362502D01*
X200841193Y186362502D01*
G37*
X200841193Y186362502D02*
X200757622Y186270696D01*
X200622203Y186120778D01*
X200437198Y185915279D01*
X200204866Y185656732D01*
X199927469Y185347666D01*
X199607268Y184990613D01*
X199246525Y184588104D01*
X198847500Y184142669D01*
X198412454Y183656840D01*
X197943648Y183133147D01*
X197443344Y182574121D01*
X196913802Y181982294D01*
X196357284Y181360197D01*
X195776051Y180710359D01*
X195172363Y180035313D01*
X194548482Y179337590D01*
X193906669Y178619719D01*
X193249185Y177884232D01*
X192578291Y177133661D01*
X191896248Y176370536D01*
X191205317Y175597387D01*
X190507759Y174816747D01*
X189805835Y174031145D01*
X189101807Y173243113D01*
X188397935Y172455183D01*
X187696480Y171669883D01*
X186999704Y170889747D01*
X186309868Y170117304D01*
X185629232Y169355086D01*
X184960057Y168605624D01*
X184304606Y167871448D01*
X183665138Y167155090D01*
X183043916Y166459080D01*
X182443199Y165785949D01*
X181865249Y165138229D01*
X181312327Y164518450D01*
X180786695Y163929144D01*
X180290612Y163372841D01*
X179826341Y162852072D01*
X179396142Y162369368D01*
X179002277Y161927260D01*
X178647006Y161528279D01*
X178332591Y161174956D01*
X178061292Y160869823D01*
X177835371Y160615409D01*
X177657089Y160414246D01*
X177528706Y160268865D01*
X177452484Y160181796D01*
X177430357Y160155440D01*
X177468365Y160139307D01*
X177581382Y160102286D01*
X177762882Y160046293D01*
X178006338Y159973246D01*
X178305221Y159885064D01*
X178653004Y159783662D01*
X179043160Y159670959D01*
X179469162Y159548871D01*
X179924481Y159419317D01*
X180244837Y159328690D01*
X183069126Y158531545D01*
X183194549Y158672523D01*
X183244567Y158728523D01*
X183345858Y158841741D01*
X183493193Y159006336D01*
X183681344Y159216472D01*
X183905082Y159466310D01*
X184159178Y159750010D01*
X184438405Y160061735D01*
X184737533Y160395646D01*
X185051333Y160745905D01*
X185096644Y160796477D01*
X185457782Y161199371D01*
X185766933Y161543629D01*
X186028493Y161833780D01*
X186246857Y162074350D01*
X186426421Y162269867D01*
X186571580Y162424858D01*
X186686730Y162543851D01*
X186776265Y162631371D01*
X186844583Y162691948D01*
X186896077Y162730108D01*
X186935144Y162750378D01*
X186966179Y162757286D01*
X186993578Y162755359D01*
X186997736Y162754570D01*
X187051378Y162740531D01*
X187180542Y162705050D01*
X187380046Y162649596D01*
X187644706Y162575634D01*
X187969339Y162484631D01*
X188348761Y162378053D01*
X188777789Y162257366D01*
X189251239Y162124037D01*
X189763928Y161979533D01*
X190310672Y161825319D01*
X190886288Y161662862D01*
X191485592Y161493629D01*
X192103402Y161319086D01*
X192734533Y161140699D01*
X193373803Y160959934D01*
X194016027Y160778259D01*
X194656022Y160597139D01*
X195288605Y160418042D01*
X195908592Y160242432D01*
X196510800Y160071778D01*
X197090046Y159907544D01*
X197641146Y159751199D01*
X198158916Y159604207D01*
X198638173Y159468035D01*
X199073734Y159344150D01*
X199460415Y159234019D01*
X199793033Y159139107D01*
X200066404Y159060881D01*
X200275345Y159000807D01*
X200414672Y158960352D01*
X200479202Y158940983D01*
X200483187Y158939517D01*
X200493084Y158896911D01*
X200517165Y158777896D01*
X200554125Y158589301D01*
X200602661Y158337956D01*
X200661468Y158030691D01*
X200729241Y157674333D01*
X200804675Y157275713D01*
X200886466Y156841659D01*
X200973309Y156379001D01*
X201021007Y156124160D01*
X201110023Y155649018D01*
X201194702Y155198799D01*
X201273736Y154780338D01*
X201345820Y154400474D01*
X201409645Y154066042D01*
X201463905Y153783880D01*
X201507293Y153560823D01*
X201538502Y153403709D01*
X201556223Y153319374D01*
X201559701Y153306523D01*
X201601863Y153292827D01*
X201718779Y153258105D01*
X201903708Y153204287D01*
X202149910Y153133302D01*
X202450643Y153047082D01*
X202799167Y152947558D01*
X203188742Y152836659D01*
X203612625Y152716317D01*
X204064078Y152588461D01*
X204281547Y152526979D01*
X204746906Y152395400D01*
X205190439Y152269828D01*
X205605066Y152152279D01*
X205983706Y152044768D01*
X206319278Y151949309D01*
X206604701Y151867919D01*
X206832896Y151802611D01*
X206996780Y151755401D01*
X207089274Y151728304D01*
X207105250Y151723366D01*
X207193692Y151705221D01*
X207222745Y151732851D01*
X207222865Y151735453D01*
X207215492Y151783225D01*
X207193459Y151910681D01*
X207157375Y152114484D01*
X207107852Y152391302D01*
X207045502Y152737802D01*
X206970935Y153150648D01*
X206884762Y153626508D01*
X206787594Y154162048D01*
X206680043Y154753933D01*
X206562719Y155398831D01*
X206436233Y156093407D01*
X206301196Y156834328D01*
X206158220Y157618260D01*
X206007915Y158441868D01*
X205850893Y159301820D01*
X205687764Y160194782D01*
X205519139Y161117419D01*
X205345630Y162066399D01*
X205167847Y163038387D01*
X204986401Y164030049D01*
X204832127Y164872931D01*
X199424595Y164872931D01*
X199424306Y164815882D01*
X199367386Y164817543D01*
X199364448Y164818423D01*
X199313284Y164833116D01*
X199186201Y164869248D01*
X198988759Y164925246D01*
X198726517Y164999536D01*
X198405038Y165090545D01*
X198029879Y165196701D01*
X197606603Y165316430D01*
X197140768Y165448160D01*
X196637936Y165590316D01*
X196103666Y165741326D01*
X195543518Y165899616D01*
X195156667Y166008917D01*
X194582317Y166171285D01*
X194030162Y166327581D01*
X193505760Y166476220D01*
X193014667Y166615618D01*
X192562441Y166744191D01*
X192154639Y166860354D01*
X191796819Y166962523D01*
X191494538Y167049115D01*
X191253353Y167118545D01*
X191078821Y167169229D01*
X190976500Y167199583D01*
X190951114Y167207756D01*
X190946291Y167220801D01*
X190958839Y167251433D01*
X190991447Y167302768D01*
X191046804Y167377925D01*
X191127597Y167480020D01*
X191236514Y167612171D01*
X191376245Y167777496D01*
X191549476Y167979111D01*
X191758897Y168220134D01*
X192007195Y168503682D01*
X192297059Y168832872D01*
X192631177Y169210822D01*
X193012237Y169640650D01*
X193442927Y170125472D01*
X193925937Y170668405D01*
X194227257Y171006832D01*
X194656941Y171489325D01*
X195070725Y171953991D01*
X195465151Y172396942D01*
X195836757Y172814293D01*
X196182084Y173202156D01*
X196497671Y173556644D01*
X196780059Y173873870D01*
X197025788Y174149947D01*
X197231396Y174380989D01*
X197393425Y174563108D01*
X197508414Y174692419D01*
X197572903Y174765032D01*
X197586144Y174780041D01*
X197594265Y174740159D01*
X197616767Y174622129D01*
X197652702Y174431071D01*
X197701118Y174172103D01*
X197761066Y173850345D01*
X197831595Y173470916D01*
X197911755Y173038935D01*
X198000596Y172559521D01*
X198097168Y172037794D01*
X198200520Y171478872D01*
X198309702Y170887874D01*
X198423765Y170269921D01*
X198497647Y169869374D01*
X198614646Y169235157D01*
X198727590Y168623407D01*
X198835509Y168039365D01*
X198937429Y167488268D01*
X199032379Y166975357D01*
X199119388Y166505869D01*
X199197482Y166085044D01*
X199265691Y165718121D01*
X199323042Y165410339D01*
X199368564Y165166937D01*
X199401283Y164993154D01*
X199420229Y164894228D01*
X199424595Y164872931D01*
X204832127Y164872931D01*
X204801904Y165038052D01*
X204614967Y166059063D01*
X204426199Y167089746D01*
X204236214Y168126769D01*
X204045621Y169166797D01*
X203855031Y170206498D01*
X203665057Y171242537D01*
X203476307Y172271580D01*
X203289395Y173290294D01*
X203104929Y174295345D01*
X202923523Y175283399D01*
X202745786Y176251122D01*
X202572330Y177195181D01*
X202403765Y178112242D01*
X202240704Y178998971D01*
X202083756Y179852034D01*
X201933532Y180668098D01*
X201790645Y181443828D01*
X201655704Y182175892D01*
X201529321Y182860955D01*
X201412107Y183495684D01*
X201304672Y184076744D01*
X201207629Y184600802D01*
X201121587Y185064525D01*
X201047158Y185464578D01*
X200984953Y185797627D01*
X200935583Y186060340D01*
X200899659Y186249382D01*
X200877792Y186361419D01*
X200870654Y186393667D01*
X200841193Y186362502D01*
G36*
X209694937Y182653298D02*
G01*
X209710039Y182529726D01*
X209735793Y182329077D01*
X209771734Y182054750D01*
X209817394Y181710142D01*
X209872309Y181298650D01*
X209936012Y180823671D01*
X210008036Y180288603D01*
X210087917Y179696843D01*
X210175188Y179051789D01*
X210269384Y178356837D01*
X210370037Y177615384D01*
X210476682Y176830830D01*
X210588853Y176006569D01*
X210706085Y175146001D01*
X210827910Y174252522D01*
X210953864Y173329529D01*
X211083480Y172380420D01*
X211216291Y171408592D01*
X211351833Y170417442D01*
X211489639Y169410368D01*
X211629243Y168390767D01*
X211770179Y167362037D01*
X211911981Y166327574D01*
X212054183Y165290776D01*
X212196319Y164255040D01*
X212337922Y163223764D01*
X212478528Y162200344D01*
X212617670Y161188179D01*
X212754882Y160190665D01*
X212889698Y159211200D01*
X213021652Y158253182D01*
X213150278Y157320006D01*
X213275110Y156415071D01*
X213395682Y155541774D01*
X213511528Y154703513D01*
X213622182Y153903684D01*
X213727178Y153145685D01*
X213826050Y152432913D01*
X213918331Y151768766D01*
X214003557Y151156640D01*
X214081261Y150599934D01*
X214150976Y150102044D01*
X214212238Y149666368D01*
X214264579Y149296304D01*
X214307535Y148995247D01*
X214340638Y148766596D01*
X214363423Y148613748D01*
X214375424Y148540101D01*
X214377024Y148533619D01*
X214414833Y148549617D01*
X214493224Y148620036D01*
X214600075Y148733037D01*
X214702056Y148851119D01*
X214797940Y148966691D01*
X214942401Y149141435D01*
X215133164Y149372582D01*
X215367957Y149657365D01*
X215644504Y149993016D01*
X215960531Y150376768D01*
X216313766Y150805853D01*
X216701933Y151277504D01*
X217122759Y151788952D01*
X217573970Y152337431D01*
X218053292Y152920172D01*
X218558450Y153534409D01*
X219087172Y154177373D01*
X219637182Y154846297D01*
X220206207Y155538414D01*
X220791973Y156250955D01*
X221392206Y156981153D01*
X222004632Y157726241D01*
X222626977Y158483451D01*
X223256967Y159250015D01*
X223892327Y160023166D01*
X224530785Y160800137D01*
X225170066Y161578158D01*
X225807895Y162354464D01*
X226442000Y163126286D01*
X227070105Y163890858D01*
X227689938Y164645410D01*
X228299224Y165387176D01*
X228895689Y166113388D01*
X229477059Y166821278D01*
X230041060Y167508080D01*
X230585418Y168171024D01*
X231107859Y168807345D01*
X231606109Y169414273D01*
X232077895Y169989042D01*
X232520941Y170528883D01*
X232932975Y171031030D01*
X233311722Y171492715D01*
X233654908Y171911170D01*
X233960259Y172283627D01*
X234225502Y172607320D01*
X234448362Y172879479D01*
X234626565Y173097339D01*
X234757837Y173258130D01*
X234839905Y173359086D01*
X234870494Y173397439D01*
X234870530Y173397495D01*
X234915847Y173458631D01*
X235006991Y173574734D01*
X235135750Y173735591D01*
X235293911Y173930993D01*
X235473262Y174150727D01*
X235619471Y174328667D01*
X235802268Y174553414D01*
X235962633Y174756229D01*
X236093954Y174928278D01*
X236189621Y175060728D01*
X236243022Y175144746D01*
X236250221Y175171490D01*
X236172854Y175196085D01*
X236026260Y175240283D01*
X235818580Y175301748D01*
X235557955Y175378144D01*
X235252523Y175467138D01*
X234910425Y175566392D01*
X234539801Y175673571D01*
X234148792Y175786340D01*
X233745536Y175902364D01*
X233338174Y176019306D01*
X232934847Y176134832D01*
X232543694Y176246605D01*
X232172854Y176352291D01*
X231830469Y176449554D01*
X231524678Y176536058D01*
X231263622Y176609468D01*
X231055439Y176667449D01*
X230908271Y176707664D01*
X230830257Y176727779D01*
X230819735Y176729582D01*
X230780688Y176681296D01*
X230690793Y176572462D01*
X230552953Y176406542D01*
X230370071Y176187000D01*
X230145051Y175917297D01*
X229880797Y175600898D01*
X229580213Y175241264D01*
X229246201Y174841860D01*
X228881666Y174406147D01*
X228489510Y173937589D01*
X228072639Y173439649D01*
X227633955Y172915789D01*
X227176363Y172369473D01*
X226702764Y171804163D01*
X226216065Y171223322D01*
X225719167Y170630414D01*
X225214974Y170028902D01*
X224706391Y169422247D01*
X224196320Y168813914D01*
X223687666Y168207364D01*
X223183332Y167606062D01*
X222686222Y167013469D01*
X222199238Y166433050D01*
X221725286Y165868266D01*
X221267268Y165322580D01*
X220828088Y164799457D01*
X220410650Y164302358D01*
X220017857Y163834746D01*
X219652614Y163400085D01*
X219317823Y163001837D01*
X219016388Y162643465D01*
X218751213Y162328433D01*
X218525201Y162060202D01*
X218341257Y161842237D01*
X218202283Y161678000D01*
X218111183Y161570953D01*
X218070862Y161524561D01*
X218069074Y161522834D01*
X218060478Y161564106D01*
X218040106Y161685479D01*
X218008510Y161883292D01*
X217966240Y162153882D01*
X217913849Y162493586D01*
X217851888Y162898742D01*
X217780907Y163365687D01*
X217701459Y163890759D01*
X217614095Y164470295D01*
X217519366Y165100632D01*
X217417824Y165778108D01*
X217310021Y166499061D01*
X217196506Y167259828D01*
X217077833Y168056746D01*
X216954552Y168886153D01*
X216827215Y169744387D01*
X216696374Y170627784D01*
X216591131Y171339440D01*
X216457937Y172240313D01*
X216327898Y173119039D01*
X216201562Y173971947D01*
X216079478Y174795366D01*
X215962193Y175585625D01*
X215850255Y176339055D01*
X215744212Y177051983D01*
X215644611Y177720740D01*
X215552001Y178341655D01*
X215466929Y178911056D01*
X215389944Y179425274D01*
X215321592Y179880638D01*
X215262423Y180273476D01*
X215212983Y180600119D01*
X215173820Y180856895D01*
X215145483Y181040133D01*
X215128519Y181146164D01*
X215123527Y181172919D01*
X215079069Y181188957D01*
X214961601Y181225092D01*
X214779308Y181279027D01*
X214540371Y181348469D01*
X214252974Y181431122D01*
X213925300Y181524692D01*
X213565532Y181626884D01*
X213181852Y181735403D01*
X212782445Y181847954D01*
X212375492Y181962242D01*
X211969177Y182075974D01*
X211571683Y182186853D01*
X211191193Y182292585D01*
X210835890Y182390875D01*
X210513957Y182479429D01*
X210233577Y182555951D01*
X210002932Y182618148D01*
X209830207Y182663723D01*
X209723584Y182690383D01*
X209690953Y182696398D01*
X209694937Y182653298D01*
X209694937Y182653298D01*
G37*
X209694937Y182653298D02*
X209710039Y182529726D01*
X209735793Y182329077D01*
X209771734Y182054750D01*
X209817394Y181710142D01*
X209872309Y181298650D01*
X209936012Y180823671D01*
X210008036Y180288603D01*
X210087917Y179696843D01*
X210175188Y179051789D01*
X210269384Y178356837D01*
X210370037Y177615384D01*
X210476682Y176830830D01*
X210588853Y176006569D01*
X210706085Y175146001D01*
X210827910Y174252522D01*
X210953864Y173329529D01*
X211083480Y172380420D01*
X211216291Y171408592D01*
X211351833Y170417442D01*
X211489639Y169410368D01*
X211629243Y168390767D01*
X211770179Y167362037D01*
X211911981Y166327574D01*
X212054183Y165290776D01*
X212196319Y164255040D01*
X212337922Y163223764D01*
X212478528Y162200344D01*
X212617670Y161188179D01*
X212754882Y160190665D01*
X212889698Y159211200D01*
X213021652Y158253182D01*
X213150278Y157320006D01*
X213275110Y156415071D01*
X213395682Y155541774D01*
X213511528Y154703513D01*
X213622182Y153903684D01*
X213727178Y153145685D01*
X213826050Y152432913D01*
X213918331Y151768766D01*
X214003557Y151156640D01*
X214081261Y150599934D01*
X214150976Y150102044D01*
X214212238Y149666368D01*
X214264579Y149296304D01*
X214307535Y148995247D01*
X214340638Y148766596D01*
X214363423Y148613748D01*
X214375424Y148540101D01*
X214377024Y148533619D01*
X214414833Y148549617D01*
X214493224Y148620036D01*
X214600075Y148733037D01*
X214702056Y148851119D01*
X214797940Y148966691D01*
X214942401Y149141435D01*
X215133164Y149372582D01*
X215367957Y149657365D01*
X215644504Y149993016D01*
X215960531Y150376768D01*
X216313766Y150805853D01*
X216701933Y151277504D01*
X217122759Y151788952D01*
X217573970Y152337431D01*
X218053292Y152920172D01*
X218558450Y153534409D01*
X219087172Y154177373D01*
X219637182Y154846297D01*
X220206207Y155538414D01*
X220791973Y156250955D01*
X221392206Y156981153D01*
X222004632Y157726241D01*
X222626977Y158483451D01*
X223256967Y159250015D01*
X223892327Y160023166D01*
X224530785Y160800137D01*
X225170066Y161578158D01*
X225807895Y162354464D01*
X226442000Y163126286D01*
X227070105Y163890858D01*
X227689938Y164645410D01*
X228299224Y165387176D01*
X228895689Y166113388D01*
X229477059Y166821278D01*
X230041060Y167508080D01*
X230585418Y168171024D01*
X231107859Y168807345D01*
X231606109Y169414273D01*
X232077895Y169989042D01*
X232520941Y170528883D01*
X232932975Y171031030D01*
X233311722Y171492715D01*
X233654908Y171911170D01*
X233960259Y172283627D01*
X234225502Y172607320D01*
X234448362Y172879479D01*
X234626565Y173097339D01*
X234757837Y173258130D01*
X234839905Y173359086D01*
X234870494Y173397439D01*
X234870530Y173397495D01*
X234915847Y173458631D01*
X235006991Y173574734D01*
X235135750Y173735591D01*
X235293911Y173930993D01*
X235473262Y174150727D01*
X235619471Y174328667D01*
X235802268Y174553414D01*
X235962633Y174756229D01*
X236093954Y174928278D01*
X236189621Y175060728D01*
X236243022Y175144746D01*
X236250221Y175171490D01*
X236172854Y175196085D01*
X236026260Y175240283D01*
X235818580Y175301748D01*
X235557955Y175378144D01*
X235252523Y175467138D01*
X234910425Y175566392D01*
X234539801Y175673571D01*
X234148792Y175786340D01*
X233745536Y175902364D01*
X233338174Y176019306D01*
X232934847Y176134832D01*
X232543694Y176246605D01*
X232172854Y176352291D01*
X231830469Y176449554D01*
X231524678Y176536058D01*
X231263622Y176609468D01*
X231055439Y176667449D01*
X230908271Y176707664D01*
X230830257Y176727779D01*
X230819735Y176729582D01*
X230780688Y176681296D01*
X230690793Y176572462D01*
X230552953Y176406542D01*
X230370071Y176187000D01*
X230145051Y175917297D01*
X229880797Y175600898D01*
X229580213Y175241264D01*
X229246201Y174841860D01*
X228881666Y174406147D01*
X228489510Y173937589D01*
X228072639Y173439649D01*
X227633955Y172915789D01*
X227176363Y172369473D01*
X226702764Y171804163D01*
X226216065Y171223322D01*
X225719167Y170630414D01*
X225214974Y170028902D01*
X224706391Y169422247D01*
X224196320Y168813914D01*
X223687666Y168207364D01*
X223183332Y167606062D01*
X222686222Y167013469D01*
X222199238Y166433050D01*
X221725286Y165868266D01*
X221267268Y165322580D01*
X220828088Y164799457D01*
X220410650Y164302358D01*
X220017857Y163834746D01*
X219652614Y163400085D01*
X219317823Y163001837D01*
X219016388Y162643465D01*
X218751213Y162328433D01*
X218525201Y162060202D01*
X218341257Y161842237D01*
X218202283Y161678000D01*
X218111183Y161570953D01*
X218070862Y161524561D01*
X218069074Y161522834D01*
X218060478Y161564106D01*
X218040106Y161685479D01*
X218008510Y161883292D01*
X217966240Y162153882D01*
X217913849Y162493586D01*
X217851888Y162898742D01*
X217780907Y163365687D01*
X217701459Y163890759D01*
X217614095Y164470295D01*
X217519366Y165100632D01*
X217417824Y165778108D01*
X217310021Y166499061D01*
X217196506Y167259828D01*
X217077833Y168056746D01*
X216954552Y168886153D01*
X216827215Y169744387D01*
X216696374Y170627784D01*
X216591131Y171339440D01*
X216457937Y172240313D01*
X216327898Y173119039D01*
X216201562Y173971947D01*
X216079478Y174795366D01*
X215962193Y175585625D01*
X215850255Y176339055D01*
X215744212Y177051983D01*
X215644611Y177720740D01*
X215552001Y178341655D01*
X215466929Y178911056D01*
X215389944Y179425274D01*
X215321592Y179880638D01*
X215262423Y180273476D01*
X215212983Y180600119D01*
X215173820Y180856895D01*
X215145483Y181040133D01*
X215128519Y181146164D01*
X215123527Y181172919D01*
X215079069Y181188957D01*
X214961601Y181225092D01*
X214779308Y181279027D01*
X214540371Y181348469D01*
X214252974Y181431122D01*
X213925300Y181524692D01*
X213565532Y181626884D01*
X213181852Y181735403D01*
X212782445Y181847954D01*
X212375492Y181962242D01*
X211969177Y182075974D01*
X211571683Y182186853D01*
X211191193Y182292585D01*
X210835890Y182390875D01*
X210513957Y182479429D01*
X210233577Y182555951D01*
X210002932Y182618148D01*
X209830207Y182663723D01*
X209723584Y182690383D01*
X209690953Y182696398D01*
X209694937Y182653298D01*
G36*
X246270711Y172615051D02*
G01*
X245740854Y172582424D01*
X245222000Y172528089D01*
X244690131Y172450291D01*
X244390334Y172398140D01*
X243342248Y172167359D01*
X242301211Y171860670D01*
X241273694Y171482288D01*
X240266168Y171036428D01*
X239285105Y170527304D01*
X238336976Y169959130D01*
X237428253Y169336121D01*
X236565406Y168662492D01*
X235754907Y167942458D01*
X235003227Y167180232D01*
X234316837Y166380029D01*
X233702209Y165546065D01*
X233574338Y165354000D01*
X233015505Y164436379D01*
X232524048Y163496222D01*
X232095095Y162522205D01*
X231723768Y161503007D01*
X231405194Y160427302D01*
X231333538Y160149481D01*
X231157671Y159393312D01*
X231022914Y158682656D01*
X230925975Y157990936D01*
X230863562Y157291574D01*
X230832385Y156557995D01*
X230827301Y156061834D01*
X230862860Y154967843D01*
X230969810Y153907284D01*
X231150382Y152869534D01*
X231406808Y151843972D01*
X231741321Y150819978D01*
X232136748Y149831416D01*
X232633044Y148781074D01*
X233186277Y147780566D01*
X233792638Y146835806D01*
X234448317Y145952708D01*
X235149504Y145137185D01*
X235187562Y145096283D01*
X235833689Y144431535D01*
X236467246Y143836829D01*
X237101973Y143301735D01*
X237751610Y142815819D01*
X238429898Y142368651D01*
X239150576Y141949798D01*
X239733667Y141644704D01*
X240760875Y141172083D01*
X241821468Y140765884D01*
X242906573Y140427953D01*
X244007321Y140160135D01*
X245114838Y139964273D01*
X246220252Y139842214D01*
X247314693Y139795800D01*
X248389287Y139826879D01*
X248454334Y139831347D01*
X249545274Y139950608D01*
X250639052Y140152869D01*
X251731330Y140436768D01*
X252817771Y140800945D01*
X253894037Y141244038D01*
X254955790Y141764684D01*
X255413605Y142015922D01*
X255642311Y142151431D01*
X255918636Y142324401D01*
X256225255Y142523157D01*
X256544848Y142736025D01*
X256860090Y142951329D01*
X257153660Y143157394D01*
X257408233Y143342547D01*
X257596484Y143487080D01*
X258481636Y144246708D01*
X259297293Y145053523D01*
X260043987Y145908369D01*
X260722249Y146812086D01*
X261332609Y147765517D01*
X261875599Y148769503D01*
X262351749Y149824885D01*
X262761592Y150932506D01*
X263105658Y152093207D01*
X263159857Y152304691D01*
X263413019Y153475391D01*
X263582606Y154632856D01*
X263668515Y155778025D01*
X263669693Y156405166D01*
X258383536Y156405166D01*
X258381736Y155991777D01*
X258371072Y155593661D01*
X258351528Y155230457D01*
X258323085Y154921802D01*
X258305165Y154791834D01*
X258104124Y153769177D01*
X257835888Y152797986D01*
X257500581Y151878420D01*
X257098327Y151010641D01*
X256629248Y150194810D01*
X256093468Y149431089D01*
X255491112Y148719638D01*
X254822302Y148060618D01*
X254087162Y147454192D01*
X253285817Y146900519D01*
X252418389Y146399761D01*
X251544667Y145978237D01*
X250681741Y145642242D01*
X249785379Y145381161D01*
X248851539Y145193951D01*
X248158000Y145104746D01*
X247973664Y145092715D01*
X247727140Y145085732D01*
X247440748Y145083590D01*
X247136802Y145086079D01*
X246837621Y145092990D01*
X246565520Y145104114D01*
X246342818Y145119242D01*
X246313270Y145122019D01*
X245361867Y145255628D01*
X244426028Y145465359D01*
X243513381Y145748096D01*
X242631558Y146100724D01*
X241788186Y146520124D01*
X240990897Y147003182D01*
X240247319Y147546782D01*
X240117619Y147652601D01*
X239470876Y148241536D01*
X238864339Y148898230D01*
X238303604Y149613173D01*
X237794265Y150376855D01*
X237341917Y151179766D01*
X236952155Y152012397D01*
X236630574Y152865237D01*
X236382770Y153728776D01*
X236288322Y154161382D01*
X236156146Y155058434D01*
X236104914Y155973435D01*
X236134027Y156901546D01*
X236242885Y157837925D01*
X236430892Y158777732D01*
X236697447Y159716126D01*
X237041953Y160648266D01*
X237110503Y160811066D01*
X237516388Y161651144D01*
X237993869Y162447832D01*
X238540292Y163198426D01*
X239153000Y163900219D01*
X239829340Y164550504D01*
X240566654Y165146577D01*
X241362288Y165685731D01*
X242213587Y166165259D01*
X242506500Y166310064D01*
X243396318Y166691771D01*
X244293914Y166989695D01*
X245200365Y167203917D01*
X246116751Y167334517D01*
X247044148Y167381578D01*
X247983636Y167345180D01*
X248936290Y167225406D01*
X249903191Y167022336D01*
X250347533Y166902564D01*
X250850576Y166748552D01*
X251307714Y166586980D01*
X251754291Y166404178D01*
X252225647Y166186478D01*
X252327834Y166136648D01*
X253054184Y165747332D01*
X253720417Y165319842D01*
X254345025Y164840673D01*
X254946501Y164296322D01*
X255207241Y164034073D01*
X255681909Y163513843D01*
X256107515Y162983899D01*
X256496936Y162425725D01*
X256863050Y161820802D01*
X257218735Y161150614D01*
X257234636Y161118757D01*
X257627985Y160247727D01*
X257940659Y159374138D01*
X258176224Y158486967D01*
X258302456Y157818667D01*
X258335933Y157540577D01*
X258360617Y157199204D01*
X258376491Y156814188D01*
X258383536Y156405166D01*
X263669693Y156405166D01*
X263670645Y156911839D01*
X263588891Y158035239D01*
X263423152Y159149164D01*
X263173324Y160254556D01*
X262839303Y161352354D01*
X262420988Y162443500D01*
X261935221Y163495174D01*
X261358743Y164558084D01*
X260724124Y165561381D01*
X260032765Y166503778D01*
X259286066Y167383986D01*
X258485427Y168200716D01*
X257632248Y168952678D01*
X256727929Y169638584D01*
X255773871Y170257145D01*
X254771473Y170807073D01*
X253722135Y171287077D01*
X253280334Y171462733D01*
X252248103Y171825623D01*
X251240456Y172116871D01*
X250242100Y172339525D01*
X249237742Y172496629D01*
X248212090Y172591230D01*
X247459500Y172622190D01*
X246835588Y172627722D01*
X246270711Y172615051D01*
X246270711Y172615051D01*
G37*
X246270711Y172615051D02*
X245740854Y172582424D01*
X245222000Y172528089D01*
X244690131Y172450291D01*
X244390334Y172398140D01*
X243342248Y172167359D01*
X242301211Y171860670D01*
X241273694Y171482288D01*
X240266168Y171036428D01*
X239285105Y170527304D01*
X238336976Y169959130D01*
X237428253Y169336121D01*
X236565406Y168662492D01*
X235754907Y167942458D01*
X235003227Y167180232D01*
X234316837Y166380029D01*
X233702209Y165546065D01*
X233574338Y165354000D01*
X233015505Y164436379D01*
X232524048Y163496222D01*
X232095095Y162522205D01*
X231723768Y161503007D01*
X231405194Y160427302D01*
X231333538Y160149481D01*
X231157671Y159393312D01*
X231022914Y158682656D01*
X230925975Y157990936D01*
X230863562Y157291574D01*
X230832385Y156557995D01*
X230827301Y156061834D01*
X230862860Y154967843D01*
X230969810Y153907284D01*
X231150382Y152869534D01*
X231406808Y151843972D01*
X231741321Y150819978D01*
X232136748Y149831416D01*
X232633044Y148781074D01*
X233186277Y147780566D01*
X233792638Y146835806D01*
X234448317Y145952708D01*
X235149504Y145137185D01*
X235187562Y145096283D01*
X235833689Y144431535D01*
X236467246Y143836829D01*
X237101973Y143301735D01*
X237751610Y142815819D01*
X238429898Y142368651D01*
X239150576Y141949798D01*
X239733667Y141644704D01*
X240760875Y141172083D01*
X241821468Y140765884D01*
X242906573Y140427953D01*
X244007321Y140160135D01*
X245114838Y139964273D01*
X246220252Y139842214D01*
X247314693Y139795800D01*
X248389287Y139826879D01*
X248454334Y139831347D01*
X249545274Y139950608D01*
X250639052Y140152869D01*
X251731330Y140436768D01*
X252817771Y140800945D01*
X253894037Y141244038D01*
X254955790Y141764684D01*
X255413605Y142015922D01*
X255642311Y142151431D01*
X255918636Y142324401D01*
X256225255Y142523157D01*
X256544848Y142736025D01*
X256860090Y142951329D01*
X257153660Y143157394D01*
X257408233Y143342547D01*
X257596484Y143487080D01*
X258481636Y144246708D01*
X259297293Y145053523D01*
X260043987Y145908369D01*
X260722249Y146812086D01*
X261332609Y147765517D01*
X261875599Y148769503D01*
X262351749Y149824885D01*
X262761592Y150932506D01*
X263105658Y152093207D01*
X263159857Y152304691D01*
X263413019Y153475391D01*
X263582606Y154632856D01*
X263668515Y155778025D01*
X263669693Y156405166D01*
X258383536Y156405166D01*
X258381736Y155991777D01*
X258371072Y155593661D01*
X258351528Y155230457D01*
X258323085Y154921802D01*
X258305165Y154791834D01*
X258104124Y153769177D01*
X257835888Y152797986D01*
X257500581Y151878420D01*
X257098327Y151010641D01*
X256629248Y150194810D01*
X256093468Y149431089D01*
X255491112Y148719638D01*
X254822302Y148060618D01*
X254087162Y147454192D01*
X253285817Y146900519D01*
X252418389Y146399761D01*
X251544667Y145978237D01*
X250681741Y145642242D01*
X249785379Y145381161D01*
X248851539Y145193951D01*
X248158000Y145104746D01*
X247973664Y145092715D01*
X247727140Y145085732D01*
X247440748Y145083590D01*
X247136802Y145086079D01*
X246837621Y145092990D01*
X246565520Y145104114D01*
X246342818Y145119242D01*
X246313270Y145122019D01*
X245361867Y145255628D01*
X244426028Y145465359D01*
X243513381Y145748096D01*
X242631558Y146100724D01*
X241788186Y146520124D01*
X240990897Y147003182D01*
X240247319Y147546782D01*
X240117619Y147652601D01*
X239470876Y148241536D01*
X238864339Y148898230D01*
X238303604Y149613173D01*
X237794265Y150376855D01*
X237341917Y151179766D01*
X236952155Y152012397D01*
X236630574Y152865237D01*
X236382770Y153728776D01*
X236288322Y154161382D01*
X236156146Y155058434D01*
X236104914Y155973435D01*
X236134027Y156901546D01*
X236242885Y157837925D01*
X236430892Y158777732D01*
X236697447Y159716126D01*
X237041953Y160648266D01*
X237110503Y160811066D01*
X237516388Y161651144D01*
X237993869Y162447832D01*
X238540292Y163198426D01*
X239153000Y163900219D01*
X239829340Y164550504D01*
X240566654Y165146577D01*
X241362288Y165685731D01*
X242213587Y166165259D01*
X242506500Y166310064D01*
X243396318Y166691771D01*
X244293914Y166989695D01*
X245200365Y167203917D01*
X246116751Y167334517D01*
X247044148Y167381578D01*
X247983636Y167345180D01*
X248936290Y167225406D01*
X249903191Y167022336D01*
X250347533Y166902564D01*
X250850576Y166748552D01*
X251307714Y166586980D01*
X251754291Y166404178D01*
X252225647Y166186478D01*
X252327834Y166136648D01*
X253054184Y165747332D01*
X253720417Y165319842D01*
X254345025Y164840673D01*
X254946501Y164296322D01*
X255207241Y164034073D01*
X255681909Y163513843D01*
X256107515Y162983899D01*
X256496936Y162425725D01*
X256863050Y161820802D01*
X257218735Y161150614D01*
X257234636Y161118757D01*
X257627985Y160247727D01*
X257940659Y159374138D01*
X258176224Y158486967D01*
X258302456Y157818667D01*
X258335933Y157540577D01*
X258360617Y157199204D01*
X258376491Y156814188D01*
X258383536Y156405166D01*
X263669693Y156405166D01*
X263670645Y156911839D01*
X263588891Y158035239D01*
X263423152Y159149164D01*
X263173324Y160254556D01*
X262839303Y161352354D01*
X262420988Y162443500D01*
X261935221Y163495174D01*
X261358743Y164558084D01*
X260724124Y165561381D01*
X260032765Y166503778D01*
X259286066Y167383986D01*
X258485427Y168200716D01*
X257632248Y168952678D01*
X256727929Y169638584D01*
X255773871Y170257145D01*
X254771473Y170807073D01*
X253722135Y171287077D01*
X253280334Y171462733D01*
X252248103Y171825623D01*
X251240456Y172116871D01*
X250242100Y172339525D01*
X249237742Y172496629D01*
X248212090Y172591230D01*
X247459500Y172622190D01*
X246835588Y172627722D01*
X246270711Y172615051D01*
G36*
X270477552Y165462663D02*
G01*
X270464443Y165420747D01*
X270429326Y165300858D01*
X270373176Y165106443D01*
X270296969Y164840949D01*
X270201681Y164507824D01*
X270088286Y164110515D01*
X269957760Y163652470D01*
X269811078Y163137136D01*
X269649217Y162567961D01*
X269473151Y161948391D01*
X269283856Y161281876D01*
X269082307Y160571861D01*
X268869480Y159821795D01*
X268646350Y159035124D01*
X268413892Y158215297D01*
X268173082Y157365761D01*
X267924896Y156489963D01*
X267670309Y155591351D01*
X267410296Y154673372D01*
X267145833Y153739473D01*
X266877895Y152793102D01*
X266607457Y151837707D01*
X266335496Y150876735D01*
X266062986Y149913633D01*
X265790903Y148951849D01*
X265520222Y147994831D01*
X265251919Y147046025D01*
X264986969Y146108879D01*
X264726348Y145186841D01*
X264471031Y144283359D01*
X264221993Y143401878D01*
X263980211Y142545848D01*
X263746658Y141718715D01*
X263522312Y140923927D01*
X263308147Y140164932D01*
X263105138Y139445176D01*
X262914262Y138768107D01*
X262736493Y138137174D01*
X262572807Y137555822D01*
X262424179Y137027500D01*
X262291585Y136555655D01*
X262176001Y136143735D01*
X262078401Y135795186D01*
X261999762Y135513457D01*
X261941058Y135301995D01*
X261903265Y135164247D01*
X261887358Y135103661D01*
X261886911Y135100979D01*
X261924511Y135120327D01*
X262033177Y135179680D01*
X262210192Y135277513D01*
X262452838Y135412305D01*
X262758398Y135582533D01*
X263124156Y135786672D01*
X263547393Y136023201D01*
X264025393Y136290596D01*
X264555438Y136587335D01*
X265134812Y136911894D01*
X265760796Y137262750D01*
X266430675Y137638380D01*
X267141730Y138037261D01*
X267891245Y138457871D01*
X268676502Y138898686D01*
X269494784Y139358184D01*
X270343374Y139834840D01*
X271219554Y140327133D01*
X272120609Y140833539D01*
X273043819Y141352535D01*
X273986469Y141882599D01*
X274130649Y141963685D01*
X275075986Y142495295D01*
X276002277Y143016087D01*
X276906806Y143524536D01*
X277786857Y144019120D01*
X278639712Y144498315D01*
X279462656Y144960596D01*
X280252973Y145404441D01*
X281007945Y145828326D01*
X281724856Y146230726D01*
X282400991Y146610119D01*
X283033631Y146964980D01*
X283620063Y147293787D01*
X284157567Y147595015D01*
X284643429Y147867141D01*
X285074932Y148108641D01*
X285449359Y148317991D01*
X285763994Y148493668D01*
X286016121Y148634148D01*
X286203023Y148737908D01*
X286321983Y148803424D01*
X286370286Y148829171D01*
X286371271Y148829508D01*
X286361012Y148788270D01*
X286328675Y148669252D01*
X286275295Y148476125D01*
X286201906Y148212561D01*
X286109542Y147882230D01*
X285999237Y147488804D01*
X285872025Y147035954D01*
X285728941Y146527351D01*
X285571019Y145966666D01*
X285399293Y145357571D01*
X285214797Y144703736D01*
X285018565Y144008833D01*
X284811632Y143276534D01*
X284595031Y142510508D01*
X284369797Y141714428D01*
X284136964Y140891965D01*
X283897567Y140046789D01*
X283828568Y139803283D01*
X283587525Y138952132D01*
X283352878Y138122514D01*
X283125656Y137318107D01*
X282906888Y136542592D01*
X282697603Y135799647D01*
X282498829Y135092953D01*
X282311597Y134426188D01*
X282136933Y133803034D01*
X281975868Y133227169D01*
X281829430Y132702273D01*
X281698648Y132232025D01*
X281584550Y131820106D01*
X281488166Y131470195D01*
X281410524Y131185971D01*
X281352654Y130971115D01*
X281315583Y130829305D01*
X281300341Y130764222D01*
X281300128Y130760245D01*
X281342831Y130745400D01*
X281458420Y130709966D01*
X281638313Y130656405D01*
X281873928Y130587176D01*
X282156681Y130504740D01*
X282477990Y130411557D01*
X282829273Y130310088D01*
X283201946Y130202792D01*
X283587428Y130092131D01*
X283977136Y129980564D01*
X284362486Y129870551D01*
X284734897Y129764553D01*
X285085786Y129665031D01*
X285406570Y129574444D01*
X285688667Y129495253D01*
X285923493Y129429918D01*
X286102467Y129380900D01*
X286217006Y129350658D01*
X286220099Y129349881D01*
X286330365Y129322243D01*
X286547873Y130097872D01*
X286575782Y130196989D01*
X286625884Y130374458D01*
X286697299Y130627168D01*
X286789146Y130952009D01*
X286900546Y131345871D01*
X287030617Y131805642D01*
X287178480Y132328214D01*
X287343253Y132910474D01*
X287524056Y133549314D01*
X287720009Y134241623D01*
X287930231Y134984290D01*
X288153843Y135774205D01*
X288389962Y136608257D01*
X288637710Y137483337D01*
X288896205Y138396334D01*
X289164567Y139344137D01*
X289441916Y140323637D01*
X289727371Y141331722D01*
X290020052Y142365283D01*
X290319078Y143421210D01*
X290623569Y144496391D01*
X290847665Y145287665D01*
X291153119Y146366351D01*
X291452556Y147424101D01*
X291745158Y148458012D01*
X292030106Y149465183D01*
X292306582Y150442711D01*
X292573767Y151387696D01*
X292830842Y152297235D01*
X293076988Y153168426D01*
X293311388Y153998367D01*
X293533222Y154784157D01*
X293741672Y155522894D01*
X293935919Y156211676D01*
X294115145Y156847600D01*
X294278530Y157427766D01*
X294425257Y157949272D01*
X294554507Y158409215D01*
X294665460Y158804693D01*
X294757299Y159132806D01*
X294829204Y159390650D01*
X294880358Y159575325D01*
X294909941Y159683928D01*
X294917510Y159714269D01*
X294880100Y159694731D01*
X294771622Y159635193D01*
X294594792Y159537178D01*
X294352327Y159402209D01*
X294046943Y159231811D01*
X293681358Y159027506D01*
X293258287Y158790818D01*
X292780447Y158523271D01*
X292250556Y158226389D01*
X291671328Y157901694D01*
X291045482Y157550711D01*
X290375733Y157174963D01*
X289664798Y156775973D01*
X288915393Y156355265D01*
X288130236Y155914362D01*
X287312043Y155454789D01*
X286463530Y154978068D01*
X285587414Y154485724D01*
X284686412Y153979279D01*
X283763239Y153460257D01*
X282820614Y152930182D01*
X282676310Y152849024D01*
X281730964Y152317411D01*
X280804650Y151796630D01*
X279900084Y151288206D01*
X279019983Y150793662D01*
X278167065Y150314520D01*
X277344047Y149852304D01*
X276553645Y149408537D01*
X275798577Y148984742D01*
X275081560Y148582442D01*
X274405310Y148203161D01*
X273772545Y147848422D01*
X273185981Y147519747D01*
X272648336Y147218660D01*
X272162327Y146946685D01*
X271730671Y146705343D01*
X271356085Y146496159D01*
X271041285Y146320656D01*
X270788990Y146180356D01*
X270601915Y146076784D01*
X270482778Y146011461D01*
X270434296Y145985912D01*
X270433284Y145985606D01*
X270443299Y146027084D01*
X270475383Y146146335D01*
X270528502Y146339681D01*
X270601620Y146603441D01*
X270693703Y146933937D01*
X270803718Y147327487D01*
X270930628Y147780413D01*
X271073401Y148289035D01*
X271231000Y148849672D01*
X271402392Y149458647D01*
X271586542Y150112278D01*
X271782416Y150806887D01*
X271988979Y151538793D01*
X272205196Y152304317D01*
X272430032Y153099779D01*
X272662455Y153921500D01*
X272901428Y154765799D01*
X272962177Y154980337D01*
X273202802Y155830271D01*
X273437252Y156658845D01*
X273664484Y157462358D01*
X273883456Y158237111D01*
X274093128Y158979403D01*
X274292456Y159685535D01*
X274480400Y160351807D01*
X274655917Y160974519D01*
X274817966Y161549971D01*
X274965505Y162074464D01*
X275097492Y162544297D01*
X275212886Y162955771D01*
X275310644Y163305185D01*
X275389725Y163588841D01*
X275449088Y163803037D01*
X275487689Y163944074D01*
X275504489Y164008252D01*
X275505160Y164011819D01*
X275465772Y164030326D01*
X275353310Y164069134D01*
X275176258Y164125794D01*
X274943094Y164197860D01*
X274662302Y164282885D01*
X274342362Y164378420D01*
X273991754Y164482019D01*
X273618960Y164591234D01*
X273232461Y164703617D01*
X272840738Y164816722D01*
X272452272Y164928100D01*
X272075544Y165035305D01*
X271719035Y165135889D01*
X271391226Y165227404D01*
X271100599Y165307403D01*
X270855634Y165373438D01*
X270664812Y165423063D01*
X270536615Y165453830D01*
X270479523Y165463291D01*
X270477552Y165462663D01*
X270477552Y165462663D01*
G37*
X270477552Y165462663D02*
X270464443Y165420747D01*
X270429326Y165300858D01*
X270373176Y165106443D01*
X270296969Y164840949D01*
X270201681Y164507824D01*
X270088286Y164110515D01*
X269957760Y163652470D01*
X269811078Y163137136D01*
X269649217Y162567961D01*
X269473151Y161948391D01*
X269283856Y161281876D01*
X269082307Y160571861D01*
X268869480Y159821795D01*
X268646350Y159035124D01*
X268413892Y158215297D01*
X268173082Y157365761D01*
X267924896Y156489963D01*
X267670309Y155591351D01*
X267410296Y154673372D01*
X267145833Y153739473D01*
X266877895Y152793102D01*
X266607457Y151837707D01*
X266335496Y150876735D01*
X266062986Y149913633D01*
X265790903Y148951849D01*
X265520222Y147994831D01*
X265251919Y147046025D01*
X264986969Y146108879D01*
X264726348Y145186841D01*
X264471031Y144283359D01*
X264221993Y143401878D01*
X263980211Y142545848D01*
X263746658Y141718715D01*
X263522312Y140923927D01*
X263308147Y140164932D01*
X263105138Y139445176D01*
X262914262Y138768107D01*
X262736493Y138137174D01*
X262572807Y137555822D01*
X262424179Y137027500D01*
X262291585Y136555655D01*
X262176001Y136143735D01*
X262078401Y135795186D01*
X261999762Y135513457D01*
X261941058Y135301995D01*
X261903265Y135164247D01*
X261887358Y135103661D01*
X261886911Y135100979D01*
X261924511Y135120327D01*
X262033177Y135179680D01*
X262210192Y135277513D01*
X262452838Y135412305D01*
X262758398Y135582533D01*
X263124156Y135786672D01*
X263547393Y136023201D01*
X264025393Y136290596D01*
X264555438Y136587335D01*
X265134812Y136911894D01*
X265760796Y137262750D01*
X266430675Y137638380D01*
X267141730Y138037261D01*
X267891245Y138457871D01*
X268676502Y138898686D01*
X269494784Y139358184D01*
X270343374Y139834840D01*
X271219554Y140327133D01*
X272120609Y140833539D01*
X273043819Y141352535D01*
X273986469Y141882599D01*
X274130649Y141963685D01*
X275075986Y142495295D01*
X276002277Y143016087D01*
X276906806Y143524536D01*
X277786857Y144019120D01*
X278639712Y144498315D01*
X279462656Y144960596D01*
X280252973Y145404441D01*
X281007945Y145828326D01*
X281724856Y146230726D01*
X282400991Y146610119D01*
X283033631Y146964980D01*
X283620063Y147293787D01*
X284157567Y147595015D01*
X284643429Y147867141D01*
X285074932Y148108641D01*
X285449359Y148317991D01*
X285763994Y148493668D01*
X286016121Y148634148D01*
X286203023Y148737908D01*
X286321983Y148803424D01*
X286370286Y148829171D01*
X286371271Y148829508D01*
X286361012Y148788270D01*
X286328675Y148669252D01*
X286275295Y148476125D01*
X286201906Y148212561D01*
X286109542Y147882230D01*
X285999237Y147488804D01*
X285872025Y147035954D01*
X285728941Y146527351D01*
X285571019Y145966666D01*
X285399293Y145357571D01*
X285214797Y144703736D01*
X285018565Y144008833D01*
X284811632Y143276534D01*
X284595031Y142510508D01*
X284369797Y141714428D01*
X284136964Y140891965D01*
X283897567Y140046789D01*
X283828568Y139803283D01*
X283587525Y138952132D01*
X283352878Y138122514D01*
X283125656Y137318107D01*
X282906888Y136542592D01*
X282697603Y135799647D01*
X282498829Y135092953D01*
X282311597Y134426188D01*
X282136933Y133803034D01*
X281975868Y133227169D01*
X281829430Y132702273D01*
X281698648Y132232025D01*
X281584550Y131820106D01*
X281488166Y131470195D01*
X281410524Y131185971D01*
X281352654Y130971115D01*
X281315583Y130829305D01*
X281300341Y130764222D01*
X281300128Y130760245D01*
X281342831Y130745400D01*
X281458420Y130709966D01*
X281638313Y130656405D01*
X281873928Y130587176D01*
X282156681Y130504740D01*
X282477990Y130411557D01*
X282829273Y130310088D01*
X283201946Y130202792D01*
X283587428Y130092131D01*
X283977136Y129980564D01*
X284362486Y129870551D01*
X284734897Y129764553D01*
X285085786Y129665031D01*
X285406570Y129574444D01*
X285688667Y129495253D01*
X285923493Y129429918D01*
X286102467Y129380900D01*
X286217006Y129350658D01*
X286220099Y129349881D01*
X286330365Y129322243D01*
X286547873Y130097872D01*
X286575782Y130196989D01*
X286625884Y130374458D01*
X286697299Y130627168D01*
X286789146Y130952009D01*
X286900546Y131345871D01*
X287030617Y131805642D01*
X287178480Y132328214D01*
X287343253Y132910474D01*
X287524056Y133549314D01*
X287720009Y134241623D01*
X287930231Y134984290D01*
X288153843Y135774205D01*
X288389962Y136608257D01*
X288637710Y137483337D01*
X288896205Y138396334D01*
X289164567Y139344137D01*
X289441916Y140323637D01*
X289727371Y141331722D01*
X290020052Y142365283D01*
X290319078Y143421210D01*
X290623569Y144496391D01*
X290847665Y145287665D01*
X291153119Y146366351D01*
X291452556Y147424101D01*
X291745158Y148458012D01*
X292030106Y149465183D01*
X292306582Y150442711D01*
X292573767Y151387696D01*
X292830842Y152297235D01*
X293076988Y153168426D01*
X293311388Y153998367D01*
X293533222Y154784157D01*
X293741672Y155522894D01*
X293935919Y156211676D01*
X294115145Y156847600D01*
X294278530Y157427766D01*
X294425257Y157949272D01*
X294554507Y158409215D01*
X294665460Y158804693D01*
X294757299Y159132806D01*
X294829204Y159390650D01*
X294880358Y159575325D01*
X294909941Y159683928D01*
X294917510Y159714269D01*
X294880100Y159694731D01*
X294771622Y159635193D01*
X294594792Y159537178D01*
X294352327Y159402209D01*
X294046943Y159231811D01*
X293681358Y159027506D01*
X293258287Y158790818D01*
X292780447Y158523271D01*
X292250556Y158226389D01*
X291671328Y157901694D01*
X291045482Y157550711D01*
X290375733Y157174963D01*
X289664798Y156775973D01*
X288915393Y156355265D01*
X288130236Y155914362D01*
X287312043Y155454789D01*
X286463530Y154978068D01*
X285587414Y154485724D01*
X284686412Y153979279D01*
X283763239Y153460257D01*
X282820614Y152930182D01*
X282676310Y152849024D01*
X281730964Y152317411D01*
X280804650Y151796630D01*
X279900084Y151288206D01*
X279019983Y150793662D01*
X278167065Y150314520D01*
X277344047Y149852304D01*
X276553645Y149408537D01*
X275798577Y148984742D01*
X275081560Y148582442D01*
X274405310Y148203161D01*
X273772545Y147848422D01*
X273185981Y147519747D01*
X272648336Y147218660D01*
X272162327Y146946685D01*
X271730671Y146705343D01*
X271356085Y146496159D01*
X271041285Y146320656D01*
X270788990Y146180356D01*
X270601915Y146076784D01*
X270482778Y146011461D01*
X270434296Y145985912D01*
X270433284Y145985606D01*
X270443299Y146027084D01*
X270475383Y146146335D01*
X270528502Y146339681D01*
X270601620Y146603441D01*
X270693703Y146933937D01*
X270803718Y147327487D01*
X270930628Y147780413D01*
X271073401Y148289035D01*
X271231000Y148849672D01*
X271402392Y149458647D01*
X271586542Y150112278D01*
X271782416Y150806887D01*
X271988979Y151538793D01*
X272205196Y152304317D01*
X272430032Y153099779D01*
X272662455Y153921500D01*
X272901428Y154765799D01*
X272962177Y154980337D01*
X273202802Y155830271D01*
X273437252Y156658845D01*
X273664484Y157462358D01*
X273883456Y158237111D01*
X274093128Y158979403D01*
X274292456Y159685535D01*
X274480400Y160351807D01*
X274655917Y160974519D01*
X274817966Y161549971D01*
X274965505Y162074464D01*
X275097492Y162544297D01*
X275212886Y162955771D01*
X275310644Y163305185D01*
X275389725Y163588841D01*
X275449088Y163803037D01*
X275487689Y163944074D01*
X275504489Y164008252D01*
X275505160Y164011819D01*
X275465772Y164030326D01*
X275353310Y164069134D01*
X275176258Y164125794D01*
X274943094Y164197860D01*
X274662302Y164282885D01*
X274342362Y164378420D01*
X273991754Y164482019D01*
X273618960Y164591234D01*
X273232461Y164703617D01*
X272840738Y164816722D01*
X272452272Y164928100D01*
X272075544Y165035305D01*
X271719035Y165135889D01*
X271391226Y165227404D01*
X271100599Y165307403D01*
X270855634Y165373438D01*
X270664812Y165423063D01*
X270536615Y165453830D01*
X270479523Y165463291D01*
X270477552Y165462663D01*
G36*
X299077736Y157356766D02*
G01*
X299064253Y157314661D01*
X299028546Y157193926D01*
X298971424Y156997405D01*
X298893696Y156727942D01*
X298796171Y156388381D01*
X298679656Y155981565D01*
X298544963Y155510338D01*
X298392898Y154977544D01*
X298224272Y154386027D01*
X298039892Y153738631D01*
X297840569Y153038198D01*
X297627110Y152287574D01*
X297400325Y151489602D01*
X297161022Y150647125D01*
X296910011Y149762988D01*
X296648100Y148840034D01*
X296376098Y147881107D01*
X296094814Y146889051D01*
X295805057Y145866709D01*
X295507636Y144816926D01*
X295203359Y143742544D01*
X294893037Y142646409D01*
X294789990Y142282334D01*
X294477617Y141178680D01*
X294170973Y140095376D01*
X293870870Y139035289D01*
X293578120Y138001287D01*
X293293536Y136996238D01*
X293017932Y136023009D01*
X292752119Y135084469D01*
X292496912Y134183484D01*
X292253121Y133322922D01*
X292021560Y132505652D01*
X291803043Y131734540D01*
X291598380Y131012455D01*
X291408386Y130342263D01*
X291233873Y129726834D01*
X291075654Y129169033D01*
X290934541Y128671730D01*
X290811347Y128237792D01*
X290706885Y127870085D01*
X290621968Y127571479D01*
X290557409Y127344841D01*
X290514019Y127193038D01*
X290492612Y127118937D01*
X290490558Y127112164D01*
X290468805Y127030347D01*
X290486198Y127008704D01*
X290523803Y127019276D01*
X290565984Y127041950D01*
X290679213Y127104598D01*
X290860748Y127205681D01*
X291107847Y127343658D01*
X291417767Y127516992D01*
X291787765Y127724142D01*
X292215099Y127963570D01*
X292697026Y128233737D01*
X293230804Y128533102D01*
X293813690Y128860128D01*
X294442942Y129213275D01*
X295115817Y129591004D01*
X295829573Y129991775D01*
X296581466Y130414050D01*
X297368755Y130856289D01*
X298188698Y131316953D01*
X299038550Y131794503D01*
X299915570Y132287399D01*
X300817016Y132794103D01*
X301740144Y133313075D01*
X302682213Y133842777D01*
X302759670Y133886332D01*
X303702492Y134416401D01*
X304626320Y134935585D01*
X305528428Y135442361D01*
X306406089Y135935202D01*
X307256577Y136412584D01*
X308077165Y136872980D01*
X308865126Y137314866D01*
X309617733Y137736715D01*
X310332261Y138137003D01*
X311005983Y138514204D01*
X311636171Y138866792D01*
X312220100Y139193242D01*
X312755043Y139492029D01*
X313238274Y139761626D01*
X313667065Y140000510D01*
X314038690Y140207153D01*
X314350423Y140380031D01*
X314599537Y140517619D01*
X314783305Y140618390D01*
X314899001Y140680819D01*
X314943899Y140703382D01*
X314944379Y140703400D01*
X314935112Y140661167D01*
X314903753Y140541165D01*
X314851333Y140347074D01*
X314778882Y140082573D01*
X314687430Y139751341D01*
X314578008Y139357058D01*
X314451646Y138903403D01*
X314309375Y138394056D01*
X314152224Y137832695D01*
X313981224Y137223001D01*
X313797405Y136568653D01*
X313601798Y135873330D01*
X313395433Y135140711D01*
X313179340Y134374477D01*
X312954550Y133578306D01*
X312722092Y132755878D01*
X312482998Y131910872D01*
X312417674Y131680160D01*
X312176967Y130829726D01*
X311942605Y130000892D01*
X311715619Y129197338D01*
X311497042Y128422743D01*
X311287903Y127680784D01*
X311089234Y126975140D01*
X310902065Y126309491D01*
X310727427Y125687514D01*
X310566352Y125112888D01*
X310419870Y124589292D01*
X310289012Y124120405D01*
X310174810Y123709904D01*
X310078293Y123361470D01*
X310000493Y123078780D01*
X309942440Y122865513D01*
X309905167Y122725347D01*
X309889703Y122661962D01*
X309889399Y122658491D01*
X309932537Y122643671D01*
X310048631Y122608440D01*
X310229112Y122555229D01*
X310465409Y122486469D01*
X310748951Y122404592D01*
X311071169Y122312029D01*
X311423492Y122211213D01*
X311797349Y122104574D01*
X312184171Y121994544D01*
X312575387Y121883555D01*
X312962427Y121774038D01*
X313336721Y121668425D01*
X313689698Y121569147D01*
X314012788Y121478636D01*
X314297421Y121399324D01*
X314535026Y121333642D01*
X314717034Y121284022D01*
X314834873Y121252894D01*
X314879618Y121242667D01*
X314929494Y121276025D01*
X314939467Y121295584D01*
X314955395Y121348409D01*
X314993188Y121478759D01*
X315051870Y121683184D01*
X315130466Y121958228D01*
X315227998Y122300441D01*
X315343493Y122706368D01*
X315475973Y123172556D01*
X315624464Y123695554D01*
X315787989Y124271908D01*
X315965574Y124898165D01*
X316156241Y125570872D01*
X316359015Y126286577D01*
X316572921Y127041826D01*
X316796982Y127833167D01*
X317030224Y128657147D01*
X317271670Y129510313D01*
X317520344Y130389213D01*
X317775271Y131290392D01*
X318035476Y132210399D01*
X318299981Y133145780D01*
X318567812Y134093083D01*
X318837993Y135048855D01*
X319109547Y136009642D01*
X319381500Y136971993D01*
X319652876Y137932454D01*
X319922698Y138887572D01*
X320189991Y139833894D01*
X320453779Y140767968D01*
X320713087Y141686341D01*
X320966939Y142585560D01*
X321214358Y143462171D01*
X321454370Y144312723D01*
X321685999Y145133761D01*
X321908268Y145921834D01*
X322120202Y146673489D01*
X322320825Y147385272D01*
X322509162Y148053731D01*
X322684237Y148675413D01*
X322845073Y149246864D01*
X322990696Y149764633D01*
X323120129Y150225266D01*
X323232397Y150625310D01*
X323326524Y150961313D01*
X323401534Y151229822D01*
X323456452Y151427383D01*
X323490301Y151550544D01*
X323502106Y151595852D01*
X323502103Y151596007D01*
X323464738Y151577799D01*
X323356314Y151519569D01*
X323179548Y151422834D01*
X322937156Y151289116D01*
X322631855Y151119932D01*
X322266359Y150916804D01*
X321843385Y150681251D01*
X321365650Y150414791D01*
X320835869Y150118945D01*
X320256758Y149795233D01*
X319631034Y149445173D01*
X318961412Y149070286D01*
X318250608Y148672091D01*
X317501339Y148252107D01*
X316716321Y147811854D01*
X315898269Y147352853D01*
X315049900Y146876621D01*
X314173929Y146384680D01*
X313273073Y145878548D01*
X312350049Y145359745D01*
X311407571Y144829791D01*
X311263339Y144748671D01*
X310318090Y144217081D01*
X309391879Y143696327D01*
X308487425Y143187932D01*
X307607444Y142693418D01*
X306754652Y142214309D01*
X305931767Y141752128D01*
X305141505Y141308398D01*
X304386583Y140884643D01*
X303669718Y140482386D01*
X302993627Y140103149D01*
X302361026Y139748457D01*
X301774632Y139419832D01*
X301237162Y139118797D01*
X300751332Y138846877D01*
X300319861Y138605593D01*
X299945463Y138396470D01*
X299630856Y138221030D01*
X299378757Y138080797D01*
X299191883Y137977293D01*
X299072950Y137912043D01*
X299024675Y137886569D01*
X299023696Y137886273D01*
X299033855Y137927777D01*
X299066090Y138047060D01*
X299119366Y138240450D01*
X299192651Y138504274D01*
X299284911Y138834860D01*
X299395113Y139228535D01*
X299522222Y139681627D01*
X299665206Y140190462D01*
X299823031Y140751369D01*
X299994663Y141360675D01*
X300179069Y142014707D01*
X300375215Y142709792D01*
X300582067Y143442259D01*
X300798593Y144208435D01*
X301023759Y145004646D01*
X301256530Y145827221D01*
X301495874Y146672487D01*
X301564904Y146916176D01*
X301805907Y147767258D01*
X302040580Y148596728D01*
X302267891Y149400909D01*
X302486809Y150176128D01*
X302696303Y150918710D01*
X302895342Y151624980D01*
X303082895Y152291265D01*
X303257930Y152913888D01*
X303419416Y153489176D01*
X303566323Y154013454D01*
X303697617Y154483047D01*
X303812270Y154894282D01*
X303909248Y155243483D01*
X303987522Y155526976D01*
X304046059Y155741086D01*
X304083829Y155882139D01*
X304099800Y155946461D01*
X304100219Y155950226D01*
X304054443Y155967569D01*
X303936058Y156004744D01*
X303753594Y156059364D01*
X303515578Y156129040D01*
X303230538Y156211384D01*
X302907003Y156304008D01*
X302553499Y156404524D01*
X302178555Y156510543D01*
X301790699Y156619677D01*
X301398458Y156729539D01*
X301010362Y156837738D01*
X300634937Y156941889D01*
X300280712Y157039601D01*
X299956215Y157128487D01*
X299669973Y157206159D01*
X299430515Y157270229D01*
X299246368Y157318307D01*
X299126060Y157348007D01*
X299078120Y157356939D01*
X299077736Y157356766D01*
X299077736Y157356766D01*
G37*
X299077736Y157356766D02*
X299064253Y157314661D01*
X299028546Y157193926D01*
X298971424Y156997405D01*
X298893696Y156727942D01*
X298796171Y156388381D01*
X298679656Y155981565D01*
X298544963Y155510338D01*
X298392898Y154977544D01*
X298224272Y154386027D01*
X298039892Y153738631D01*
X297840569Y153038198D01*
X297627110Y152287574D01*
X297400325Y151489602D01*
X297161022Y150647125D01*
X296910011Y149762988D01*
X296648100Y148840034D01*
X296376098Y147881107D01*
X296094814Y146889051D01*
X295805057Y145866709D01*
X295507636Y144816926D01*
X295203359Y143742544D01*
X294893037Y142646409D01*
X294789990Y142282334D01*
X294477617Y141178680D01*
X294170973Y140095376D01*
X293870870Y139035289D01*
X293578120Y138001287D01*
X293293536Y136996238D01*
X293017932Y136023009D01*
X292752119Y135084469D01*
X292496912Y134183484D01*
X292253121Y133322922D01*
X292021560Y132505652D01*
X291803043Y131734540D01*
X291598380Y131012455D01*
X291408386Y130342263D01*
X291233873Y129726834D01*
X291075654Y129169033D01*
X290934541Y128671730D01*
X290811347Y128237792D01*
X290706885Y127870085D01*
X290621968Y127571479D01*
X290557409Y127344841D01*
X290514019Y127193038D01*
X290492612Y127118937D01*
X290490558Y127112164D01*
X290468805Y127030347D01*
X290486198Y127008704D01*
X290523803Y127019276D01*
X290565984Y127041950D01*
X290679213Y127104598D01*
X290860748Y127205681D01*
X291107847Y127343658D01*
X291417767Y127516992D01*
X291787765Y127724142D01*
X292215099Y127963570D01*
X292697026Y128233737D01*
X293230804Y128533102D01*
X293813690Y128860128D01*
X294442942Y129213275D01*
X295115817Y129591004D01*
X295829573Y129991775D01*
X296581466Y130414050D01*
X297368755Y130856289D01*
X298188698Y131316953D01*
X299038550Y131794503D01*
X299915570Y132287399D01*
X300817016Y132794103D01*
X301740144Y133313075D01*
X302682213Y133842777D01*
X302759670Y133886332D01*
X303702492Y134416401D01*
X304626320Y134935585D01*
X305528428Y135442361D01*
X306406089Y135935202D01*
X307256577Y136412584D01*
X308077165Y136872980D01*
X308865126Y137314866D01*
X309617733Y137736715D01*
X310332261Y138137003D01*
X311005983Y138514204D01*
X311636171Y138866792D01*
X312220100Y139193242D01*
X312755043Y139492029D01*
X313238274Y139761626D01*
X313667065Y140000510D01*
X314038690Y140207153D01*
X314350423Y140380031D01*
X314599537Y140517619D01*
X314783305Y140618390D01*
X314899001Y140680819D01*
X314943899Y140703382D01*
X314944379Y140703400D01*
X314935112Y140661167D01*
X314903753Y140541165D01*
X314851333Y140347074D01*
X314778882Y140082573D01*
X314687430Y139751341D01*
X314578008Y139357058D01*
X314451646Y138903403D01*
X314309375Y138394056D01*
X314152224Y137832695D01*
X313981224Y137223001D01*
X313797405Y136568653D01*
X313601798Y135873330D01*
X313395433Y135140711D01*
X313179340Y134374477D01*
X312954550Y133578306D01*
X312722092Y132755878D01*
X312482998Y131910872D01*
X312417674Y131680160D01*
X312176967Y130829726D01*
X311942605Y130000892D01*
X311715619Y129197338D01*
X311497042Y128422743D01*
X311287903Y127680784D01*
X311089234Y126975140D01*
X310902065Y126309491D01*
X310727427Y125687514D01*
X310566352Y125112888D01*
X310419870Y124589292D01*
X310289012Y124120405D01*
X310174810Y123709904D01*
X310078293Y123361470D01*
X310000493Y123078780D01*
X309942440Y122865513D01*
X309905167Y122725347D01*
X309889703Y122661962D01*
X309889399Y122658491D01*
X309932537Y122643671D01*
X310048631Y122608440D01*
X310229112Y122555229D01*
X310465409Y122486469D01*
X310748951Y122404592D01*
X311071169Y122312029D01*
X311423492Y122211213D01*
X311797349Y122104574D01*
X312184171Y121994544D01*
X312575387Y121883555D01*
X312962427Y121774038D01*
X313336721Y121668425D01*
X313689698Y121569147D01*
X314012788Y121478636D01*
X314297421Y121399324D01*
X314535026Y121333642D01*
X314717034Y121284022D01*
X314834873Y121252894D01*
X314879618Y121242667D01*
X314929494Y121276025D01*
X314939467Y121295584D01*
X314955395Y121348409D01*
X314993188Y121478759D01*
X315051870Y121683184D01*
X315130466Y121958228D01*
X315227998Y122300441D01*
X315343493Y122706368D01*
X315475973Y123172556D01*
X315624464Y123695554D01*
X315787989Y124271908D01*
X315965574Y124898165D01*
X316156241Y125570872D01*
X316359015Y126286577D01*
X316572921Y127041826D01*
X316796982Y127833167D01*
X317030224Y128657147D01*
X317271670Y129510313D01*
X317520344Y130389213D01*
X317775271Y131290392D01*
X318035476Y132210399D01*
X318299981Y133145780D01*
X318567812Y134093083D01*
X318837993Y135048855D01*
X319109547Y136009642D01*
X319381500Y136971993D01*
X319652876Y137932454D01*
X319922698Y138887572D01*
X320189991Y139833894D01*
X320453779Y140767968D01*
X320713087Y141686341D01*
X320966939Y142585560D01*
X321214358Y143462171D01*
X321454370Y144312723D01*
X321685999Y145133761D01*
X321908268Y145921834D01*
X322120202Y146673489D01*
X322320825Y147385272D01*
X322509162Y148053731D01*
X322684237Y148675413D01*
X322845073Y149246864D01*
X322990696Y149764633D01*
X323120129Y150225266D01*
X323232397Y150625310D01*
X323326524Y150961313D01*
X323401534Y151229822D01*
X323456452Y151427383D01*
X323490301Y151550544D01*
X323502106Y151595852D01*
X323502103Y151596007D01*
X323464738Y151577799D01*
X323356314Y151519569D01*
X323179548Y151422834D01*
X322937156Y151289116D01*
X322631855Y151119932D01*
X322266359Y150916804D01*
X321843385Y150681251D01*
X321365650Y150414791D01*
X320835869Y150118945D01*
X320256758Y149795233D01*
X319631034Y149445173D01*
X318961412Y149070286D01*
X318250608Y148672091D01*
X317501339Y148252107D01*
X316716321Y147811854D01*
X315898269Y147352853D01*
X315049900Y146876621D01*
X314173929Y146384680D01*
X313273073Y145878548D01*
X312350049Y145359745D01*
X311407571Y144829791D01*
X311263339Y144748671D01*
X310318090Y144217081D01*
X309391879Y143696327D01*
X308487425Y143187932D01*
X307607444Y142693418D01*
X306754652Y142214309D01*
X305931767Y141752128D01*
X305141505Y141308398D01*
X304386583Y140884643D01*
X303669718Y140482386D01*
X302993627Y140103149D01*
X302361026Y139748457D01*
X301774632Y139419832D01*
X301237162Y139118797D01*
X300751332Y138846877D01*
X300319861Y138605593D01*
X299945463Y138396470D01*
X299630856Y138221030D01*
X299378757Y138080797D01*
X299191883Y137977293D01*
X299072950Y137912043D01*
X299024675Y137886569D01*
X299023696Y137886273D01*
X299033855Y137927777D01*
X299066090Y138047060D01*
X299119366Y138240450D01*
X299192651Y138504274D01*
X299284911Y138834860D01*
X299395113Y139228535D01*
X299522222Y139681627D01*
X299665206Y140190462D01*
X299823031Y140751369D01*
X299994663Y141360675D01*
X300179069Y142014707D01*
X300375215Y142709792D01*
X300582067Y143442259D01*
X300798593Y144208435D01*
X301023759Y145004646D01*
X301256530Y145827221D01*
X301495874Y146672487D01*
X301564904Y146916176D01*
X301805907Y147767258D01*
X302040580Y148596728D01*
X302267891Y149400909D01*
X302486809Y150176128D01*
X302696303Y150918710D01*
X302895342Y151624980D01*
X303082895Y152291265D01*
X303257930Y152913888D01*
X303419416Y153489176D01*
X303566323Y154013454D01*
X303697617Y154483047D01*
X303812270Y154894282D01*
X303909248Y155243483D01*
X303987522Y155526976D01*
X304046059Y155741086D01*
X304083829Y155882139D01*
X304099800Y155946461D01*
X304100219Y155950226D01*
X304054443Y155967569D01*
X303936058Y156004744D01*
X303753594Y156059364D01*
X303515578Y156129040D01*
X303230538Y156211384D01*
X302907003Y156304008D01*
X302553499Y156404524D01*
X302178555Y156510543D01*
X301790699Y156619677D01*
X301398458Y156729539D01*
X301010362Y156837738D01*
X300634937Y156941889D01*
X300280712Y157039601D01*
X299956215Y157128487D01*
X299669973Y157206159D01*
X299430515Y157270229D01*
X299246368Y157318307D01*
X299126060Y157348007D01*
X299078120Y157356939D01*
X299077736Y157356766D01*
G36*
X327780563Y149229092D02*
G01*
X327766555Y149186475D01*
X327730578Y149065896D01*
X327673626Y148870870D01*
X327596694Y148604915D01*
X327500778Y148271549D01*
X327386872Y147874288D01*
X327255972Y147416649D01*
X327109072Y146902149D01*
X326947167Y146334306D01*
X326771253Y145716637D01*
X326582324Y145052658D01*
X326381375Y144345887D01*
X326169402Y143599841D01*
X325947398Y142818036D01*
X325716360Y142003991D01*
X325477282Y141161221D01*
X325231159Y140293245D01*
X324978986Y139403579D01*
X324721758Y138495740D01*
X324460471Y137573246D01*
X324196118Y136639613D01*
X323929695Y135698359D01*
X323662198Y134753000D01*
X323394620Y133807054D01*
X323127958Y132864038D01*
X322863205Y131927469D01*
X322601357Y131000863D01*
X322343409Y130087739D01*
X322090356Y129191613D01*
X321843193Y128316002D01*
X321602914Y127464423D01*
X321370516Y126640394D01*
X321146992Y125847431D01*
X320933338Y125089052D01*
X320730549Y124368773D01*
X320539619Y123690112D01*
X320361544Y123056586D01*
X320197319Y122471711D01*
X320047938Y121939006D01*
X319914397Y121461987D01*
X319797690Y121044170D01*
X319698814Y120689074D01*
X319618761Y120400215D01*
X319558528Y120181111D01*
X319519110Y120035278D01*
X319501501Y119966234D01*
X319500640Y119960916D01*
X319542848Y119942038D01*
X319659593Y119902439D01*
X319843874Y119844212D01*
X320088692Y119769446D01*
X320387046Y119680233D01*
X320731936Y119578665D01*
X321116364Y119466830D01*
X321533328Y119346821D01*
X321975829Y119220728D01*
X322031778Y119204873D01*
X322550058Y119058073D01*
X322992792Y118932678D01*
X323365908Y118827051D01*
X323675331Y118739557D01*
X323926988Y118668560D01*
X324126804Y118612423D01*
X324280708Y118569513D01*
X324394624Y118538192D01*
X324474479Y118516826D01*
X324526199Y118503778D01*
X324555712Y118497412D01*
X324568942Y118496094D01*
X324571817Y118498188D01*
X324570263Y118502057D01*
X324569667Y118504411D01*
X324581069Y118545667D01*
X324614730Y118665504D01*
X324669835Y118861045D01*
X324745571Y119129408D01*
X324841123Y119467716D01*
X324955675Y119873087D01*
X325088413Y120342643D01*
X325238523Y120873504D01*
X325405189Y121462790D01*
X325587597Y122107623D01*
X325784931Y122805122D01*
X325996379Y123552408D01*
X326221124Y124346601D01*
X326458351Y125184822D01*
X326707247Y126064192D01*
X326966997Y126981830D01*
X327236785Y127934857D01*
X327515797Y128920395D01*
X327803219Y129935562D01*
X328098235Y130977480D01*
X328400031Y132043270D01*
X328707791Y133130050D01*
X328716463Y133160671D01*
X329024337Y134247945D01*
X329326212Y135314295D01*
X329621276Y136356842D01*
X329908716Y137372708D01*
X330187719Y138359013D01*
X330457474Y139312880D01*
X330717166Y140231429D01*
X330965985Y141111782D01*
X331203117Y141951060D01*
X331427749Y142746385D01*
X331639070Y143494877D01*
X331836267Y144193660D01*
X332018526Y144839852D01*
X332185037Y145430577D01*
X332334985Y145962956D01*
X332467559Y146434109D01*
X332581946Y146841159D01*
X332677334Y147181226D01*
X332752910Y147451432D01*
X332807861Y147648898D01*
X332841374Y147770746D01*
X332852638Y147814097D01*
X332852625Y147814154D01*
X332807669Y147830638D01*
X332689993Y147866974D01*
X332508081Y147920797D01*
X332270412Y147989740D01*
X331985470Y148071437D01*
X331661737Y148163522D01*
X331307693Y148263628D01*
X330931822Y148369389D01*
X330542604Y148478440D01*
X330148523Y148588414D01*
X329758059Y148696944D01*
X329379695Y148801666D01*
X329021912Y148900211D01*
X328693193Y148990216D01*
X328402019Y149069312D01*
X328156872Y149135135D01*
X327966234Y149185317D01*
X327838587Y149217494D01*
X327782413Y149229297D01*
X327780563Y149229092D01*
X327780563Y149229092D01*
G37*
X327780563Y149229092D02*
X327766555Y149186475D01*
X327730578Y149065896D01*
X327673626Y148870870D01*
X327596694Y148604915D01*
X327500778Y148271549D01*
X327386872Y147874288D01*
X327255972Y147416649D01*
X327109072Y146902149D01*
X326947167Y146334306D01*
X326771253Y145716637D01*
X326582324Y145052658D01*
X326381375Y144345887D01*
X326169402Y143599841D01*
X325947398Y142818036D01*
X325716360Y142003991D01*
X325477282Y141161221D01*
X325231159Y140293245D01*
X324978986Y139403579D01*
X324721758Y138495740D01*
X324460471Y137573246D01*
X324196118Y136639613D01*
X323929695Y135698359D01*
X323662198Y134753000D01*
X323394620Y133807054D01*
X323127958Y132864038D01*
X322863205Y131927469D01*
X322601357Y131000863D01*
X322343409Y130087739D01*
X322090356Y129191613D01*
X321843193Y128316002D01*
X321602914Y127464423D01*
X321370516Y126640394D01*
X321146992Y125847431D01*
X320933338Y125089052D01*
X320730549Y124368773D01*
X320539619Y123690112D01*
X320361544Y123056586D01*
X320197319Y122471711D01*
X320047938Y121939006D01*
X319914397Y121461987D01*
X319797690Y121044170D01*
X319698814Y120689074D01*
X319618761Y120400215D01*
X319558528Y120181111D01*
X319519110Y120035278D01*
X319501501Y119966234D01*
X319500640Y119960916D01*
X319542848Y119942038D01*
X319659593Y119902439D01*
X319843874Y119844212D01*
X320088692Y119769446D01*
X320387046Y119680233D01*
X320731936Y119578665D01*
X321116364Y119466830D01*
X321533328Y119346821D01*
X321975829Y119220728D01*
X322031778Y119204873D01*
X322550058Y119058073D01*
X322992792Y118932678D01*
X323365908Y118827051D01*
X323675331Y118739557D01*
X323926988Y118668560D01*
X324126804Y118612423D01*
X324280708Y118569513D01*
X324394624Y118538192D01*
X324474479Y118516826D01*
X324526199Y118503778D01*
X324555712Y118497412D01*
X324568942Y118496094D01*
X324571817Y118498188D01*
X324570263Y118502057D01*
X324569667Y118504411D01*
X324581069Y118545667D01*
X324614730Y118665504D01*
X324669835Y118861045D01*
X324745571Y119129408D01*
X324841123Y119467716D01*
X324955675Y119873087D01*
X325088413Y120342643D01*
X325238523Y120873504D01*
X325405189Y121462790D01*
X325587597Y122107623D01*
X325784931Y122805122D01*
X325996379Y123552408D01*
X326221124Y124346601D01*
X326458351Y125184822D01*
X326707247Y126064192D01*
X326966997Y126981830D01*
X327236785Y127934857D01*
X327515797Y128920395D01*
X327803219Y129935562D01*
X328098235Y130977480D01*
X328400031Y132043270D01*
X328707791Y133130050D01*
X328716463Y133160671D01*
X329024337Y134247945D01*
X329326212Y135314295D01*
X329621276Y136356842D01*
X329908716Y137372708D01*
X330187719Y138359013D01*
X330457474Y139312880D01*
X330717166Y140231429D01*
X330965985Y141111782D01*
X331203117Y141951060D01*
X331427749Y142746385D01*
X331639070Y143494877D01*
X331836267Y144193660D01*
X332018526Y144839852D01*
X332185037Y145430577D01*
X332334985Y145962956D01*
X332467559Y146434109D01*
X332581946Y146841159D01*
X332677334Y147181226D01*
X332752910Y147451432D01*
X332807861Y147648898D01*
X332841374Y147770746D01*
X332852638Y147814097D01*
X332852625Y147814154D01*
X332807669Y147830638D01*
X332689993Y147866974D01*
X332508081Y147920797D01*
X332270412Y147989740D01*
X331985470Y148071437D01*
X331661737Y148163522D01*
X331307693Y148263628D01*
X330931822Y148369389D01*
X330542604Y148478440D01*
X330148523Y148588414D01*
X329758059Y148696944D01*
X329379695Y148801666D01*
X329021912Y148900211D01*
X328693193Y148990216D01*
X328402019Y149069312D01*
X328156872Y149135135D01*
X327966234Y149185317D01*
X327838587Y149217494D01*
X327782413Y149229297D01*
X327780563Y149229092D01*
G36*
X212586592Y206840308D02*
G01*
X212249586Y206839015D01*
X211981054Y206836460D01*
X211772901Y206832317D01*
X211617031Y206826258D01*
X211505350Y206817957D01*
X211429761Y206807088D01*
X211382171Y206793323D01*
X211354482Y206776336D01*
X211352191Y206774143D01*
X211326949Y206735781D01*
X211308793Y206670722D01*
X211296660Y206566584D01*
X211289487Y206410989D01*
X211286211Y206191557D01*
X211285667Y205999443D01*
X211288170Y205699015D01*
X211295913Y205477859D01*
X211309247Y205330723D01*
X211328525Y205252352D01*
X211336467Y205240467D01*
X211387260Y205220975D01*
X211499396Y205206492D01*
X211678839Y205196677D01*
X211931554Y205191188D01*
X212225467Y205189667D01*
X213063667Y205189667D01*
X213063667Y203157667D01*
X212331300Y203157667D01*
X212026551Y203155303D01*
X211800890Y203147974D01*
X211648865Y203135327D01*
X211565024Y203117008D01*
X211548134Y203106867D01*
X211526669Y203050320D01*
X211511323Y202926491D01*
X211501743Y202730177D01*
X211497579Y202456177D01*
X211497333Y202353334D01*
X211499870Y202053878D01*
X211507712Y201833741D01*
X211521211Y201687722D01*
X211540717Y201610618D01*
X211548134Y201599800D01*
X211603194Y201578825D01*
X211723994Y201563681D01*
X211915988Y201554013D01*
X212184626Y201549468D01*
X212331300Y201549000D01*
X213063667Y201549000D01*
X213063667Y198670333D01*
X212225467Y198670333D01*
X211901955Y198668436D01*
X211657065Y198662518D01*
X211484833Y198652238D01*
X211379293Y198637254D01*
X211336467Y198619533D01*
X211315096Y198563272D01*
X211299787Y198440024D01*
X211290189Y198244536D01*
X211285950Y197971556D01*
X211285667Y197860557D01*
X211286899Y197590614D01*
X211291305Y197392931D01*
X211299948Y197255129D01*
X211313890Y197164827D01*
X211334195Y197109647D01*
X211352191Y197085857D01*
X211378095Y197068475D01*
X211422964Y197054354D01*
X211494892Y197043165D01*
X211601974Y197034584D01*
X211752306Y197028282D01*
X211953984Y197023933D01*
X212215101Y197021211D01*
X212543754Y197019788D01*
X212948038Y197019338D01*
X213000167Y197019333D01*
X213413742Y197019692D01*
X213750748Y197020985D01*
X214019280Y197023540D01*
X214227433Y197027684D01*
X214383303Y197033742D01*
X214494984Y197042043D01*
X214570572Y197052912D01*
X214618163Y197066677D01*
X214645851Y197083665D01*
X214648143Y197085857D01*
X214658491Y197102439D01*
X214667720Y197133375D01*
X214675894Y197183235D01*
X214683075Y197256589D01*
X214689326Y197358006D01*
X214694710Y197492056D01*
X214699289Y197663309D01*
X214703127Y197876333D01*
X214706285Y198135700D01*
X214708828Y198445977D01*
X214710817Y198811736D01*
X214712315Y199237545D01*
X214713385Y199727975D01*
X214714090Y200287594D01*
X214714492Y200920973D01*
X214714655Y201632681D01*
X214714667Y201930000D01*
X214714580Y202673236D01*
X214714278Y203336376D01*
X214713697Y203923988D01*
X214712776Y204440642D01*
X214711451Y204890909D01*
X214709659Y205279356D01*
X214707339Y205610556D01*
X214704426Y205889076D01*
X214700858Y206119486D01*
X214696573Y206306356D01*
X214691508Y206454257D01*
X214685600Y206567756D01*
X214678786Y206651424D01*
X214671004Y206709831D01*
X214662190Y206747546D01*
X214652283Y206769139D01*
X214648143Y206774143D01*
X214622238Y206791525D01*
X214577370Y206805647D01*
X214505442Y206816835D01*
X214398359Y206825417D01*
X214248027Y206831719D01*
X214046350Y206836067D01*
X213785232Y206838790D01*
X213456579Y206840213D01*
X213052295Y206840663D01*
X213000167Y206840667D01*
X212586592Y206840308D01*
X212586592Y206840308D01*
G37*
X212586592Y206840308D02*
X212249586Y206839015D01*
X211981054Y206836460D01*
X211772901Y206832317D01*
X211617031Y206826258D01*
X211505350Y206817957D01*
X211429761Y206807088D01*
X211382171Y206793323D01*
X211354482Y206776336D01*
X211352191Y206774143D01*
X211326949Y206735781D01*
X211308793Y206670722D01*
X211296660Y206566584D01*
X211289487Y206410989D01*
X211286211Y206191557D01*
X211285667Y205999443D01*
X211288170Y205699015D01*
X211295913Y205477859D01*
X211309247Y205330723D01*
X211328525Y205252352D01*
X211336467Y205240467D01*
X211387260Y205220975D01*
X211499396Y205206492D01*
X211678839Y205196677D01*
X211931554Y205191188D01*
X212225467Y205189667D01*
X213063667Y205189667D01*
X213063667Y203157667D01*
X212331300Y203157667D01*
X212026551Y203155303D01*
X211800890Y203147974D01*
X211648865Y203135327D01*
X211565024Y203117008D01*
X211548134Y203106867D01*
X211526669Y203050320D01*
X211511323Y202926491D01*
X211501743Y202730177D01*
X211497579Y202456177D01*
X211497333Y202353334D01*
X211499870Y202053878D01*
X211507712Y201833741D01*
X211521211Y201687722D01*
X211540717Y201610618D01*
X211548134Y201599800D01*
X211603194Y201578825D01*
X211723994Y201563681D01*
X211915988Y201554013D01*
X212184626Y201549468D01*
X212331300Y201549000D01*
X213063667Y201549000D01*
X213063667Y198670333D01*
X212225467Y198670333D01*
X211901955Y198668436D01*
X211657065Y198662518D01*
X211484833Y198652238D01*
X211379293Y198637254D01*
X211336467Y198619533D01*
X211315096Y198563272D01*
X211299787Y198440024D01*
X211290189Y198244536D01*
X211285950Y197971556D01*
X211285667Y197860557D01*
X211286899Y197590614D01*
X211291305Y197392931D01*
X211299948Y197255129D01*
X211313890Y197164827D01*
X211334195Y197109647D01*
X211352191Y197085857D01*
X211378095Y197068475D01*
X211422964Y197054354D01*
X211494892Y197043165D01*
X211601974Y197034584D01*
X211752306Y197028282D01*
X211953984Y197023933D01*
X212215101Y197021211D01*
X212543754Y197019788D01*
X212948038Y197019338D01*
X213000167Y197019333D01*
X213413742Y197019692D01*
X213750748Y197020985D01*
X214019280Y197023540D01*
X214227433Y197027684D01*
X214383303Y197033742D01*
X214494984Y197042043D01*
X214570572Y197052912D01*
X214618163Y197066677D01*
X214645851Y197083665D01*
X214648143Y197085857D01*
X214658491Y197102439D01*
X214667720Y197133375D01*
X214675894Y197183235D01*
X214683075Y197256589D01*
X214689326Y197358006D01*
X214694710Y197492056D01*
X214699289Y197663309D01*
X214703127Y197876333D01*
X214706285Y198135700D01*
X214708828Y198445977D01*
X214710817Y198811736D01*
X214712315Y199237545D01*
X214713385Y199727975D01*
X214714090Y200287594D01*
X214714492Y200920973D01*
X214714655Y201632681D01*
X214714667Y201930000D01*
X214714580Y202673236D01*
X214714278Y203336376D01*
X214713697Y203923988D01*
X214712776Y204440642D01*
X214711451Y204890909D01*
X214709659Y205279356D01*
X214707339Y205610556D01*
X214704426Y205889076D01*
X214700858Y206119486D01*
X214696573Y206306356D01*
X214691508Y206454257D01*
X214685600Y206567756D01*
X214678786Y206651424D01*
X214671004Y206709831D01*
X214662190Y206747546D01*
X214652283Y206769139D01*
X214648143Y206774143D01*
X214622238Y206791525D01*
X214577370Y206805647D01*
X214505442Y206816835D01*
X214398359Y206825417D01*
X214248027Y206831719D01*
X214046350Y206836067D01*
X213785232Y206838790D01*
X213456579Y206840213D01*
X213052295Y206840663D01*
X213000167Y206840667D01*
X212586592Y206840308D01*
G36*
X218393532Y206839071D02*
G01*
X218113494Y206835334D01*
X217857283Y206829139D01*
X217638455Y206820483D01*
X217470568Y206809360D01*
X217376862Y206797741D01*
X217040909Y206693759D01*
X216722240Y206518086D01*
X216437678Y206283700D01*
X216204049Y206003575D01*
X216087662Y205803500D01*
X215963500Y205549500D01*
X215949730Y204046667D01*
X215946276Y203606658D01*
X215945423Y203241937D01*
X215948220Y202943137D01*
X215955716Y202700894D01*
X215968960Y202505843D01*
X215989000Y202348618D01*
X216016885Y202219854D01*
X216053665Y202110185D01*
X216100387Y202010247D01*
X216158102Y201910674D01*
X216195542Y201851692D01*
X216303025Y201708501D01*
X216440299Y201557520D01*
X216587597Y201417470D01*
X216725150Y201307077D01*
X216833190Y201245063D01*
X216837686Y201243494D01*
X216839942Y201204157D01*
X216818074Y201094551D01*
X216771636Y200913111D01*
X216700186Y200658269D01*
X216603279Y200328462D01*
X216480471Y199922123D01*
X216331320Y199437687D01*
X216267330Y199231796D01*
X216144424Y198835575D01*
X216029590Y198462196D01*
X215925260Y198119788D01*
X215833863Y197816476D01*
X215757830Y197560387D01*
X215699589Y197359648D01*
X215661571Y197222385D01*
X215646207Y197156725D01*
X215646000Y197153908D01*
X215676060Y197073055D01*
X215712963Y197045029D01*
X215776779Y197036212D01*
X215909040Y197028699D01*
X216093527Y197023057D01*
X216314022Y197019852D01*
X216449106Y197019333D01*
X216708678Y197020509D01*
X216897392Y197024931D01*
X217029033Y197033944D01*
X217117388Y197048890D01*
X217176244Y197071113D01*
X217209386Y197093417D01*
X217239165Y197132612D01*
X217277674Y197211745D01*
X217326922Y197336770D01*
X217388916Y197513638D01*
X217465664Y197748305D01*
X217559174Y198046723D01*
X217671453Y198414846D01*
X217803001Y198853565D01*
X217911377Y199215822D01*
X218012909Y199552581D01*
X218104948Y199855241D01*
X218184841Y200115202D01*
X218249939Y200323864D01*
X218297589Y200472627D01*
X218325141Y200552890D01*
X218330426Y200564537D01*
X218335777Y200529155D01*
X218340734Y200417776D01*
X218345172Y200239070D01*
X218348963Y200001706D01*
X218351983Y199714352D01*
X218354106Y199385679D01*
X218355206Y199024356D01*
X218355333Y198848212D01*
X218355471Y198418429D01*
X218356122Y198065505D01*
X218357645Y197781632D01*
X218360399Y197559001D01*
X218364740Y197389806D01*
X218371028Y197266239D01*
X218379620Y197180491D01*
X218390875Y197124755D01*
X218405151Y197091223D01*
X218422806Y197072087D01*
X218437217Y197063156D01*
X218511393Y197046411D01*
X218650879Y197033944D01*
X218837019Y197025732D01*
X219051155Y197021749D01*
X219274631Y197021972D01*
X219488788Y197026375D01*
X219674971Y197034935D01*
X219814522Y197047627D01*
X219888784Y197064427D01*
X219889917Y197065058D01*
X219901326Y197075181D01*
X219911503Y197094580D01*
X219920519Y197127854D01*
X219928443Y197179599D01*
X219935346Y197254413D01*
X219941298Y197356894D01*
X219946368Y197491639D01*
X219950627Y197663245D01*
X219954144Y197876311D01*
X219956990Y198135432D01*
X219959235Y198445208D01*
X219960948Y198810235D01*
X219962200Y199235111D01*
X219963060Y199724433D01*
X219963599Y200282799D01*
X219963887Y200914806D01*
X219963993Y201625052D01*
X219964000Y201930614D01*
X219963972Y202671884D01*
X219963836Y203333106D01*
X219963513Y203918902D01*
X219962927Y204433890D01*
X219962000Y204882691D01*
X219960654Y205269925D01*
X219960394Y205316667D01*
X218355333Y205316667D01*
X218355333Y202522667D01*
X218057076Y202522667D01*
X217892303Y202526469D01*
X217785956Y202542365D01*
X217711965Y202577092D01*
X217654909Y202626576D01*
X217551000Y202730485D01*
X217551000Y203912034D01*
X217551262Y204260003D01*
X217552507Y204533467D01*
X217555425Y204742586D01*
X217560706Y204897523D01*
X217569038Y205008438D01*
X217581111Y205085492D01*
X217597614Y205138845D01*
X217619238Y205178660D01*
X217638739Y205205124D01*
X217691396Y205262898D01*
X217751641Y205296369D01*
X217843032Y205312071D01*
X217989131Y205316539D01*
X218040906Y205316667D01*
X218355333Y205316667D01*
X219960394Y205316667D01*
X219958810Y205600211D01*
X219956392Y205878169D01*
X219953322Y206108419D01*
X219949522Y206295582D01*
X219944913Y206444275D01*
X219939420Y206559121D01*
X219932963Y206644738D01*
X219925464Y206705746D01*
X219916848Y206746766D01*
X219907034Y206772416D01*
X219895947Y206787317D01*
X219883507Y206796089D01*
X219882117Y206796844D01*
X219814900Y206810170D01*
X219676608Y206821073D01*
X219480799Y206829548D01*
X219241029Y206835590D01*
X218970857Y206839194D01*
X218683839Y206840356D01*
X218393532Y206839071D01*
X218393532Y206839071D01*
G37*
X218393532Y206839071D02*
X218113494Y206835334D01*
X217857283Y206829139D01*
X217638455Y206820483D01*
X217470568Y206809360D01*
X217376862Y206797741D01*
X217040909Y206693759D01*
X216722240Y206518086D01*
X216437678Y206283700D01*
X216204049Y206003575D01*
X216087662Y205803500D01*
X215963500Y205549500D01*
X215949730Y204046667D01*
X215946276Y203606658D01*
X215945423Y203241937D01*
X215948220Y202943137D01*
X215955716Y202700894D01*
X215968960Y202505843D01*
X215989000Y202348618D01*
X216016885Y202219854D01*
X216053665Y202110185D01*
X216100387Y202010247D01*
X216158102Y201910674D01*
X216195542Y201851692D01*
X216303025Y201708501D01*
X216440299Y201557520D01*
X216587597Y201417470D01*
X216725150Y201307077D01*
X216833190Y201245063D01*
X216837686Y201243494D01*
X216839942Y201204157D01*
X216818074Y201094551D01*
X216771636Y200913111D01*
X216700186Y200658269D01*
X216603279Y200328462D01*
X216480471Y199922123D01*
X216331320Y199437687D01*
X216267330Y199231796D01*
X216144424Y198835575D01*
X216029590Y198462196D01*
X215925260Y198119788D01*
X215833863Y197816476D01*
X215757830Y197560387D01*
X215699589Y197359648D01*
X215661571Y197222385D01*
X215646207Y197156725D01*
X215646000Y197153908D01*
X215676060Y197073055D01*
X215712963Y197045029D01*
X215776779Y197036212D01*
X215909040Y197028699D01*
X216093527Y197023057D01*
X216314022Y197019852D01*
X216449106Y197019333D01*
X216708678Y197020509D01*
X216897392Y197024931D01*
X217029033Y197033944D01*
X217117388Y197048890D01*
X217176244Y197071113D01*
X217209386Y197093417D01*
X217239165Y197132612D01*
X217277674Y197211745D01*
X217326922Y197336770D01*
X217388916Y197513638D01*
X217465664Y197748305D01*
X217559174Y198046723D01*
X217671453Y198414846D01*
X217803001Y198853565D01*
X217911377Y199215822D01*
X218012909Y199552581D01*
X218104948Y199855241D01*
X218184841Y200115202D01*
X218249939Y200323864D01*
X218297589Y200472627D01*
X218325141Y200552890D01*
X218330426Y200564537D01*
X218335777Y200529155D01*
X218340734Y200417776D01*
X218345172Y200239070D01*
X218348963Y200001706D01*
X218351983Y199714352D01*
X218354106Y199385679D01*
X218355206Y199024356D01*
X218355333Y198848212D01*
X218355471Y198418429D01*
X218356122Y198065505D01*
X218357645Y197781632D01*
X218360399Y197559001D01*
X218364740Y197389806D01*
X218371028Y197266239D01*
X218379620Y197180491D01*
X218390875Y197124755D01*
X218405151Y197091223D01*
X218422806Y197072087D01*
X218437217Y197063156D01*
X218511393Y197046411D01*
X218650879Y197033944D01*
X218837019Y197025732D01*
X219051155Y197021749D01*
X219274631Y197021972D01*
X219488788Y197026375D01*
X219674971Y197034935D01*
X219814522Y197047627D01*
X219888784Y197064427D01*
X219889917Y197065058D01*
X219901326Y197075181D01*
X219911503Y197094580D01*
X219920519Y197127854D01*
X219928443Y197179599D01*
X219935346Y197254413D01*
X219941298Y197356894D01*
X219946368Y197491639D01*
X219950627Y197663245D01*
X219954144Y197876311D01*
X219956990Y198135432D01*
X219959235Y198445208D01*
X219960948Y198810235D01*
X219962200Y199235111D01*
X219963060Y199724433D01*
X219963599Y200282799D01*
X219963887Y200914806D01*
X219963993Y201625052D01*
X219964000Y201930614D01*
X219963972Y202671884D01*
X219963836Y203333106D01*
X219963513Y203918902D01*
X219962927Y204433890D01*
X219962000Y204882691D01*
X219960654Y205269925D01*
X219960394Y205316667D01*
X218355333Y205316667D01*
X218355333Y202522667D01*
X218057076Y202522667D01*
X217892303Y202526469D01*
X217785956Y202542365D01*
X217711965Y202577092D01*
X217654909Y202626576D01*
X217551000Y202730485D01*
X217551000Y203912034D01*
X217551262Y204260003D01*
X217552507Y204533467D01*
X217555425Y204742586D01*
X217560706Y204897523D01*
X217569038Y205008438D01*
X217581111Y205085492D01*
X217597614Y205138845D01*
X217619238Y205178660D01*
X217638739Y205205124D01*
X217691396Y205262898D01*
X217751641Y205296369D01*
X217843032Y205312071D01*
X217989131Y205316539D01*
X218040906Y205316667D01*
X218355333Y205316667D01*
X219960394Y205316667D01*
X219958810Y205600211D01*
X219956392Y205878169D01*
X219953322Y206108419D01*
X219949522Y206295582D01*
X219944913Y206444275D01*
X219939420Y206559121D01*
X219932963Y206644738D01*
X219925464Y206705746D01*
X219916848Y206746766D01*
X219907034Y206772416D01*
X219895947Y206787317D01*
X219883507Y206796089D01*
X219882117Y206796844D01*
X219814900Y206810170D01*
X219676608Y206821073D01*
X219480799Y206829548D01*
X219241029Y206835590D01*
X218970857Y206839194D01*
X218683839Y206840356D01*
X218393532Y206839071D01*
G36*
X222710697Y206841364D02*
G01*
X222470893Y206833833D01*
X222267025Y206822448D01*
X222114157Y206807221D01*
X222027352Y206788165D01*
X222018375Y206783285D01*
X222005248Y206767306D01*
X221991577Y206735413D01*
X221976782Y206683056D01*
X221960282Y206605683D01*
X221941501Y206498741D01*
X221919857Y206357679D01*
X221894772Y206177945D01*
X221865667Y205954987D01*
X221831963Y205684255D01*
X221793080Y205361195D01*
X221748440Y204981256D01*
X221697462Y204539886D01*
X221639569Y204032535D01*
X221574180Y203454649D01*
X221500717Y202801677D01*
X221419119Y202073701D01*
X221349641Y201451595D01*
X221282854Y200850772D01*
X221219369Y200276861D01*
X221159793Y199735489D01*
X221104736Y199232284D01*
X221054806Y198772874D01*
X221010613Y198362887D01*
X220972765Y198007951D01*
X220941871Y197713693D01*
X220918540Y197485742D01*
X220903381Y197329726D01*
X220897003Y197251272D01*
X220896836Y197246113D01*
X220909823Y197112757D01*
X220954018Y197048817D01*
X220962296Y197045029D01*
X221026166Y197036190D01*
X221158430Y197028664D01*
X221342816Y197023022D01*
X221563055Y197019834D01*
X221695038Y197019333D01*
X221974164Y197021521D01*
X222179017Y197028614D01*
X222319891Y197041411D01*
X222407080Y197060708D01*
X222439703Y197077016D01*
X222471001Y197110843D01*
X222496084Y197169386D01*
X222517280Y197265412D01*
X222536922Y197411692D01*
X222557338Y197620995D01*
X222572969Y197807266D01*
X222591884Y198048422D01*
X222608181Y198269894D01*
X222620593Y198453367D01*
X222627851Y198580524D01*
X222629175Y198618898D01*
X222631000Y198757962D01*
X223064917Y198745898D01*
X223498833Y198733833D01*
X223563169Y197936060D01*
X223586927Y197652605D01*
X223607320Y197441857D01*
X223626351Y197292027D01*
X223646025Y197191326D01*
X223668344Y197127965D01*
X223695312Y197090155D01*
X223708844Y197078810D01*
X223763711Y197054833D01*
X223859903Y197037760D01*
X224008509Y197026728D01*
X224220620Y197020879D01*
X224475408Y197019333D01*
X224738141Y197020498D01*
X224928843Y197024765D01*
X225060129Y197033294D01*
X225144613Y197047245D01*
X225194907Y197067779D01*
X225217250Y197087553D01*
X225224980Y197108543D01*
X225229150Y197151819D01*
X225229334Y197221705D01*
X225225108Y197322526D01*
X225216047Y197458605D01*
X225201724Y197634268D01*
X225181716Y197853837D01*
X225155598Y198121639D01*
X225122943Y198441996D01*
X225083328Y198819233D01*
X225036327Y199257675D01*
X224981515Y199761645D01*
X224918468Y200335469D01*
X224918388Y200336197D01*
X223393000Y200336197D01*
X223354118Y200329092D01*
X223251267Y200323836D01*
X223105142Y200321398D01*
X223075500Y200321333D01*
X222897169Y200326357D01*
X222794344Y200342387D01*
X222758407Y200370860D01*
X222758159Y200374250D01*
X222761117Y200426584D01*
X222769503Y200554307D01*
X222782689Y200748358D01*
X222800047Y200999677D01*
X222820949Y201299202D01*
X222844768Y201637873D01*
X222870877Y202006630D01*
X222885000Y202205167D01*
X222912042Y202585875D01*
X222937118Y202941160D01*
X222959600Y203261963D01*
X222978860Y203539221D01*
X222994272Y203763876D01*
X223005206Y203926864D01*
X223011036Y204019127D01*
X223011841Y204036083D01*
X223046104Y204082957D01*
X223075500Y204089000D01*
X223128257Y204054116D01*
X223139000Y204010637D01*
X223141920Y203952771D01*
X223150264Y203819650D01*
X223163407Y203620469D01*
X223180724Y203364421D01*
X223201590Y203060703D01*
X223225381Y202718509D01*
X223251471Y202347033D01*
X223266000Y202141667D01*
X223292952Y201761328D01*
X223317953Y201407866D01*
X223340385Y201090061D01*
X223359631Y200816689D01*
X223375074Y200596529D01*
X223386096Y200438359D01*
X223392080Y200350956D01*
X223393000Y200336197D01*
X224918388Y200336197D01*
X224846759Y200983469D01*
X224765964Y201709971D01*
X224740029Y201942632D01*
X224656808Y202687835D01*
X224582204Y203353311D01*
X224515658Y203943502D01*
X224456612Y204462847D01*
X224404505Y204915789D01*
X224358779Y205306768D01*
X224318873Y205640225D01*
X224284230Y205920601D01*
X224254289Y206152337D01*
X224228492Y206339875D01*
X224206279Y206487655D01*
X224187090Y206600118D01*
X224170366Y206681705D01*
X224155549Y206736857D01*
X224142078Y206770016D01*
X224130171Y206785080D01*
X224060602Y206804889D01*
X223921522Y206820753D01*
X223727995Y206832687D01*
X223495086Y206840702D01*
X223237857Y206844811D01*
X222971373Y206845028D01*
X222710697Y206841364D01*
X222710697Y206841364D01*
G37*
X222710697Y206841364D02*
X222470893Y206833833D01*
X222267025Y206822448D01*
X222114157Y206807221D01*
X222027352Y206788165D01*
X222018375Y206783285D01*
X222005248Y206767306D01*
X221991577Y206735413D01*
X221976782Y206683056D01*
X221960282Y206605683D01*
X221941501Y206498741D01*
X221919857Y206357679D01*
X221894772Y206177945D01*
X221865667Y205954987D01*
X221831963Y205684255D01*
X221793080Y205361195D01*
X221748440Y204981256D01*
X221697462Y204539886D01*
X221639569Y204032535D01*
X221574180Y203454649D01*
X221500717Y202801677D01*
X221419119Y202073701D01*
X221349641Y201451595D01*
X221282854Y200850772D01*
X221219369Y200276861D01*
X221159793Y199735489D01*
X221104736Y199232284D01*
X221054806Y198772874D01*
X221010613Y198362887D01*
X220972765Y198007951D01*
X220941871Y197713693D01*
X220918540Y197485742D01*
X220903381Y197329726D01*
X220897003Y197251272D01*
X220896836Y197246113D01*
X220909823Y197112757D01*
X220954018Y197048817D01*
X220962296Y197045029D01*
X221026166Y197036190D01*
X221158430Y197028664D01*
X221342816Y197023022D01*
X221563055Y197019834D01*
X221695038Y197019333D01*
X221974164Y197021521D01*
X222179017Y197028614D01*
X222319891Y197041411D01*
X222407080Y197060708D01*
X222439703Y197077016D01*
X222471001Y197110843D01*
X222496084Y197169386D01*
X222517280Y197265412D01*
X222536922Y197411692D01*
X222557338Y197620995D01*
X222572969Y197807266D01*
X222591884Y198048422D01*
X222608181Y198269894D01*
X222620593Y198453367D01*
X222627851Y198580524D01*
X222629175Y198618898D01*
X222631000Y198757962D01*
X223064917Y198745898D01*
X223498833Y198733833D01*
X223563169Y197936060D01*
X223586927Y197652605D01*
X223607320Y197441857D01*
X223626351Y197292027D01*
X223646025Y197191326D01*
X223668344Y197127965D01*
X223695312Y197090155D01*
X223708844Y197078810D01*
X223763711Y197054833D01*
X223859903Y197037760D01*
X224008509Y197026728D01*
X224220620Y197020879D01*
X224475408Y197019333D01*
X224738141Y197020498D01*
X224928843Y197024765D01*
X225060129Y197033294D01*
X225144613Y197047245D01*
X225194907Y197067779D01*
X225217250Y197087553D01*
X225224980Y197108543D01*
X225229150Y197151819D01*
X225229334Y197221705D01*
X225225108Y197322526D01*
X225216047Y197458605D01*
X225201724Y197634268D01*
X225181716Y197853837D01*
X225155598Y198121639D01*
X225122943Y198441996D01*
X225083328Y198819233D01*
X225036327Y199257675D01*
X224981515Y199761645D01*
X224918468Y200335469D01*
X224918388Y200336197D01*
X223393000Y200336197D01*
X223354118Y200329092D01*
X223251267Y200323836D01*
X223105142Y200321398D01*
X223075500Y200321333D01*
X222897169Y200326357D01*
X222794344Y200342387D01*
X222758407Y200370860D01*
X222758159Y200374250D01*
X222761117Y200426584D01*
X222769503Y200554307D01*
X222782689Y200748358D01*
X222800047Y200999677D01*
X222820949Y201299202D01*
X222844768Y201637873D01*
X222870877Y202006630D01*
X222885000Y202205167D01*
X222912042Y202585875D01*
X222937118Y202941160D01*
X222959600Y203261963D01*
X222978860Y203539221D01*
X222994272Y203763876D01*
X223005206Y203926864D01*
X223011036Y204019127D01*
X223011841Y204036083D01*
X223046104Y204082957D01*
X223075500Y204089000D01*
X223128257Y204054116D01*
X223139000Y204010637D01*
X223141920Y203952771D01*
X223150264Y203819650D01*
X223163407Y203620469D01*
X223180724Y203364421D01*
X223201590Y203060703D01*
X223225381Y202718509D01*
X223251471Y202347033D01*
X223266000Y202141667D01*
X223292952Y201761328D01*
X223317953Y201407866D01*
X223340385Y201090061D01*
X223359631Y200816689D01*
X223375074Y200596529D01*
X223386096Y200438359D01*
X223392080Y200350956D01*
X223393000Y200336197D01*
X224918388Y200336197D01*
X224846759Y200983469D01*
X224765964Y201709971D01*
X224740029Y201942632D01*
X224656808Y202687835D01*
X224582204Y203353311D01*
X224515658Y203943502D01*
X224456612Y204462847D01*
X224404505Y204915789D01*
X224358779Y205306768D01*
X224318873Y205640225D01*
X224284230Y205920601D01*
X224254289Y206152337D01*
X224228492Y206339875D01*
X224206279Y206487655D01*
X224187090Y206600118D01*
X224170366Y206681705D01*
X224155549Y206736857D01*
X224142078Y206770016D01*
X224130171Y206785080D01*
X224060602Y206804889D01*
X223921522Y206820753D01*
X223727995Y206832687D01*
X223495086Y206840702D01*
X223237857Y206844811D01*
X222971373Y206845028D01*
X222710697Y206841364D01*
G36*
X226746172Y206839388D02*
G01*
X226551340Y206834821D01*
X226416107Y206825869D01*
X226327954Y206811436D01*
X226274361Y206790425D01*
X226253524Y206774143D01*
X226243176Y206757561D01*
X226233947Y206726625D01*
X226225773Y206676765D01*
X226218592Y206603411D01*
X226212341Y206501994D01*
X226206957Y206367944D01*
X226202378Y206196692D01*
X226198540Y205983667D01*
X226195382Y205724301D01*
X226192839Y205414023D01*
X226190850Y205048264D01*
X226189352Y204622455D01*
X226188282Y204132025D01*
X226187577Y203572406D01*
X226187175Y202939027D01*
X226187012Y202227319D01*
X226187000Y201930000D01*
X226187087Y201186764D01*
X226187389Y200523625D01*
X226187970Y199936013D01*
X226188891Y199419358D01*
X226190216Y198969092D01*
X226192008Y198580644D01*
X226194328Y198249445D01*
X226197241Y197970925D01*
X226200809Y197740514D01*
X226205094Y197553644D01*
X226210159Y197405744D01*
X226216067Y197292244D01*
X226222881Y197208576D01*
X226230663Y197150169D01*
X226239477Y197112454D01*
X226249384Y197090861D01*
X226253524Y197085857D01*
X226300646Y197056059D01*
X226381045Y197036271D01*
X226509397Y197024776D01*
X226700378Y197019860D01*
X226822663Y197019333D01*
X227039709Y197020607D01*
X227189671Y197026251D01*
X227290116Y197039005D01*
X227358611Y197061607D01*
X227412722Y197096794D01*
X227433793Y197114583D01*
X227461479Y197147548D01*
X227494461Y197205230D01*
X227534837Y197293587D01*
X227584707Y197418576D01*
X227646168Y197586155D01*
X227721319Y197802280D01*
X227812259Y198072910D01*
X227921086Y198404000D01*
X228049898Y198801509D01*
X228200794Y199271393D01*
X228272237Y199494819D01*
X229002167Y201779804D01*
X229023333Y199440341D01*
X229028210Y198928568D01*
X229032982Y198495064D01*
X229037878Y198133433D01*
X229043126Y197837280D01*
X229048953Y197600206D01*
X229055587Y197415817D01*
X229063255Y197277715D01*
X229072185Y197179505D01*
X229082604Y197114790D01*
X229094741Y197077173D01*
X229108000Y197060754D01*
X229170604Y197046929D01*
X229301719Y197035079D01*
X229485195Y197026104D01*
X229704883Y197020907D01*
X229838250Y197019982D01*
X230092343Y197020547D01*
X230275725Y197023853D01*
X230402343Y197031459D01*
X230486145Y197044926D01*
X230541078Y197065812D01*
X230581090Y197095678D01*
X230589667Y197104000D01*
X230602784Y197118403D01*
X230614471Y197137029D01*
X230624811Y197164579D01*
X230633886Y197205755D01*
X230641779Y197265260D01*
X230648572Y197347795D01*
X230654348Y197458061D01*
X230659189Y197600762D01*
X230663178Y197780599D01*
X230666397Y198002273D01*
X230668929Y198270487D01*
X230670855Y198589943D01*
X230672260Y198965342D01*
X230673224Y199401387D01*
X230673831Y199902779D01*
X230674164Y200474220D01*
X230674303Y201120413D01*
X230674333Y201846059D01*
X230674333Y206671334D01*
X230586368Y206759299D01*
X230544339Y206795311D01*
X230492967Y206819281D01*
X230416389Y206833050D01*
X230298742Y206838459D01*
X230124162Y206837348D01*
X229947866Y206833382D01*
X229718672Y206826312D01*
X229559233Y206817113D01*
X229454638Y206803446D01*
X229389974Y206782974D01*
X229350332Y206753359D01*
X229337617Y206737717D01*
X229309563Y206677435D01*
X229259753Y206547458D01*
X229192045Y206358791D01*
X229110294Y206122437D01*
X229018355Y205849403D01*
X228920086Y205550692D01*
X228900027Y205488883D01*
X228779213Y205116104D01*
X228645055Y204702739D01*
X228506109Y204275110D01*
X228370931Y203859542D01*
X228248076Y203482356D01*
X228183592Y203284667D01*
X227845034Y202247500D01*
X227841517Y204449997D01*
X227840475Y204945426D01*
X227838923Y205363049D01*
X227836656Y205709724D01*
X227833464Y205992313D01*
X227829141Y206217673D01*
X227823480Y206392665D01*
X227816273Y206524149D01*
X227807312Y206618983D01*
X227796391Y206684029D01*
X227783303Y206726144D01*
X227772100Y206746581D01*
X227744004Y206781464D01*
X227707432Y206806457D01*
X227649108Y206823205D01*
X227555760Y206833353D01*
X227414114Y206838548D01*
X227210896Y206840434D01*
X227013124Y206840667D01*
X226746172Y206839388D01*
X226746172Y206839388D01*
G37*
X226746172Y206839388D02*
X226551340Y206834821D01*
X226416107Y206825869D01*
X226327954Y206811436D01*
X226274361Y206790425D01*
X226253524Y206774143D01*
X226243176Y206757561D01*
X226233947Y206726625D01*
X226225773Y206676765D01*
X226218592Y206603411D01*
X226212341Y206501994D01*
X226206957Y206367944D01*
X226202378Y206196692D01*
X226198540Y205983667D01*
X226195382Y205724301D01*
X226192839Y205414023D01*
X226190850Y205048264D01*
X226189352Y204622455D01*
X226188282Y204132025D01*
X226187577Y203572406D01*
X226187175Y202939027D01*
X226187012Y202227319D01*
X226187000Y201930000D01*
X226187087Y201186764D01*
X226187389Y200523625D01*
X226187970Y199936013D01*
X226188891Y199419358D01*
X226190216Y198969092D01*
X226192008Y198580644D01*
X226194328Y198249445D01*
X226197241Y197970925D01*
X226200809Y197740514D01*
X226205094Y197553644D01*
X226210159Y197405744D01*
X226216067Y197292244D01*
X226222881Y197208576D01*
X226230663Y197150169D01*
X226239477Y197112454D01*
X226249384Y197090861D01*
X226253524Y197085857D01*
X226300646Y197056059D01*
X226381045Y197036271D01*
X226509397Y197024776D01*
X226700378Y197019860D01*
X226822663Y197019333D01*
X227039709Y197020607D01*
X227189671Y197026251D01*
X227290116Y197039005D01*
X227358611Y197061607D01*
X227412722Y197096794D01*
X227433793Y197114583D01*
X227461479Y197147548D01*
X227494461Y197205230D01*
X227534837Y197293587D01*
X227584707Y197418576D01*
X227646168Y197586155D01*
X227721319Y197802280D01*
X227812259Y198072910D01*
X227921086Y198404000D01*
X228049898Y198801509D01*
X228200794Y199271393D01*
X228272237Y199494819D01*
X229002167Y201779804D01*
X229023333Y199440341D01*
X229028210Y198928568D01*
X229032982Y198495064D01*
X229037878Y198133433D01*
X229043126Y197837280D01*
X229048953Y197600206D01*
X229055587Y197415817D01*
X229063255Y197277715D01*
X229072185Y197179505D01*
X229082604Y197114790D01*
X229094741Y197077173D01*
X229108000Y197060754D01*
X229170604Y197046929D01*
X229301719Y197035079D01*
X229485195Y197026104D01*
X229704883Y197020907D01*
X229838250Y197019982D01*
X230092343Y197020547D01*
X230275725Y197023853D01*
X230402343Y197031459D01*
X230486145Y197044926D01*
X230541078Y197065812D01*
X230581090Y197095678D01*
X230589667Y197104000D01*
X230602784Y197118403D01*
X230614471Y197137029D01*
X230624811Y197164579D01*
X230633886Y197205755D01*
X230641779Y197265260D01*
X230648572Y197347795D01*
X230654348Y197458061D01*
X230659189Y197600762D01*
X230663178Y197780599D01*
X230666397Y198002273D01*
X230668929Y198270487D01*
X230670855Y198589943D01*
X230672260Y198965342D01*
X230673224Y199401387D01*
X230673831Y199902779D01*
X230674164Y200474220D01*
X230674303Y201120413D01*
X230674333Y201846059D01*
X230674333Y206671334D01*
X230586368Y206759299D01*
X230544339Y206795311D01*
X230492967Y206819281D01*
X230416389Y206833050D01*
X230298742Y206838459D01*
X230124162Y206837348D01*
X229947866Y206833382D01*
X229718672Y206826312D01*
X229559233Y206817113D01*
X229454638Y206803446D01*
X229389974Y206782974D01*
X229350332Y206753359D01*
X229337617Y206737717D01*
X229309563Y206677435D01*
X229259753Y206547458D01*
X229192045Y206358791D01*
X229110294Y206122437D01*
X229018355Y205849403D01*
X228920086Y205550692D01*
X228900027Y205488883D01*
X228779213Y205116104D01*
X228645055Y204702739D01*
X228506109Y204275110D01*
X228370931Y203859542D01*
X228248076Y203482356D01*
X228183592Y203284667D01*
X227845034Y202247500D01*
X227841517Y204449997D01*
X227840475Y204945426D01*
X227838923Y205363049D01*
X227836656Y205709724D01*
X227833464Y205992313D01*
X227829141Y206217673D01*
X227823480Y206392665D01*
X227816273Y206524149D01*
X227807312Y206618983D01*
X227796391Y206684029D01*
X227783303Y206726144D01*
X227772100Y206746581D01*
X227744004Y206781464D01*
X227707432Y206806457D01*
X227649108Y206823205D01*
X227555760Y206833353D01*
X227414114Y206838548D01*
X227210896Y206840434D01*
X227013124Y206840667D01*
X226746172Y206839388D01*
G36*
X233461324Y206915037D02*
G01*
X233118813Y206877185D01*
X232826858Y206799263D01*
X232571328Y206676698D01*
X232338094Y206504920D01*
X232206104Y206379542D01*
X231984995Y206099554D01*
X231826833Y205775218D01*
X231729570Y205400620D01*
X231691158Y204969847D01*
X231690334Y204890248D01*
X231695811Y204701426D01*
X231714673Y204576344D01*
X231750567Y204494638D01*
X231764417Y204476462D01*
X231829664Y204429784D01*
X231955842Y204375789D01*
X232149859Y204312008D01*
X232418618Y204235976D01*
X232493419Y204216051D01*
X232722517Y204157712D01*
X232927837Y204109376D01*
X233093252Y204074538D01*
X233202637Y204056690D01*
X233234252Y204055529D01*
X233269477Y204065768D01*
X233293948Y204093827D01*
X233310033Y204153500D01*
X233320101Y204258583D01*
X233326521Y204422871D01*
X233330855Y204618167D01*
X233338531Y204835076D01*
X233351723Y205026686D01*
X233368683Y205173791D01*
X233387659Y205257186D01*
X233389431Y205260958D01*
X233486585Y205363848D01*
X233634302Y205423340D01*
X233805205Y205429112D01*
X233826245Y205425654D01*
X233916326Y205403672D01*
X233984516Y205368758D01*
X234033837Y205310029D01*
X234067312Y205216606D01*
X234087964Y205077605D01*
X234098814Y204882148D01*
X234102886Y204619352D01*
X234103333Y204428170D01*
X234102281Y204141650D01*
X234098405Y203926456D01*
X234090628Y203769263D01*
X234077872Y203656748D01*
X234059061Y203575589D01*
X234033116Y203512461D01*
X234028576Y203503786D01*
X233964370Y203426256D01*
X233830054Y203302118D01*
X233625994Y203131679D01*
X233352561Y202915245D01*
X233010123Y202653123D01*
X232960210Y202615446D01*
X232702368Y202418799D01*
X232463092Y202231957D01*
X232251889Y202062687D01*
X232078270Y201918756D01*
X231951744Y201807931D01*
X231881821Y201737981D01*
X231875191Y201729171D01*
X231818207Y201611798D01*
X231765642Y201450697D01*
X231737057Y201323536D01*
X231722720Y201194056D01*
X231711050Y200995196D01*
X231702050Y200741403D01*
X231695724Y200447119D01*
X231692075Y200126788D01*
X231691106Y199794855D01*
X231692822Y199465763D01*
X231697225Y199153956D01*
X231704319Y198873878D01*
X231714108Y198639973D01*
X231726594Y198466684D01*
X231736348Y198392358D01*
X231843051Y198036221D01*
X232021375Y197712343D01*
X232261224Y197431608D01*
X232552508Y197204899D01*
X232885131Y197043100D01*
X233028899Y196998626D01*
X233185205Y196971367D01*
X233398549Y196952025D01*
X233643494Y196941031D01*
X233894602Y196938813D01*
X234126437Y196945799D01*
X234313561Y196962419D01*
X234387753Y196975715D01*
X234708050Y197092709D01*
X235011435Y197281146D01*
X235281968Y197527807D01*
X235503707Y197819472D01*
X235587736Y197970776D01*
X235733167Y198266052D01*
X235747495Y199148891D01*
X235750668Y199419613D01*
X235751264Y199666359D01*
X235749432Y199874823D01*
X235745322Y200030700D01*
X235739082Y200119686D01*
X235737277Y200129529D01*
X235725726Y200170365D01*
X235706972Y200203525D01*
X235670122Y200233404D01*
X235604285Y200264399D01*
X235498568Y200300906D01*
X235342079Y200347321D01*
X235123926Y200408042D01*
X234886500Y200472924D01*
X234635294Y200540723D01*
X234453109Y200587251D01*
X234327545Y200614451D01*
X234246200Y200624264D01*
X234196675Y200618633D01*
X234166566Y200599499D01*
X234156250Y200587270D01*
X234137219Y200534744D01*
X234122818Y200429504D01*
X234112663Y200264290D01*
X234106373Y200031841D01*
X234103567Y199724899D01*
X234103333Y199581828D01*
X234102388Y199248620D01*
X234097930Y198990008D01*
X234087531Y198795930D01*
X234068760Y198656324D01*
X234039188Y198561125D01*
X233996384Y198500272D01*
X233937919Y198463702D01*
X233861362Y198441351D01*
X233826245Y198434346D01*
X233652039Y198433228D01*
X233498429Y198488874D01*
X233392458Y198591016D01*
X233386662Y198601237D01*
X233369459Y198677566D01*
X233356709Y198824166D01*
X233348197Y199026770D01*
X233343710Y199271113D01*
X233343032Y199542927D01*
X233345949Y199827945D01*
X233352248Y200111902D01*
X233361714Y200380530D01*
X233374132Y200619562D01*
X233389288Y200814732D01*
X233406968Y200951774D01*
X233422851Y201010095D01*
X233471829Y201066623D01*
X233579905Y201166572D01*
X233738377Y201302652D01*
X233938543Y201467573D01*
X234171701Y201654045D01*
X234429150Y201854777D01*
X234453235Y201873309D01*
X234714627Y202076822D01*
X234957086Y202270559D01*
X235170960Y202446436D01*
X235346598Y202596371D01*
X235474348Y202712280D01*
X235544557Y202786080D01*
X235546847Y202789155D01*
X235607141Y202878114D01*
X235654877Y202967143D01*
X235691348Y203066966D01*
X235717850Y203188306D01*
X235735678Y203341888D01*
X235746128Y203538435D01*
X235750493Y203788672D01*
X235750070Y204103323D01*
X235746737Y204444347D01*
X235733167Y205593958D01*
X235587736Y205889229D01*
X235376177Y206226187D01*
X235103235Y206508171D01*
X234776958Y206727160D01*
X234716002Y206757914D01*
X234589054Y206816843D01*
X234481917Y206857495D01*
X234372905Y206883952D01*
X234240330Y206900294D01*
X234062504Y206910603D01*
X233868521Y206917391D01*
X233461324Y206915037D01*
X233461324Y206915037D01*
G37*
X233461324Y206915037D02*
X233118813Y206877185D01*
X232826858Y206799263D01*
X232571328Y206676698D01*
X232338094Y206504920D01*
X232206104Y206379542D01*
X231984995Y206099554D01*
X231826833Y205775218D01*
X231729570Y205400620D01*
X231691158Y204969847D01*
X231690334Y204890248D01*
X231695811Y204701426D01*
X231714673Y204576344D01*
X231750567Y204494638D01*
X231764417Y204476462D01*
X231829664Y204429784D01*
X231955842Y204375789D01*
X232149859Y204312008D01*
X232418618Y204235976D01*
X232493419Y204216051D01*
X232722517Y204157712D01*
X232927837Y204109376D01*
X233093252Y204074538D01*
X233202637Y204056690D01*
X233234252Y204055529D01*
X233269477Y204065768D01*
X233293948Y204093827D01*
X233310033Y204153500D01*
X233320101Y204258583D01*
X233326521Y204422871D01*
X233330855Y204618167D01*
X233338531Y204835076D01*
X233351723Y205026686D01*
X233368683Y205173791D01*
X233387659Y205257186D01*
X233389431Y205260958D01*
X233486585Y205363848D01*
X233634302Y205423340D01*
X233805205Y205429112D01*
X233826245Y205425654D01*
X233916326Y205403672D01*
X233984516Y205368758D01*
X234033837Y205310029D01*
X234067312Y205216606D01*
X234087964Y205077605D01*
X234098814Y204882148D01*
X234102886Y204619352D01*
X234103333Y204428170D01*
X234102281Y204141650D01*
X234098405Y203926456D01*
X234090628Y203769263D01*
X234077872Y203656748D01*
X234059061Y203575589D01*
X234033116Y203512461D01*
X234028576Y203503786D01*
X233964370Y203426256D01*
X233830054Y203302118D01*
X233625994Y203131679D01*
X233352561Y202915245D01*
X233010123Y202653123D01*
X232960210Y202615446D01*
X232702368Y202418799D01*
X232463092Y202231957D01*
X232251889Y202062687D01*
X232078270Y201918756D01*
X231951744Y201807931D01*
X231881821Y201737981D01*
X231875191Y201729171D01*
X231818207Y201611798D01*
X231765642Y201450697D01*
X231737057Y201323536D01*
X231722720Y201194056D01*
X231711050Y200995196D01*
X231702050Y200741403D01*
X231695724Y200447119D01*
X231692075Y200126788D01*
X231691106Y199794855D01*
X231692822Y199465763D01*
X231697225Y199153956D01*
X231704319Y198873878D01*
X231714108Y198639973D01*
X231726594Y198466684D01*
X231736348Y198392358D01*
X231843051Y198036221D01*
X232021375Y197712343D01*
X232261224Y197431608D01*
X232552508Y197204899D01*
X232885131Y197043100D01*
X233028899Y196998626D01*
X233185205Y196971367D01*
X233398549Y196952025D01*
X233643494Y196941031D01*
X233894602Y196938813D01*
X234126437Y196945799D01*
X234313561Y196962419D01*
X234387753Y196975715D01*
X234708050Y197092709D01*
X235011435Y197281146D01*
X235281968Y197527807D01*
X235503707Y197819472D01*
X235587736Y197970776D01*
X235733167Y198266052D01*
X235747495Y199148891D01*
X235750668Y199419613D01*
X235751264Y199666359D01*
X235749432Y199874823D01*
X235745322Y200030700D01*
X235739082Y200119686D01*
X235737277Y200129529D01*
X235725726Y200170365D01*
X235706972Y200203525D01*
X235670122Y200233404D01*
X235604285Y200264399D01*
X235498568Y200300906D01*
X235342079Y200347321D01*
X235123926Y200408042D01*
X234886500Y200472924D01*
X234635294Y200540723D01*
X234453109Y200587251D01*
X234327545Y200614451D01*
X234246200Y200624264D01*
X234196675Y200618633D01*
X234166566Y200599499D01*
X234156250Y200587270D01*
X234137219Y200534744D01*
X234122818Y200429504D01*
X234112663Y200264290D01*
X234106373Y200031841D01*
X234103567Y199724899D01*
X234103333Y199581828D01*
X234102388Y199248620D01*
X234097930Y198990008D01*
X234087531Y198795930D01*
X234068760Y198656324D01*
X234039188Y198561125D01*
X233996384Y198500272D01*
X233937919Y198463702D01*
X233861362Y198441351D01*
X233826245Y198434346D01*
X233652039Y198433228D01*
X233498429Y198488874D01*
X233392458Y198591016D01*
X233386662Y198601237D01*
X233369459Y198677566D01*
X233356709Y198824166D01*
X233348197Y199026770D01*
X233343710Y199271113D01*
X233343032Y199542927D01*
X233345949Y199827945D01*
X233352248Y200111902D01*
X233361714Y200380530D01*
X233374132Y200619562D01*
X233389288Y200814732D01*
X233406968Y200951774D01*
X233422851Y201010095D01*
X233471829Y201066623D01*
X233579905Y201166572D01*
X233738377Y201302652D01*
X233938543Y201467573D01*
X234171701Y201654045D01*
X234429150Y201854777D01*
X234453235Y201873309D01*
X234714627Y202076822D01*
X234957086Y202270559D01*
X235170960Y202446436D01*
X235346598Y202596371D01*
X235474348Y202712280D01*
X235544557Y202786080D01*
X235546847Y202789155D01*
X235607141Y202878114D01*
X235654877Y202967143D01*
X235691348Y203066966D01*
X235717850Y203188306D01*
X235735678Y203341888D01*
X235746128Y203538435D01*
X235750493Y203788672D01*
X235750070Y204103323D01*
X235746737Y204444347D01*
X235733167Y205593958D01*
X235587736Y205889229D01*
X235376177Y206226187D01*
X235103235Y206508171D01*
X234776958Y206727160D01*
X234716002Y206757914D01*
X234589054Y206816843D01*
X234481917Y206857495D01*
X234372905Y206883952D01*
X234240330Y206900294D01*
X234062504Y206910603D01*
X233868521Y206917391D01*
X233461324Y206915037D01*
M02*
