G04 #@! TF.GenerationSoftware,KiCad,Pcbnew,(5.1.2)-2*
G04 #@! TF.CreationDate,2019-10-16T00:28:01+08:00*
G04 #@! TF.ProjectId,BrainPower,42726169-6e50-46f7-9765-722e6b696361,rev?*
G04 #@! TF.SameCoordinates,Original*
G04 #@! TF.FileFunction,Soldermask,Bot*
G04 #@! TF.FilePolarity,Negative*
%FSLAX46Y46*%
G04 Gerber Fmt 4.6, Leading zero omitted, Abs format (unit mm)*
G04 Created by KiCad (PCBNEW (5.1.2)-2) date 2019-10-16 00:28:01*
%MOMM*%
%LPD*%
G04 APERTURE LIST*
%ADD10C,5.000000*%
%ADD11C,5.500000*%
%ADD12R,4.000000X2.000000*%
%ADD13O,3.300000X2.000000*%
%ADD14O,2.000000X3.500000*%
%ADD15C,1.600000*%
%ADD16R,0.700000X4.200000*%
%ADD17R,0.700000X3.200000*%
%ADD18C,0.254000*%
G04 APERTURE END LIST*
D10*
X198783800Y-139055400D03*
X100783800Y-139055400D03*
X198783800Y-87055400D03*
X100783800Y-87055400D03*
D11*
X80822800Y-61137800D03*
X80568800Y-146507200D03*
D12*
X215417400Y-139623800D03*
D13*
X215417400Y-133623800D03*
D14*
X219917400Y-132623800D03*
X210917400Y-132623800D03*
D15*
X215417400Y-130623800D03*
D16*
X137980000Y-152379600D03*
X133980000Y-152379600D03*
X122980000Y-152379600D03*
X120980000Y-152379600D03*
X127980000Y-152379600D03*
X124980000Y-152379600D03*
D17*
X118980000Y-151879600D03*
D16*
X123980000Y-152379600D03*
X134980000Y-152379600D03*
X131980000Y-152379600D03*
X125980000Y-152379600D03*
X128980000Y-152379600D03*
X121980000Y-152379600D03*
X119980000Y-152379600D03*
X132980000Y-152379600D03*
X135980000Y-152379600D03*
X126980000Y-152379600D03*
X136980000Y-152379600D03*
D18*
G36*
X138630000Y-155379600D02*
G01*
X138130000Y-155879600D01*
X131930000Y-155879600D01*
X131430000Y-155379600D01*
X131430000Y-150281600D01*
X138630000Y-150281600D01*
X138630000Y-155379600D01*
X138630000Y-155379600D01*
G37*
X138630000Y-155379600D02*
X138130000Y-155879600D01*
X131930000Y-155879600D01*
X131430000Y-155379600D01*
X131430000Y-150281600D01*
X138630000Y-150281600D01*
X138630000Y-155379600D01*
G36*
X129530000Y-155379600D02*
G01*
X129030000Y-155879600D01*
X118830000Y-155879600D01*
X118330000Y-155379600D01*
X118330000Y-150281600D01*
X129530000Y-150281600D01*
X129530000Y-155379600D01*
X129530000Y-155379600D01*
G37*
X129530000Y-155379600D02*
X129030000Y-155879600D01*
X118830000Y-155879600D01*
X118330000Y-155379600D01*
X118330000Y-150281600D01*
X129530000Y-150281600D01*
X129530000Y-155379600D01*
G36*
X114553000Y-151252600D02*
G01*
X106807000Y-151252600D01*
X106807000Y-148056600D01*
X114553000Y-148056600D01*
X114553000Y-151252600D01*
X114553000Y-151252600D01*
G37*
X114553000Y-151252600D02*
X106807000Y-151252600D01*
X106807000Y-148056600D01*
X114553000Y-148056600D01*
X114553000Y-151252600D01*
M02*
