G04 #@! TF.GenerationSoftware,KiCad,Pcbnew,(5.1.2)-2*
G04 #@! TF.CreationDate,2019-10-16T15:37:13+08:00*
G04 #@! TF.ProjectId,BrainPower,42726169-6e50-46f7-9765-722e6b696361,rev?*
G04 #@! TF.SameCoordinates,Original*
G04 #@! TF.FileFunction,Legend,Top*
G04 #@! TF.FilePolarity,Positive*
%FSLAX46Y46*%
G04 Gerber Fmt 4.6, Leading zero omitted, Abs format (unit mm)*
G04 Created by KiCad (PCBNEW (5.1.2)-2) date 2019-10-16 15:37:13*
%MOMM*%
%LPD*%
G04 APERTURE LIST*
%ADD10C,0.150000*%
%ADD11C,0.250000*%
%ADD12C,0.300000*%
%ADD13C,0.120000*%
%ADD14C,0.010000*%
G04 APERTURE END LIST*
D10*
X205315428Y-87094000D02*
X205101142Y-86808285D01*
X205315428Y-86522571D01*
X206672571Y-85165428D02*
X205958285Y-85665428D01*
X206672571Y-86022571D02*
X205172571Y-86022571D01*
X205172571Y-85451142D01*
X205244000Y-85308285D01*
X205315428Y-85236857D01*
X205458285Y-85165428D01*
X205672571Y-85165428D01*
X205815428Y-85236857D01*
X205886857Y-85308285D01*
X205958285Y-85451142D01*
X205958285Y-86022571D01*
X206672571Y-83736857D02*
X206672571Y-84594000D01*
X206672571Y-84165428D02*
X205172571Y-84165428D01*
X205386857Y-84308285D01*
X205529714Y-84451142D01*
X205601142Y-84594000D01*
X105239428Y-139418000D02*
X105025142Y-139132285D01*
X105239428Y-138846571D01*
X106596571Y-137489428D02*
X105882285Y-137989428D01*
X106596571Y-138346571D02*
X105096571Y-138346571D01*
X105096571Y-137775142D01*
X105168000Y-137632285D01*
X105239428Y-137560857D01*
X105382285Y-137489428D01*
X105596571Y-137489428D01*
X105739428Y-137560857D01*
X105810857Y-137632285D01*
X105882285Y-137775142D01*
X105882285Y-138346571D01*
X106596571Y-136060857D02*
X106596571Y-136918000D01*
X106596571Y-136489428D02*
X105096571Y-136489428D01*
X105310857Y-136632285D01*
X105453714Y-136775142D01*
X105525142Y-136918000D01*
X104985428Y-87602000D02*
X104771142Y-87316285D01*
X104985428Y-87030571D01*
X106342571Y-85673428D02*
X105628285Y-86173428D01*
X106342571Y-86530571D02*
X104842571Y-86530571D01*
X104842571Y-85959142D01*
X104914000Y-85816285D01*
X104985428Y-85744857D01*
X105128285Y-85673428D01*
X105342571Y-85673428D01*
X105485428Y-85744857D01*
X105556857Y-85816285D01*
X105628285Y-85959142D01*
X105628285Y-86530571D01*
X106342571Y-84244857D02*
X106342571Y-85102000D01*
X106342571Y-84673428D02*
X104842571Y-84673428D01*
X105056857Y-84816285D01*
X105199714Y-84959142D01*
X105271142Y-85102000D01*
X204807428Y-139459642D02*
X204593142Y-139173928D01*
X204807428Y-138888214D01*
X206164571Y-137531071D02*
X205450285Y-138031071D01*
X206164571Y-138388214D02*
X204664571Y-138388214D01*
X204664571Y-137816785D01*
X204736000Y-137673928D01*
X204807428Y-137602500D01*
X204950285Y-137531071D01*
X205164571Y-137531071D01*
X205307428Y-137602500D01*
X205378857Y-137673928D01*
X205450285Y-137816785D01*
X205450285Y-138388214D01*
X206164571Y-136102500D02*
X206164571Y-136959642D01*
X206164571Y-136531071D02*
X204664571Y-136531071D01*
X204878857Y-136673928D01*
X205021714Y-136816785D01*
X205093142Y-136959642D01*
X206164571Y-133102500D02*
X206164571Y-133173928D01*
X206093142Y-133316785D01*
X205878857Y-133531071D01*
X205450285Y-133888214D01*
X205236000Y-134031071D01*
X205021714Y-134102500D01*
X204878857Y-134102500D01*
X204736000Y-134031071D01*
X204664571Y-133888214D01*
X204664571Y-133816785D01*
X204736000Y-133673928D01*
X204878857Y-133602500D01*
X204950285Y-133602500D01*
X205093142Y-133673928D01*
X205164571Y-133745357D01*
X205450285Y-134173928D01*
X205521714Y-134245357D01*
X205664571Y-134316785D01*
X205878857Y-134316785D01*
X206021714Y-134245357D01*
X206093142Y-134173928D01*
X206164571Y-134031071D01*
X206164571Y-133816785D01*
X206093142Y-133673928D01*
X206021714Y-133602500D01*
X205736000Y-133388214D01*
X205521714Y-133316785D01*
X205378857Y-133316785D01*
X206164571Y-130459642D02*
X205450285Y-130959642D01*
X206164571Y-131316785D02*
X204664571Y-131316785D01*
X204664571Y-130745357D01*
X204736000Y-130602500D01*
X204807428Y-130531071D01*
X204950285Y-130459642D01*
X205164571Y-130459642D01*
X205307428Y-130531071D01*
X205378857Y-130602500D01*
X205450285Y-130745357D01*
X205450285Y-131316785D01*
X204807428Y-129888214D02*
X204736000Y-129816785D01*
X204664571Y-129673928D01*
X204664571Y-129316785D01*
X204736000Y-129173928D01*
X204807428Y-129102500D01*
X204950285Y-129031071D01*
X205093142Y-129031071D01*
X205307428Y-129102500D01*
X206164571Y-129959642D01*
X206164571Y-129031071D01*
X188043428Y-57417642D02*
X187829142Y-57131928D01*
X188043428Y-56846214D01*
X189400571Y-55489071D02*
X188686285Y-55989071D01*
X189400571Y-56346214D02*
X187900571Y-56346214D01*
X187900571Y-55774785D01*
X187972000Y-55631928D01*
X188043428Y-55560500D01*
X188186285Y-55489071D01*
X188400571Y-55489071D01*
X188543428Y-55560500D01*
X188614857Y-55631928D01*
X188686285Y-55774785D01*
X188686285Y-56346214D01*
X188043428Y-54917642D02*
X187972000Y-54846214D01*
X187900571Y-54703357D01*
X187900571Y-54346214D01*
X187972000Y-54203357D01*
X188043428Y-54131928D01*
X188186285Y-54060500D01*
X188329142Y-54060500D01*
X188543428Y-54131928D01*
X189400571Y-54989071D01*
X189400571Y-54060500D01*
X95079428Y-139459642D02*
X94865142Y-139173928D01*
X95079428Y-138888214D01*
X96436571Y-137531071D02*
X95722285Y-138031071D01*
X96436571Y-138388214D02*
X94936571Y-138388214D01*
X94936571Y-137816785D01*
X95008000Y-137673928D01*
X95079428Y-137602500D01*
X95222285Y-137531071D01*
X95436571Y-137531071D01*
X95579428Y-137602500D01*
X95650857Y-137673928D01*
X95722285Y-137816785D01*
X95722285Y-138388214D01*
X95079428Y-136959642D02*
X95008000Y-136888214D01*
X94936571Y-136745357D01*
X94936571Y-136388214D01*
X95008000Y-136245357D01*
X95079428Y-136173928D01*
X95222285Y-136102500D01*
X95365142Y-136102500D01*
X95579428Y-136173928D01*
X96436571Y-137031071D01*
X96436571Y-136102500D01*
X95079428Y-79515642D02*
X94865142Y-79229928D01*
X95079428Y-78944214D01*
X96436571Y-77587071D02*
X95722285Y-78087071D01*
X96436571Y-78444214D02*
X94936571Y-78444214D01*
X94936571Y-77872785D01*
X95008000Y-77729928D01*
X95079428Y-77658500D01*
X95222285Y-77587071D01*
X95436571Y-77587071D01*
X95579428Y-77658500D01*
X95650857Y-77729928D01*
X95722285Y-77872785D01*
X95722285Y-78444214D01*
X95079428Y-77015642D02*
X95008000Y-76944214D01*
X94936571Y-76801357D01*
X94936571Y-76444214D01*
X95008000Y-76301357D01*
X95079428Y-76229928D01*
X95222285Y-76158500D01*
X95365142Y-76158500D01*
X95579428Y-76229928D01*
X96436571Y-77087071D01*
X96436571Y-76158500D01*
X88029023Y-56015380D02*
X87695690Y-55539190D01*
X87457595Y-56015380D02*
X87457595Y-55015380D01*
X87838547Y-55015380D01*
X87933785Y-55063000D01*
X87981404Y-55110619D01*
X88029023Y-55205857D01*
X88029023Y-55348714D01*
X87981404Y-55443952D01*
X87933785Y-55491571D01*
X87838547Y-55539190D01*
X87457595Y-55539190D01*
X88790928Y-55491571D02*
X88933785Y-55539190D01*
X88981404Y-55586809D01*
X89029023Y-55682047D01*
X89029023Y-55824904D01*
X88981404Y-55920142D01*
X88933785Y-55967761D01*
X88838547Y-56015380D01*
X88457595Y-56015380D01*
X88457595Y-55015380D01*
X88790928Y-55015380D01*
X88886166Y-55063000D01*
X88933785Y-55110619D01*
X88981404Y-55205857D01*
X88981404Y-55301095D01*
X88933785Y-55396333D01*
X88886166Y-55443952D01*
X88790928Y-55491571D01*
X88457595Y-55491571D01*
X89886166Y-55348714D02*
X89886166Y-56015380D01*
X89648071Y-54967761D02*
X89409976Y-55682047D01*
X90029023Y-55682047D01*
X90886166Y-55015380D02*
X90409976Y-55015380D01*
X90362357Y-55491571D01*
X90409976Y-55443952D01*
X90505214Y-55396333D01*
X90743309Y-55396333D01*
X90838547Y-55443952D01*
X90886166Y-55491571D01*
X90933785Y-55586809D01*
X90933785Y-55824904D01*
X90886166Y-55920142D01*
X90838547Y-55967761D01*
X90743309Y-56015380D01*
X90505214Y-56015380D01*
X90409976Y-55967761D01*
X90362357Y-55920142D01*
X91552833Y-55015380D02*
X91648071Y-55015380D01*
X91743309Y-55063000D01*
X91790928Y-55110619D01*
X91838547Y-55205857D01*
X91886166Y-55396333D01*
X91886166Y-55634428D01*
X91838547Y-55824904D01*
X91790928Y-55920142D01*
X91743309Y-55967761D01*
X91648071Y-56015380D01*
X91552833Y-56015380D01*
X91457595Y-55967761D01*
X91409976Y-55920142D01*
X91362357Y-55824904D01*
X91314738Y-55634428D01*
X91314738Y-55396333D01*
X91362357Y-55205857D01*
X91409976Y-55110619D01*
X91457595Y-55063000D01*
X91552833Y-55015380D01*
X93029023Y-55967761D02*
X93171880Y-56015380D01*
X93409976Y-56015380D01*
X93505214Y-55967761D01*
X93552833Y-55920142D01*
X93600452Y-55824904D01*
X93600452Y-55729666D01*
X93552833Y-55634428D01*
X93505214Y-55586809D01*
X93409976Y-55539190D01*
X93219500Y-55491571D01*
X93124261Y-55443952D01*
X93076642Y-55396333D01*
X93029023Y-55301095D01*
X93029023Y-55205857D01*
X93076642Y-55110619D01*
X93124261Y-55063000D01*
X93219500Y-55015380D01*
X93457595Y-55015380D01*
X93600452Y-55063000D01*
X94409976Y-55967761D02*
X94314738Y-56015380D01*
X94124261Y-56015380D01*
X94029023Y-55967761D01*
X93981404Y-55872523D01*
X93981404Y-55491571D01*
X94029023Y-55396333D01*
X94124261Y-55348714D01*
X94314738Y-55348714D01*
X94409976Y-55396333D01*
X94457595Y-55491571D01*
X94457595Y-55586809D01*
X93981404Y-55682047D01*
X94886166Y-56015380D02*
X94886166Y-55348714D01*
X94886166Y-55539190D02*
X94933785Y-55443952D01*
X94981404Y-55396333D01*
X95076642Y-55348714D01*
X95171880Y-55348714D01*
X95505214Y-56015380D02*
X95505214Y-55348714D01*
X95505214Y-55015380D02*
X95457595Y-55063000D01*
X95505214Y-55110619D01*
X95552833Y-55063000D01*
X95505214Y-55015380D01*
X95505214Y-55110619D01*
X96362357Y-55967761D02*
X96267119Y-56015380D01*
X96076642Y-56015380D01*
X95981404Y-55967761D01*
X95933785Y-55872523D01*
X95933785Y-55491571D01*
X95981404Y-55396333D01*
X96076642Y-55348714D01*
X96267119Y-55348714D01*
X96362357Y-55396333D01*
X96409976Y-55491571D01*
X96409976Y-55586809D01*
X95933785Y-55682047D01*
X96790928Y-55967761D02*
X96886166Y-56015380D01*
X97076642Y-56015380D01*
X97171880Y-55967761D01*
X97219500Y-55872523D01*
X97219500Y-55824904D01*
X97171880Y-55729666D01*
X97076642Y-55682047D01*
X96933785Y-55682047D01*
X96838547Y-55634428D01*
X96790928Y-55539190D01*
X96790928Y-55491571D01*
X96838547Y-55396333D01*
X96933785Y-55348714D01*
X97076642Y-55348714D01*
X97171880Y-55396333D01*
X88029023Y-57665380D02*
X87695690Y-57189190D01*
X87457595Y-57665380D02*
X87457595Y-56665380D01*
X87838547Y-56665380D01*
X87933785Y-56713000D01*
X87981404Y-56760619D01*
X88029023Y-56855857D01*
X88029023Y-56998714D01*
X87981404Y-57093952D01*
X87933785Y-57141571D01*
X87838547Y-57189190D01*
X87457595Y-57189190D01*
X88790928Y-57141571D02*
X88933785Y-57189190D01*
X88981404Y-57236809D01*
X89029023Y-57332047D01*
X89029023Y-57474904D01*
X88981404Y-57570142D01*
X88933785Y-57617761D01*
X88838547Y-57665380D01*
X88457595Y-57665380D01*
X88457595Y-56665380D01*
X88790928Y-56665380D01*
X88886166Y-56713000D01*
X88933785Y-56760619D01*
X88981404Y-56855857D01*
X88981404Y-56951095D01*
X88933785Y-57046333D01*
X88886166Y-57093952D01*
X88790928Y-57141571D01*
X88457595Y-57141571D01*
X89600452Y-57093952D02*
X89505214Y-57046333D01*
X89457595Y-56998714D01*
X89409976Y-56903476D01*
X89409976Y-56855857D01*
X89457595Y-56760619D01*
X89505214Y-56713000D01*
X89600452Y-56665380D01*
X89790928Y-56665380D01*
X89886166Y-56713000D01*
X89933785Y-56760619D01*
X89981404Y-56855857D01*
X89981404Y-56903476D01*
X89933785Y-56998714D01*
X89886166Y-57046333D01*
X89790928Y-57093952D01*
X89600452Y-57093952D01*
X89505214Y-57141571D01*
X89457595Y-57189190D01*
X89409976Y-57284428D01*
X89409976Y-57474904D01*
X89457595Y-57570142D01*
X89505214Y-57617761D01*
X89600452Y-57665380D01*
X89790928Y-57665380D01*
X89886166Y-57617761D01*
X89933785Y-57570142D01*
X89981404Y-57474904D01*
X89981404Y-57284428D01*
X89933785Y-57189190D01*
X89886166Y-57141571D01*
X89790928Y-57093952D01*
X90886166Y-56665380D02*
X90409976Y-56665380D01*
X90362357Y-57141571D01*
X90409976Y-57093952D01*
X90505214Y-57046333D01*
X90743309Y-57046333D01*
X90838547Y-57093952D01*
X90886166Y-57141571D01*
X90933785Y-57236809D01*
X90933785Y-57474904D01*
X90886166Y-57570142D01*
X90838547Y-57617761D01*
X90743309Y-57665380D01*
X90505214Y-57665380D01*
X90409976Y-57617761D01*
X90362357Y-57570142D01*
X91552833Y-56665380D02*
X91648071Y-56665380D01*
X91743309Y-56713000D01*
X91790928Y-56760619D01*
X91838547Y-56855857D01*
X91886166Y-57046333D01*
X91886166Y-57284428D01*
X91838547Y-57474904D01*
X91790928Y-57570142D01*
X91743309Y-57617761D01*
X91648071Y-57665380D01*
X91552833Y-57665380D01*
X91457595Y-57617761D01*
X91409976Y-57570142D01*
X91362357Y-57474904D01*
X91314738Y-57284428D01*
X91314738Y-57046333D01*
X91362357Y-56855857D01*
X91409976Y-56760619D01*
X91457595Y-56713000D01*
X91552833Y-56665380D01*
X93029023Y-57617761D02*
X93171880Y-57665380D01*
X93409976Y-57665380D01*
X93505214Y-57617761D01*
X93552833Y-57570142D01*
X93600452Y-57474904D01*
X93600452Y-57379666D01*
X93552833Y-57284428D01*
X93505214Y-57236809D01*
X93409976Y-57189190D01*
X93219500Y-57141571D01*
X93124261Y-57093952D01*
X93076642Y-57046333D01*
X93029023Y-56951095D01*
X93029023Y-56855857D01*
X93076642Y-56760619D01*
X93124261Y-56713000D01*
X93219500Y-56665380D01*
X93457595Y-56665380D01*
X93600452Y-56713000D01*
X94409976Y-57617761D02*
X94314738Y-57665380D01*
X94124261Y-57665380D01*
X94029023Y-57617761D01*
X93981404Y-57522523D01*
X93981404Y-57141571D01*
X94029023Y-57046333D01*
X94124261Y-56998714D01*
X94314738Y-56998714D01*
X94409976Y-57046333D01*
X94457595Y-57141571D01*
X94457595Y-57236809D01*
X93981404Y-57332047D01*
X94886166Y-57665380D02*
X94886166Y-56998714D01*
X94886166Y-57189190D02*
X94933785Y-57093952D01*
X94981404Y-57046333D01*
X95076642Y-56998714D01*
X95171880Y-56998714D01*
X95505214Y-57665380D02*
X95505214Y-56998714D01*
X95505214Y-56665380D02*
X95457595Y-56713000D01*
X95505214Y-56760619D01*
X95552833Y-56713000D01*
X95505214Y-56665380D01*
X95505214Y-56760619D01*
X96362357Y-57617761D02*
X96267119Y-57665380D01*
X96076642Y-57665380D01*
X95981404Y-57617761D01*
X95933785Y-57522523D01*
X95933785Y-57141571D01*
X95981404Y-57046333D01*
X96076642Y-56998714D01*
X96267119Y-56998714D01*
X96362357Y-57046333D01*
X96409976Y-57141571D01*
X96409976Y-57236809D01*
X95933785Y-57332047D01*
X96790928Y-57617761D02*
X96886166Y-57665380D01*
X97076642Y-57665380D01*
X97171880Y-57617761D01*
X97219500Y-57522523D01*
X97219500Y-57474904D01*
X97171880Y-57379666D01*
X97076642Y-57332047D01*
X96933785Y-57332047D01*
X96838547Y-57284428D01*
X96790928Y-57189190D01*
X96790928Y-57141571D01*
X96838547Y-57046333D01*
X96933785Y-56998714D01*
X97076642Y-56998714D01*
X97171880Y-57046333D01*
X97935023Y-66366380D02*
X97601690Y-65890190D01*
X97363595Y-66366380D02*
X97363595Y-65366380D01*
X97744547Y-65366380D01*
X97839785Y-65414000D01*
X97887404Y-65461619D01*
X97935023Y-65556857D01*
X97935023Y-65699714D01*
X97887404Y-65794952D01*
X97839785Y-65842571D01*
X97744547Y-65890190D01*
X97363595Y-65890190D01*
X98696928Y-65842571D02*
X98839785Y-65890190D01*
X98887404Y-65937809D01*
X98935023Y-66033047D01*
X98935023Y-66175904D01*
X98887404Y-66271142D01*
X98839785Y-66318761D01*
X98744547Y-66366380D01*
X98363595Y-66366380D01*
X98363595Y-65366380D01*
X98696928Y-65366380D01*
X98792166Y-65414000D01*
X98839785Y-65461619D01*
X98887404Y-65556857D01*
X98887404Y-65652095D01*
X98839785Y-65747333D01*
X98792166Y-65794952D01*
X98696928Y-65842571D01*
X98363595Y-65842571D01*
X99268357Y-65366380D02*
X99935023Y-65366380D01*
X99506452Y-66366380D01*
X100792166Y-65366380D02*
X100315976Y-65366380D01*
X100268357Y-65842571D01*
X100315976Y-65794952D01*
X100411214Y-65747333D01*
X100649309Y-65747333D01*
X100744547Y-65794952D01*
X100792166Y-65842571D01*
X100839785Y-65937809D01*
X100839785Y-66175904D01*
X100792166Y-66271142D01*
X100744547Y-66318761D01*
X100649309Y-66366380D01*
X100411214Y-66366380D01*
X100315976Y-66318761D01*
X100268357Y-66271142D01*
X101458833Y-65366380D02*
X101554071Y-65366380D01*
X101649309Y-65414000D01*
X101696928Y-65461619D01*
X101744547Y-65556857D01*
X101792166Y-65747333D01*
X101792166Y-65985428D01*
X101744547Y-66175904D01*
X101696928Y-66271142D01*
X101649309Y-66318761D01*
X101554071Y-66366380D01*
X101458833Y-66366380D01*
X101363595Y-66318761D01*
X101315976Y-66271142D01*
X101268357Y-66175904D01*
X101220738Y-65985428D01*
X101220738Y-65747333D01*
X101268357Y-65556857D01*
X101315976Y-65461619D01*
X101363595Y-65414000D01*
X101458833Y-65366380D01*
X102935023Y-66318761D02*
X103077880Y-66366380D01*
X103315976Y-66366380D01*
X103411214Y-66318761D01*
X103458833Y-66271142D01*
X103506452Y-66175904D01*
X103506452Y-66080666D01*
X103458833Y-65985428D01*
X103411214Y-65937809D01*
X103315976Y-65890190D01*
X103125500Y-65842571D01*
X103030261Y-65794952D01*
X102982642Y-65747333D01*
X102935023Y-65652095D01*
X102935023Y-65556857D01*
X102982642Y-65461619D01*
X103030261Y-65414000D01*
X103125500Y-65366380D01*
X103363595Y-65366380D01*
X103506452Y-65414000D01*
X104315976Y-66318761D02*
X104220738Y-66366380D01*
X104030261Y-66366380D01*
X103935023Y-66318761D01*
X103887404Y-66223523D01*
X103887404Y-65842571D01*
X103935023Y-65747333D01*
X104030261Y-65699714D01*
X104220738Y-65699714D01*
X104315976Y-65747333D01*
X104363595Y-65842571D01*
X104363595Y-65937809D01*
X103887404Y-66033047D01*
X104792166Y-66366380D02*
X104792166Y-65699714D01*
X104792166Y-65890190D02*
X104839785Y-65794952D01*
X104887404Y-65747333D01*
X104982642Y-65699714D01*
X105077880Y-65699714D01*
X105411214Y-66366380D02*
X105411214Y-65699714D01*
X105411214Y-65366380D02*
X105363595Y-65414000D01*
X105411214Y-65461619D01*
X105458833Y-65414000D01*
X105411214Y-65366380D01*
X105411214Y-65461619D01*
X106268357Y-66318761D02*
X106173119Y-66366380D01*
X105982642Y-66366380D01*
X105887404Y-66318761D01*
X105839785Y-66223523D01*
X105839785Y-65842571D01*
X105887404Y-65747333D01*
X105982642Y-65699714D01*
X106173119Y-65699714D01*
X106268357Y-65747333D01*
X106315976Y-65842571D01*
X106315976Y-65937809D01*
X105839785Y-66033047D01*
X106696928Y-66318761D02*
X106792166Y-66366380D01*
X106982642Y-66366380D01*
X107077880Y-66318761D01*
X107125500Y-66223523D01*
X107125500Y-66175904D01*
X107077880Y-66080666D01*
X106982642Y-66033047D01*
X106839785Y-66033047D01*
X106744547Y-65985428D01*
X106696928Y-65890190D01*
X106696928Y-65842571D01*
X106744547Y-65747333D01*
X106839785Y-65699714D01*
X106982642Y-65699714D01*
X107077880Y-65747333D01*
X97363595Y-68016380D02*
X97363595Y-67016380D01*
X97792166Y-68016380D02*
X97792166Y-67492571D01*
X97744547Y-67397333D01*
X97649309Y-67349714D01*
X97506452Y-67349714D01*
X97411214Y-67397333D01*
X97363595Y-67444952D01*
X98220738Y-67730666D02*
X98696928Y-67730666D01*
X98125500Y-68016380D02*
X98458833Y-67016380D01*
X98792166Y-68016380D01*
X99125500Y-68016380D02*
X99125500Y-67016380D01*
X99506452Y-67016380D01*
X99601690Y-67064000D01*
X99649309Y-67111619D01*
X99696928Y-67206857D01*
X99696928Y-67349714D01*
X99649309Y-67444952D01*
X99601690Y-67492571D01*
X99506452Y-67540190D01*
X99125500Y-67540190D01*
X101030261Y-68016380D02*
X100935023Y-67968761D01*
X100887404Y-67873523D01*
X100887404Y-67016380D01*
X101411214Y-68016380D02*
X101411214Y-67349714D01*
X101411214Y-67016380D02*
X101363595Y-67064000D01*
X101411214Y-67111619D01*
X101458833Y-67064000D01*
X101411214Y-67016380D01*
X101411214Y-67111619D01*
X101744547Y-67349714D02*
X102125500Y-67349714D01*
X101887404Y-67016380D02*
X101887404Y-67873523D01*
X101935023Y-67968761D01*
X102030261Y-68016380D01*
X102125500Y-68016380D01*
X102839785Y-67968761D02*
X102744547Y-68016380D01*
X102554071Y-68016380D01*
X102458833Y-67968761D01*
X102411214Y-67873523D01*
X102411214Y-67492571D01*
X102458833Y-67397333D01*
X102554071Y-67349714D01*
X102744547Y-67349714D01*
X102839785Y-67397333D01*
X102887404Y-67492571D01*
X102887404Y-67587809D01*
X102411214Y-67683047D01*
X104030261Y-67968761D02*
X104125500Y-68016380D01*
X104315976Y-68016380D01*
X104411214Y-67968761D01*
X104458833Y-67873523D01*
X104458833Y-67825904D01*
X104411214Y-67730666D01*
X104315976Y-67683047D01*
X104173119Y-67683047D01*
X104077880Y-67635428D01*
X104030261Y-67540190D01*
X104030261Y-67492571D01*
X104077880Y-67397333D01*
X104173119Y-67349714D01*
X104315976Y-67349714D01*
X104411214Y-67397333D01*
X105268357Y-67968761D02*
X105173119Y-68016380D01*
X104982642Y-68016380D01*
X104887404Y-67968761D01*
X104839785Y-67873523D01*
X104839785Y-67492571D01*
X104887404Y-67397333D01*
X104982642Y-67349714D01*
X105173119Y-67349714D01*
X105268357Y-67397333D01*
X105315976Y-67492571D01*
X105315976Y-67587809D01*
X104839785Y-67683047D01*
X105744547Y-68016380D02*
X105744547Y-67349714D01*
X105744547Y-67540190D02*
X105792166Y-67444952D01*
X105839785Y-67397333D01*
X105935023Y-67349714D01*
X106030261Y-67349714D01*
X106363595Y-68016380D02*
X106363595Y-67349714D01*
X106363595Y-67016380D02*
X106315976Y-67064000D01*
X106363595Y-67111619D01*
X106411214Y-67064000D01*
X106363595Y-67016380D01*
X106363595Y-67111619D01*
X107220738Y-67968761D02*
X107125500Y-68016380D01*
X106935023Y-68016380D01*
X106839785Y-67968761D01*
X106792166Y-67873523D01*
X106792166Y-67492571D01*
X106839785Y-67397333D01*
X106935023Y-67349714D01*
X107125500Y-67349714D01*
X107220738Y-67397333D01*
X107268357Y-67492571D01*
X107268357Y-67587809D01*
X106792166Y-67683047D01*
X107649309Y-67968761D02*
X107744547Y-68016380D01*
X107935023Y-68016380D01*
X108030261Y-67968761D01*
X108077880Y-67873523D01*
X108077880Y-67825904D01*
X108030261Y-67730666D01*
X107935023Y-67683047D01*
X107792166Y-67683047D01*
X107696928Y-67635428D01*
X107649309Y-67540190D01*
X107649309Y-67492571D01*
X107696928Y-67397333D01*
X107792166Y-67349714D01*
X107935023Y-67349714D01*
X108030261Y-67397333D01*
X97363595Y-69666380D02*
X97363595Y-68666380D01*
X97792166Y-69666380D02*
X97792166Y-69142571D01*
X97744547Y-69047333D01*
X97649309Y-68999714D01*
X97506452Y-68999714D01*
X97411214Y-69047333D01*
X97363595Y-69094952D01*
X98220738Y-69380666D02*
X98696928Y-69380666D01*
X98125500Y-69666380D02*
X98458833Y-68666380D01*
X98792166Y-69666380D01*
X99125500Y-69666380D02*
X99125500Y-68666380D01*
X99506452Y-68666380D01*
X99601690Y-68714000D01*
X99649309Y-68761619D01*
X99696928Y-68856857D01*
X99696928Y-68999714D01*
X99649309Y-69094952D01*
X99601690Y-69142571D01*
X99506452Y-69190190D01*
X99125500Y-69190190D01*
X101315976Y-69666380D02*
X101315976Y-69142571D01*
X101268357Y-69047333D01*
X101173119Y-68999714D01*
X100982642Y-68999714D01*
X100887404Y-69047333D01*
X101315976Y-69618761D02*
X101220738Y-69666380D01*
X100982642Y-69666380D01*
X100887404Y-69618761D01*
X100839785Y-69523523D01*
X100839785Y-69428285D01*
X100887404Y-69333047D01*
X100982642Y-69285428D01*
X101220738Y-69285428D01*
X101315976Y-69237809D01*
X102220738Y-69618761D02*
X102125500Y-69666380D01*
X101935023Y-69666380D01*
X101839785Y-69618761D01*
X101792166Y-69571142D01*
X101744547Y-69475904D01*
X101744547Y-69190190D01*
X101792166Y-69094952D01*
X101839785Y-69047333D01*
X101935023Y-68999714D01*
X102125500Y-68999714D01*
X102220738Y-69047333D01*
X102601690Y-68428285D02*
X102696928Y-68380666D01*
X102839785Y-68380666D01*
X102935023Y-68428285D01*
X102982642Y-68523523D01*
X102982642Y-68618761D01*
X102935023Y-68714000D01*
X102601690Y-69047333D01*
X102982642Y-69047333D01*
D11*
X80147142Y-137759642D02*
X80242380Y-137473928D01*
X80337619Y-137378690D01*
X80528095Y-137283452D01*
X80813809Y-137283452D01*
X81004285Y-137378690D01*
X81099523Y-137473928D01*
X81194761Y-137664404D01*
X81194761Y-138426309D01*
X79194761Y-138426309D01*
X79194761Y-137759642D01*
X79290000Y-137569166D01*
X79385238Y-137473928D01*
X79575714Y-137378690D01*
X79766190Y-137378690D01*
X79956666Y-137473928D01*
X80051904Y-137569166D01*
X80147142Y-137759642D01*
X80147142Y-138426309D01*
X81194761Y-136426309D02*
X79861428Y-136426309D01*
X80242380Y-136426309D02*
X80051904Y-136331071D01*
X79956666Y-136235833D01*
X79861428Y-136045357D01*
X79861428Y-135854880D01*
X81194761Y-134331071D02*
X80147142Y-134331071D01*
X79956666Y-134426309D01*
X79861428Y-134616785D01*
X79861428Y-134997738D01*
X79956666Y-135188214D01*
X81099523Y-134331071D02*
X81194761Y-134521547D01*
X81194761Y-134997738D01*
X81099523Y-135188214D01*
X80909047Y-135283452D01*
X80718571Y-135283452D01*
X80528095Y-135188214D01*
X80432857Y-134997738D01*
X80432857Y-134521547D01*
X80337619Y-134331071D01*
X81194761Y-133378690D02*
X79861428Y-133378690D01*
X79194761Y-133378690D02*
X79290000Y-133473928D01*
X79385238Y-133378690D01*
X79290000Y-133283452D01*
X79194761Y-133378690D01*
X79385238Y-133378690D01*
X79861428Y-132426309D02*
X81194761Y-132426309D01*
X80051904Y-132426309D02*
X79956666Y-132331071D01*
X79861428Y-132140595D01*
X79861428Y-131854880D01*
X79956666Y-131664404D01*
X80147142Y-131569166D01*
X81194761Y-131569166D01*
X81194761Y-130616785D02*
X79194761Y-130616785D01*
X79194761Y-129854880D01*
X79290000Y-129664404D01*
X79385238Y-129569166D01*
X79575714Y-129473928D01*
X79861428Y-129473928D01*
X80051904Y-129569166D01*
X80147142Y-129664404D01*
X80242380Y-129854880D01*
X80242380Y-130616785D01*
X81194761Y-128331071D02*
X81099523Y-128521547D01*
X81004285Y-128616785D01*
X80813809Y-128712023D01*
X80242380Y-128712023D01*
X80051904Y-128616785D01*
X79956666Y-128521547D01*
X79861428Y-128331071D01*
X79861428Y-128045357D01*
X79956666Y-127854880D01*
X80051904Y-127759642D01*
X80242380Y-127664404D01*
X80813809Y-127664404D01*
X81004285Y-127759642D01*
X81099523Y-127854880D01*
X81194761Y-128045357D01*
X81194761Y-128331071D01*
X79861428Y-126997738D02*
X81194761Y-126616785D01*
X80242380Y-126235833D01*
X81194761Y-125854880D01*
X79861428Y-125473928D01*
X81099523Y-123950119D02*
X81194761Y-124140595D01*
X81194761Y-124521547D01*
X81099523Y-124712023D01*
X80909047Y-124807261D01*
X80147142Y-124807261D01*
X79956666Y-124712023D01*
X79861428Y-124521547D01*
X79861428Y-124140595D01*
X79956666Y-123950119D01*
X80147142Y-123854880D01*
X80337619Y-123854880D01*
X80528095Y-124807261D01*
X81194761Y-122997738D02*
X79861428Y-122997738D01*
X80242380Y-122997738D02*
X80051904Y-122902500D01*
X79956666Y-122807261D01*
X79861428Y-122616785D01*
X79861428Y-122426309D01*
X79194761Y-120521547D02*
X81194761Y-119854880D01*
X79194761Y-119188214D01*
X81099523Y-117759642D02*
X81194761Y-117950119D01*
X81194761Y-118331071D01*
X81099523Y-118521547D01*
X80909047Y-118616785D01*
X80147142Y-118616785D01*
X79956666Y-118521547D01*
X79861428Y-118331071D01*
X79861428Y-117950119D01*
X79956666Y-117759642D01*
X80147142Y-117664404D01*
X80337619Y-117664404D01*
X80528095Y-118616785D01*
X81194761Y-116807261D02*
X79861428Y-116807261D01*
X80242380Y-116807261D02*
X80051904Y-116712023D01*
X79956666Y-116616785D01*
X79861428Y-116426309D01*
X79861428Y-116235833D01*
X81099523Y-115664404D02*
X81194761Y-115473928D01*
X81194761Y-115092976D01*
X81099523Y-114902500D01*
X80909047Y-114807261D01*
X80813809Y-114807261D01*
X80623333Y-114902500D01*
X80528095Y-115092976D01*
X80528095Y-115378690D01*
X80432857Y-115569166D01*
X80242380Y-115664404D01*
X80147142Y-115664404D01*
X79956666Y-115569166D01*
X79861428Y-115378690D01*
X79861428Y-115092976D01*
X79956666Y-114902500D01*
X81194761Y-113950119D02*
X79861428Y-113950119D01*
X79194761Y-113950119D02*
X79290000Y-114045357D01*
X79385238Y-113950119D01*
X79290000Y-113854880D01*
X79194761Y-113950119D01*
X79385238Y-113950119D01*
X81194761Y-112712023D02*
X81099523Y-112902500D01*
X81004285Y-112997738D01*
X80813809Y-113092976D01*
X80242380Y-113092976D01*
X80051904Y-112997738D01*
X79956666Y-112902500D01*
X79861428Y-112712023D01*
X79861428Y-112426309D01*
X79956666Y-112235833D01*
X80051904Y-112140595D01*
X80242380Y-112045357D01*
X80813809Y-112045357D01*
X81004285Y-112140595D01*
X81099523Y-112235833D01*
X81194761Y-112426309D01*
X81194761Y-112712023D01*
X79861428Y-111188214D02*
X81194761Y-111188214D01*
X80051904Y-111188214D02*
X79956666Y-111092976D01*
X79861428Y-110902500D01*
X79861428Y-110616785D01*
X79956666Y-110426309D01*
X80147142Y-110331071D01*
X81194761Y-110331071D01*
X79194761Y-107473928D02*
X79194761Y-107283452D01*
X79290000Y-107092976D01*
X79385238Y-106997738D01*
X79575714Y-106902500D01*
X79956666Y-106807261D01*
X80432857Y-106807261D01*
X80813809Y-106902500D01*
X81004285Y-106997738D01*
X81099523Y-107092976D01*
X81194761Y-107283452D01*
X81194761Y-107473928D01*
X81099523Y-107664404D01*
X81004285Y-107759642D01*
X80813809Y-107854880D01*
X80432857Y-107950119D01*
X79956666Y-107950119D01*
X79575714Y-107854880D01*
X79385238Y-107759642D01*
X79290000Y-107664404D01*
X79194761Y-107473928D01*
X81004285Y-105950119D02*
X81099523Y-105854880D01*
X81194761Y-105950119D01*
X81099523Y-106045357D01*
X81004285Y-105950119D01*
X81194761Y-105950119D01*
X79385238Y-105092976D02*
X79290000Y-104997738D01*
X79194761Y-104807261D01*
X79194761Y-104331071D01*
X79290000Y-104140595D01*
X79385238Y-104045357D01*
X79575714Y-103950119D01*
X79766190Y-103950119D01*
X80051904Y-104045357D01*
X81194761Y-105188214D01*
X81194761Y-103950119D01*
X84444761Y-138426309D02*
X82444761Y-138426309D01*
X84444761Y-137569166D02*
X83397142Y-137569166D01*
X83206666Y-137664404D01*
X83111428Y-137854880D01*
X83111428Y-138140595D01*
X83206666Y-138331071D01*
X83301904Y-138426309D01*
X83111428Y-136902500D02*
X83111428Y-136140595D01*
X82444761Y-136616785D02*
X84159047Y-136616785D01*
X84349523Y-136521547D01*
X84444761Y-136331071D01*
X84444761Y-136140595D01*
X83111428Y-135759642D02*
X83111428Y-134997738D01*
X82444761Y-135473928D02*
X84159047Y-135473928D01*
X84349523Y-135378690D01*
X84444761Y-135188214D01*
X84444761Y-134997738D01*
X83111428Y-134331071D02*
X85111428Y-134331071D01*
X83206666Y-134331071D02*
X83111428Y-134140595D01*
X83111428Y-133759642D01*
X83206666Y-133569166D01*
X83301904Y-133473928D01*
X83492380Y-133378690D01*
X84063809Y-133378690D01*
X84254285Y-133473928D01*
X84349523Y-133569166D01*
X84444761Y-133759642D01*
X84444761Y-134140595D01*
X84349523Y-134331071D01*
X84349523Y-132616785D02*
X84444761Y-132426309D01*
X84444761Y-132045357D01*
X84349523Y-131854880D01*
X84159047Y-131759642D01*
X84063809Y-131759642D01*
X83873333Y-131854880D01*
X83778095Y-132045357D01*
X83778095Y-132331071D01*
X83682857Y-132521547D01*
X83492380Y-132616785D01*
X83397142Y-132616785D01*
X83206666Y-132521547D01*
X83111428Y-132331071D01*
X83111428Y-132045357D01*
X83206666Y-131854880D01*
X84254285Y-130902500D02*
X84349523Y-130807261D01*
X84444761Y-130902500D01*
X84349523Y-130997738D01*
X84254285Y-130902500D01*
X84444761Y-130902500D01*
X83206666Y-130902500D02*
X83301904Y-130807261D01*
X83397142Y-130902500D01*
X83301904Y-130997738D01*
X83206666Y-130902500D01*
X83397142Y-130902500D01*
X82349523Y-128521547D02*
X84920952Y-130235833D01*
X82349523Y-126426309D02*
X84920952Y-128140595D01*
X83111428Y-124902500D02*
X84730476Y-124902500D01*
X84920952Y-124997738D01*
X85016190Y-125092976D01*
X85111428Y-125283452D01*
X85111428Y-125569166D01*
X85016190Y-125759642D01*
X84349523Y-124902500D02*
X84444761Y-125092976D01*
X84444761Y-125473928D01*
X84349523Y-125664404D01*
X84254285Y-125759642D01*
X84063809Y-125854880D01*
X83492380Y-125854880D01*
X83301904Y-125759642D01*
X83206666Y-125664404D01*
X83111428Y-125473928D01*
X83111428Y-125092976D01*
X83206666Y-124902500D01*
X84444761Y-123950119D02*
X83111428Y-123950119D01*
X82444761Y-123950119D02*
X82540000Y-124045357D01*
X82635238Y-123950119D01*
X82540000Y-123854880D01*
X82444761Y-123950119D01*
X82635238Y-123950119D01*
X83111428Y-123283452D02*
X83111428Y-122521547D01*
X82444761Y-122997738D02*
X84159047Y-122997738D01*
X84349523Y-122902500D01*
X84444761Y-122712023D01*
X84444761Y-122521547D01*
X84444761Y-121854880D02*
X82444761Y-121854880D01*
X84444761Y-120997738D02*
X83397142Y-120997738D01*
X83206666Y-121092976D01*
X83111428Y-121283452D01*
X83111428Y-121569166D01*
X83206666Y-121759642D01*
X83301904Y-121854880D01*
X83111428Y-119188214D02*
X84444761Y-119188214D01*
X83111428Y-120045357D02*
X84159047Y-120045357D01*
X84349523Y-119950119D01*
X84444761Y-119759642D01*
X84444761Y-119473928D01*
X84349523Y-119283452D01*
X84254285Y-119188214D01*
X84444761Y-118235833D02*
X82444761Y-118235833D01*
X83206666Y-118235833D02*
X83111428Y-118045357D01*
X83111428Y-117664404D01*
X83206666Y-117473928D01*
X83301904Y-117378690D01*
X83492380Y-117283452D01*
X84063809Y-117283452D01*
X84254285Y-117378690D01*
X84349523Y-117473928D01*
X84444761Y-117664404D01*
X84444761Y-118045357D01*
X84349523Y-118235833D01*
X84254285Y-116426309D02*
X84349523Y-116331071D01*
X84444761Y-116426309D01*
X84349523Y-116521547D01*
X84254285Y-116426309D01*
X84444761Y-116426309D01*
X84349523Y-114616785D02*
X84444761Y-114807261D01*
X84444761Y-115188214D01*
X84349523Y-115378690D01*
X84254285Y-115473928D01*
X84063809Y-115569166D01*
X83492380Y-115569166D01*
X83301904Y-115473928D01*
X83206666Y-115378690D01*
X83111428Y-115188214D01*
X83111428Y-114807261D01*
X83206666Y-114616785D01*
X84444761Y-113473928D02*
X84349523Y-113664404D01*
X84254285Y-113759642D01*
X84063809Y-113854880D01*
X83492380Y-113854880D01*
X83301904Y-113759642D01*
X83206666Y-113664404D01*
X83111428Y-113473928D01*
X83111428Y-113188214D01*
X83206666Y-112997738D01*
X83301904Y-112902500D01*
X83492380Y-112807261D01*
X84063809Y-112807261D01*
X84254285Y-112902500D01*
X84349523Y-112997738D01*
X84444761Y-113188214D01*
X84444761Y-113473928D01*
X84444761Y-111950119D02*
X83111428Y-111950119D01*
X83301904Y-111950119D02*
X83206666Y-111854880D01*
X83111428Y-111664404D01*
X83111428Y-111378690D01*
X83206666Y-111188214D01*
X83397142Y-111092976D01*
X84444761Y-111092976D01*
X83397142Y-111092976D02*
X83206666Y-110997738D01*
X83111428Y-110807261D01*
X83111428Y-110521547D01*
X83206666Y-110331071D01*
X83397142Y-110235833D01*
X84444761Y-110235833D01*
X82349523Y-107854880D02*
X84920952Y-109569166D01*
X82444761Y-106616785D02*
X83873333Y-106616785D01*
X84159047Y-106712023D01*
X84349523Y-106902500D01*
X84444761Y-107188214D01*
X84444761Y-107378690D01*
X84444761Y-104807261D02*
X83397142Y-104807261D01*
X83206666Y-104902500D01*
X83111428Y-105092976D01*
X83111428Y-105473928D01*
X83206666Y-105664404D01*
X84349523Y-104807261D02*
X84444761Y-104997738D01*
X84444761Y-105473928D01*
X84349523Y-105664404D01*
X84159047Y-105759642D01*
X83968571Y-105759642D01*
X83778095Y-105664404D01*
X83682857Y-105473928D01*
X83682857Y-104997738D01*
X83587619Y-104807261D01*
X84444761Y-103854880D02*
X83111428Y-103854880D01*
X83301904Y-103854880D02*
X83206666Y-103759642D01*
X83111428Y-103569166D01*
X83111428Y-103283452D01*
X83206666Y-103092976D01*
X83397142Y-102997738D01*
X84444761Y-102997738D01*
X83397142Y-102997738D02*
X83206666Y-102902500D01*
X83111428Y-102712023D01*
X83111428Y-102426309D01*
X83206666Y-102235833D01*
X83397142Y-102140595D01*
X84444761Y-102140595D01*
X84349523Y-100426309D02*
X84444761Y-100616785D01*
X84444761Y-100997738D01*
X84349523Y-101188214D01*
X84159047Y-101283452D01*
X83397142Y-101283452D01*
X83206666Y-101188214D01*
X83111428Y-100997738D01*
X83111428Y-100616785D01*
X83206666Y-100426309D01*
X83397142Y-100331071D01*
X83587619Y-100331071D01*
X83778095Y-101283452D01*
X84349523Y-99569166D02*
X84444761Y-99378690D01*
X84444761Y-98997738D01*
X84349523Y-98807261D01*
X84159047Y-98712023D01*
X84063809Y-98712023D01*
X83873333Y-98807261D01*
X83778095Y-98997738D01*
X83778095Y-99283452D01*
X83682857Y-99473928D01*
X83492380Y-99569166D01*
X83397142Y-99569166D01*
X83206666Y-99473928D01*
X83111428Y-99283452D01*
X83111428Y-98997738D01*
X83206666Y-98807261D01*
X84444761Y-97854880D02*
X83111428Y-97854880D01*
X82444761Y-97854880D02*
X82540000Y-97950119D01*
X82635238Y-97854880D01*
X82540000Y-97759642D01*
X82444761Y-97854880D01*
X82635238Y-97854880D01*
X83111428Y-97188214D02*
X83111428Y-96426309D01*
X82444761Y-96902500D02*
X84159047Y-96902500D01*
X84349523Y-96807261D01*
X84444761Y-96616785D01*
X84444761Y-96426309D01*
X84349523Y-95854880D02*
X84444761Y-95664404D01*
X84444761Y-95283452D01*
X84349523Y-95092976D01*
X84159047Y-94997738D01*
X84063809Y-94997738D01*
X83873333Y-95092976D01*
X83778095Y-95283452D01*
X83778095Y-95569166D01*
X83682857Y-95759642D01*
X83492380Y-95854880D01*
X83397142Y-95854880D01*
X83206666Y-95759642D01*
X83111428Y-95569166D01*
X83111428Y-95283452D01*
X83206666Y-95092976D01*
X82349523Y-92712023D02*
X84920952Y-94426309D01*
X83397142Y-91378690D02*
X83492380Y-91092976D01*
X83587619Y-90997738D01*
X83778095Y-90902500D01*
X84063809Y-90902500D01*
X84254285Y-90997738D01*
X84349523Y-91092976D01*
X84444761Y-91283452D01*
X84444761Y-92045357D01*
X82444761Y-92045357D01*
X82444761Y-91378690D01*
X82540000Y-91188214D01*
X82635238Y-91092976D01*
X82825714Y-90997738D01*
X83016190Y-90997738D01*
X83206666Y-91092976D01*
X83301904Y-91188214D01*
X83397142Y-91378690D01*
X83397142Y-92045357D01*
X84444761Y-90045357D02*
X83111428Y-90045357D01*
X83492380Y-90045357D02*
X83301904Y-89950119D01*
X83206666Y-89854880D01*
X83111428Y-89664404D01*
X83111428Y-89473928D01*
X84444761Y-87950119D02*
X83397142Y-87950119D01*
X83206666Y-88045357D01*
X83111428Y-88235833D01*
X83111428Y-88616785D01*
X83206666Y-88807261D01*
X84349523Y-87950119D02*
X84444761Y-88140595D01*
X84444761Y-88616785D01*
X84349523Y-88807261D01*
X84159047Y-88902500D01*
X83968571Y-88902500D01*
X83778095Y-88807261D01*
X83682857Y-88616785D01*
X83682857Y-88140595D01*
X83587619Y-87950119D01*
X84444761Y-86997738D02*
X83111428Y-86997738D01*
X82444761Y-86997738D02*
X82540000Y-87092976D01*
X82635238Y-86997738D01*
X82540000Y-86902500D01*
X82444761Y-86997738D01*
X82635238Y-86997738D01*
X83111428Y-86045357D02*
X84444761Y-86045357D01*
X83301904Y-86045357D02*
X83206666Y-85950119D01*
X83111428Y-85759642D01*
X83111428Y-85473928D01*
X83206666Y-85283452D01*
X83397142Y-85188214D01*
X84444761Y-85188214D01*
X84444761Y-84235833D02*
X82444761Y-84235833D01*
X82444761Y-83473928D01*
X82540000Y-83283452D01*
X82635238Y-83188214D01*
X82825714Y-83092976D01*
X83111428Y-83092976D01*
X83301904Y-83188214D01*
X83397142Y-83283452D01*
X83492380Y-83473928D01*
X83492380Y-84235833D01*
X84444761Y-81950119D02*
X84349523Y-82140595D01*
X84254285Y-82235833D01*
X84063809Y-82331071D01*
X83492380Y-82331071D01*
X83301904Y-82235833D01*
X83206666Y-82140595D01*
X83111428Y-81950119D01*
X83111428Y-81664404D01*
X83206666Y-81473928D01*
X83301904Y-81378690D01*
X83492380Y-81283452D01*
X84063809Y-81283452D01*
X84254285Y-81378690D01*
X84349523Y-81473928D01*
X84444761Y-81664404D01*
X84444761Y-81950119D01*
X83111428Y-80616785D02*
X84444761Y-80235833D01*
X83492380Y-79854880D01*
X84444761Y-79473928D01*
X83111428Y-79092976D01*
X84349523Y-77569166D02*
X84444761Y-77759642D01*
X84444761Y-78140595D01*
X84349523Y-78331071D01*
X84159047Y-78426309D01*
X83397142Y-78426309D01*
X83206666Y-78331071D01*
X83111428Y-78140595D01*
X83111428Y-77759642D01*
X83206666Y-77569166D01*
X83397142Y-77473928D01*
X83587619Y-77473928D01*
X83778095Y-78426309D01*
X84444761Y-76616785D02*
X83111428Y-76616785D01*
X83492380Y-76616785D02*
X83301904Y-76521547D01*
X83206666Y-76426309D01*
X83111428Y-76235833D01*
X83111428Y-76045357D01*
D12*
X213392190Y-116857857D02*
X214916000Y-116857857D01*
X218916000Y-116857857D02*
X220439809Y-116857857D01*
X219677904Y-117619761D02*
X219677904Y-116095952D01*
X211868380Y-120919761D02*
X211868380Y-118919761D01*
X212344571Y-118919761D01*
X212630285Y-119015000D01*
X212820761Y-119205476D01*
X212916000Y-119395952D01*
X213011238Y-119776904D01*
X213011238Y-120062619D01*
X212916000Y-120443571D01*
X212820761Y-120634047D01*
X212630285Y-120824523D01*
X212344571Y-120919761D01*
X211868380Y-120919761D01*
X215011238Y-120729285D02*
X214916000Y-120824523D01*
X214630285Y-120919761D01*
X214439809Y-120919761D01*
X214154095Y-120824523D01*
X213963619Y-120634047D01*
X213868380Y-120443571D01*
X213773142Y-120062619D01*
X213773142Y-119776904D01*
X213868380Y-119395952D01*
X213963619Y-119205476D01*
X214154095Y-119015000D01*
X214439809Y-118919761D01*
X214630285Y-118919761D01*
X214916000Y-119015000D01*
X215011238Y-119110238D01*
X218439809Y-120919761D02*
X217296952Y-120919761D01*
X217868380Y-120919761D02*
X217868380Y-118919761D01*
X217677904Y-119205476D01*
X217487428Y-119395952D01*
X217296952Y-119491190D01*
X219201714Y-119110238D02*
X219296952Y-119015000D01*
X219487428Y-118919761D01*
X219963619Y-118919761D01*
X220154095Y-119015000D01*
X220249333Y-119110238D01*
X220344571Y-119300714D01*
X220344571Y-119491190D01*
X220249333Y-119776904D01*
X219106476Y-120919761D01*
X220344571Y-120919761D01*
X220916000Y-118919761D02*
X221582666Y-120919761D01*
X222249333Y-118919761D01*
X212487428Y-124029285D02*
X212392190Y-124124523D01*
X212106476Y-124219761D01*
X211916000Y-124219761D01*
X211630285Y-124124523D01*
X211439809Y-123934047D01*
X211344571Y-123743571D01*
X211249333Y-123362619D01*
X211249333Y-123076904D01*
X211344571Y-122695952D01*
X211439809Y-122505476D01*
X211630285Y-122315000D01*
X211916000Y-122219761D01*
X212106476Y-122219761D01*
X212392190Y-122315000D01*
X212487428Y-122410238D01*
X214106476Y-124124523D02*
X213916000Y-124219761D01*
X213535047Y-124219761D01*
X213344571Y-124124523D01*
X213249333Y-123934047D01*
X213249333Y-123172142D01*
X213344571Y-122981666D01*
X213535047Y-122886428D01*
X213916000Y-122886428D01*
X214106476Y-122981666D01*
X214201714Y-123172142D01*
X214201714Y-123362619D01*
X213249333Y-123553095D01*
X215058857Y-122886428D02*
X215058857Y-124219761D01*
X215058857Y-123076904D02*
X215154095Y-122981666D01*
X215344571Y-122886428D01*
X215630285Y-122886428D01*
X215820761Y-122981666D01*
X215916000Y-123172142D01*
X215916000Y-124219761D01*
X216582666Y-122886428D02*
X217344571Y-122886428D01*
X216868380Y-122219761D02*
X216868380Y-123934047D01*
X216963619Y-124124523D01*
X217154095Y-124219761D01*
X217344571Y-124219761D01*
X218773142Y-124124523D02*
X218582666Y-124219761D01*
X218201714Y-124219761D01*
X218011238Y-124124523D01*
X217916000Y-123934047D01*
X217916000Y-123172142D01*
X218011238Y-122981666D01*
X218201714Y-122886428D01*
X218582666Y-122886428D01*
X218773142Y-122981666D01*
X218868380Y-123172142D01*
X218868380Y-123362619D01*
X217916000Y-123553095D01*
X219725523Y-124219761D02*
X219725523Y-122886428D01*
X219725523Y-123267380D02*
X219820761Y-123076904D01*
X219916000Y-122981666D01*
X220106476Y-122886428D01*
X220296952Y-122886428D01*
X220963619Y-123457857D02*
X222487428Y-123457857D01*
X221725523Y-124219761D02*
X221725523Y-122695952D01*
D13*
X203000000Y-59500000D02*
X203000000Y-63000000D01*
X97000000Y-59500000D02*
X203000000Y-59500000D01*
X97000000Y-59500000D02*
X97000000Y-63000000D01*
X97000000Y-63000000D02*
X97000000Y-143000000D01*
X203000000Y-63000000D02*
X97000000Y-63000000D01*
X203000000Y-143000000D02*
X203000000Y-63000000D01*
X97000000Y-143000000D02*
X203000000Y-143000000D01*
X87000000Y-53000000D02*
X87000000Y-143000000D01*
X203000000Y-143000000D02*
X203000000Y-53000000D01*
X203000000Y-53000000D02*
X177000000Y-53000000D01*
X210500000Y-143000000D02*
X210500000Y-53000000D01*
X177000000Y-48600000D02*
X203000000Y-48600000D01*
X210500000Y-53000000D02*
X203000000Y-53000000D01*
X87000000Y-143000000D02*
X203000000Y-143000000D01*
X87000000Y-53000000D02*
X87000000Y-48600000D01*
X203000000Y-143000000D02*
X210500000Y-143000000D01*
X204500000Y-143000000D02*
X204500000Y-53000000D01*
X203000000Y-48600000D02*
X203000000Y-53000000D01*
X114000000Y-53000000D02*
X87000000Y-53000000D01*
X87000000Y-48600000D02*
X114000000Y-48600000D01*
X211336000Y-106275000D02*
X213336000Y-106275000D01*
X211336000Y-107525000D02*
X211336000Y-106275000D01*
X220956000Y-113275000D02*
X220206000Y-113275000D01*
X220956000Y-108975000D02*
X220956000Y-113275000D01*
X220206000Y-108975000D02*
X220956000Y-108975000D01*
X220206000Y-108625000D02*
X220206000Y-108975000D01*
X220706000Y-108625000D02*
X220206000Y-108625000D01*
X220956000Y-107625000D02*
X220706000Y-108625000D01*
X217956000Y-107625000D02*
X220956000Y-107625000D01*
X218206000Y-108625000D02*
X217956000Y-107625000D01*
X218706000Y-108625000D02*
X218206000Y-108625000D01*
X218706000Y-108975000D02*
X218706000Y-108625000D01*
X217956000Y-108975000D02*
X218706000Y-108975000D01*
X217956000Y-113275000D02*
X217956000Y-108975000D01*
X218706000Y-113275000D02*
X217956000Y-113275000D01*
X215876000Y-113275000D02*
X215126000Y-113275000D01*
X215876000Y-108975000D02*
X215876000Y-113275000D01*
X215126000Y-108975000D02*
X215876000Y-108975000D01*
X215126000Y-108625000D02*
X215126000Y-108975000D01*
X215626000Y-108625000D02*
X215126000Y-108625000D01*
X215876000Y-107625000D02*
X215626000Y-108625000D01*
X212876000Y-107625000D02*
X215876000Y-107625000D01*
X213126000Y-108625000D02*
X212876000Y-107625000D01*
X213626000Y-108625000D02*
X213126000Y-108625000D01*
X213626000Y-108975000D02*
X213626000Y-108625000D01*
X212876000Y-108975000D02*
X213626000Y-108975000D01*
X212876000Y-113275000D02*
X212876000Y-108975000D01*
X213626000Y-113275000D02*
X212876000Y-113275000D01*
X222106000Y-106665000D02*
X211726000Y-106665000D01*
X222106000Y-114135000D02*
X222106000Y-106665000D01*
X211726000Y-114135000D02*
X222106000Y-114135000D01*
X211726000Y-106665000D02*
X211726000Y-114135000D01*
X220205647Y-113274845D02*
G75*
G03X218706000Y-113275000I-749647J-1700155D01*
G01*
X215125647Y-113274845D02*
G75*
G03X213626000Y-113275000I-749647J-1700155D01*
G01*
X221770000Y-140600000D02*
X219170000Y-140600000D01*
X221770000Y-125900000D02*
X221770000Y-140600000D01*
X212570000Y-140600000D02*
X212570000Y-138700000D01*
X215270000Y-140600000D02*
X212570000Y-140600000D01*
X212570000Y-125900000D02*
X221770000Y-125900000D01*
X212570000Y-134700000D02*
X212570000Y-125900000D01*
X221970000Y-139750000D02*
X221970000Y-140800000D01*
X220920000Y-140800000D02*
X221970000Y-140800000D01*
D14*
G36*
X154869818Y-48151927D02*
G01*
X155110109Y-48158139D01*
X155277584Y-48168914D01*
X155378124Y-48184600D01*
X155414133Y-48200733D01*
X155427894Y-48238042D01*
X155439233Y-48323623D01*
X155448319Y-48463040D01*
X155455318Y-48661855D01*
X155460396Y-48925631D01*
X155463720Y-49259930D01*
X155465457Y-49670316D01*
X155465793Y-49925817D01*
X155466653Y-51600100D01*
X156166792Y-49949672D01*
X156317775Y-49595736D01*
X156460785Y-49264259D01*
X156592022Y-48963777D01*
X156707686Y-48702825D01*
X156803975Y-48489941D01*
X156877088Y-48333660D01*
X156923226Y-48242519D01*
X156935236Y-48223768D01*
X156964645Y-48198568D01*
X157008443Y-48179954D01*
X157078040Y-48167165D01*
X157184845Y-48159440D01*
X157340264Y-48156017D01*
X157555708Y-48156135D01*
X157842583Y-48159033D01*
X157895267Y-48159696D01*
X158195706Y-48164243D01*
X158421838Y-48169759D01*
X158584026Y-48177139D01*
X158692630Y-48187279D01*
X158758011Y-48201074D01*
X158790529Y-48219419D01*
X158799827Y-48237878D01*
X158785124Y-48287867D01*
X158738208Y-48407630D01*
X158662200Y-48589999D01*
X158560219Y-48827808D01*
X158435385Y-49113889D01*
X158290819Y-49441074D01*
X158129640Y-49802195D01*
X157954968Y-50190086D01*
X157832398Y-50460378D01*
X157648837Y-50864696D01*
X157474986Y-51248868D01*
X157314177Y-51605446D01*
X157169744Y-51926981D01*
X157045020Y-52206023D01*
X156943337Y-52435124D01*
X156868029Y-52606833D01*
X156822429Y-52713703D01*
X156810411Y-52744517D01*
X156804787Y-52776288D01*
X156806372Y-52822166D01*
X156816950Y-52887711D01*
X156838307Y-52978482D01*
X156872227Y-53100039D01*
X156920496Y-53257942D01*
X156984899Y-53457749D01*
X157067222Y-53705021D01*
X157169248Y-54005317D01*
X157292764Y-54364197D01*
X157439554Y-54787220D01*
X157611404Y-55279946D01*
X157771360Y-55737286D01*
X157936252Y-56209952D01*
X158092290Y-56660378D01*
X158237278Y-57082032D01*
X158369022Y-57468377D01*
X158485324Y-57812880D01*
X158583991Y-58109005D01*
X158662827Y-58350217D01*
X158719636Y-58529983D01*
X158752223Y-58641768D01*
X158759346Y-58678036D01*
X158748680Y-58703590D01*
X158720675Y-58723019D01*
X158664615Y-58737362D01*
X158569788Y-58747656D01*
X158425480Y-58754938D01*
X158220976Y-58760248D01*
X157945564Y-58764622D01*
X157852934Y-58765837D01*
X157553693Y-58769101D01*
X157327745Y-58769701D01*
X157163737Y-58766884D01*
X157050319Y-58759896D01*
X156976136Y-58747984D01*
X156929838Y-58730393D01*
X156900072Y-58706371D01*
X156896479Y-58702337D01*
X156870041Y-58646973D01*
X156821187Y-58519672D01*
X156752946Y-58329253D01*
X156668344Y-58084533D01*
X156570408Y-57794328D01*
X156462167Y-57467457D01*
X156346647Y-57112737D01*
X156285925Y-56924013D01*
X156169463Y-56562059D01*
X156060512Y-56226336D01*
X155961838Y-55925160D01*
X155876210Y-55666845D01*
X155806394Y-55459708D01*
X155755158Y-55312064D01*
X155725268Y-55232228D01*
X155718933Y-55220234D01*
X155693890Y-55256195D01*
X155647396Y-55351411D01*
X155588911Y-55486314D01*
X155581026Y-55505488D01*
X155464286Y-55791100D01*
X155464609Y-57232550D01*
X155463839Y-57652999D01*
X155461189Y-57994654D01*
X155456461Y-58263371D01*
X155449456Y-58465005D01*
X155439977Y-58605413D01*
X155427826Y-58690451D01*
X155414133Y-58724800D01*
X155361466Y-58744958D01*
X155245532Y-58759747D01*
X155060554Y-58769517D01*
X154800753Y-58774619D01*
X154575933Y-58775600D01*
X154261386Y-58773503D01*
X154025630Y-58766977D01*
X153862888Y-58755674D01*
X153767381Y-58739241D01*
X153737733Y-58724800D01*
X153729788Y-58697721D01*
X153722642Y-58630890D01*
X153716259Y-58520847D01*
X153710608Y-58364136D01*
X153705654Y-58157299D01*
X153701364Y-57896878D01*
X153697705Y-57579415D01*
X153694643Y-57201452D01*
X153692144Y-56759533D01*
X153690176Y-56250198D01*
X153688704Y-55669990D01*
X153687695Y-55015452D01*
X153687116Y-54283126D01*
X153686933Y-53478929D01*
X153687139Y-52821759D01*
X153687739Y-52187568D01*
X153688709Y-51581560D01*
X153690022Y-51008940D01*
X153691653Y-50474912D01*
X153693578Y-49984681D01*
X153695770Y-49543452D01*
X153698204Y-49156428D01*
X153700854Y-48828814D01*
X153703696Y-48565815D01*
X153706704Y-48372635D01*
X153709852Y-48254479D01*
X153712629Y-48216896D01*
X153731414Y-48193370D01*
X153774512Y-48175979D01*
X153852985Y-48163839D01*
X153977900Y-48156065D01*
X154160320Y-48151775D01*
X154411310Y-48150083D01*
X154550829Y-48149933D01*
X154869818Y-48151927D01*
X154869818Y-48151927D01*
G37*
X154869818Y-48151927D02*
X155110109Y-48158139D01*
X155277584Y-48168914D01*
X155378124Y-48184600D01*
X155414133Y-48200733D01*
X155427894Y-48238042D01*
X155439233Y-48323623D01*
X155448319Y-48463040D01*
X155455318Y-48661855D01*
X155460396Y-48925631D01*
X155463720Y-49259930D01*
X155465457Y-49670316D01*
X155465793Y-49925817D01*
X155466653Y-51600100D01*
X156166792Y-49949672D01*
X156317775Y-49595736D01*
X156460785Y-49264259D01*
X156592022Y-48963777D01*
X156707686Y-48702825D01*
X156803975Y-48489941D01*
X156877088Y-48333660D01*
X156923226Y-48242519D01*
X156935236Y-48223768D01*
X156964645Y-48198568D01*
X157008443Y-48179954D01*
X157078040Y-48167165D01*
X157184845Y-48159440D01*
X157340264Y-48156017D01*
X157555708Y-48156135D01*
X157842583Y-48159033D01*
X157895267Y-48159696D01*
X158195706Y-48164243D01*
X158421838Y-48169759D01*
X158584026Y-48177139D01*
X158692630Y-48187279D01*
X158758011Y-48201074D01*
X158790529Y-48219419D01*
X158799827Y-48237878D01*
X158785124Y-48287867D01*
X158738208Y-48407630D01*
X158662200Y-48589999D01*
X158560219Y-48827808D01*
X158435385Y-49113889D01*
X158290819Y-49441074D01*
X158129640Y-49802195D01*
X157954968Y-50190086D01*
X157832398Y-50460378D01*
X157648837Y-50864696D01*
X157474986Y-51248868D01*
X157314177Y-51605446D01*
X157169744Y-51926981D01*
X157045020Y-52206023D01*
X156943337Y-52435124D01*
X156868029Y-52606833D01*
X156822429Y-52713703D01*
X156810411Y-52744517D01*
X156804787Y-52776288D01*
X156806372Y-52822166D01*
X156816950Y-52887711D01*
X156838307Y-52978482D01*
X156872227Y-53100039D01*
X156920496Y-53257942D01*
X156984899Y-53457749D01*
X157067222Y-53705021D01*
X157169248Y-54005317D01*
X157292764Y-54364197D01*
X157439554Y-54787220D01*
X157611404Y-55279946D01*
X157771360Y-55737286D01*
X157936252Y-56209952D01*
X158092290Y-56660378D01*
X158237278Y-57082032D01*
X158369022Y-57468377D01*
X158485324Y-57812880D01*
X158583991Y-58109005D01*
X158662827Y-58350217D01*
X158719636Y-58529983D01*
X158752223Y-58641768D01*
X158759346Y-58678036D01*
X158748680Y-58703590D01*
X158720675Y-58723019D01*
X158664615Y-58737362D01*
X158569788Y-58747656D01*
X158425480Y-58754938D01*
X158220976Y-58760248D01*
X157945564Y-58764622D01*
X157852934Y-58765837D01*
X157553693Y-58769101D01*
X157327745Y-58769701D01*
X157163737Y-58766884D01*
X157050319Y-58759896D01*
X156976136Y-58747984D01*
X156929838Y-58730393D01*
X156900072Y-58706371D01*
X156896479Y-58702337D01*
X156870041Y-58646973D01*
X156821187Y-58519672D01*
X156752946Y-58329253D01*
X156668344Y-58084533D01*
X156570408Y-57794328D01*
X156462167Y-57467457D01*
X156346647Y-57112737D01*
X156285925Y-56924013D01*
X156169463Y-56562059D01*
X156060512Y-56226336D01*
X155961838Y-55925160D01*
X155876210Y-55666845D01*
X155806394Y-55459708D01*
X155755158Y-55312064D01*
X155725268Y-55232228D01*
X155718933Y-55220234D01*
X155693890Y-55256195D01*
X155647396Y-55351411D01*
X155588911Y-55486314D01*
X155581026Y-55505488D01*
X155464286Y-55791100D01*
X155464609Y-57232550D01*
X155463839Y-57652999D01*
X155461189Y-57994654D01*
X155456461Y-58263371D01*
X155449456Y-58465005D01*
X155439977Y-58605413D01*
X155427826Y-58690451D01*
X155414133Y-58724800D01*
X155361466Y-58744958D01*
X155245532Y-58759747D01*
X155060554Y-58769517D01*
X154800753Y-58774619D01*
X154575933Y-58775600D01*
X154261386Y-58773503D01*
X154025630Y-58766977D01*
X153862888Y-58755674D01*
X153767381Y-58739241D01*
X153737733Y-58724800D01*
X153729788Y-58697721D01*
X153722642Y-58630890D01*
X153716259Y-58520847D01*
X153710608Y-58364136D01*
X153705654Y-58157299D01*
X153701364Y-57896878D01*
X153697705Y-57579415D01*
X153694643Y-57201452D01*
X153692144Y-56759533D01*
X153690176Y-56250198D01*
X153688704Y-55669990D01*
X153687695Y-55015452D01*
X153687116Y-54283126D01*
X153686933Y-53478929D01*
X153687139Y-52821759D01*
X153687739Y-52187568D01*
X153688709Y-51581560D01*
X153690022Y-51008940D01*
X153691653Y-50474912D01*
X153693578Y-49984681D01*
X153695770Y-49543452D01*
X153698204Y-49156428D01*
X153700854Y-48828814D01*
X153703696Y-48565815D01*
X153706704Y-48372635D01*
X153709852Y-48254479D01*
X153712629Y-48216896D01*
X153731414Y-48193370D01*
X153774512Y-48175979D01*
X153852985Y-48163839D01*
X153977900Y-48156065D01*
X154160320Y-48151775D01*
X154411310Y-48150083D01*
X154550829Y-48149933D01*
X154869818Y-48151927D01*
G36*
X146364243Y-48148735D02*
G01*
X146583465Y-48154570D01*
X146770993Y-48164549D01*
X146910217Y-48178671D01*
X146984529Y-48196936D01*
X146989800Y-48200733D01*
X146997733Y-48227794D01*
X147004870Y-48294595D01*
X147011245Y-48404588D01*
X147016891Y-48561227D01*
X147021842Y-48767964D01*
X147026131Y-49028252D01*
X147029790Y-49345543D01*
X147032855Y-49723290D01*
X147035357Y-50164946D01*
X147037330Y-50673965D01*
X147038807Y-51253797D01*
X147039822Y-51907897D01*
X147040409Y-52639716D01*
X147040600Y-53452708D01*
X147040600Y-53462767D01*
X147040413Y-54276734D01*
X147039832Y-55009488D01*
X147038822Y-55664482D01*
X147037350Y-56245168D01*
X147035383Y-56754999D01*
X147032887Y-57197427D01*
X147029830Y-57575906D01*
X147026177Y-57893888D01*
X147021896Y-58154826D01*
X147016954Y-58362173D01*
X147011316Y-58519381D01*
X147004949Y-58629903D01*
X146997821Y-58697191D01*
X146989898Y-58724700D01*
X146989800Y-58724800D01*
X146937133Y-58744958D01*
X146821199Y-58759747D01*
X146636220Y-58769517D01*
X146376419Y-58774619D01*
X146151600Y-58775600D01*
X145837053Y-58773503D01*
X145601297Y-58766977D01*
X145438555Y-58755674D01*
X145343048Y-58739241D01*
X145313400Y-58724800D01*
X145305512Y-58675321D01*
X145298230Y-58547444D01*
X145291554Y-58347436D01*
X145285485Y-58081563D01*
X145280022Y-57756091D01*
X145275165Y-57377288D01*
X145270915Y-56951420D01*
X145267271Y-56484754D01*
X145264233Y-55983556D01*
X145261802Y-55454092D01*
X145259976Y-54902629D01*
X145258758Y-54335435D01*
X145258145Y-53758775D01*
X145258139Y-53178915D01*
X145258738Y-52602124D01*
X145259945Y-52034666D01*
X145261757Y-51482809D01*
X145264176Y-50952819D01*
X145267201Y-50450963D01*
X145270832Y-49983508D01*
X145275070Y-49556720D01*
X145279914Y-49176865D01*
X145285364Y-48850210D01*
X145291421Y-48583022D01*
X145298084Y-48381567D01*
X145305353Y-48252112D01*
X145313228Y-48200924D01*
X145313400Y-48200733D01*
X145374011Y-48181709D01*
X145502578Y-48166827D01*
X145682494Y-48156089D01*
X145897149Y-48149495D01*
X146129935Y-48147043D01*
X146364243Y-48148735D01*
X146364243Y-48148735D01*
G37*
X146364243Y-48148735D02*
X146583465Y-48154570D01*
X146770993Y-48164549D01*
X146910217Y-48178671D01*
X146984529Y-48196936D01*
X146989800Y-48200733D01*
X146997733Y-48227794D01*
X147004870Y-48294595D01*
X147011245Y-48404588D01*
X147016891Y-48561227D01*
X147021842Y-48767964D01*
X147026131Y-49028252D01*
X147029790Y-49345543D01*
X147032855Y-49723290D01*
X147035357Y-50164946D01*
X147037330Y-50673965D01*
X147038807Y-51253797D01*
X147039822Y-51907897D01*
X147040409Y-52639716D01*
X147040600Y-53452708D01*
X147040600Y-53462767D01*
X147040413Y-54276734D01*
X147039832Y-55009488D01*
X147038822Y-55664482D01*
X147037350Y-56245168D01*
X147035383Y-56754999D01*
X147032887Y-57197427D01*
X147029830Y-57575906D01*
X147026177Y-57893888D01*
X147021896Y-58154826D01*
X147016954Y-58362173D01*
X147011316Y-58519381D01*
X147004949Y-58629903D01*
X146997821Y-58697191D01*
X146989898Y-58724700D01*
X146989800Y-58724800D01*
X146937133Y-58744958D01*
X146821199Y-58759747D01*
X146636220Y-58769517D01*
X146376419Y-58774619D01*
X146151600Y-58775600D01*
X145837053Y-58773503D01*
X145601297Y-58766977D01*
X145438555Y-58755674D01*
X145343048Y-58739241D01*
X145313400Y-58724800D01*
X145305512Y-58675321D01*
X145298230Y-58547444D01*
X145291554Y-58347436D01*
X145285485Y-58081563D01*
X145280022Y-57756091D01*
X145275165Y-57377288D01*
X145270915Y-56951420D01*
X145267271Y-56484754D01*
X145264233Y-55983556D01*
X145261802Y-55454092D01*
X145259976Y-54902629D01*
X145258758Y-54335435D01*
X145258145Y-53758775D01*
X145258139Y-53178915D01*
X145258738Y-52602124D01*
X145259945Y-52034666D01*
X145261757Y-51482809D01*
X145264176Y-50952819D01*
X145267201Y-50450963D01*
X145270832Y-49983508D01*
X145275070Y-49556720D01*
X145279914Y-49176865D01*
X145285364Y-48850210D01*
X145291421Y-48583022D01*
X145298084Y-48381567D01*
X145305353Y-48252112D01*
X145313228Y-48200924D01*
X145313400Y-48200733D01*
X145374011Y-48181709D01*
X145502578Y-48166827D01*
X145682494Y-48156089D01*
X145897149Y-48149495D01*
X146129935Y-48147043D01*
X146364243Y-48148735D01*
G36*
X140226336Y-48148464D02*
G01*
X140445280Y-48155338D01*
X140632814Y-48166512D01*
X140772472Y-48181928D01*
X140847790Y-48201529D01*
X140854252Y-48206588D01*
X140868108Y-48259994D01*
X140880060Y-48385928D01*
X140890180Y-48586583D01*
X140898544Y-48864154D01*
X140905226Y-49220833D01*
X140910299Y-49658816D01*
X140912352Y-49923276D01*
X140923433Y-51583309D01*
X141617473Y-49940705D01*
X141767423Y-49587606D01*
X141909257Y-49257038D01*
X142039200Y-48957557D01*
X142153472Y-48697717D01*
X142248298Y-48486074D01*
X142319899Y-48331183D01*
X142364498Y-48241599D01*
X142375451Y-48224017D01*
X142404285Y-48199275D01*
X142449746Y-48180682D01*
X142523042Y-48167381D01*
X142635375Y-48158514D01*
X142797953Y-48153223D01*
X143021979Y-48150649D01*
X143318658Y-48149936D01*
X143342994Y-48149934D01*
X144246600Y-48149934D01*
X144246600Y-48245940D01*
X144229455Y-48301165D01*
X144180097Y-48426198D01*
X144101637Y-48613904D01*
X143997186Y-48857146D01*
X143869858Y-49148786D01*
X143722763Y-49481690D01*
X143559015Y-49848720D01*
X143381724Y-50242740D01*
X143226710Y-50584740D01*
X143010407Y-51060954D01*
X142826987Y-51466330D01*
X142673935Y-51806944D01*
X142548738Y-52088871D01*
X142448882Y-52318187D01*
X142371856Y-52500969D01*
X142315144Y-52643290D01*
X142276234Y-52751227D01*
X142252613Y-52830855D01*
X142241766Y-52888251D01*
X142241182Y-52929489D01*
X142246327Y-52954651D01*
X142266752Y-53015347D01*
X142312825Y-53149074D01*
X142382152Y-53348977D01*
X142472342Y-53608197D01*
X142581004Y-53919877D01*
X142705746Y-54277161D01*
X142844176Y-54673190D01*
X142993901Y-55101108D01*
X143152532Y-55554058D01*
X143247652Y-55825469D01*
X143409292Y-56288425D01*
X143562029Y-56729490D01*
X143703609Y-57141930D01*
X143831781Y-57519008D01*
X143944292Y-57853990D01*
X144038887Y-58140138D01*
X144113316Y-58370718D01*
X144165324Y-58538994D01*
X144192659Y-58638229D01*
X144196284Y-58661803D01*
X144189536Y-58692797D01*
X144172061Y-58716140D01*
X144132962Y-58733106D01*
X144061340Y-58744968D01*
X143946301Y-58752999D01*
X143776947Y-58758471D01*
X143542380Y-58762659D01*
X143305539Y-58765873D01*
X143008746Y-58769162D01*
X142784990Y-58769714D01*
X142622663Y-58766744D01*
X142510161Y-58759469D01*
X142435874Y-58747103D01*
X142388197Y-58728862D01*
X142355522Y-58703962D01*
X142353039Y-58701488D01*
X142324384Y-58645917D01*
X142273405Y-58518406D01*
X142203188Y-58327779D01*
X142116818Y-58082861D01*
X142017383Y-57792475D01*
X141907966Y-57465445D01*
X141791655Y-57110596D01*
X141730696Y-56921818D01*
X141613903Y-56561228D01*
X141504195Y-56228147D01*
X141404376Y-55930682D01*
X141317254Y-55676943D01*
X141245633Y-55475037D01*
X141192320Y-55333071D01*
X141160121Y-55259153D01*
X141152325Y-55250537D01*
X141121838Y-55303950D01*
X141071563Y-55412824D01*
X141012335Y-55553685D01*
X141011812Y-55554982D01*
X140902267Y-55826864D01*
X140902267Y-57250432D01*
X140901386Y-57668348D01*
X140898609Y-58007480D01*
X140893733Y-58273690D01*
X140886557Y-58472846D01*
X140876879Y-58610809D01*
X140864496Y-58693447D01*
X140851466Y-58724800D01*
X140798800Y-58744958D01*
X140682865Y-58759747D01*
X140497887Y-58769517D01*
X140238086Y-58774619D01*
X140013266Y-58775600D01*
X139698720Y-58773503D01*
X139462964Y-58766977D01*
X139300221Y-58755674D01*
X139204715Y-58739241D01*
X139175067Y-58724800D01*
X139167178Y-58675321D01*
X139159897Y-58547444D01*
X139153221Y-58347436D01*
X139147152Y-58081563D01*
X139141689Y-57756091D01*
X139136832Y-57377288D01*
X139132582Y-56951420D01*
X139128938Y-56484754D01*
X139125900Y-55983556D01*
X139123469Y-55454092D01*
X139121644Y-54902629D01*
X139120425Y-54335435D01*
X139119813Y-53758775D01*
X139119806Y-53178915D01*
X139120406Y-52602124D01*
X139121612Y-52034666D01*
X139123425Y-51482809D01*
X139125843Y-50952819D01*
X139128868Y-50450963D01*
X139132499Y-49983508D01*
X139136737Y-49556720D01*
X139141581Y-49176865D01*
X139147031Y-48850210D01*
X139153087Y-48583022D01*
X139159750Y-48381567D01*
X139167019Y-48252112D01*
X139174895Y-48200924D01*
X139175067Y-48200733D01*
X139236716Y-48180602D01*
X139365743Y-48165116D01*
X139545684Y-48154216D01*
X139760073Y-48147846D01*
X139992445Y-48145948D01*
X140226336Y-48148464D01*
X140226336Y-48148464D01*
G37*
X140226336Y-48148464D02*
X140445280Y-48155338D01*
X140632814Y-48166512D01*
X140772472Y-48181928D01*
X140847790Y-48201529D01*
X140854252Y-48206588D01*
X140868108Y-48259994D01*
X140880060Y-48385928D01*
X140890180Y-48586583D01*
X140898544Y-48864154D01*
X140905226Y-49220833D01*
X140910299Y-49658816D01*
X140912352Y-49923276D01*
X140923433Y-51583309D01*
X141617473Y-49940705D01*
X141767423Y-49587606D01*
X141909257Y-49257038D01*
X142039200Y-48957557D01*
X142153472Y-48697717D01*
X142248298Y-48486074D01*
X142319899Y-48331183D01*
X142364498Y-48241599D01*
X142375451Y-48224017D01*
X142404285Y-48199275D01*
X142449746Y-48180682D01*
X142523042Y-48167381D01*
X142635375Y-48158514D01*
X142797953Y-48153223D01*
X143021979Y-48150649D01*
X143318658Y-48149936D01*
X143342994Y-48149934D01*
X144246600Y-48149934D01*
X144246600Y-48245940D01*
X144229455Y-48301165D01*
X144180097Y-48426198D01*
X144101637Y-48613904D01*
X143997186Y-48857146D01*
X143869858Y-49148786D01*
X143722763Y-49481690D01*
X143559015Y-49848720D01*
X143381724Y-50242740D01*
X143226710Y-50584740D01*
X143010407Y-51060954D01*
X142826987Y-51466330D01*
X142673935Y-51806944D01*
X142548738Y-52088871D01*
X142448882Y-52318187D01*
X142371856Y-52500969D01*
X142315144Y-52643290D01*
X142276234Y-52751227D01*
X142252613Y-52830855D01*
X142241766Y-52888251D01*
X142241182Y-52929489D01*
X142246327Y-52954651D01*
X142266752Y-53015347D01*
X142312825Y-53149074D01*
X142382152Y-53348977D01*
X142472342Y-53608197D01*
X142581004Y-53919877D01*
X142705746Y-54277161D01*
X142844176Y-54673190D01*
X142993901Y-55101108D01*
X143152532Y-55554058D01*
X143247652Y-55825469D01*
X143409292Y-56288425D01*
X143562029Y-56729490D01*
X143703609Y-57141930D01*
X143831781Y-57519008D01*
X143944292Y-57853990D01*
X144038887Y-58140138D01*
X144113316Y-58370718D01*
X144165324Y-58538994D01*
X144192659Y-58638229D01*
X144196284Y-58661803D01*
X144189536Y-58692797D01*
X144172061Y-58716140D01*
X144132962Y-58733106D01*
X144061340Y-58744968D01*
X143946301Y-58752999D01*
X143776947Y-58758471D01*
X143542380Y-58762659D01*
X143305539Y-58765873D01*
X143008746Y-58769162D01*
X142784990Y-58769714D01*
X142622663Y-58766744D01*
X142510161Y-58759469D01*
X142435874Y-58747103D01*
X142388197Y-58728862D01*
X142355522Y-58703962D01*
X142353039Y-58701488D01*
X142324384Y-58645917D01*
X142273405Y-58518406D01*
X142203188Y-58327779D01*
X142116818Y-58082861D01*
X142017383Y-57792475D01*
X141907966Y-57465445D01*
X141791655Y-57110596D01*
X141730696Y-56921818D01*
X141613903Y-56561228D01*
X141504195Y-56228147D01*
X141404376Y-55930682D01*
X141317254Y-55676943D01*
X141245633Y-55475037D01*
X141192320Y-55333071D01*
X141160121Y-55259153D01*
X141152325Y-55250537D01*
X141121838Y-55303950D01*
X141071563Y-55412824D01*
X141012335Y-55553685D01*
X141011812Y-55554982D01*
X140902267Y-55826864D01*
X140902267Y-57250432D01*
X140901386Y-57668348D01*
X140898609Y-58007480D01*
X140893733Y-58273690D01*
X140886557Y-58472846D01*
X140876879Y-58610809D01*
X140864496Y-58693447D01*
X140851466Y-58724800D01*
X140798800Y-58744958D01*
X140682865Y-58759747D01*
X140497887Y-58769517D01*
X140238086Y-58774619D01*
X140013266Y-58775600D01*
X139698720Y-58773503D01*
X139462964Y-58766977D01*
X139300221Y-58755674D01*
X139204715Y-58739241D01*
X139175067Y-58724800D01*
X139167178Y-58675321D01*
X139159897Y-58547444D01*
X139153221Y-58347436D01*
X139147152Y-58081563D01*
X139141689Y-57756091D01*
X139136832Y-57377288D01*
X139132582Y-56951420D01*
X139128938Y-56484754D01*
X139125900Y-55983556D01*
X139123469Y-55454092D01*
X139121644Y-54902629D01*
X139120425Y-54335435D01*
X139119813Y-53758775D01*
X139119806Y-53178915D01*
X139120406Y-52602124D01*
X139121612Y-52034666D01*
X139123425Y-51482809D01*
X139125843Y-50952819D01*
X139128868Y-50450963D01*
X139132499Y-49983508D01*
X139136737Y-49556720D01*
X139141581Y-49176865D01*
X139147031Y-48850210D01*
X139153087Y-48583022D01*
X139159750Y-48381567D01*
X139167019Y-48252112D01*
X139174895Y-48200924D01*
X139175067Y-48200733D01*
X139236716Y-48180602D01*
X139365743Y-48165116D01*
X139545684Y-48154216D01*
X139760073Y-48147846D01*
X139992445Y-48145948D01*
X140226336Y-48148464D01*
G36*
X150907506Y-48034121D02*
G01*
X151110462Y-48054188D01*
X151184413Y-48067802D01*
X151524881Y-48187267D01*
X151847866Y-48378476D01*
X152137541Y-48628522D01*
X152378076Y-48924499D01*
X152505179Y-49144767D01*
X152649767Y-49441100D01*
X152663232Y-50380152D01*
X152676698Y-51319205D01*
X152578565Y-51380833D01*
X152505941Y-51406960D01*
X152365035Y-51441390D01*
X152171449Y-51480909D01*
X151940780Y-51522299D01*
X151723458Y-51557118D01*
X151446450Y-51597999D01*
X151241901Y-51625174D01*
X151098854Y-51639441D01*
X151006353Y-51641595D01*
X150953441Y-51632434D01*
X150930356Y-51614771D01*
X150919162Y-51556353D01*
X150909312Y-51427266D01*
X150901386Y-51241502D01*
X150895963Y-51013055D01*
X150893625Y-50755920D01*
X150893581Y-50727393D01*
X150892817Y-50440387D01*
X150890248Y-50225437D01*
X150884690Y-50069935D01*
X150874959Y-49961272D01*
X150859874Y-49886840D01*
X150838250Y-49834030D01*
X150808905Y-49790235D01*
X150805194Y-49785476D01*
X150740588Y-49718942D01*
X150662734Y-49685479D01*
X150541193Y-49674458D01*
X150485770Y-49673933D01*
X150334764Y-49681785D01*
X150234765Y-49712100D01*
X150153011Y-49775023D01*
X150150176Y-49777843D01*
X150046267Y-49881752D01*
X150046267Y-57043782D01*
X150150176Y-57147691D01*
X150231885Y-57211895D01*
X150330731Y-57243148D01*
X150479475Y-57251593D01*
X150485770Y-57251600D01*
X150628614Y-57245692D01*
X150717635Y-57220883D01*
X150783273Y-57166542D01*
X150805194Y-57140058D01*
X150831351Y-57103153D01*
X150851733Y-57060010D01*
X150867065Y-57000290D01*
X150878074Y-56913657D01*
X150885485Y-56789773D01*
X150890023Y-56618301D01*
X150892414Y-56388903D01*
X150893383Y-56091243D01*
X150893581Y-55880641D01*
X150895158Y-55574100D01*
X150899276Y-55294010D01*
X150905552Y-55051998D01*
X150913600Y-54859692D01*
X150923037Y-54728720D01*
X150933479Y-54670710D01*
X150933548Y-54670598D01*
X150956836Y-54649305D01*
X151001877Y-54637326D01*
X151080356Y-54635160D01*
X151203963Y-54643301D01*
X151384383Y-54662245D01*
X151633303Y-54692490D01*
X151726425Y-54704266D01*
X152010429Y-54743357D01*
X152249851Y-54782261D01*
X152433276Y-54818833D01*
X152549290Y-54850930D01*
X152577733Y-54864152D01*
X152675483Y-54928200D01*
X152649767Y-57484434D01*
X152505179Y-57780767D01*
X152306969Y-58100545D01*
X152048886Y-58383144D01*
X151746760Y-58615657D01*
X151416419Y-58785178D01*
X151184413Y-58857731D01*
X151025139Y-58880869D01*
X150807184Y-58894382D01*
X150555037Y-58898638D01*
X150293187Y-58894005D01*
X150046121Y-58880850D01*
X149838329Y-58859542D01*
X149712029Y-58835607D01*
X149353385Y-58698105D01*
X149029124Y-58493198D01*
X148749917Y-58231954D01*
X148526437Y-57925439D01*
X148369355Y-57584720D01*
X148315202Y-57387100D01*
X148305752Y-57304667D01*
X148297413Y-57151972D01*
X148290165Y-56927353D01*
X148283989Y-56629152D01*
X148278864Y-56255708D01*
X148274770Y-55805363D01*
X148271689Y-55276455D01*
X148269599Y-54667326D01*
X148268481Y-53976315D01*
X148268267Y-53462767D01*
X148268739Y-52715549D01*
X148270171Y-52051333D01*
X148272580Y-51468458D01*
X148275989Y-50965266D01*
X148280415Y-50540097D01*
X148285880Y-50191290D01*
X148292402Y-49917186D01*
X148300002Y-49716125D01*
X148308700Y-49586448D01*
X148315202Y-49538434D01*
X148431919Y-49180885D01*
X148620868Y-48853509D01*
X148871972Y-48566636D01*
X149175154Y-48330595D01*
X149520337Y-48155718D01*
X149730247Y-48087827D01*
X149900977Y-48057736D01*
X150129984Y-48036964D01*
X150391351Y-48025866D01*
X150659164Y-48024799D01*
X150907506Y-48034121D01*
X150907506Y-48034121D01*
G37*
X150907506Y-48034121D02*
X151110462Y-48054188D01*
X151184413Y-48067802D01*
X151524881Y-48187267D01*
X151847866Y-48378476D01*
X152137541Y-48628522D01*
X152378076Y-48924499D01*
X152505179Y-49144767D01*
X152649767Y-49441100D01*
X152663232Y-50380152D01*
X152676698Y-51319205D01*
X152578565Y-51380833D01*
X152505941Y-51406960D01*
X152365035Y-51441390D01*
X152171449Y-51480909D01*
X151940780Y-51522299D01*
X151723458Y-51557118D01*
X151446450Y-51597999D01*
X151241901Y-51625174D01*
X151098854Y-51639441D01*
X151006353Y-51641595D01*
X150953441Y-51632434D01*
X150930356Y-51614771D01*
X150919162Y-51556353D01*
X150909312Y-51427266D01*
X150901386Y-51241502D01*
X150895963Y-51013055D01*
X150893625Y-50755920D01*
X150893581Y-50727393D01*
X150892817Y-50440387D01*
X150890248Y-50225437D01*
X150884690Y-50069935D01*
X150874959Y-49961272D01*
X150859874Y-49886840D01*
X150838250Y-49834030D01*
X150808905Y-49790235D01*
X150805194Y-49785476D01*
X150740588Y-49718942D01*
X150662734Y-49685479D01*
X150541193Y-49674458D01*
X150485770Y-49673933D01*
X150334764Y-49681785D01*
X150234765Y-49712100D01*
X150153011Y-49775023D01*
X150150176Y-49777843D01*
X150046267Y-49881752D01*
X150046267Y-57043782D01*
X150150176Y-57147691D01*
X150231885Y-57211895D01*
X150330731Y-57243148D01*
X150479475Y-57251593D01*
X150485770Y-57251600D01*
X150628614Y-57245692D01*
X150717635Y-57220883D01*
X150783273Y-57166542D01*
X150805194Y-57140058D01*
X150831351Y-57103153D01*
X150851733Y-57060010D01*
X150867065Y-57000290D01*
X150878074Y-56913657D01*
X150885485Y-56789773D01*
X150890023Y-56618301D01*
X150892414Y-56388903D01*
X150893383Y-56091243D01*
X150893581Y-55880641D01*
X150895158Y-55574100D01*
X150899276Y-55294010D01*
X150905552Y-55051998D01*
X150913600Y-54859692D01*
X150923037Y-54728720D01*
X150933479Y-54670710D01*
X150933548Y-54670598D01*
X150956836Y-54649305D01*
X151001877Y-54637326D01*
X151080356Y-54635160D01*
X151203963Y-54643301D01*
X151384383Y-54662245D01*
X151633303Y-54692490D01*
X151726425Y-54704266D01*
X152010429Y-54743357D01*
X152249851Y-54782261D01*
X152433276Y-54818833D01*
X152549290Y-54850930D01*
X152577733Y-54864152D01*
X152675483Y-54928200D01*
X152649767Y-57484434D01*
X152505179Y-57780767D01*
X152306969Y-58100545D01*
X152048886Y-58383144D01*
X151746760Y-58615657D01*
X151416419Y-58785178D01*
X151184413Y-58857731D01*
X151025139Y-58880869D01*
X150807184Y-58894382D01*
X150555037Y-58898638D01*
X150293187Y-58894005D01*
X150046121Y-58880850D01*
X149838329Y-58859542D01*
X149712029Y-58835607D01*
X149353385Y-58698105D01*
X149029124Y-58493198D01*
X148749917Y-58231954D01*
X148526437Y-57925439D01*
X148369355Y-57584720D01*
X148315202Y-57387100D01*
X148305752Y-57304667D01*
X148297413Y-57151972D01*
X148290165Y-56927353D01*
X148283989Y-56629152D01*
X148278864Y-56255708D01*
X148274770Y-55805363D01*
X148271689Y-55276455D01*
X148269599Y-54667326D01*
X148268481Y-53976315D01*
X148268267Y-53462767D01*
X148268739Y-52715549D01*
X148270171Y-52051333D01*
X148272580Y-51468458D01*
X148275989Y-50965266D01*
X148280415Y-50540097D01*
X148285880Y-50191290D01*
X148292402Y-49917186D01*
X148300002Y-49716125D01*
X148308700Y-49586448D01*
X148315202Y-49538434D01*
X148431919Y-49180885D01*
X148620868Y-48853509D01*
X148871972Y-48566636D01*
X149175154Y-48330595D01*
X149520337Y-48155718D01*
X149730247Y-48087827D01*
X149900977Y-48057736D01*
X150129984Y-48036964D01*
X150391351Y-48025866D01*
X150659164Y-48024799D01*
X150907506Y-48034121D01*
D10*
X98093533Y-64658980D02*
X97760200Y-64182790D01*
X97522104Y-64658980D02*
X97522104Y-63658980D01*
X97903057Y-63658980D01*
X97998295Y-63706600D01*
X98045914Y-63754219D01*
X98093533Y-63849457D01*
X98093533Y-63992314D01*
X98045914Y-64087552D01*
X97998295Y-64135171D01*
X97903057Y-64182790D01*
X97522104Y-64182790D01*
X99045914Y-64658980D02*
X98474485Y-64658980D01*
X98760200Y-64658980D02*
X98760200Y-63658980D01*
X98664961Y-63801838D01*
X98569723Y-63897076D01*
X98474485Y-63944695D01*
X87971333Y-54452380D02*
X87638000Y-53976190D01*
X87399904Y-54452380D02*
X87399904Y-53452380D01*
X87780857Y-53452380D01*
X87876095Y-53500000D01*
X87923714Y-53547619D01*
X87971333Y-53642857D01*
X87971333Y-53785714D01*
X87923714Y-53880952D01*
X87876095Y-53928571D01*
X87780857Y-53976190D01*
X87399904Y-53976190D01*
X88352285Y-53547619D02*
X88399904Y-53500000D01*
X88495142Y-53452380D01*
X88733238Y-53452380D01*
X88828476Y-53500000D01*
X88876095Y-53547619D01*
X88923714Y-53642857D01*
X88923714Y-53738095D01*
X88876095Y-53880952D01*
X88304666Y-54452380D01*
X88923714Y-54452380D01*
X216582666Y-105027380D02*
X216582666Y-105741666D01*
X216535047Y-105884523D01*
X216439809Y-105979761D01*
X216296952Y-106027380D01*
X216201714Y-106027380D01*
X217011238Y-105122619D02*
X217058857Y-105075000D01*
X217154095Y-105027380D01*
X217392190Y-105027380D01*
X217487428Y-105075000D01*
X217535047Y-105122619D01*
X217582666Y-105217857D01*
X217582666Y-105313095D01*
X217535047Y-105455952D01*
X216963619Y-106027380D01*
X217582666Y-106027380D01*
X210872380Y-131583333D02*
X211586666Y-131583333D01*
X211729523Y-131630952D01*
X211824761Y-131726190D01*
X211872380Y-131869047D01*
X211872380Y-131964285D01*
X211872380Y-130583333D02*
X211872380Y-131154761D01*
X211872380Y-130869047D02*
X210872380Y-130869047D01*
X211015238Y-130964285D01*
X211110476Y-131059523D01*
X211158095Y-131154761D01*
X79489466Y-57840180D02*
X79489466Y-56840180D01*
X79822800Y-57554466D01*
X80156133Y-56840180D01*
X80156133Y-57840180D01*
X80632323Y-57840180D02*
X80632323Y-56840180D01*
X80632323Y-57316371D02*
X81203752Y-57316371D01*
X81203752Y-57840180D02*
X81203752Y-56840180D01*
X81632323Y-56935419D02*
X81679942Y-56887800D01*
X81775180Y-56840180D01*
X82013276Y-56840180D01*
X82108514Y-56887800D01*
X82156133Y-56935419D01*
X82203752Y-57030657D01*
X82203752Y-57125895D01*
X82156133Y-57268752D01*
X81584704Y-57840180D01*
X82203752Y-57840180D01*
X79235466Y-143209580D02*
X79235466Y-142209580D01*
X79568800Y-142923866D01*
X79902133Y-142209580D01*
X79902133Y-143209580D01*
X80378323Y-143209580D02*
X80378323Y-142209580D01*
X80378323Y-142685771D02*
X80949752Y-142685771D01*
X80949752Y-143209580D02*
X80949752Y-142209580D01*
X81949752Y-143209580D02*
X81378323Y-143209580D01*
X81664038Y-143209580D02*
X81664038Y-142209580D01*
X81568800Y-142352438D01*
X81473561Y-142447676D01*
X81378323Y-142495295D01*
M02*
