G04 #@! TF.GenerationSoftware,KiCad,Pcbnew,(5.1.2)-2*
G04 #@! TF.CreationDate,2019-10-23T20:43:38+08:00*
G04 #@! TF.ProjectId,BrainPower,42726169-6e50-46f7-9765-722e6b696361,rev?*
G04 #@! TF.SameCoordinates,Original*
G04 #@! TF.FileFunction,Profile,NP*
%FSLAX46Y46*%
G04 Gerber Fmt 4.6, Leading zero omitted, Abs format (unit mm)*
G04 Created by KiCad (PCBNEW (5.1.2)-2) date 2019-10-23 20:43:38*
%MOMM*%
%LPD*%
G04 APERTURE LIST*
%ADD10C,0.100000*%
G04 APERTURE END LIST*
D10*
X131930000Y-155879600D02*
X138130000Y-155879600D01*
X138130000Y-155879600D02*
X138630000Y-155379600D01*
X131430000Y-155379600D02*
X131930000Y-155879600D01*
X129030000Y-155879600D02*
X129530000Y-155379600D01*
X131430000Y-155379600D02*
X131430000Y-148429600D01*
X138630000Y-155379600D02*
X138630000Y-143129600D01*
X118330000Y-155379600D02*
X118830000Y-155879600D01*
X73330000Y-151379600D02*
X73330000Y-44729600D01*
X138630000Y-143129600D02*
X223330000Y-142981680D01*
X129530000Y-155379600D02*
X129530000Y-148429600D01*
X114680000Y-151379600D02*
X114680000Y-144954600D01*
X118830000Y-155879600D02*
X129030000Y-155879600D01*
X106680000Y-151379600D02*
X114680000Y-151379600D01*
X88330000Y-151379600D02*
X88330000Y-143129600D01*
X88330000Y-143129600D02*
X106680000Y-143129600D01*
X223330000Y-142981680D02*
X223330000Y-44571920D01*
X106680000Y-151379600D02*
X106680000Y-143129600D01*
X73330000Y-151379600D02*
X88330000Y-151379600D01*
X73330000Y-44729600D02*
X223330000Y-44571920D01*
X129530000Y-148429600D02*
G75*
G02X131430000Y-148429600I950000J0D01*
G01*
X114680000Y-144954600D02*
G75*
G02X118330000Y-144954600I1825000J0D01*
G01*
X118330000Y-155379600D02*
X118330000Y-144954600D01*
M02*
