G04 #@! TF.GenerationSoftware,KiCad,Pcbnew,(5.1.2)-2*
G04 #@! TF.CreationDate,2019-10-15T01:23:37+08:00*
G04 #@! TF.ProjectId,BrainPower,42726169-6e50-46f7-9765-722e6b696361,rev?*
G04 #@! TF.SameCoordinates,Original*
G04 #@! TF.FileFunction,Soldermask,Top*
G04 #@! TF.FilePolarity,Negative*
%FSLAX46Y46*%
G04 Gerber Fmt 4.6, Leading zero omitted, Abs format (unit mm)*
G04 Created by KiCad (PCBNEW (5.1.2)-2) date 2019-10-15 01:23:37*
%MOMM*%
%LPD*%
G04 APERTURE LIST*
%ADD10C,1.600000*%
%ADD11O,2.000000X3.500000*%
%ADD12O,3.300000X2.000000*%
%ADD13R,4.000000X2.000000*%
%ADD14R,0.700000X4.200000*%
%ADD15R,0.700000X3.200000*%
%ADD16C,2.880000*%
%ADD17C,0.254000*%
G04 APERTURE END LIST*
D10*
X327660000Y133460000D03*
D11*
X323160000Y131460000D03*
X332160000Y131460000D03*
D12*
X327660000Y130460000D03*
D13*
X327660000Y124460000D03*
D14*
X145650000Y103500000D03*
X146650000Y103500000D03*
X153650000Y103500000D03*
X150650000Y103500000D03*
X147650000Y103500000D03*
X152650000Y103500000D03*
X148650000Y103500000D03*
X149650000Y103500000D03*
X151650000Y103500000D03*
X154650000Y103500000D03*
D15*
X163650000Y104000000D03*
D14*
X155650000Y103500000D03*
X159650000Y103500000D03*
X164650000Y103500000D03*
X160650000Y103500000D03*
X162650000Y103500000D03*
X161650000Y103500000D03*
X158650000Y103500000D03*
D16*
X107250000Y109350000D03*
X107500000Y194750000D03*
X336220000Y206130000D03*
X336220000Y116600000D03*
D17*
G36*
X165300000Y100500000D02*
G01*
X164800000Y100000000D01*
X158600000Y100000000D01*
X158100000Y100500000D01*
X158100000Y105598000D01*
X165300000Y105598000D01*
X165300000Y100500000D01*
X165300000Y100500000D01*
G37*
X165300000Y100500000D02*
X164800000Y100000000D01*
X158600000Y100000000D01*
X158100000Y100500000D01*
X158100000Y105598000D01*
X165300000Y105598000D01*
X165300000Y100500000D01*
G36*
X156200000Y100500000D02*
G01*
X155700000Y100000000D01*
X145500000Y100000000D01*
X145000000Y100500000D01*
X145000000Y105598000D01*
X156200000Y105598000D01*
X156200000Y100500000D01*
X156200000Y100500000D01*
G37*
X156200000Y100500000D02*
X155700000Y100000000D01*
X145500000Y100000000D01*
X145000000Y100500000D01*
X145000000Y105598000D01*
X156200000Y105598000D01*
X156200000Y100500000D01*
G36*
X141223000Y104627000D02*
G01*
X133477000Y104627000D01*
X133477000Y107823000D01*
X141223000Y107823000D01*
X141223000Y104627000D01*
X141223000Y104627000D01*
G37*
X141223000Y104627000D02*
X133477000Y104627000D01*
X133477000Y107823000D01*
X141223000Y107823000D01*
X141223000Y104627000D01*
M02*
