<?xml version="1.0" encoding="UTF-8" standalone="no"?>
<!DOCTYPE svg PUBLIC "-//W3C//DTD SVG 1.1//EN" "http://www.w3.org/Graphics/SVG/1.1/DTD/svg11.dtd">
<svg width="100%" height="100%" viewBox="0 0 1280 800" version="1.1" xmlns="http://www.w3.org/2000/svg" xmlns:xlink="http://www.w3.org/1999/xlink" xml:space="preserve" xmlns:serif="http://www.serif.com/" style="fill-rule:evenodd;clip-rule:evenodd;stroke-linejoin:round;stroke-miterlimit:2;">
    <g transform="matrix(1,0,0,1,-50.6754,188.975)">
        <g transform="matrix(288,0,0,288,48.0834,50.0652)">
            <path d="M0.821,0L0.668,0L0.602,-0.135L0.23,-0.135L0.163,0L0.009,0L0.417,-0.83L0.821,0ZM0.298,-0.274L0.534,-0.274L0.417,-0.515L0.298,-0.274Z" style="fill-rule:nonzero;"/>
        </g>
        <g transform="matrix(288,0,0,288,264.083,50.0652)">
            <path d="M0.483,-0.661L0.324,-0.661L0.324,0L0.186,0L0.186,-0.661L0.027,-0.661L0.027,-0.8L0.483,-0.8L0.483,-0.661Z" style="fill-rule:nonzero;"/>
        </g>
        <g transform="matrix(288,0,0,288,402.323,50.0652)">
            <path d="M0.156,-0.704C0.24,-0.788 0.341,-0.83 0.46,-0.83C0.579,-0.83 0.68,-0.788 0.764,-0.704C0.848,-0.62 0.89,-0.519 0.89,-0.4C0.89,-0.281 0.848,-0.18 0.764,-0.096C0.68,-0.012 0.579,0.03 0.46,0.03C0.341,0.03 0.24,-0.012 0.156,-0.096C0.072,-0.18 0.03,-0.281 0.03,-0.4C0.03,-0.519 0.072,-0.62 0.156,-0.704ZM0.667,-0.607C0.61,-0.664 0.541,-0.692 0.46,-0.692C0.379,-0.692 0.311,-0.664 0.254,-0.607C0.197,-0.55 0.168,-0.481 0.168,-0.4C0.168,-0.319 0.197,-0.251 0.254,-0.194C0.311,-0.137 0.379,-0.108 0.46,-0.108C0.541,-0.108 0.61,-0.137 0.667,-0.194C0.724,-0.251 0.752,-0.319 0.752,-0.4C0.752,-0.481 0.724,-0.55 0.667,-0.607Z" style="fill-rule:nonzero;"/>
        </g>
        <g transform="matrix(288,0,0,288,655.763,50.0652)">
            <path d="M1.05,0L0.907,0L0.802,-0.448L0.535,0.03L0.268,-0.448L0.163,0L0.02,0L0.218,-0.83L0.535,-0.257L0.857,-0.83L1.05,0Z" style="fill-rule:nonzero;"/>
        </g>
        <g transform="matrix(288,0,0,288,963.923,50.0652)">
            <rect x="0.063" y="-0.8" width="0.139" height="0.8" style="fill-rule:nonzero;"/>
        </g>
        <g transform="matrix(288,0,0,288,1040.24,50.0652)">
            <path d="M0.668,-0.193L0.765,-0.096C0.681,-0.012 0.58,0.03 0.461,0.03C0.342,0.03 0.241,-0.012 0.157,-0.096C0.073,-0.18 0.031,-0.281 0.031,-0.4C0.031,-0.519 0.073,-0.62 0.157,-0.704C0.241,-0.788 0.342,-0.83 0.461,-0.83C0.58,-0.83 0.681,-0.788 0.765,-0.704L0.668,-0.607C0.61,-0.664 0.541,-0.692 0.461,-0.692C0.38,-0.692 0.312,-0.664 0.255,-0.607C0.198,-0.55 0.169,-0.481 0.169,-0.4C0.169,-0.319 0.198,-0.251 0.255,-0.194C0.312,-0.137 0.38,-0.108 0.461,-0.108C0.541,-0.108 0.61,-0.136 0.668,-0.193Z" style="fill-rule:nonzero;"/>
        </g>
    </g>
</svg>
