<?xml version="1.0" encoding="UTF-8" standalone="no"?>
<svg
   xmlns:dc="http://purl.org/dc/elements/1.1/"
   xmlns:cc="http://creativecommons.org/ns#"
   xmlns:rdf="http://www.w3.org/1999/02/22-rdf-syntax-ns#"
   xmlns:svg="http://www.w3.org/2000/svg"
   xmlns="http://www.w3.org/2000/svg"
   xmlns:sodipodi="http://sodipodi.sourceforge.net/DTD/sodipodi-0.dtd"
   xmlns:inkscape="http://www.inkscape.org/namespaces/inkscape"
   sodipodi:docname="INNOVATOR.svg"
   id="svg40"
   style="clip-rule:evenodd;fill-rule:evenodd;stroke-linejoin:round;stroke-miterlimit:2"
   xml:space="preserve"
   version="1.1"
   viewBox="0 0 226.34956 88.136307"
   height="88.136307mm"
   width="226.34956mm"
   inkscape:version="0.92.4 (5da689c313, 2019-01-14)"><metadata
   id="metadata46"><rdf:RDF><cc:Work
       rdf:about=""><dc:format>image/svg+xml</dc:format><dc:type
         rdf:resource="http://purl.org/dc/dcmitype/StillImage" /></cc:Work></rdf:RDF></metadata><defs
   id="defs44" /><sodipodi:namedview
   pagecolor="#ffffff"
   bordercolor="#666666"
   borderopacity="1"
   objecttolerance="10"
   gridtolerance="10"
   guidetolerance="10"
   inkscape:pageopacity="0"
   inkscape:pageshadow="2"
   inkscape:window-width="3840"
   inkscape:window-height="2035"
   id="namedview42"
   showgrid="true"
   inkscape:zoom="1.18"
   inkscape:cx="408.99581"
   inkscape:cy="226.63591"
   inkscape:window-x="-13"
   inkscape:window-y="-13"
   inkscape:window-maximized="1"
   inkscape:current-layer="g901"
   borderlayer="true"
   inkscape:document-units="mm"><inkscape:grid
     id="grid882"
     units="mm"
     type="xygrid"
     empspacing="1"
     spacingy="2.54"
     spacingx="2.54"
     originx="-2.0124167"
     originy="-10.424727" /><inkscape:grid
     spacingx="2.54"
     spacingy="2.54"
     empspacing="1"
     type="xygrid"
     units="mm"
     id="grid920"
     originx="-2.0124167"
     originy="-10.424727" /><inkscape:grid
     id="grid1022"
     units="mm"
     type="xygrid"
     empspacing="1"
     spacingy="2.54"
     spacingx="2.54"
     originx="-2.0124167"
     originy="-10.424727" /></sodipodi:namedview>
    
<g
   id="g887"
   sodipodi:insensitive="true"
   inkscape:groupmode="layer"
   inkscape:label="[fixed] BG"
   transform="translate(-2.0124166,-1.4389654)"><rect
     id="rect885"
     style="fill:#ffffff;fill-opacity:1;stroke:none"
     height="100"
     width="100"
     y="0"
     x="0" /></g><g
   id="g889"
   inkscape:groupmode="layer"
   inkscape:label="Edge.Cuts"
   transform="translate(-2.0124166,-1.4389654)" /><g
   id="g891"
   inkscape:groupmode="layer"
   inkscape:label="B.Cu-disabled"
   transform="translate(-2.0124166,-1.4389654)" /><g
   id="g893"
   inkscape:groupmode="layer"
   inkscape:label="B.Mask-disabled"
   transform="translate(-2.0124166,-1.4389654)" /><g
   id="g895"
   inkscape:groupmode="layer"
   inkscape:label="B.Silk-disabled"
   transform="translate(-2.0124166,-1.4389654)" /><g
   id="g897"
   inkscape:groupmode="layer"
   inkscape:label="F.Cu"
   transform="translate(-2.0124166,-1.4389654)" /><g
   id="g899"
   inkscape:groupmode="layer"
   inkscape:label="F.Mask-disabled"
   transform="translate(-2.0124166,-1.4389654)" /><g
   id="g901"
   inkscape:groupmode="layer"
   inkscape:label="F.Silk"
   transform="translate(-2.0124166,-1.4389654)"><g
     style="clip-rule:evenodd;fill-rule:evenodd;stroke-linejoin:round;stroke-miterlimit:2"
     transform="matrix(0.25457324,-0.07208887,0.07208887,0.25457324,-7.8423245,80.950281)"
     id="g38"><g
       transform="matrix(144,0,0,144,48.0834,50.0652)"
       id="g4"><rect
         x="0.063000001"
         y="-0.80000001"
         width="0.139"
         height="0.80000001"
         style="fill-rule:nonzero"
         id="rect2" /></g><g
       transform="matrix(144,0,0,144,86.2434,50.0652)"
       id="g8"><path
         inkscape:connector-curvature="0"
         d="M 0.582,-0.306 V -0.8 H 0.72 V 0.03 L 0.199,-0.494 V 0 H 0.061 v -0.83 z"
         style="fill-rule:nonzero"
         id="path6" /></g><g
       transform="matrix(144,0,0,144,198.563,50.0652)"
       id="g12"><path
         inkscape:connector-curvature="0"
         d="M 0.582,-0.306 V -0.8 H 0.72 V 0.03 L 0.199,-0.494 V 0 H 0.061 v -0.83 z"
         style="fill-rule:nonzero"
         id="path10" /></g><g
       transform="matrix(144,0,0,144,310.883,50.0652)"
       id="g16"><path
         inkscape:connector-curvature="0"
         d="M 0.156,-0.704 C 0.24,-0.788 0.341,-0.83 0.46,-0.83 c 0.119,0 0.22,0.042 0.304,0.126 0.084,0.084 0.126,0.185 0.126,0.304 0,0.119 -0.042,0.22 -0.126,0.304 C 0.68,-0.012 0.579,0.03 0.46,0.03 0.341,0.03 0.24,-0.012 0.156,-0.096 0.072,-0.18 0.03,-0.281 0.03,-0.4 c 0,-0.119 0.042,-0.22 0.126,-0.304 z m 0.511,0.097 C 0.61,-0.664 0.541,-0.692 0.46,-0.692 c -0.081,0 -0.149,0.028 -0.206,0.085 -0.057,0.057 -0.086,0.126 -0.086,0.207 0,0.081 0.029,0.149 0.086,0.206 0.057,0.057 0.125,0.086 0.206,0.086 0.081,0 0.15,-0.029 0.207,-0.086 0.057,-0.057 0.085,-0.125 0.085,-0.206 0,-0.081 -0.028,-0.15 -0.085,-0.207 z"
         style="fill-rule:nonzero"
         id="path14" /></g><g
       transform="matrix(144,0,0,144,434.723,50.0652)"
       id="g20"><path
         inkscape:connector-curvature="0"
         d="M 0.375,0.03 0.012,-0.8 H 0.161 L 0.375,-0.322 0.59,-0.8 h 0.148 z"
         style="fill-rule:nonzero"
         id="path18" /></g><g
       transform="matrix(144,0,0,144,516.803,50.0652)"
       id="g24"><path
         inkscape:connector-curvature="0"
         d="M 0.821,0 H 0.668 L 0.602,-0.135 H 0.23 L 0.163,0 H 0.009 L 0.417,-0.83 Z M 0.298,-0.274 H 0.534 L 0.417,-0.515 Z"
         style="fill-rule:nonzero"
         id="path22" /></g><g
       transform="matrix(144,0,0,144,624.803,50.0652)"
       id="g28"><path
         inkscape:connector-curvature="0"
         d="M 0.483,-0.661 H 0.324 V 0 H 0.186 V -0.661 H 0.027 V -0.8 h 0.456 z"
         style="fill-rule:nonzero"
         id="path26" /></g><g
       transform="matrix(144,0,0,144,693.923,50.0652)"
       id="g32"><path
         inkscape:connector-curvature="0"
         d="M 0.156,-0.704 C 0.24,-0.788 0.341,-0.83 0.46,-0.83 c 0.119,0 0.22,0.042 0.304,0.126 0.084,0.084 0.126,0.185 0.126,0.304 0,0.119 -0.042,0.22 -0.126,0.304 C 0.68,-0.012 0.579,0.03 0.46,0.03 0.341,0.03 0.24,-0.012 0.156,-0.096 0.072,-0.18 0.03,-0.281 0.03,-0.4 c 0,-0.119 0.042,-0.22 0.126,-0.304 z m 0.511,0.097 C 0.61,-0.664 0.541,-0.692 0.46,-0.692 c -0.081,0 -0.149,0.028 -0.206,0.085 -0.057,0.057 -0.086,0.126 -0.086,0.207 0,0.081 0.029,0.149 0.086,0.206 0.057,0.057 0.125,0.086 0.206,0.086 0.081,0 0.15,-0.029 0.207,-0.086 0.057,-0.057 0.085,-0.125 0.085,-0.206 0,-0.081 -0.028,-0.15 -0.085,-0.207 z"
         style="fill-rule:nonzero"
         id="path30" /></g><g
       transform="matrix(144,0,0,144,826.403,50.0652)"
       id="g36"><path
         inkscape:connector-curvature="0"
         d="m 0.06,-0.8 h 0.226 c 0.069,0 0.127,0.024 0.176,0.073 0.048,0.049 0.072,0.109 0.072,0.178 0,0.049 -0.013,0.093 -0.038,0.134 -0.026,0.041 -0.06,0.071 -0.103,0.091 L 0.606,0 H 0.44 L 0.243,-0.3 H 0.199 V 0 H 0.06 Z m 0.139,0.139 v 0.223 h 0.086 c 0.031,0 0.057,-0.011 0.079,-0.032 0.021,-0.022 0.032,-0.048 0.032,-0.079 0,-0.031 -0.011,-0.057 -0.032,-0.079 C 0.342,-0.65 0.316,-0.661 0.285,-0.661 Z"
         style="fill-rule:nonzero"
         id="path34" /></g></g></g><g
   id="g903"
   inkscape:groupmode="layer"
   inkscape:label="Drill"
   transform="translate(-2.0124166,-1.4389654)" /></svg>