<?xml version="1.0" encoding="UTF-8" standalone="no"?>
<svg
   xmlns:dc="http://purl.org/dc/elements/1.1/"
   xmlns:cc="http://creativecommons.org/ns#"
   xmlns:rdf="http://www.w3.org/1999/02/22-rdf-syntax-ns#"
   xmlns:svg="http://www.w3.org/2000/svg"
   xmlns="http://www.w3.org/2000/svg"
   xmlns:sodipodi="http://sodipodi.sourceforge.net/DTD/sodipodi-0.dtd"
   xmlns:inkscape="http://www.inkscape.org/namespaces/inkscape"
   width="100.99068mm"
   height="46.622864mm"
   viewBox="0 0 100.99068 46.622864"
   version="1.1"
   xml:space="preserve"
   style="clip-rule:evenodd;fill-rule:evenodd;stroke-linejoin:round;stroke-miterlimit:2"
   id="svg46"
   sodipodi:docname="BRAIN POWER.svg"
   inkscape:version="0.92.4 (5da689c313, 2019-01-14)"><metadata
   id="metadata52"><rdf:RDF><cc:Work
       rdf:about=""><dc:format>image/svg+xml</dc:format><dc:type
         rdf:resource="http://purl.org/dc/dcmitype/StillImage" /></cc:Work></rdf:RDF></metadata><defs
   id="defs50" /><sodipodi:namedview
   pagecolor="#ffffff"
   bordercolor="#666666"
   borderopacity="1"
   objecttolerance="10"
   gridtolerance="10"
   guidetolerance="10"
   inkscape:pageopacity="0"
   inkscape:pageshadow="2"
   inkscape:window-width="3840"
   inkscape:window-height="2035"
   id="namedview48"
   showgrid="true"
   inkscape:zoom="1.18"
   inkscape:cx="495.74855"
   inkscape:cy="-37.069372"
   inkscape:window-x="-13"
   inkscape:window-y="-13"
   inkscape:window-maximized="1"
   inkscape:current-layer="g913"
   borderlayer="true"
   inkscape:document-units="mm"><inkscape:grid
     originy="-96.802891"
     originx="-5.6896021"
     id="grid894"
     units="mm"
     type="xygrid"
     empspacing="1"
     spacingy="2.54"
     spacingx="2.54" /><inkscape:grid
     originy="-96.802891"
     originx="-5.6896021"
     spacingx="2.54"
     spacingy="2.54"
     empspacing="1"
     type="xygrid"
     units="mm"
     id="grid932" /><inkscape:grid
     id="grid1078"
     units="mm"
     type="xygrid"
     empspacing="1"
     spacingy="2.54"
     spacingx="2.54"
     originx="2.3827999e-07"
     originy="-33.048892" /><inkscape:grid
     originy="-33.611695"
     originx="9.2602002e-07"
     spacingx="2.54"
     spacingy="2.54"
     empspacing="1"
     type="xygrid"
     units="mm"
     id="grid1141" /><inkscape:grid
     id="grid853"
     units="mm"
     type="xygrid"
     empspacing="1"
     spacingy="2.54"
     spacingx="2.54"
     originx="7.0817001e-07"
     originy="-33.377135" /></sodipodi:namedview>
    
    
<g
   id="g899"
   sodipodi:insensitive="true"
   inkscape:groupmode="layer"
   inkscape:label="[fixed] BG"
   transform="translate(-5.6896019,-2.9209192)"><rect
     id="rect897"
     style="fill:#ffffff;fill-opacity:1;stroke:none"
     height="100"
     width="300"
     y="0"
     x="0" /></g><g
   id="g901"
   inkscape:groupmode="layer"
   inkscape:label="Edge.Cuts"
   transform="translate(-5.6896019,-2.9209192)" /><g
   id="g903"
   inkscape:groupmode="layer"
   inkscape:label="B.Cu-disabled"
   transform="translate(-5.6896019,-2.9209192)" /><g
   id="g905"
   inkscape:groupmode="layer"
   inkscape:label="B.Mask-disabled"
   transform="translate(-5.6896019,-2.9209192)" /><g
   id="g907"
   inkscape:groupmode="layer"
   inkscape:label="B.Silk-disabled"
   transform="translate(-5.6896019,-2.9209192)" /><g
   id="g909"
   inkscape:groupmode="layer"
   inkscape:label="F.Cu"
   transform="translate(-5.6896019,-2.9209192)" /><g
   id="g911"
   inkscape:groupmode="layer"
   inkscape:label="F.Mask-disabled"
   transform="translate(-5.6896019,-2.9209192)" /><g
   id="g913"
   inkscape:groupmode="layer"
   inkscape:label="F.Silk"
   transform="translate(-5.6896019,-2.9209192)"
   style="display:inline"><g
     style="clip-rule:evenodd;fill-rule:evenodd;stroke-linejoin:round;stroke-miterlimit:2"
     transform="matrix(0.09252297,0,0,0.09252297,22.025182,20.405429)"
     id="g22"><g
       transform="matrix(288,0,0,288,48.0834,50.0652)"
       id="g4"><path
         inkscape:connector-curvature="0"
         d="m 0.06,-0.8 h 0.233 c 0.064,0 0.119,0.023 0.165,0.07 0.046,0.047 0.069,0.103 0.069,0.169 0,0.027 -0.006,0.053 -0.018,0.079 -0.011,0.026 -0.026,0.048 -0.044,0.065 0.026,0.018 0.045,0.044 0.059,0.078 0.013,0.035 0.019,0.068 0.019,0.1 0,0.066 -0.023,0.122 -0.069,0.169 C 0.429,-0.023 0.374,0 0.31,0 H 0.06 Z m 0.139,0.139 v 0.189 h 0.127 c 0.016,0 0.03,-0.01 0.043,-0.029 0.013,-0.019 0.019,-0.039 0.019,-0.06 0,-0.029 -0.009,-0.053 -0.026,-0.071 -0.018,-0.02 -0.041,-0.029 -0.069,-0.029 z m 0,0.328 v 0.194 H 0.31 c 0.027,0 0.05,-0.01 0.068,-0.029 0.017,-0.019 0.026,-0.043 0.026,-0.071 0,-0.021 -0.006,-0.042 -0.018,-0.063 C 0.373,-0.323 0.359,-0.333 0.343,-0.333 Z"
         style="fill-rule:nonzero"
         id="path2" /></g><g
       transform="matrix(288,0,0,288,213.683,50.0652)"
       id="g8"><path
         inkscape:connector-curvature="0"
         d="m 0.06,-0.8 h 0.226 c 0.069,0 0.127,0.024 0.176,0.073 0.048,0.049 0.072,0.109 0.072,0.178 0,0.049 -0.013,0.093 -0.038,0.134 -0.026,0.041 -0.06,0.071 -0.103,0.091 L 0.606,0 H 0.44 L 0.243,-0.3 H 0.199 V 0 H 0.06 Z m 0.139,0.139 v 0.223 h 0.086 c 0.031,0 0.057,-0.011 0.079,-0.032 0.021,-0.022 0.032,-0.048 0.032,-0.079 0,-0.031 -0.011,-0.057 -0.032,-0.079 C 0.342,-0.65 0.316,-0.661 0.285,-0.661 Z"
         style="fill-rule:nonzero"
         id="path6" /></g><g
       transform="matrix(288,0,0,288,392.243,50.0652)"
       id="g12"><path
         inkscape:connector-curvature="0"
         d="M 0.821,0 H 0.668 L 0.602,-0.135 H 0.23 L 0.163,0 H 0.009 L 0.417,-0.83 Z M 0.298,-0.274 H 0.534 L 0.417,-0.515 Z"
         style="fill-rule:nonzero"
         id="path10" /></g><g
       transform="matrix(288,0,0,288,631.283,50.0652)"
       id="g16"><rect
         x="0.063000001"
         y="-0.80000001"
         width="0.139"
         height="0.80000001"
         style="fill-rule:nonzero"
         id="rect14" /></g><g
       transform="matrix(288,0,0,288,707.603,50.0652)"
       id="g20"><path
         inkscape:connector-curvature="0"
         d="M 0.582,-0.306 V -0.8 H 0.72 V 0.03 L 0.199,-0.494 V 0 H 0.061 v -0.83 z"
         style="fill-rule:nonzero"
         id="path18" /></g></g><g
     style="clip-rule:evenodd;fill-rule:evenodd;stroke-linejoin:round;stroke-miterlimit:2"
     transform="matrix(0.09252297,0,0,0.09252297,-12.522527,4.4937932)"
     id="g44"><g
       transform="matrix(288,0,0,288,178.983,478.266)"
       id="g26"><path
         inkscape:connector-curvature="0"
         d="m 0.062,-0.8 h 0.246 c 0.075,0 0.139,0.027 0.192,0.08 0.053,0.053 0.079,0.118 0.079,0.193 0,0.075 -0.026,0.139 -0.079,0.192 -0.053,0.054 -0.118,0.08 -0.193,0.08 H 0.256 V 0 H 0.062 Z m 0.194,0.195 v 0.155 h 0.051 c 0.021,0 0.04,-0.008 0.055,-0.022 0.015,-0.016 0.023,-0.034 0.023,-0.055 0,-0.021 -0.008,-0.04 -0.023,-0.055 C 0.347,-0.597 0.328,-0.605 0.307,-0.605 Z"
         style="fill-rule:nonzero"
         id="path24" /></g><g
       transform="matrix(288,0,0,288,353.223,478.266)"
       id="g30"><path
         inkscape:connector-curvature="0"
         d="M 0.156,-0.704 C 0.24,-0.788 0.341,-0.83 0.46,-0.83 c 0.119,0 0.22,0.042 0.304,0.126 0.084,0.084 0.126,0.185 0.126,0.304 0,0.119 -0.042,0.22 -0.126,0.304 C 0.68,-0.012 0.579,0.03 0.46,0.03 0.341,0.03 0.24,-0.012 0.156,-0.096 0.072,-0.18 0.03,-0.281 0.03,-0.4 c 0,-0.119 0.042,-0.22 0.126,-0.304 z m 0.471,0.136 C 0.581,-0.614 0.525,-0.637 0.46,-0.637 c -0.065,0 -0.121,0.023 -0.167,0.069 -0.047,0.047 -0.07,0.103 -0.07,0.168 0,0.065 0.023,0.121 0.07,0.167 0.046,0.047 0.102,0.07 0.167,0.07 0.065,0 0.121,-0.023 0.167,-0.07 0.047,-0.046 0.07,-0.102 0.07,-0.167 0,-0.065 -0.023,-0.121 -0.07,-0.168 z"
         style="fill-rule:nonzero"
         id="path28" /></g><g
       transform="matrix(288,0,0,288,603.783,478.266)"
       id="g34"><path
         inkscape:connector-curvature="0"
         d="M 0.764,-0.446 0.899,-0.8 H 1.106 L 0.79,0.03 0.561,-0.412 0.331,0.029 0.015,-0.8 h 0.207 l 0.136,0.354 0.205,-0.384 z"
         style="fill-rule:nonzero"
         id="path32" /></g><g
       transform="matrix(288,0,0,288,926.343,478.266)"
       id="g38"><path
         inkscape:connector-curvature="0"
         d="M 0.542,-0.606 H 0.254 v 0.109 h 0.234 v 0.194 H 0.254 v 0.109 H 0.542 V 0 H 0.059 v -0.8 h 0.483 z"
         style="fill-rule:nonzero"
         id="path36" /></g><g
       transform="matrix(288,0,0,288,1099.14,478.266)"
       id="g42"><path
         inkscape:connector-curvature="0"
         d="m 0.061,-0.8 h 0.246 c 0.075,0 0.139,0.027 0.192,0.08 0.053,0.053 0.079,0.118 0.079,0.193 0,0.046 -0.011,0.089 -0.032,0.128 -0.022,0.039 -0.051,0.072 -0.088,0.097 L 0.657,0 H 0.424 L 0.256,-0.255 H 0.255 V 0 H 0.061 Z m 0.194,0.195 v 0.155 h 0.051 c 0.021,0 0.04,-0.008 0.055,-0.022 0.015,-0.016 0.023,-0.034 0.023,-0.055 0,-0.021 -0.008,-0.04 -0.023,-0.055 C 0.346,-0.597 0.327,-0.605 0.306,-0.605 Z"
         style="fill-rule:nonzero"
         id="path40" /></g></g></g><g
   id="g915"
   inkscape:groupmode="layer"
   inkscape:label="Drill"
   transform="translate(-5.6896019,-2.9209192)" /></svg>