<?xml version="1.0" encoding="UTF-8" standalone="no"?>
<svg
   xmlns:dc="http://purl.org/dc/elements/1.1/"
   xmlns:cc="http://creativecommons.org/ns#"
   xmlns:rdf="http://www.w3.org/1999/02/22-rdf-syntax-ns#"
   xmlns:svg="http://www.w3.org/2000/svg"
   xmlns="http://www.w3.org/2000/svg"
   xmlns:sodipodi="http://sodipodi.sourceforge.net/DTD/sodipodi-0.dtd"
   xmlns:inkscape="http://www.inkscape.org/namespaces/inkscape"
   width="19.695953mm"
   height="10.886724mm"
   viewBox="0 0 19.695953 10.886724"
   version="1.1"
   xml:space="preserve"
   style="clip-rule:evenodd;fill-rule:evenodd;stroke-linejoin:round;stroke-miterlimit:2"
   id="svg20"
   sodipodi:docname="KICK.svg"
   inkscape:version="0.92.4 (5da689c313, 2019-01-14)"><metadata
   id="metadata26"><rdf:RDF><cc:Work
       rdf:about=""><dc:format>image/svg+xml</dc:format><dc:type
         rdf:resource="http://purl.org/dc/dcmitype/StillImage" /></cc:Work></rdf:RDF></metadata><defs
   id="defs24" /><sodipodi:namedview
   pagecolor="#ffffff"
   bordercolor="#666666"
   borderopacity="1"
   objecttolerance="10"
   gridtolerance="10"
   guidetolerance="10"
   inkscape:pageopacity="0"
   inkscape:pageshadow="2"
   inkscape:window-width="3840"
   inkscape:window-height="2035"
   id="namedview22"
   showgrid="true"
   inkscape:zoom="1.668772"
   inkscape:cx="67.525303"
   inkscape:cy="-318.19098"
   inkscape:window-x="-13"
   inkscape:window-y="-13"
   inkscape:window-maximized="1"
   inkscape:current-layer="g858"
   borderlayer="true"
   inkscape:document-units="mm"><inkscape:grid
     originy="-113.42107"
     originx="-1.0669061"
     spacingx="2.54"
     spacingy="2.54"
     empspacing="1"
     type="xygrid"
     units="mm"
     id="grid839" /><inkscape:grid
     id="grid837"
     units="mm"
     type="xygrid"
     empspacing="1"
     spacingy="2.54"
     spacingx="2.54"
     originx="9.3464998e-07"
     originy="-88.732273" /></sodipodi:namedview>
    
<g
   id="g844"
   sodipodi:insensitive="true"
   inkscape:groupmode="layer"
   inkscape:label="[fixed] BG"
   transform="translate(-1.0669061,-21.2854)"><rect
     id="rect842"
     style="fill:#ffffff;fill-opacity:1;stroke:none"
     height="100"
     width="100"
     y="0"
     x="0" /></g><g
   id="g846"
   inkscape:groupmode="layer"
   inkscape:label="Edge.Cuts"
   transform="translate(-1.0669061,-21.2854)" /><g
   id="g848"
   inkscape:groupmode="layer"
   inkscape:label="B.Cu-disabled"
   transform="translate(-1.0669061,-21.2854)" /><g
   id="g850"
   inkscape:groupmode="layer"
   inkscape:label="B.Mask-disabled"
   transform="translate(-1.0669061,-21.2854)" /><g
   id="g852"
   inkscape:groupmode="layer"
   inkscape:label="B.Silk-disabled"
   transform="translate(-1.0669061,-21.2854)" /><g
   id="g854"
   inkscape:groupmode="layer"
   inkscape:label="F.Cu"
   transform="translate(-1.0669061,-21.2854)" /><g
   id="g856"
   inkscape:groupmode="layer"
   inkscape:label="F.Mask-disabled"
   transform="translate(-1.0669061,-21.2854)" /><g
   id="g858"
   inkscape:groupmode="layer"
   inkscape:label="F.Silk"
   transform="translate(-1.0669061,-21.2854)"><g
     style="clip-rule:evenodd;fill-rule:evenodd;stroke-linejoin:round;stroke-miterlimit:2"
     transform="matrix(0.05294275,0,0,0.05294275,-2.1648994,29.414802)"
     id="g18"><g
       transform="matrix(288,0,0,288,48.0834,50.0652)"
       id="g4"><path
         d="m 0.373,-0.7 c 0.004,0 0.007,0.001 0.008,0.004 0.001,0.003 0.001,0.007 0,0.01 l -0.134,0.295 0.132,0.377 C 0.38,-0.011 0.38,-0.008 0.378,-0.005 0.376,-0.002 0.373,0 0.369,0 H 0.27 C 0.266,0 0.262,-0.001 0.259,-0.004 0.256,-0.006 0.253,-0.009 0.252,-0.012 L 0.179,-0.238 0.162,-0.196 v 0.182 C 0.162,-0.005 0.157,0 0.148,0 H 0.059 C 0.05,0 0.045,-0.005 0.045,-0.014 V -0.686 C 0.045,-0.695 0.05,-0.7 0.059,-0.7 h 0.089 c 0.009,0 0.014,0.005 0.014,0.014 v 0.215 L 0.254,-0.688 C 0.257,-0.696 0.264,-0.7 0.273,-0.7 Z"
         style="fill-rule:nonzero"
         id="path2"
         inkscape:connector-curvature="0" /></g><g
       transform="matrix(288,0,0,288,164.147,50.0652)"
       id="g8"><path
         d="M 0.162,-0.014 C 0.162,-0.005 0.157,0 0.148,0 H 0.059 C 0.05,0 0.045,-0.005 0.045,-0.014 V -0.686 C 0.045,-0.695 0.05,-0.7 0.059,-0.7 h 0.089 c 0.009,0 0.014,0.005 0.014,0.014 z"
         style="fill-rule:nonzero"
         id="path6"
         inkscape:connector-curvature="0" /></g><g
       transform="matrix(288,0,0,288,223.763,50.0652)"
       id="g12"><path
         d="m 0.199,-0.707 c 0.017,0 0.034,0.003 0.049,0.01 0.015,0.007 0.029,0.016 0.04,0.027 0.011,0.011 0.02,0.025 0.027,0.04 0.007,0.015 0.01,0.032 0.01,0.049 v 0.08 c 0,0.009 -0.004,0.015 -0.013,0.018 L 0.221,-0.469 C 0.212,-0.466 0.208,-0.47 0.208,-0.479 V -0.576 C 0.208,-0.583 0.206,-0.588 0.201,-0.593 0.196,-0.598 0.191,-0.6 0.184,-0.6 H 0.176 c -0.007,0 -0.012,0.002 -0.017,0.007 -0.005,0.005 -0.007,0.01 -0.007,0.017 v 0.452 c 0,0.007 0.002,0.012 0.007,0.017 0.005,0.005 0.01,0.007 0.017,0.007 h 0.008 c 0.007,0 0.012,-0.002 0.017,-0.007 0.005,-0.005 0.007,-0.01 0.007,-0.017 v -0.14 c 0,-0.009 0.004,-0.013 0.013,-0.01 l 0.091,0.012 c 0.009,0.003 0.013,0.009 0.013,0.018 v 0.125 c 0,0.017 -0.003,0.034 -0.01,0.049 -0.007,0.015 -0.016,0.029 -0.027,0.04 -0.011,0.011 -0.025,0.02 -0.04,0.027 -0.015,0.007 -0.032,0.01 -0.049,0.01 H 0.161 C 0.144,0.007 0.127,0.004 0.112,-0.003 0.097,-0.01 0.083,-0.019 0.072,-0.03 0.061,-0.041 0.052,-0.055 0.045,-0.07 0.038,-0.085 0.035,-0.102 0.035,-0.119 v -0.462 c 0,-0.017 0.003,-0.034 0.01,-0.049 0.007,-0.015 0.016,-0.029 0.027,-0.04 0.011,-0.011 0.025,-0.02 0.04,-0.027 0.015,-0.007 0.032,-0.01 0.049,-0.01 z"
         style="fill-rule:nonzero"
         id="path10"
         inkscape:connector-curvature="0" /></g><g
       transform="matrix(288,0,0,288,323.123,50.0652)"
       id="g16"><path
         d="m 0.373,-0.7 c 0.004,0 0.007,0.001 0.008,0.004 0.001,0.003 0.001,0.007 0,0.01 l -0.134,0.295 0.132,0.377 C 0.38,-0.011 0.38,-0.008 0.378,-0.005 0.376,-0.002 0.373,0 0.369,0 H 0.27 C 0.266,0 0.262,-0.001 0.259,-0.004 0.256,-0.006 0.253,-0.009 0.252,-0.012 L 0.179,-0.238 0.162,-0.196 v 0.182 C 0.162,-0.005 0.157,0 0.148,0 H 0.059 C 0.05,0 0.045,-0.005 0.045,-0.014 V -0.686 C 0.045,-0.695 0.05,-0.7 0.059,-0.7 h 0.089 c 0.009,0 0.014,0.005 0.014,0.014 v 0.215 L 0.254,-0.688 C 0.257,-0.696 0.264,-0.7 0.273,-0.7 Z"
         style="fill-rule:nonzero"
         id="path14"
         inkscape:connector-curvature="0" /></g></g></g><g
   id="g860"
   inkscape:groupmode="layer"
   inkscape:label="Drill"
   transform="translate(-1.0669061,-21.2854)" /></svg>