<?xml version="1.0" encoding="UTF-8" standalone="no"?>
<svg
   xmlns:dc="http://purl.org/dc/elements/1.1/"
   xmlns:cc="http://creativecommons.org/ns#"
   xmlns:rdf="http://www.w3.org/1999/02/22-rdf-syntax-ns#"
   xmlns:svg="http://www.w3.org/2000/svg"
   xmlns="http://www.w3.org/2000/svg"
   xmlns:sodipodi="http://sodipodi.sourceforge.net/DTD/sodipodi-0.dtd"
   xmlns:inkscape="http://www.inkscape.org/namespaces/inkscape"
   width="24.469849mm"
   height="9.9723091mm"
   viewBox="0 0 24.469849 9.9723091"
   version="1.1"
   xml:space="preserve"
   style="clip-rule:evenodd;fill-rule:evenodd;stroke-linejoin:round;stroke-miterlimit:2"
   id="svg24"
   sodipodi:docname="SNARE.svg"
   inkscape:version="0.92.4 (5da689c313, 2019-01-14)"><metadata
   id="metadata30"><rdf:RDF><cc:Work
       rdf:about=""><dc:format>image/svg+xml</dc:format><dc:type
         rdf:resource="http://purl.org/dc/dcmitype/StillImage" /></cc:Work></rdf:RDF></metadata><defs
   id="defs28" /><sodipodi:namedview
   pagecolor="#ffffff"
   bordercolor="#666666"
   borderopacity="1"
   objecttolerance="10"
   gridtolerance="10"
   guidetolerance="10"
   inkscape:pageopacity="0"
   inkscape:pageshadow="2"
   inkscape:window-width="3840"
   inkscape:window-height="2035"
   id="namedview26"
   showgrid="true"
   inkscape:zoom="2.36"
   inkscape:cx="311.18188"
   inkscape:cy="-32.340826"
   inkscape:window-x="-13"
   inkscape:window-y="-13"
   inkscape:window-maximized="1"
   inkscape:current-layer="g880"
   borderlayer="true"
   inkscape:document-units="mm"><inkscape:grid
     originy="-45.16349"
     originx="-0.17790734"
     spacingx="2.54"
     spacingy="2.54"
     empspacing="1"
     type="xygrid"
     units="mm"
     id="grid861" /><inkscape:grid
     id="grid925"
     units="mm"
     type="xygrid"
     empspacing="1"
     spacingy="2.54"
     spacingx="2.54"
     originx="-2.7406001e-07"
     originy="-0.027691743" /></sodipodi:namedview>
    
<g
   id="g866"
   sodipodi:insensitive="true"
   inkscape:groupmode="layer"
   inkscape:label="[fixed] BG"
   transform="translate(-0.17790733,-0.45740036)"><rect
     id="rect864"
     style="fill:#ffffff;fill-opacity:1;stroke:none"
     height="100"
     width="120"
     y="0"
     x="0" /></g><g
   id="g868"
   inkscape:groupmode="layer"
   inkscape:label="Edge.Cuts"
   transform="translate(-0.17790733,-0.45740036)" /><g
   id="g870"
   inkscape:groupmode="layer"
   inkscape:label="B.Cu-disabled"
   transform="translate(-0.17790733,-0.45740036)" /><g
   id="g872"
   inkscape:groupmode="layer"
   inkscape:label="B.Mask-disabled"
   transform="translate(-0.17790733,-0.45740036)" /><g
   id="g874"
   inkscape:groupmode="layer"
   inkscape:label="B.Silk-disabled"
   transform="translate(-0.17790733,-0.45740036)" /><g
   id="g876"
   inkscape:groupmode="layer"
   inkscape:label="F.Cu"
   transform="translate(-0.17790733,-0.45740036)" /><g
   id="g878"
   inkscape:groupmode="layer"
   inkscape:label="F.Mask-disabled"
   transform="translate(-0.17790733,-0.45740036)" /><g
   id="g880"
   inkscape:groupmode="layer"
   inkscape:label="F.Silk"
   transform="translate(-0.17790733,-0.45740036)"><g
     style="clip-rule:evenodd;fill-rule:evenodd;stroke-linejoin:round;stroke-miterlimit:2"
     transform="matrix(0.0484959,0,0,0.0484959,-2.572945,7.9039846)"
     id="g22"><g
       transform="matrix(288,0,0,288,48.0834,50.0652)"
       id="g4"><path
         inkscape:connector-curvature="0"
         d="m 0.194,-0.707 c 0.017,0 0.034,0.003 0.049,0.01 0.015,0.007 0.029,0.016 0.04,0.027 0.011,0.011 0.02,0.025 0.027,0.04 0.007,0.015 0.01,0.032 0.01,0.049 v 0.038 c 0,0.009 -0.004,0.015 -0.013,0.018 L 0.216,-0.501 C 0.207,-0.498 0.203,-0.502 0.203,-0.511 V -0.576 C 0.203,-0.583 0.201,-0.588 0.196,-0.593 0.191,-0.598 0.186,-0.6 0.179,-0.6 H 0.171 c -0.007,0 -0.012,0.002 -0.017,0.007 -0.005,0.005 -0.007,0.01 -0.007,0.017 v 0.091 c 0.001,0.007 0.002,0.014 0.004,0.019 0.002,0.005 0.006,0.011 0.011,0.016 l 0.131,0.098 c 0.011,0.009 0.018,0.019 0.021,0.028 0.003,0.01 0.005,0.021 0.006,0.033 v 0.172 c 0,0.017 -0.003,0.034 -0.01,0.049 -0.007,0.015 -0.016,0.029 -0.027,0.04 -0.011,0.011 -0.025,0.02 -0.04,0.027 -0.015,0.007 -0.032,0.01 -0.049,0.01 H 0.156 C 0.139,0.007 0.122,0.004 0.107,-0.003 0.092,-0.01 0.078,-0.019 0.067,-0.03 0.056,-0.041 0.047,-0.055 0.04,-0.07 0.033,-0.085 0.03,-0.102 0.03,-0.119 v -0.096 c 0,-0.009 0.004,-0.015 0.013,-0.018 l 0.091,-0.024 c 0.009,-0.003 0.013,0.001 0.013,0.01 v 0.123 c 0,0.007 0.002,0.012 0.007,0.017 0.005,0.005 0.01,0.007 0.017,0.007 h 0.008 c 0.007,0 0.012,-0.002 0.017,-0.007 0.005,-0.005 0.007,-0.01 0.007,-0.017 V -0.256 C 0.202,-0.265 0.201,-0.272 0.199,-0.279 0.197,-0.286 0.193,-0.292 0.187,-0.297 L 0.058,-0.396 C 0.048,-0.405 0.041,-0.415 0.037,-0.424 0.032,-0.433 0.03,-0.446 0.03,-0.461 v -0.12 c 0,-0.017 0.003,-0.034 0.01,-0.049 0.007,-0.015 0.016,-0.029 0.027,-0.04 0.011,-0.011 0.025,-0.02 0.04,-0.027 0.015,-0.007 0.032,-0.01 0.049,-0.01 z"
         style="fill-rule:nonzero"
         id="path2" /></g><g
       transform="matrix(288,0,0,288,148.883,50.0652)"
       id="g8"><path
         inkscape:connector-curvature="0"
         d="m 0.351,-0.7 c 0.009,0 0.014,0.005 0.014,0.014 v 0.672 C 0.365,-0.005 0.36,0 0.351,0 H 0.287 C 0.283,0 0.279,-0.001 0.276,-0.004 0.272,-0.007 0.269,-0.01 0.268,-0.013 L 0.162,-0.344 v 0.33 C 0.162,-0.005 0.157,0 0.148,0 H 0.059 C 0.05,0 0.045,-0.005 0.045,-0.014 V -0.686 C 0.045,-0.695 0.05,-0.7 0.059,-0.7 h 0.066 c 0.004,0 0.008,0.001 0.012,0.004 0.003,0.003 0.006,0.006 0.007,0.009 l 0.104,0.321 v -0.32 c 0,-0.009 0.005,-0.014 0.014,-0.014 z"
         style="fill-rule:nonzero"
         id="path6" /></g><g
       transform="matrix(288,0,0,288,266.963,50.0652)"
       id="g12"><path
         inkscape:connector-curvature="0"
         d="M 0.335,-0.014 C 0.336,-0.005 0.332,0 0.323,0 H 0.232 C 0.223,0 0.218,-0.005 0.217,-0.014 L 0.209,-0.122 H 0.147 L 0.139,-0.014 C 0.138,-0.005 0.133,0 0.124,0 H 0.033 C 0.024,0 0.02,-0.005 0.021,-0.014 L 0.096,-0.686 C 0.097,-0.695 0.103,-0.7 0.112,-0.7 h 0.132 c 0.009,0 0.015,0.005 0.016,0.014 z M 0.201,-0.234 0.182,-0.505 H 0.174 l -0.019,0.271 z"
         style="fill-rule:nonzero"
         id="path10" /></g><g
       transform="matrix(288,0,0,288,369.491,50.0652)"
       id="g16"><path
         inkscape:connector-curvature="0"
         d="M 0.354,-0.014 C 0.356,-0.005 0.353,0 0.344,0 H 0.253 C 0.249,0 0.245,-0.001 0.242,-0.004 0.238,-0.007 0.235,-0.01 0.234,-0.014 L 0.161,-0.259 V -0.01 C 0.159,-0.003 0.154,0 0.147,0 H 0.058 C 0.049,0 0.044,-0.005 0.044,-0.014 v -0.672 c 0,-0.009 0.005,-0.014 0.014,-0.014 h 0.15 c 0.017,0 0.034,0.003 0.049,0.01 0.015,0.007 0.029,0.016 0.04,0.027 0.011,0.011 0.02,0.025 0.027,0.04 0.007,0.015 0.01,0.032 0.01,0.049 v 0.163 c 0,0.025 -0.006,0.047 -0.019,0.067 -0.013,0.019 -0.029,0.034 -0.05,0.045 z M 0.161,-0.392 h 0.032 c 0.007,0 0.012,-0.002 0.017,-0.007 0.005,-0.005 0.007,-0.01 0.007,-0.017 V -0.569 C 0.217,-0.576 0.215,-0.581 0.21,-0.586 0.205,-0.591 0.2,-0.593 0.193,-0.593 H 0.161 Z"
         style="fill-rule:nonzero"
         id="path14" /></g><g
       transform="matrix(288,0,0,288,477.779,50.0652)"
       id="g20"><path
         inkscape:connector-curvature="0"
         d="m 0.276,-0.117 c 0.009,0 0.014,0.005 0.014,0.014 v 0.089 C 0.29,-0.005 0.285,0 0.276,0 H 0.059 C 0.05,0 0.045,-0.005 0.045,-0.014 V -0.686 C 0.045,-0.695 0.05,-0.7 0.059,-0.7 h 0.217 c 0.009,0 0.014,0.005 0.014,0.014 v 0.089 c 0,0.009 -0.005,0.014 -0.014,0.014 H 0.162 v 0.144 h 0.099 c 0.009,0 0.014,0.005 0.014,0.014 v 0.089 c 0,0.009 -0.005,0.014 -0.014,0.014 H 0.162 v 0.205 z"
         style="fill-rule:nonzero"
         id="path18" /></g></g></g><g
   id="g882"
   inkscape:groupmode="layer"
   inkscape:label="Drill"
   transform="translate(-0.17790733,-0.45740036)" /></svg>